<?xml version="1.0" encoding="utf-8"?>
<!-- Generator: Adobe Illustrator 16.0.4, SVG Export Plug-In . SVG Version: 6.00 Build 0)  -->
<!DOCTYPE svg PUBLIC "-//W3C//DTD SVG 1.1//EN" "http://www.w3.org/Graphics/SVG/1.1/DTD/svg11.dtd">
<svg version="1.1" id="Layer_1" xmlns="http://www.w3.org/2000/svg" xmlns:xlink="http://www.w3.org/1999/xlink" x="0px" y="0px"
	 width="365px" height="300px" viewBox="0 0 365 300" enable-background="new 0 0 365 300" xml:space="preserve">
<g id="mobile">
</g>
<g>
	<g id="altac-subhead">
		<g id="altac-subhead-project">
			<path id="path3524" fill="#555555" d="M256.772,88.085h-2.133V62.414h2.133v3.229h0.063c0.311-0.592,0.703-1.126,1.192-1.598
				c0.485-0.474,1.018-0.865,1.601-1.173c0.581-0.308,1.174-0.554,1.79-0.719c0.618-0.166,1.218-0.248,1.812-0.248
				c1.498,0,2.766,0.248,3.808,0.747c1.048,0.505,1.905,1.177,2.574,2.041c0.677,0.866,1.17,1.891,1.474,3.078
				c0.308,1.185,0.469,2.45,0.469,3.803c0,1.289-0.17,2.521-0.502,3.696c-0.333,1.185-0.837,2.224-1.51,3.109
				c-0.68,0.885-1.528,1.6-2.561,2.134s-2.244,0.801-3.644,0.801c-1.297,0-2.556-0.292-3.748-0.872
				c-1.199-0.581-2.141-1.44-2.824-2.577V88.07L256.772,88.085L256.772,88.085z M256.772,71.688c0,1.049,0.142,2.037,0.428,2.968
				c0.286,0.938,0.69,1.756,1.225,2.456c0.532,0.7,1.188,1.251,1.951,1.665c0.771,0.421,1.644,0.63,2.614,0.63
				c1.09,0,2.037-0.229,2.858-0.661c0.82-0.437,1.492-1.044,2.008-1.795c0.519-0.754,0.904-1.639,1.135-2.649
				c0.234-1.01,0.333-2.091,0.285-3.257c0-1.166-0.158-2.193-0.475-3.072c-0.324-0.889-0.762-1.64-1.341-2.257
				c-0.566-0.616-1.229-1.091-1.992-1.403c-0.762-0.32-1.586-0.479-2.488-0.479c-1.001,0-1.887,0.201-2.665,0.602
				c-0.783,0.402-1.432,0.955-1.956,1.655c-0.515,0.698-0.919,1.528-1.188,2.487c-0.271,0.965-0.393,2.014-0.393,3.132h-0.01
				L256.772,71.688z"/>
			<path id="path3526" fill="#555555" d="M278.353,80.829h-2.132V62.416h2.132v3.442h0.069c0.6-1.461,1.357-2.488,2.294-3.068
				c0.934-0.586,2.173-0.875,3.718-0.875v2.315c-1.212-0.023-2.202,0.166-2.981,0.563c-0.783,0.399-1.405,0.947-1.872,1.631
				c-0.464,0.688-0.781,1.503-0.962,2.438c-0.185,0.936-0.27,1.914-0.27,2.939v9.025h-0.01h0.01L278.353,80.829z"/>
			<path id="path3528" fill="#555555" d="M294.63,81.324c-1.183-0.019-2.288-0.232-3.323-0.637
				c-1.029-0.399-1.934-1.008-2.697-1.811c-0.764-0.807-1.378-1.815-1.827-3.023c-0.45-1.208-0.684-2.614-0.684-4.231
				c0-1.347,0.185-2.611,0.536-3.787c0.352-1.171,0.884-2.197,1.599-3.07c0.716-0.881,1.6-1.573,2.663-2.08
				c1.068-0.511,2.314-0.758,3.732-0.758c1.446,0,2.703,0.255,3.769,0.758c1.066,0.515,1.951,1.199,2.665,2.062
				c0.711,0.865,1.236,1.891,1.585,3.076c0.345,1.187,0.512,2.452,0.512,3.807c0,1.464-0.198,2.797-0.599,3.977
				c-0.403,1.185-0.977,2.206-1.724,3.066c-0.749,0.842-1.65,1.499-2.705,1.972c-1.037,0.474-2.197,0.702-3.48,0.702h-0.013
				L294.63,81.324z M300.889,71.621c0-1.089-0.115-2.111-0.35-3.06c-0.237-0.949-0.605-1.771-1.101-2.472
				c-0.501-0.698-1.138-1.255-1.922-1.653c-0.781-0.401-1.74-0.604-2.881-0.604c-1.114,0-2.065,0.222-2.859,0.657
				c-0.797,0.44-1.442,1.02-1.939,1.745c-0.499,0.723-0.867,1.549-1.099,2.489c-0.234,0.938-0.355,1.902-0.355,2.9
				c0,1.134,0.145,2.191,0.412,3.148c0.267,0.959,0.672,1.786,1.187,2.472c0.522,0.688,1.174,1.22,1.955,1.6
				c0.783,0.38,1.682,0.568,2.695,0.568c1.115,0,2.072-0.227,2.863-0.658c0.796-0.438,1.438-1.025,1.939-1.76
				c0.495-0.735,0.863-1.565,1.101-2.489c0.23-0.924,0.35-1.883,0.35-2.885v-0.01L300.889,71.621L300.889,71.621z"/>
			<path id="path3530" fill="#555555" d="M309.783,62.414v20.871c0,0.782-0.033,1.47-0.101,2.062c-0.07,0.596-0.229,1.097-0.48,1.51
				c-0.249,0.415-0.612,0.719-1.1,0.926c-0.482,0.201-1.155,0.308-2.003,0.308c-0.522,0-0.982-0.049-1.386-0.144v-1.875
				c0.616,0.062,1.112,0.068,1.494,0.019c0.38-0.06,0.682-0.195,0.888-0.409c0.211-0.214,0.356-0.497,0.444-0.852
				c0.08-0.351,0.123-0.766,0.123-1.246V62.412h2.142h-0.011L309.783,62.414z M309.882,58.396h-2.345v-3.166h2.345V58.4V58.396z"/>
			<path id="path3532" fill="#555555" d="M316.285,72.114c0,1.002,0.129,1.943,0.392,2.824c0.263,0.891,0.644,1.665,1.154,2.314
				c0.517,0.651,1.159,1.173,1.941,1.563c0.783,0.392,1.68,0.595,2.699,0.595c1.397,0,2.596-0.367,3.594-1.104
				c0.994-0.735,1.661-1.777,1.994-3.129h2.382c-0.267,0.878-0.604,1.688-1.031,2.437c-0.433,0.745-0.969,1.397-1.6,1.955
				c-0.638,0.552-1.401,0.992-2.277,1.292c-0.883,0.31-1.902,0.462-3.063,0.462c-1.47,0-2.734-0.249-3.803-0.746
				c-1.07-0.497-1.947-1.171-2.63-2.039c-0.685-0.863-1.198-1.881-1.533-3.062c-0.332-1.173-0.499-2.437-0.499-3.789
				c0-1.349,0.196-2.618,0.592-3.803c0.392-1.183,0.947-2.225,1.667-3.109c0.719-0.887,1.604-1.586,2.65-2.099
				c1.047-0.515,2.232-0.762,3.558-0.762c2.534,0,4.525,0.879,5.972,2.612c1.45,1.741,2.162,4.274,2.135,7.588h-14.271l-0.01,0.018
				L316.285,72.114z M328.298,70.337c0-0.903-0.125-1.747-0.373-2.542c-0.249-0.795-0.615-1.479-1.099-2.064
				c-0.487-0.581-1.098-1.043-1.83-1.38c-0.735-0.349-1.579-0.515-2.528-0.515c-0.947,0-1.789,0.177-2.509,0.532
				c-0.719,0.354-1.335,0.83-1.846,1.421c-0.517,0.592-0.924,1.282-1.228,2.064c-0.309,0.782-0.507,1.612-0.599,2.487h12.015
				L328.298,70.337L328.298,70.337z"/>
			<path id="path3534" fill="#555555" d="M347.786,68.205c-0.384-1.375-1.034-2.446-1.955-3.22
				c-0.925-0.766-2.098-1.154-3.518-1.154c-1.089,0-2.028,0.228-2.812,0.676c-0.781,0.451-1.42,1.049-1.917,1.795
				c-0.5,0.746-0.863,1.588-1.096,2.53c-0.238,0.926-0.354,1.869-0.354,2.816c0,0.973,0.109,1.92,0.341,2.844
				c0.226,0.928,0.586,1.754,1.086,2.489c0.498,0.735,1.132,1.321,1.915,1.76c0.782,0.433,1.729,0.659,2.846,0.659
				c1.583,0,2.859-0.439,3.82-1.316c0.965-0.885,1.575-2.085,1.831-3.631h2.279c-0.186,1.016-0.492,1.955-0.908,2.788
				c-0.418,0.844-0.947,1.565-1.596,2.169c-0.654,0.602-1.426,1.072-2.326,1.405c-0.9,0.331-1.932,0.497-3.096,0.497
				c-1.47,0-2.734-0.25-3.804-0.747c-1.064-0.499-1.947-1.175-2.633-2.041c-0.685-0.867-1.195-1.889-1.526-3.072
				c-0.336-1.185-0.501-2.454-0.501-3.805c0-1.279,0.184-2.506,0.554-3.68c0.364-1.174,0.908-2.21,1.623-3.111
				c0.714-0.901,1.589-1.618,2.649-2.152c1.053-0.534,2.272-0.801,3.643-0.801c2.133,0,3.855,0.515,5.169,1.538
				c1.318,1.007,2.139,2.606,2.472,4.754h-2.169h0.012v0.018L347.786,68.205z"/>
			<path id="path3536" fill="#555555" d="M360.978,80.897c-0.261,0.049-0.598,0.131-1.031,0.25c-0.429,0.119-0.898,0.179-1.42,0.179
				c-1.065,0-1.878-0.267-2.437-0.801c-0.553-0.532-0.841-1.485-0.841-2.861V64.195h-2.592v-1.779h2.592v-5.123h2.133v5.123h3.446
				v1.779h-3.446v12.621c0,0.453,0.014,0.842,0.034,1.174c0.02,0.333,0.098,0.604,0.219,0.818c0.112,0.212,0.302,0.367,0.553,0.46
				c0.247,0.105,0.596,0.145,1.049,0.145c0.284,0,0.572-0.021,0.873-0.07c0.298-0.047,0.591-0.104,0.873-0.177v1.727h0.021
				L360.978,80.897z"/>
		</g>
		<g id="altac-subhead-commons">
			<path id="path3506" fill="#10496E" d="M126.293,76.488c0.175,0.087,0.261,0.169,0.083,0.429c-0.64,0.947-3.444,3.705-6.634,3.705
				c-1.728,0-3.885-1.331-3.885-4.259c0-6.03,4.704-14.094,10.044-14.094c2.241,0,2.975,1.633,2.975,2.413
				c0,1.212-0.947,2.158-1.805,2.158c-0.695,0-1.207-0.257-1.47-1.031c-0.259-0.606-0.644-1.294-1.336-1.294
				c-0.947,0-1.764,1.037-2.584,2.934c-1.072,2.588-1.683,5.243-1.683,7.588c0,2.16,0.653,3.105,1.767,3.105
				c1.377,0,3.062-1.296,3.579-1.893c0.095-0.173,0.259-0.267,0.344-0.173l0.594,0.429h0.011h-0.01L126.293,76.488z"/>
			<path id="path3300" fill="#10496E" d="M171.991,74.761l-0.604-0.392c-0.084-0.045-0.26-0.045-0.341,0.14
				c-0.266,0.341-2.327,3.105-3.278,3.105c-0.255,0-0.431-0.259-0.515-0.604c0-0.685,0.865-2.495,1.722-4.996
				c1.296-3.704,2.374-6.162,2.374-7.417c0-0.992-0.818-2.326-2.374-2.326c-3.962,0-7.321,5.435-9.648,9.058l-0.35-0.177
				c0.688-1.549,2.284-5.253,2.284-6.857c0-1.027-0.908-2.023-2.364-2.023c-3.883,0-7.671,5.775-9.483,8.801l-0.349-0.182
				c0.349-1.042,2.76-5.863,2.76-7.062c0-0.955-0.561-1.558-1.857-1.558c-3.08,0-6.116,3.31-7.048,4.421
				c-0.452-3.136-3-4.421-5.267-4.421c-2.331,0-4.397,0.864-6.118,2.756c-2.415,2.637-3.624,6.081-3.624,9.697l-0.01-0.004
				c0,3.969,2.627,5.904,5.183,5.904c2.58,0,4.569-0.947,6.21-2.848c2.58-2.842,3.705-7.321,3.705-10.081
				c0-0.168-0.014-0.326-0.022-0.483l0.487,0.403c0.169,0.164,0.343,0.164,0.514,0c0.346-0.524,2.59-2.596,3.106-2.596
				c0.382,0,0.555,0.265,0.555,0.606c0,0.646-1.209,3.362-2.199,6.033v-0.018l-2.972,8.034c-0.129,0.345,0.083,0.517,0.348,0.517
				h2.717c0.343,0,0.552-0.087,0.64-0.343l1.426-3.723c0.694-1.54,1.383-2.752,1.979-3.616c2.501-3.621,5.863-7.243,6.895-7.243
				c0.557,0,0.955,0.351,0.902,0.861c0,0.608-1.074,3.45-2.197,6.465l-2.711,7.159c-0.084,0.263,0.09,0.433,0.429,0.433h2.713
				c0.346,0,0.559-0.085,0.651-0.341l1.334-3.719c0.607-1.46,1.378-2.579,1.638-3.017c2.678-4.054,6.12-7.929,7.155-7.929
				c0.604,0,0.902,0.347,0.902,0.862c0,0.694-0.515,2.16-1.847,5.52c-1.638,4.136-2.595,6.805-2.595,7.762
				c0,0.596,0.516,1.286,1.47,1.286c3.967,0,7.585-4.996,7.757-5.257c0.078-0.351,0.078-0.44-0.09-0.608l0.03,0.035v-0.01
				L171.991,74.761z M137.397,74.286l-0.001,0.014c-1.689,2.806-3.238,4.009-4.917,3.999c-0.943,0-1.81-0.861-1.81-2.033
				c0-1.719,0.867-4.306,2.286-6.723c2.11-3.536,3.749-5.042,5.512-5.042c1.255,0,1.863,0.994,1.863,1.943
				c-0.021,1.54-1.353,5.12-2.95,7.835h0.01v0.01L137.397,74.286z"/>
			<path id="path3302" fill="#10496E" d="M241.351,62.256c-4.049,0-6.378,2.756-6.378,5.516c-0.081,1.815,0.727,2.895,1.596,4.356
				c0.898,1.548,2.024,2.803,1.946,4.263c0,1.815-0.958,2.762-2.156,2.762c-0.778,0-1.119-0.433-1.381-1.129
				c-0.348-1.031-1.033-1.719-2.064-1.719c-0.082,0-0.158,0.019-0.236,0.023c-0.097-0.015-0.184,0.004-0.271,0.047
				c-0.027,0.014-0.062,0.033-0.09,0.047c-0.137,0.059-0.257,0.123-0.364,0.208c-0.844,0.515-1.971,1.388-2.489,1.388
				c-0.342,0-0.512-0.261-0.512-0.686c0-0.598,0.596-2.239,1.722-5.085c1.768-4.433,2.322-6.459,2.322-7.59
				c0-1.204-0.857-2.407-2.456-2.407c-4.091,0-8.056,5.438-9.354,7.42l-0.26-0.175c0.775-1.891,2.023-4.834,2.023-5.779
				c0-0.602-0.39-1.465-1.632-1.465c-2.895,0-5.196,1.779-6.442,3.021c-0.899-2.125-2.989-3.021-4.893-3.021
				c-2.322,0-4.385,0.863-6.113,2.758c-2.345,2.563-3.538,5.882-3.604,9.383c-0.033,0.02-0.064,0.06-0.094,0.101
				c-0.267,0.351-2.333,3.107-3.273,3.107c-0.265,0-0.433-0.263-0.515-0.604c0-0.688,0.854-2.499,1.727-4.994
				c1.291-3.702,2.363-6.162,2.363-7.42c0-0.99-0.816-2.323-2.363-2.323c-3.972,0-7.331,5.436-9.662,9.062l-0.343-0.182
				c0.684-1.545,2.283-5.249,2.283-6.853c0-1.027-0.906-2.027-2.366-2.027c-3.885,0-7.671,5.777-9.481,8.8l-0.349-0.186
				c0.349-1.037,2.758-5.861,2.758-7.056c0-0.965-0.553-1.557-1.85-1.557c-3.146,0-6.253,3.45-7.113,4.491
				c-0.09,0.169,0,0.255,0.085,0.433l0.514,0.431c0.173,0.164,0.343,0.164,0.518,0c0.348-0.522,2.581-2.594,3.104-2.594
				c0.39,0,0.557,0.265,0.557,0.604c0,0.647-1.203,3.364-2.197,6.035l-0.021-0.018l-2.951,8.034
				c-0.133,0.343,0.091,0.515,0.35,0.515h2.705c0.349,0,0.562-0.089,0.648-0.351l1.422-3.713c0.689-1.54,1.379-2.752,1.979-3.616
				c2.501-3.621,5.862-7.243,6.901-7.243c0.559,0,0.947,0.345,0.896,0.861c0,0.606-1.069,3.448-2.201,6.465l-2.707,7.159
				c-0.09,0.255,0.088,0.433,0.432,0.433h2.714c0.347,0,0.556-0.087,0.649-0.345l1.335-3.715c0.599-1.464,1.376-2.581,1.641-3.017
				c2.664-4.052,6.107-7.927,7.141-7.927c0.609,0,0.913,0.345,0.913,0.86c0,0.694-0.523,2.16-1.854,5.52
				c-1.634,4.134-2.581,6.799-2.581,7.762c0,0.596,0.517,1.288,1.46,1.288c2.942,0,5.68-2.736,6.979-4.267
				c0.618,2.859,2.829,4.265,4.993,4.265c2.582,0,4.562-0.947,6.217-2.85c2.571-2.84,3.694-7.319,3.694-10.083
				c0-0.306-0.021-0.597-0.062-0.883c0.802-0.76,2.11-1.877,2.776-1.877c0.388,0,0.647,0.261,0.647,0.685
				c0,0.608-1.036,3.278-1.987,6.038l-2.933,7.964c-0.086,0.263-0.039,0.555,0.348,0.555h2.76c0.433,0,0.514-0.085,0.599-0.259
				l1.377-3.966c0.694-1.723,1.466-3.021,2.327-4.395c1.81-2.936,5.432-6.38,6.727-6.38c0.595,0,0.988,0.347,0.988,1.041
				c0,0.515-1.213,3.791-1.859,5.596c-1.378,3.795-2.582,6.722-2.582,7.504c0,0.768,0.516,1.296,1.46,1.296
				c3.384,0,4.924-1.957,5.629-1.485c0.546,0.91,1.9,1.491,4.025,1.491l0.015-0.021c3.887,0,6.558-2.413,6.542-5.752
				c0-1.982-0.78-3.483-1.642-4.658c-0.474-0.637-1.977-2.413-1.977-3.88c0-1.893,0.949-2.491,1.805-2.491
				c0.692,0,0.868,0.682,1.033,1.199c0.27,1.128,0.949,1.47,1.728,1.47c0.947,0,1.635-0.684,1.635-1.813
				c0.01-1.777-1.896-2.387-3.354-2.387l0.01-0.021h-0.006v0.01l0,0V62.256L241.351,62.256z M209.725,74.286l0.008,0.014
				c-1.687,2.806-3.234,4.009-4.922,3.999c-0.945,0-1.809-0.861-1.809-2.033c0-1.719,0.863-4.306,2.286-6.723
				c2.113-3.536,3.754-5.042,5.514-5.042c1.255,0,1.857,0.994,1.857,1.943c-0.013,1.54-1.353,5.12-2.94,7.835v0.01L209.725,74.286z"
				/>
		</g>
		<g id="altac-subhead-media">
			<path id="path3496" fill="#555555" d="M25.527,62.776h2.938v2.511c0.702-0.87,1.341-1.501,1.913-1.9
				c0.979-0.672,2.085-1.006,3.331-1.006c1.408,0,2.531,0.345,3.394,1.039c0.482,0.397,0.925,0.979,1.32,1.748
				c0.663-0.943,1.432-1.661,2.327-2.109c0.885-0.45,1.889-0.678,2.993-0.678c2.373,0,3.997,0.854,4.854,2.571
				c0.458,0.926,0.687,2.164,0.687,3.727v11.755h-3.085v-12.27c0-1.171-0.291-1.984-0.878-2.421
				c-0.593-0.435-1.309-0.655-2.154-0.655c-1.17,0-2.165,0.39-3.014,1.167c-0.833,0.781-1.258,2.087-1.258,3.91v10.27h-3.012V68.912
				c0-1.203-0.144-2.076-0.425-2.625c-0.457-0.819-1.295-1.236-2.526-1.236c-1.127,0-2.144,0.433-3.054,1.294
				c-0.922,0.885-1.386,2.448-1.386,4.719v9.363h-2.967V62.758h0.002v0.01h0.003L25.527,62.776L25.527,62.776z"/>
			<path id="path3498" fill="#555555" d="M63.984,63.259c1.168,0.591,2.057,1.351,2.664,2.287c0.594,0.885,0.979,1.92,1.181,3.113
				c0.169,0.804,0.261,2.112,0.261,3.886H55.257c0.049,1.799,0.471,3.24,1.253,4.329c0.783,1.092,2.001,1.625,3.65,1.625
				c1.534,0,2.757-0.514,3.674-1.543c0.516-0.595,0.884-1.283,1.091-2.072h2.918c-0.073,0.655-0.331,1.374-0.766,2.165
				c-0.434,0.801-0.922,1.452-1.453,1.955c-0.892,0.883-1.999,1.476-3.319,1.788c-0.708,0.175-1.516,0.263-2.408,0.263
				c-2.179,0-4.038-0.801-5.549-2.407c-1.521-1.589-2.282-3.836-2.282-6.717c0-2.838,0.761-5.14,2.293-6.908
				c1.529-1.772,3.525-2.653,5.991-2.653c1.252-0.016,2.455,0.271,3.627,0.869h0.004V63.259z M65.05,70.19
				c-0.116-1.286-0.392-2.31-0.829-3.089c-0.812-1.427-2.157-2.142-4.041-2.142c-1.351,0-2.487,0.505-3.403,1.474
				c-0.915,0.988-1.394,2.242-1.453,3.758H65.05z"/>
			<path id="path3500" fill="#555555" d="M81.83,63.322c0.53,0.333,1.125,0.91,1.79,1.731v-8.921h2.852v24.304h-2.67v-2.454
				c-0.689,1.083-1.505,1.873-2.449,2.356c-0.94,0.484-2.019,0.723-3.233,0.723c-1.96,0-3.659-0.831-5.091-2.481
				c-1.432-1.661-2.15-3.857-2.15-6.602c0-2.571,0.649-4.791,1.958-6.682c1.306-1.883,3.178-2.822,5.606-2.822
				c1.344,0,2.477,0.284,3.383,0.857h0.01h-0.008L81.83,63.322L81.83,63.322z M75.205,76.568c0.798,1.259,2.078,1.904,3.841,1.904
				c1.372,0,2.487-0.594,3.369-1.771c0.879-1.181,1.317-2.875,1.317-5.083c0-2.231-0.45-3.882-1.356-4.955
				c-0.909-1.07-2.031-1.608-3.36-1.608c-1.486,0-2.694,0.573-3.626,1.709c-0.915,1.14-1.377,2.824-1.377,5.046
				c-0.002,1.885,0.4,3.474,1.195,4.758H75.205L75.205,76.568z"/>
			<path id="path3502" fill="#555555" d="M90.007,56.213h3.017v3.362h-3.017v-3.366V56.213z M90.007,62.854h3.017v17.575h-3.017
				V62.856h0.011h-0.01L90.007,62.854z"/>
			<path id="path3504" fill="#555555" d="M105.899,69.746c0.679-0.084,1.133-0.368,1.367-0.852c0.136-0.265,0.196-0.636,0.196-1.143
				c0-1.007-0.353-1.746-1.073-2.2c-0.718-0.452-1.748-0.68-3.086-0.68c-1.546,0-2.646,0.413-3.296,1.255
				c-0.351,0.468-0.59,1.16-0.708,2.076h-2.766c0.055-2.187,0.758-3.704,2.113-4.557c1.36-0.85,2.933-1.281,4.719-1.281
				c2.076,0,3.761,0.396,5.056,1.183c1.283,0.795,1.926,2.023,1.926,3.7v10.17c0,0.308,0.062,0.556,0.194,0.739
				c0.12,0.189,0.391,0.283,0.798,0.283c0.125,0,0.279-0.008,0.44-0.031c0.164-0.02,0.342-0.035,0.531-0.064v2.193
				c-0.468,0.13-0.813,0.214-1.054,0.248c-0.239,0.037-0.571,0.049-0.992,0.049c-1.015,0-1.762-0.361-2.228-1.086
				c-0.24-0.39-0.411-0.928-0.507-1.635c-0.604,0.792-1.475,1.476-2.607,2.058c-1.135,0.595-2.378,0.883-3.74,0.883
				c-1.642,0-2.981-0.505-4.018-1.501c-1.033-0.99-1.551-2.23-1.551-3.721c0-1.632,0.508-2.902,1.532-3.807
				c1.018-0.899,2.363-1.456,4.02-1.663l4.747-0.612v0.012l-0.01,0.01v-0.01V69.746L105.899,69.746z M99.652,77.761
				c0.622,0.499,1.36,0.741,2.222,0.741c1.042,0,2.059-0.242,3.031-0.727c1.648-0.797,2.481-2.109,2.481-3.933v-2.378
				c-0.37,0.23-0.833,0.431-1.408,0.586c-0.568,0.145-1.125,0.261-1.681,0.326l-1.785,0.226c-1.08,0.145-1.889,0.369-2.427,0.68
				c-0.922,0.511-1.38,1.337-1.38,2.468c0.011,0.869,0.325,1.542,0.96,2.035v-0.01L99.652,77.761z"/>
		</g>
		<path id="altac-subhead-a" fill="#555555" d="M9.392,70.089c0.4-0.045,0.883-0.117,1.44-0.212c0.554-0.096,1.011-0.228,1.368-0.39
			c0.354-0.169,0.575-0.444,0.659-0.844c0.084-0.39,0.123-0.752,0.123-1.084c0-1.091-0.349-1.992-1.048-2.689
			c-0.698-0.694-1.877-1.047-3.538-1.047c-0.732,0-1.41,0.062-2.025,0.195c-0.618,0.131-1.157,0.349-1.619,0.676
			c-0.462,0.32-0.842,0.749-1.136,1.281c-0.299,0.532-0.494,1.208-0.587,2.008H0.859c0.072-1.09,0.319-2.02,0.747-2.792
			c0.427-0.764,0.977-1.397,1.654-1.879c0.676-0.483,1.459-0.842,2.345-1.068c0.889-0.226,1.831-0.339,2.826-0.339
			c0.926,0,1.795,0.104,2.612,0.306c0.818,0.205,1.53,0.517,2.132,0.961c0.604,0.438,1.08,1.025,1.422,1.76
			c0.343,0.733,0.514,1.633,0.514,2.7v10.021c0,0.836,0.146,1.358,0.445,1.584c0.297,0.226,0.894,0.174,1.795-0.16v1.667
			c-0.166,0.053-0.409,0.115-0.728,0.218c-0.318,0.094-0.636,0.142-0.942,0.142c-0.334,0-0.653-0.037-0.962-0.103
			c-0.354-0.051-0.638-0.16-0.854-0.343c-0.212-0.179-0.385-0.388-0.515-0.635c-0.129-0.25-0.219-0.521-0.267-0.817
			c-0.049-0.296-0.071-0.61-0.071-0.943c-0.902,0.996-1.934,1.754-3.095,2.277c-1.163,0.521-2.417,0.785-3.768,0.785
			c-0.804,0-1.582-0.105-2.328-0.319c-0.745-0.212-1.404-0.548-1.972-0.996c-0.569-0.446-1.021-1.004-1.353-1.657
			c-0.332-0.649-0.497-1.421-0.497-2.323c0-3.13,2.146-4.978,6.436-5.547l2.951-0.374v0.019L9.392,70.089z M12.982,71.155
			c-0.902,0.38-1.812,0.632-2.736,0.747c-0.924,0.119-1.849,0.22-2.774,0.285c-1.635,0.119-2.91,0.487-3.824,1.101
			c-0.913,0.618-1.369,1.554-1.369,2.809c0,0.569,0.111,1.062,0.337,1.478c0.227,0.416,0.521,0.762,0.888,1.031
			c0.367,0.273,0.794,0.474,1.281,0.604c0.485,0.131,0.975,0.197,1.474,0.197c0.854,0,1.683-0.109,2.487-0.322
			c0.805-0.212,1.525-0.54,2.151-0.979c0.629-0.433,1.132-0.994,1.512-1.667c0.378-0.68,0.567-1.474,0.567-2.407V71.14h0.002h0.002
			V71.155z"/>
	</g>
	<g id="altac-alt-ac">
		<g id="altac-alt-ac-alt">
			<path id="altac-alt-ac-alt-hyphen" fill="#BE1E2D" d="M116.323,25.605v5.166H97.64v-5.166h18.687H116.323z"/>
			<g id="altac-alt-ac-alt-alt">
				<path id="path3540" fill="#BE1E2D" d="M62.541,46.867c-1.42,0-2.551-0.399-3.394-1.201c-0.84-0.801-1.257-2.104-1.257-3.912
					c-1.51,1.809-3.267,3.111-5.271,3.912c-2.003,0.801-4.169,1.201-6.498,1.201c-1.506,0-2.93-0.162-4.264-0.483
					c-1.338-0.323-2.511-0.861-3.521-1.624c-1.014-0.756-1.811-1.718-2.394-2.903c-0.582-1.185-0.872-2.62-0.872-4.3
					c0-1.896,0.321-3.448,0.967-4.656c0.646-1.207,1.498-2.185,2.554-2.939c1.054-0.756,2.261-1.327,3.62-1.709
					c1.356-0.39,2.748-0.713,4.169-0.971c1.507-0.3,2.94-0.518,4.298-0.678c1.357-0.148,2.552-0.366,3.587-0.645
					c1.035-0.281,1.854-0.686,2.456-1.228c0.604-0.538,0.906-1.325,0.906-2.36c0-1.208-0.227-2.175-0.679-2.908
					s-1.035-1.294-1.748-1.682c-0.711-0.388-1.51-0.635-2.394-0.768c-0.883-0.137-1.755-0.189-2.617-0.189
					c-2.326,0-4.265,0.439-5.818,1.326c-1.552,0.885-2.391,2.553-2.521,5.009h-5.494c0.086-2.072,0.516-3.814,1.293-5.239
					c0.776-1.421,1.811-2.573,3.105-3.458c1.293-0.885,2.779-1.518,4.461-1.914c1.681-0.39,3.447-0.583,5.3-0.583
					c1.508,0,3.005,0.103,4.495,0.323c1.487,0.216,2.834,0.659,4.04,1.328c1.206,0.667,2.176,1.606,2.909,2.811
					c0.731,1.214,1.096,2.779,1.096,4.719v17.194c0,1.296,0.076,2.243,0.227,2.845c0.15,0.606,0.657,0.906,1.519,0.906
					c0.474,0,1.038-0.101,1.682-0.317v4.261c-0.949,0.547-2.261,0.818-3.943,0.818v0.01l-0.001,0.016v-0.006h0.003V46.867
					L62.541,46.867z M54.854,30.026c-1.124,0.236-2.295,0.433-3.524,0.581c-1.226,0.152-2.467,0.324-3.717,0.515
					c-1.253,0.188-2.372,0.511-3.362,0.934c-0.992,0.435-1.8,1.049-2.424,1.84c-0.626,0.801-0.938,1.885-0.938,3.269
					c0,0.904,0.187,1.667,0.551,2.294c0.364,0.626,0.839,1.131,1.419,1.515c0.583,0.39,1.272,0.674,2.069,0.844
					c0.798,0.174,1.606,0.259,2.425,0.259c1.811,0,3.361-0.248,4.655-0.743c1.294-0.497,2.349-1.121,3.167-1.871
					c0.819-0.762,1.421-1.584,1.811-2.458c0.389-0.885,0.581-1.711,0.581-2.489v-5.617c-0.689,0.518-1.594,0.896-2.713,1.13v-0.01
					L54.854,30.026z"/>
				<path id="path3542" fill="#BE1E2D" d="M74.823,0v46.156h-5.492V0.002h5.498h-0.004L74.823,0L74.823,0z"/>
				<path id="path3544" fill="#BE1E2D" d="M96.344,12.736v4.843h-6.658v20.75c0,0.645,0.056,1.164,0.162,1.552
					c0.106,0.388,0.313,0.68,0.616,0.904c0.301,0.214,0.721,0.349,1.259,0.419c0.539,0.061,1.238,0.1,2.102,0.1h2.52v4.846h-4.202
					c-1.421,0-2.642-0.095-3.653-0.291c-1.01-0.191-1.831-0.549-2.455-1.064c-0.626-0.513-1.09-1.252-1.389-2.201
					c-0.303-0.947-0.455-2.201-0.455-3.756V17.579h-5.688v-4.843h5.703V2.719H89.7v10.017h6.672h-0.02H96.344L96.344,12.736z"/>
			</g>
			<path id="altac-alt-ac-alt-hash" fill="#BE1E2D" d="M1.583,32.839v-4.391H8.5l1.357-9.695H3.264v-4.395h7.178l1.872-13.252h4.463
				l-1.875,13.252h8.017L24.79,1.105h4.463L27.38,14.357h5.754v4.395h-6.336l-1.356,9.695h5.88v4.391h-6.528L22.92,46.154h-4.462
				l1.877-13.315h-8.017l-1.874,13.315H5.983l1.872-13.315H1.583z M12.963,28.45h8.017l1.356-9.697h-8.015l-1.358,9.691V28.45z"/>
		</g>
		<g id="altac-alt-ac-ac">
			<path id="path3550" fill="#BE1E2D" d="M171.913,18.556c-1.377-1.164-3.231-1.747-5.562-1.747c-1.981,0-3.639,0.369-4.975,1.092
				c-1.337,0.731-2.406,1.709-3.2,2.908c-0.8,1.21-1.37,2.596-1.715,4.175c-0.346,1.575-0.515,3.195-0.515,4.877
				c0,1.549,0.185,3.064,0.55,4.524c0.366,1.465,0.938,2.775,1.712,3.912c0.775,1.14,1.789,2.059,3.039,2.747
				c1.25,0.688,2.735,1.033,4.46,1.033c2.717,0,4.837-0.711,6.368-2.132c1.528-1.419,2.467-3.426,2.814-6.011h5.621
				c-0.6,4.136-2.144,7.327-4.624,9.564c-2.479,2.242-5.851,3.357-10.116,3.357c-2.544,0-4.795-0.409-6.756-1.222
				c-1.961-0.816-3.6-1.988-4.914-3.491c-1.318-1.509-2.307-3.312-2.975-5.403c-0.67-2.086-1.004-4.382-1.004-6.886
				c0-2.507,0.324-4.838,0.97-7.015c0.646-2.167,1.625-4.07,2.939-5.689c1.313-1.616,2.963-2.887,4.945-3.812
				c1.982-0.922,4.29-1.382,6.917-1.382c1.896,0,3.674,0.226,5.333,0.678c1.658,0.454,3.125,1.154,4.395,2.101
				c1.27,0.949,2.319,2.148,3.138,3.594c0.817,1.446,1.336,3.152,1.548,5.14h-5.689c-0.432-2.121-1.341-3.764-2.725-4.925
				l-0.01,0.01v-0.01L171.913,18.556z"/>
			<path id="path3548" fill="#BE1E2D" d="M145.49,46.867c-1.421,0-2.553-0.399-3.394-1.201c-0.841-0.801-1.26-2.104-1.26-3.912
				c-1.507,1.809-3.265,3.111-5.269,3.912c-2.003,0.801-4.169,1.201-6.497,1.201c-1.51,0-2.933-0.162-4.266-0.483
				c-1.335-0.323-2.513-0.861-3.522-1.624c-1.012-0.756-1.81-1.718-2.391-2.903c-0.583-1.185-0.875-2.62-0.875-4.3
				c0-1.896,0.324-3.448,0.969-4.656c0.646-1.207,1.499-2.185,2.555-2.939c1.054-0.756,2.262-1.327,3.618-1.709
				c1.357-0.39,2.748-0.713,4.171-0.971c1.508-0.3,2.942-0.518,4.298-0.678c1.356-0.148,2.552-0.366,3.59-0.645
				c1.034-0.281,1.852-0.686,2.455-1.228c0.602-0.538,0.906-1.325,0.906-2.36c0-1.208-0.227-2.175-0.681-2.908
				c-0.451-0.733-1.034-1.294-1.747-1.682c-0.711-0.388-1.507-0.635-2.391-0.768c-0.884-0.137-1.756-0.189-2.617-0.189
				c-2.326,0-4.266,0.439-5.82,1.326c-1.552,0.885-2.392,2.553-2.522,5.009h-5.494c0.088-2.072,0.516-3.814,1.296-5.239
				c0.773-1.421,1.811-2.573,3.103-3.458c1.294-0.885,2.778-1.518,4.462-1.914c1.68-0.39,3.446-0.583,5.301-0.583
				c1.506,0,3.006,0.103,4.493,0.323c1.487,0.216,2.834,0.659,4.041,1.328c1.208,0.667,2.175,1.606,2.907,2.811
				c0.733,1.214,1.099,2.779,1.099,4.719v17.194c0,1.296,0.074,2.243,0.225,2.845c0.153,0.606,0.658,0.906,1.521,0.906
				c0.473,0,1.036-0.101,1.68-0.317v4.261c-0.947,0.563-2.261,0.844-3.937,0.844v-0.01l0.01,0.01L145.49,46.867z M137.78,30.026
				c-1.121,0.236-2.295,0.433-3.523,0.581c-1.228,0.152-2.467,0.324-3.717,0.515c-1.25,0.188-2.37,0.511-3.36,0.934
				c-0.995,0.435-1.801,1.049-2.427,1.84c-0.624,0.801-0.936,1.885-0.936,3.269c0,0.904,0.185,1.667,0.549,2.294
				c0.365,0.626,0.843,1.131,1.421,1.515c0.583,0.39,1.271,0.674,2.07,0.844c0.797,0.174,1.605,0.259,2.424,0.259
				c1.811,0,3.361-0.248,4.655-0.743c1.293-0.497,2.348-1.121,3.167-1.871c0.818-0.762,1.421-1.584,1.81-2.458
				c0.39-0.885,0.581-1.711,0.581-2.489v-5.617c-0.679,0.518-1.587,0.896-2.715,1.13h-0.01v-0.01L137.78,30.026z"/>
		</g>
	</g>
	<g id="altac-ademy">
		<path id="path3552" fill="#555555" d="M185.938,17.973c0.689-1.421,1.622-2.585,2.817-3.491c1.181-0.904,2.566-1.571,4.172-2.003
			c1.59-0.429,3.357-0.64,5.3-0.64c1.463,0,2.93,0.141,4.396,0.419c1.46,0.282,2.774,0.809,3.939,1.584
			c1.169,0.774,2.114,1.867,2.847,3.267c0.73,1.403,1.097,3.224,1.097,5.463v17.706c0,1.637,0.802,2.456,2.392,2.456
			c0.474,0,0.908-0.088,1.293-0.259v3.427c-0.471,0.086-0.89,0.152-1.256,0.193c-0.364,0.043-0.832,0.061-1.383,0.061
			c-1.038,0-1.872-0.14-2.488-0.419c-0.628-0.281-1.111-0.68-1.458-1.199c-0.349-0.515-0.571-1.131-0.678-1.84
			c-0.104-0.711-0.156-1.499-0.156-2.36h-0.135c-0.73,1.078-1.474,2.035-2.233,2.877c-0.759,0.84-1.591,1.54-2.525,2.102
			c-0.925,0.553-1.983,0.99-3.168,1.294c-1.18,0.308-2.597,0.452-4.231,0.452c-1.548,0-3.006-0.185-4.364-0.551
			c-1.356-0.365-2.54-0.945-3.558-1.749c-1.01-0.797-1.809-1.811-2.392-3.033c-0.582-1.226-0.877-2.686-0.877-4.364
			c0-2.325,0.517-4.144,1.554-5.459c1.035-1.315,2.403-2.323,4.099-3.007c1.706-0.688,3.622-1.173,5.756-1.46
			c2.133-0.283,4.298-0.552,6.495-0.803c0.863-0.089,1.621-0.193,2.263-0.321c0.646-0.133,1.187-0.355,1.619-0.681
			c0.433-0.325,0.762-0.76,1.006-1.327c0.234-0.554,0.352-1.294,0.352-2.199c0-1.38-0.226-2.51-0.68-3.394
			c-0.45-0.883-1.081-1.583-1.868-2.101c-0.803-0.517-1.723-0.875-2.775-1.066c-1.057-0.195-2.191-0.292-3.396-0.292
			c-2.585,0-4.7,0.614-6.337,1.84c-1.635,1.226-2.499,3.191-2.586,5.914h-4.07c0.146-1.951,0.557-3.629,1.246-5.04v0.029h-0.021
			L185.938,17.973z M206.301,27.933c-0.26,0.474-0.759,0.818-1.489,1.035c-0.733,0.22-1.377,0.367-1.938,0.45
			c-1.727,0.308-3.507,0.573-5.333,0.809c-1.83,0.236-3.5,0.595-5.008,1.064c-1.506,0.474-2.742,1.156-3.722,2.035
			c-0.966,0.885-1.455,2.15-1.455,3.779c0,1.037,0.202,1.955,0.613,2.749c0.409,0.799,0.96,1.487,1.646,2.07
			c0.685,0.586,1.492,1.023,2.395,1.331c0.908,0.302,1.83,0.452,2.776,0.452c1.548,0,3.037-0.238,4.464-0.717
			c1.419-0.472,2.654-1.164,3.717-2.07c1.055-0.904,1.9-2.003,2.528-3.296c0.625-1.296,0.934-2.758,0.934-4.396v-5.298h-0.131v0.002
			h0.003V27.933z"/>
		<path id="path3554" fill="#555555" d="M241.668,46.154v-6.335h-0.133c-0.434,1.078-1.066,2.072-1.911,2.978
			c-0.84,0.904-1.798,1.667-2.877,2.289c-1.078,0.631-2.232,1.111-3.458,1.462c-1.226,0.345-2.446,0.512-3.648,0.512
			c-2.543,0-4.751-0.464-6.631-1.386c-1.868-0.928-3.434-2.203-4.684-3.811c-1.257-1.624-2.176-3.493-2.777-5.625
			c-0.601-2.132-0.906-4.38-0.906-6.756c0-2.368,0.304-4.629,0.906-6.757c0.602-2.13,1.531-4.01,2.777-5.622
			c1.25-1.624,2.815-2.902,4.684-3.846c1.873-0.947,4.088-1.419,6.631-1.419c1.25,0,2.468,0.146,3.648,0.452
			c1.183,0.304,2.293,0.76,3.329,1.388c1.035,0.627,1.952,1.388,2.741,2.29c0.803,0.906,1.418,1.963,1.845,3.167h0.126V0.021h4.074
			v46.16h-3.759v0.02l0.011-0.02L241.668,46.154z M219.328,34.619c0.41,1.703,1.052,3.22,1.938,4.551
			c0.887,1.337,2.018,2.422,3.396,3.269c1.377,0.842,3.037,1.261,4.982,1.261c2.154,0,3.966-0.429,5.457-1.261
			c1.491-0.844,2.694-1.928,3.62-3.269c0.924-1.337,1.588-2.855,2-4.551c0.409-1.709,0.611-3.417,0.611-5.14
			s-0.202-3.436-0.611-5.14c-0.412-1.708-1.078-3.228-2-4.557c-0.926-1.339-2.129-2.423-3.62-3.267
			c-1.491-0.844-3.309-1.259-5.457-1.259c-1.945,0-3.601,0.421-4.982,1.259c-1.378,0.844-2.512,1.924-3.396,3.267
			c-0.882,1.335-1.527,2.857-1.938,4.557c-0.411,1.704-0.611,3.417-0.611,5.14c0,1.727,0.194,3.438,0.609,5.142h-0.01
			L219.328,34.619z"/>
		<path id="path3556" fill="#555555" d="M253.591,35.139c0.411,1.581,1.067,2.984,1.97,4.236c0.906,1.255,2.044,2.282,3.428,3.105
			c1.377,0.818,3.038,1.228,4.979,1.228c2.979,0,5.3-0.775,6.979-2.327c1.685-1.545,2.845-3.618,3.495-6.206h4.069
			c-0.863,3.799-2.447,6.725-4.751,8.793c-2.306,2.07-5.572,3.103-9.794,3.103c-2.626,0-4.906-0.466-6.816-1.386
			c-1.916-0.928-3.479-2.203-4.688-3.817c-1.213-1.614-2.102-3.489-2.682-5.621c-0.589-2.134-0.88-4.38-0.88-6.756
			c0-2.203,0.291-4.353,0.88-6.465c0.58-2.119,1.469-4,2.682-5.656c1.208-1.659,2.771-2.988,4.688-4.007
			c1.91-1.012,4.19-1.519,6.816-1.519c2.673,0,4.955,0.54,6.851,1.618c1.892,1.078,3.433,2.489,4.626,4.234
			c1.181,1.748,2.033,3.748,2.551,6.013c0.516,2.261,0.729,4.557,0.646,6.889h-25.652c0,1.469,0.21,2.982,0.614,4.561h0.012v-0.016
			L253.591,35.139z M273.761,22.694c-0.493-1.421-1.192-2.684-2.101-3.781c-0.902-1.098-1.998-1.982-3.295-2.655
			c-1.297-0.667-2.762-1.004-4.396-1.004c-1.681,0-3.17,0.337-4.461,1.004c-1.293,0.678-2.392,1.551-3.298,2.655
			c-0.902,1.097-1.625,2.364-2.165,3.812c-0.538,1.446-0.893,2.921-1.065,4.422h21.589c-0.06-1.559-0.324-3.05-0.816-4.471h0.009
			V22.694z"/>
		<path id="path3558" fill="#555555" d="M286.594,12.8v5.625h0.191c1.078-2.07,2.487-3.684,4.232-4.848
			c1.751-1.164,3.976-1.747,6.692-1.747c2.196,0,4.19,0.54,5.981,1.618c1.788,1.078,2.98,2.713,3.589,4.916
			c0.992-2.203,2.452-3.844,4.396-4.916c1.939-1.078,4.011-1.618,6.202-1.618c7.371,0,11.053,3.893,11.053,11.701v22.624h-4.071
			V23.723c0-2.756-0.583-4.857-1.75-6.303c-1.163-1.45-3.207-2.164-6.143-2.164c-1.768,0-3.229,0.335-4.395,1.004
			c-1.164,0.674-2.088,1.561-2.775,2.688c-0.689,1.121-1.17,2.405-1.458,3.844c-0.279,1.444-0.423,2.941-0.423,4.493V46.16h-4.073
			V23.553c0-1.128-0.121-2.193-0.35-3.194c-0.236-1.014-0.627-1.899-1.171-2.655c-0.54-0.754-1.254-1.345-2.156-1.778
			c-0.908-0.433-2.005-0.647-3.298-0.647c-1.726,0-3.23,0.314-4.498,0.936c-1.272,0.625-2.31,1.489-3.105,2.586
			c-0.802,1.099-1.39,2.392-1.776,3.879c-0.392,1.489-0.59,3.115-0.59,4.88v18.617h-4.072V12.843h3.74v-0.021h0.013L286.594,12.8z"
			/>
		<path id="path3560" fill="#555555" d="M334.688,12.8l10.987,28.444L355.954,12.8h4.075l-14.482,38.4
			c-0.598,1.417-1.169,2.596-1.678,3.518c-0.516,0.926-1.09,1.663-1.713,2.201c-0.626,0.538-1.357,0.928-2.198,1.164
			c-0.845,0.236-1.913,0.355-3.195,0.355c-0.82-0.043-1.459-0.074-1.913-0.098c-0.454-0.021-0.85-0.104-1.195-0.228v-3.425
			c0.471,0.086,0.933,0.162,1.387,0.224c0.451,0.066,0.918,0.105,1.386,0.105c0.905,0,1.649-0.13,2.232-0.392
			c0.588-0.257,1.091-0.614,1.521-1.066c0.434-0.452,0.802-1.002,1.094-1.647c0.304-0.645,0.627-1.36,0.966-2.132l1.42-3.752
			L330.346,12.8h4.325h-0.015H334.688L334.688,12.8L334.688,12.8z"/>
	</g>
</g>
<g>
	<g id="altac-alt-ac_1_">
		<g id="altac-alt-ac-alt_1_">
			<path id="altac-alt-ac-alt-hyphen_1_" fill="#BE1E2D" d="M117.482,266.838v5.222H98.613v-5.222h18.873H117.482z"/>
			<g id="altac-alt-ac-alt-alt_1_">
				<path id="path3540_1_" fill="#BE1E2D" d="M63.167,288.311c-1.435,0-2.578-0.402-3.427-1.21c-0.849-0.807-1.271-2.123-1.271-3.95
					c-1.524,1.827-3.299,3.144-5.323,3.95c-2.022,0.808-4.21,1.21-6.561,1.21c-1.522,0-2.96-0.163-4.309-0.488
					c-1.35-0.328-2.535-0.871-3.556-1.637c-1.022-0.763-1.828-1.737-2.416-2.935c-0.587-1.195-0.881-2.644-0.881-4.34
					c0-1.916,0.325-3.481,0.975-4.701c0.654-1.22,1.515-2.209,2.581-2.97c1.064-0.764,2.284-1.34,3.654-1.727
					c1.371-0.395,2.776-0.721,4.211-0.979c1.522-0.305,2.969-0.531,4.34-0.686c1.371-0.151,2.578-0.371,3.624-0.652
					c1.045-0.283,1.871-0.694,2.48-1.24c0.609-0.545,0.915-1.339,0.915-2.385c0-1.219-0.229-2.195-0.686-2.937
					c-0.458-0.739-1.045-1.307-1.765-1.698c-0.718-0.392-1.524-0.648-2.417-0.781c-0.892-0.131-1.773-0.193-2.644-0.193
					c-2.348,0-4.306,0.444-5.876,1.339c-1.567,0.894-2.416,2.579-2.547,5.06h-5.548c0.088-2.091,0.521-3.852,1.307-5.289
					c0.783-1.436,1.828-2.6,3.135-3.494c1.308-0.894,2.807-1.533,4.506-1.928c1.697-0.393,3.481-0.588,5.354-0.588
					c1.522,0,3.035,0.105,4.538,0.326c1.501,0.219,2.862,0.664,4.081,1.339c1.218,0.675,2.196,1.622,2.936,2.84
					c0.74,1.223,1.108,2.807,1.108,4.767v17.365c0,1.308,0.076,2.264,0.229,2.872c0.152,0.611,0.664,0.915,1.534,0.915
					c0.477,0,1.046-0.104,1.697-0.325v4.307c-0.958,0.549-2.284,0.827-3.981,0.827v0.011l-0.001,0.011v-0.006H63.167z
					 M55.403,271.304c-1.134,0.24-2.318,0.438-3.559,0.589c-1.239,0.151-2.492,0.326-3.754,0.521
					c-1.265,0.193-2.394,0.513-3.395,0.944c-1.002,0.437-1.817,1.058-2.448,1.858c-0.631,0.811-0.946,1.906-0.946,3.302
					c0,0.914,0.188,1.683,0.556,2.316c0.368,0.633,0.849,1.143,1.434,1.531c0.588,0.396,1.284,0.679,2.09,0.853
					c0.805,0.175,1.622,0.262,2.45,0.262c1.828,0,3.394-0.25,4.7-0.751c1.307-0.502,2.372-1.132,3.199-1.89
					c0.827-0.766,1.436-1.592,1.828-2.481c0.393-0.894,0.588-1.729,0.588-2.514v-5.675c-0.696,0.525-1.61,0.906-2.741,1.143v-0.01
					L55.403,271.304z"/>
				<path id="path3542_1_" fill="#BE1E2D" d="M75.569,240.98v46.613h-5.546v-46.611h5.552H75.57L75.569,240.98L75.569,240.98z"/>
				<path id="path3544_1_" fill="#BE1E2D" d="M97.306,253.84v4.896h-6.725v20.955c0,0.652,0.056,1.175,0.163,1.566
					c0.106,0.393,0.315,0.693,0.621,0.914c0.304,0.218,0.728,0.354,1.271,0.424c0.543,0.063,1.25,0.099,2.123,0.099h2.547v4.896
					h-4.245c-1.436,0-2.668-0.098-3.689-0.294c-1.021-0.192-1.848-0.554-2.48-1.075c-0.631-0.52-1.101-1.264-1.402-2.222
					c-0.307-0.957-0.458-2.222-0.458-3.789v-21.47h-5.746v-4.896h5.76v-10.117h5.549v10.117h6.739h-0.02L97.306,253.84z"/>
			</g>
			<path id="altac-alt-ac-alt-hash_1_" fill="#BE1E2D" d="M1.604,274.145v-4.438h6.985l1.371-9.791H3.302v-4.438h7.248l1.892-13.384
				h4.506l-1.892,13.384h8.095l1.891-13.384h4.507l-1.892,13.384h5.812v4.438h-6.399l-1.371,9.791h5.94v4.438h-6.593l-1.893,13.448
				h-4.505l1.894-13.448h-8.095l-1.894,13.448H6.048l1.891-13.448H1.604z M13.097,269.71h8.095l1.371-9.794h-8.095l-1.371,9.788
				V269.71z"/>
		</g>
		<g id="altac-alt-ac-ac_1_">
			<path id="path3550_1_" fill="#BE1E2D" d="M173.624,259.721c-1.392-1.175-3.263-1.764-5.616-1.764
				c-2.003,0-3.676,0.371-5.026,1.107c-1.35,0.739-2.428,1.723-3.232,2.936c-0.807,1.223-1.382,2.624-1.73,4.215
				c-0.35,1.59-0.521,3.229-0.521,4.927c0,1.565,0.187,3.095,0.555,4.569c0.37,1.48,0.946,2.801,1.73,3.951
				c0.782,1.152,1.806,2.079,3.068,2.773c1.262,0.696,2.762,1.045,4.504,1.045c2.743,0,4.885-0.72,6.431-2.154
				c1.544-1.434,2.49-3.461,2.842-6.072h5.678c-0.608,4.178-2.165,7.399-4.668,9.661c-2.504,2.263-5.909,3.394-10.217,3.394
				c-2.569,0-4.843-0.414-6.822-1.239c-1.981-0.825-3.635-2.003-4.963-3.524c-1.33-1.522-2.33-3.344-3.005-5.454
				c-0.675-2.108-1.013-4.425-1.013-6.954s0.326-4.885,0.979-7.082c0.652-2.195,1.641-4.111,2.969-5.748
				c1.326-1.631,2.992-2.915,4.994-3.85s4.332-1.399,6.986-1.399c1.915,0,3.71,0.228,5.384,0.685
				c1.676,0.457,3.156,1.164,4.439,2.121c1.283,0.959,2.34,2.169,3.168,3.627c0.826,1.46,1.35,3.186,1.565,5.19h-5.745
				c-0.438-2.142-1.355-3.801-2.752-4.974l-0.01,0.01v-0.01L173.624,259.721z"/>
			<path id="path3548_1_" fill="#BE1E2D" d="M146.938,288.311c-1.435,0-2.577-0.402-3.427-1.21c-0.851-0.807-1.273-2.123-1.273-3.95
				c-1.523,1.827-3.298,3.144-5.321,3.95c-2.022,0.808-4.211,1.21-6.562,1.21c-1.523,0-2.96-0.163-4.308-0.488
				c-1.35-0.328-2.537-0.871-3.558-1.637c-1.022-0.763-1.827-1.737-2.415-2.935c-0.588-1.195-0.882-2.644-0.882-4.34
				c0-1.916,0.326-3.481,0.978-4.701c0.653-1.22,1.514-2.209,2.58-2.97c1.064-0.764,2.284-1.34,3.654-1.727
				c1.371-0.395,2.775-0.721,4.212-0.979c1.522-0.305,2.97-0.531,4.341-0.686c1.37-0.151,2.578-0.371,3.624-0.652
				c1.045-0.283,1.872-0.694,2.48-1.24c0.609-0.545,0.915-1.339,0.915-2.385c0-1.219-0.228-2.195-0.686-2.937
				c-0.455-0.739-1.044-1.307-1.764-1.698c-0.719-0.392-1.523-0.648-2.415-0.781c-0.894-0.131-1.773-0.193-2.644-0.193
				c-2.349,0-4.308,0.444-5.877,1.339c-1.566,0.894-2.414,2.579-2.547,5.06h-5.548c0.087-2.091,0.521-3.852,1.308-5.289
				c0.783-1.437,1.828-2.6,3.134-3.494c1.307-0.894,2.806-1.533,4.505-1.928c1.698-0.393,3.481-0.588,5.354-0.588
				c1.521,0,3.035,0.105,4.538,0.326c1.501,0.219,2.862,0.664,4.081,1.339c1.218,0.675,2.196,1.622,2.936,2.84
				c0.74,1.223,1.109,2.807,1.109,4.767v17.365c0,1.308,0.076,2.264,0.229,2.872c0.153,0.611,0.663,0.915,1.535,0.915
				c0.478,0,1.046-0.104,1.698-0.325v4.307c-0.958,0.568-2.284,0.852-3.978,0.852v-0.011l0.01,0.01L146.938,288.311z
				 M139.153,271.304c-1.133,0.24-2.318,0.438-3.559,0.589s-2.492,0.326-3.754,0.521c-1.264,0.193-2.395,0.513-3.395,0.944
				c-1.003,0.437-1.818,1.058-2.449,1.858c-0.631,0.811-0.946,1.906-0.946,3.302c0,0.914,0.187,1.683,0.556,2.316
				c0.369,0.633,0.851,1.143,1.436,1.531c0.588,0.396,1.283,0.679,2.09,0.853c0.806,0.175,1.621,0.262,2.448,0.262
				c1.829,0,3.395-0.25,4.701-0.751c1.307-0.502,2.373-1.132,3.199-1.89c0.827-0.766,1.436-1.592,1.829-2.481
				c0.393-0.894,0.586-1.729,0.586-2.514v-5.675c-0.686,0.525-1.603,0.906-2.742,1.143h-0.01v-0.01L139.153,271.304z"/>
		</g>
	</g>
	<g id="altac-ademy_1_">
		<path id="path3552_1_" fill="#555555" d="M187.788,259.133c0.696-1.436,1.643-2.611,2.843-3.525
			c1.194-0.915,2.596-1.588,4.213-2.024c1.607-0.435,3.393-0.649,5.352-0.649c1.478,0,2.961,0.144,4.441,0.426
			c1.474,0.283,2.801,0.814,3.979,1.6c1.177,0.783,2.134,1.885,2.874,3.299c0.736,1.416,1.106,3.256,1.106,5.517v17.886
			c0,1.653,0.809,2.479,2.417,2.479c0.477,0,0.915-0.088,1.309-0.262v3.46c-0.478,0.088-0.902,0.152-1.271,0.195
			c-0.368,0.044-0.839,0.062-1.4,0.062c-1.046,0-1.888-0.142-2.513-0.426c-0.634-0.281-1.122-0.685-1.47-1.207
			c-0.353-0.521-0.579-1.144-0.686-1.859c-0.107-0.72-0.162-1.514-0.162-2.384h-0.135c-0.737,1.088-1.486,2.055-2.252,2.905
			c-0.762,0.849-1.61,1.557-2.547,2.122c-0.937,0.562-2.003,1-3.199,1.306c-1.197,0.309-2.624,0.458-4.275,0.458
			c-1.566,0-3.035-0.188-4.407-0.557c-1.37-0.369-2.568-0.957-3.594-1.766c-1.021-0.807-1.827-1.828-2.416-3.065
			c-0.587-1.239-0.883-2.712-0.883-4.408c0-2.348,0.522-4.186,1.567-5.515c1.046-1.326,2.426-2.343,4.144-3.036
			c1.723-0.694,3.656-1.185,5.812-1.472c2.152-0.285,4.341-0.557,6.561-0.814c0.871-0.088,1.634-0.194,2.284-0.324
			c0.654-0.133,1.197-0.358,1.636-0.687c0.436-0.327,0.769-0.769,1.014-1.339c0.235-0.564,0.356-1.307,0.356-2.221
			c0-1.393-0.228-2.535-0.686-3.428s-1.09-1.6-1.891-2.123c-0.81-0.521-1.74-0.883-2.806-1.076
			c-1.066-0.197-2.209-0.294-3.426-0.294c-2.613,0-4.747,0.62-6.4,1.858c-1.652,1.238-2.522,3.229-2.61,5.973h-4.112
			c0.148-1.965,0.566-3.659,1.257-5.091v0.029h-0.02L187.788,259.133z M208.353,269.19c-0.263,0.479-0.765,0.827-1.502,1.045
			c-0.74,0.22-1.393,0.369-1.959,0.456c-1.741,0.309-3.538,0.577-5.386,0.815c-1.847,0.24-3.536,0.602-5.06,1.078
			c-1.521,0.476-2.771,1.164-3.754,2.055c-0.979,0.893-1.47,2.168-1.47,3.818c0,1.045,0.206,1.973,0.621,2.773
			c0.413,0.81,0.968,1.503,1.662,2.091c0.693,0.59,1.504,1.034,2.416,1.34c0.916,0.307,1.85,0.459,2.806,0.459
			c1.563,0,3.067-0.239,4.506-0.722c1.435-0.477,2.685-1.176,3.755-2.091c1.065-0.913,1.917-2.022,2.551-3.329
			c0.631-1.309,0.944-2.785,0.944-4.439v-5.353h-0.133v0.003H208.353z"/>
		<path id="path3554_1_" fill="#555555" d="M244.069,287.592v-6.397h-0.132c-0.437,1.088-1.077,2.09-1.926,3.006
			c-0.853,0.912-1.819,1.684-2.905,2.314c-1.092,0.632-2.256,1.12-3.493,1.473c-1.239,0.349-2.472,0.52-3.688,0.52
			c-2.568,0-4.798-0.47-6.691-1.403c-1.893-0.935-3.472-2.222-4.733-3.85c-1.268-1.635-2.198-3.524-2.808-5.679
			c-0.607-2.154-0.913-4.426-0.913-6.823c0-2.392,0.304-4.672,0.913-6.825c0.609-2.151,1.546-4.048,2.808-5.677
			c1.262-1.635,2.841-2.93,4.733-3.885c1.888-0.955,4.123-1.434,6.691-1.434c1.263,0,2.492,0.152,3.688,0.459
			c1.194,0.305,2.315,0.769,3.361,1.401c1.046,0.632,1.97,1.401,2.771,2.315c0.809,0.915,1.431,1.982,1.861,3.199h0.13v-19.308
			h4.112v46.615h-3.796v0.021l0.009-0.02L244.069,287.592z M221.51,275.939c0.413,1.721,1.065,3.255,1.96,4.6
			c0.893,1.351,2.034,2.447,3.428,3.301c1.391,0.849,3.068,1.271,5.027,1.271c2.177,0,4.012-0.428,5.518-1.271
			c1.501-0.853,2.718-1.948,3.654-3.301c0.935-1.349,1.605-2.884,2.021-4.6c0.413-1.723,0.619-3.448,0.619-5.19
			c0-1.739-0.206-3.47-0.619-5.189c-0.415-1.723-1.088-3.257-2.021-4.603c-0.937-1.35-2.153-2.447-3.654-3.299
			c-1.506-0.851-3.345-1.271-5.518-1.271c-1.959,0-3.635,0.425-5.027,1.271c-1.394,0.851-2.537,1.945-3.428,3.299
			c-0.893,1.35-1.547,2.885-1.96,4.603c-0.414,1.72-0.618,3.45-0.618,5.189c0,1.745,0.198,3.477,0.616,5.193h-0.01L221.51,275.939z"
			/>
		<path id="path3556_1_" fill="#555555" d="M256.111,276.468c0.415,1.593,1.078,3.014,1.992,4.277
			c0.914,1.266,2.065,2.305,3.459,3.137c1.395,0.827,3.068,1.24,5.027,1.24c3.006,0,5.354-0.783,7.052-2.351
			c1.698-1.563,2.872-3.654,3.526-6.266h4.111c-0.87,3.832-2.471,6.79-4.797,8.877c-2.331,2.091-5.629,3.138-9.893,3.138
			c-2.654,0-4.953-0.472-6.887-1.403c-1.935-0.936-3.512-2.223-4.732-3.853c-1.221-1.632-2.122-3.524-2.711-5.679
			c-0.589-2.153-0.883-4.424-0.883-6.823c0-2.222,0.294-4.395,0.883-6.528c0.589-2.135,1.49-4.039,2.711-5.711
			c1.221-1.677,2.798-3.022,4.732-4.049c1.934-1.021,4.232-1.534,6.887-1.534c2.698,0,5.006,0.546,6.919,1.634
			c1.915,1.09,3.468,2.514,4.669,4.276c1.198,1.765,2.056,3.787,2.58,6.071c0.52,2.285,0.738,4.604,0.65,6.957h-25.906
			c0,1.482,0.211,3.011,0.619,4.604h0.01v-0.011L256.111,276.468z M276.486,263.897c-0.501-1.435-1.207-2.71-2.122-3.818
			c-0.914-1.108-2.022-2.002-3.33-2.681c-1.308-0.673-2.789-1.011-4.438-1.011c-1.697,0-3.2,0.338-4.507,1.011
			c-1.307,0.68-2.417,1.568-3.329,2.681c-0.913,1.108-1.644,2.391-2.187,3.85c-0.545,1.46-0.903,2.95-1.077,4.471h21.805
			c-0.061-1.575-0.33-3.081-0.828-4.517h0.012L276.486,263.897z"/>
		<path id="path3558_1_" fill="#555555" d="M289.445,253.909v5.681h0.192c1.091-2.09,2.514-3.721,4.276-4.897
			c1.766-1.176,4.014-1.764,6.755-1.764c2.222,0,4.232,0.545,6.041,1.634c1.807,1.088,3.013,2.742,3.628,4.963
			c0.998-2.221,2.477-3.875,4.438-4.963c1.96-1.089,4.047-1.634,6.265-1.634c7.445,0,11.161,3.936,11.161,11.816v22.85h-4.111
			v-22.655c0-2.784-0.588-4.906-1.764-6.366c-1.179-1.46-3.244-2.185-6.206-2.185c-1.784,0-3.26,0.338-4.438,1.012
			c-1.176,0.679-2.108,1.578-2.803,2.713c-0.697,1.133-1.187,2.429-1.473,3.883c-0.28,1.459-0.427,2.971-0.427,4.539v19.062h-4.111
			v-22.836c0-1.134-0.121-2.209-0.356-3.229c-0.239-1.022-0.632-1.915-1.178-2.68c-0.547-0.763-1.27-1.358-2.185-1.796
			c-0.913-0.436-2.022-0.652-3.329-0.652c-1.742,0-3.259,0.315-4.54,0.945c-1.283,0.633-2.331,1.503-3.135,2.611
			c-0.81,1.109-1.403,2.416-1.795,3.919c-0.396,1.501-0.593,3.144-0.593,4.927v18.801h-4.113v-33.664h3.779v-0.021h0.012
			L289.445,253.909z"/>
		<path id="path3560_1_" fill="#555555" d="M338.012,253.909l11.099,28.725l10.38-28.725h4.113l-14.625,38.779
			c-0.607,1.433-1.176,2.621-1.695,3.556c-0.521,0.935-1.101,1.678-1.729,2.222c-0.632,0.544-1.372,0.936-2.222,1.176
			c-0.852,0.238-1.929,0.358-3.23,0.358c-0.828-0.044-1.47-0.076-1.928-0.1c-0.457-0.021-0.86-0.101-1.209-0.229v-3.459
			c0.477,0.086,0.946,0.161,1.404,0.227c0.458,0.066,0.924,0.103,1.399,0.103c0.915,0,1.666-0.133,2.256-0.395
			c0.589-0.262,1.101-0.621,1.535-1.078c0.434-0.457,0.806-1.013,1.105-1.664c0.306-0.652,0.633-1.372,0.978-2.153l1.435-3.788
			l-13.449-33.557h4.369h-0.014L338.012,253.909z"/>
	</g>
</g>
</svg>
