<?xml version="1.0" encoding="utf-8"?>
<!-- Generator: Adobe Illustrator 16.0.4, SVG Export Plug-In . SVG Version: 6.00 Build 0)  -->
<!DOCTYPE svg PUBLIC "-//W3C//DTD SVG 1.1//EN" "http://www.w3.org/Graphics/SVG/1.1/DTD/svg11.dtd">
<svg version="1.1" id="Layer_1" xmlns="http://www.w3.org/2000/svg" xmlns:xlink="http://www.w3.org/1999/xlink" x="0px" y="0px"
	 width="676.714px" height="299.971px" viewBox="-156 0 676.714 299.971" enable-background="new -156 0 676.714 299.971"
	 xml:space="preserve">
<g>
	<g>
		<path fill="#545454" d="M-136.134,13.659v36.008h-6.209V13.659H-136.134L-136.134,13.659z M-142.343,8.694V1.243h6.209v7.451
			H-142.343z"/>
		<path fill="#545454" d="M-119.993,12.415v5.787l-0.583,0.142c2.546-4.419,6.567-6.635,12.092-6.635
			c2.447,0,4.496,0.335,6.122,0.995c1.625,0.655,2.956,1.576,3.959,2.741c1.007,1.184,2.225,2.583,2.633,4.21
			c0.396,1.612,0.607,3.413,0.607,5.391v24.619h-6.207V24.97c0-2.261-0.67-4.669-2.011-5.986c-1.354-1.309-3.614-1.973-5.973-1.973
			c-1.862,0-3.489,0.27-4.854,0.843c-1.367,0.562-2.508,1.366-3.426,2.396c-0.908,1.03-1.217,2.248-1.676,3.639
			c-0.459,1.377-0.684,2.905-0.684,4.544v21.234h-6.207V12.415H-119.993L-119.993,12.415z"/>
		<g>
			<polygon fill="#772970" points="-34.323,1.243 -34.323,4.965 -52.947,4.965 -52.947,49.667 -57.914,49.667 -57.914,4.965 
				-75.296,4.965 -75.296,1.243 			"/>
			<path fill="#772970" d="M-31.84,12.415v8.721l-0.074-0.521c1.154-3.03,2.632-5.354,5.054-6.992
				c2.42-1.625,5.314-2.371,8.68-2.234v4.546c-2.061-0.102-3.937,0.171-5.614,0.833c-1.686,0.644-2.829,1.561-4.047,2.767
				c-1.228,1.206-2.32,2.64-2.993,4.282c-0.669,1.653-1.006,3.471-1.006,5.44v20.415h-4.966V12.418L-31.84,12.415L-31.84,12.415z"/>
			<path fill="#772970" d="M8.985,28.745c-0.286,0.535-0.396,0.921-1.216,1.151c-0.82,0.236-1.541,0.408-2.162,0.513
				c-1.925,0.336-3.897,0.632-5.947,0.894c-2.036,0.26-3.898,0.658-5.574,1.192c-1.689,0.519-3.067,1.278-4.147,2.269
				c-1.08,0.979-1.614,2.388-1.614,4.207c0,1.155,0.223,2.177,0.683,3.059c0.458,0.894,1.068,1.663,1.837,2.308
				c0.77,0.648,1.651,1.144,2.658,1.479c1.019,0.335,2.048,0.498,3.104,0.498c1.726,0,3.377-0.26,4.968-0.78
				C3.163,45,4.542,44.231,5.72,43.221c1.167-1.003,1.676-2.23,2.372-3.674c0.696-1.436,1.042-3.061,1.042-4.889v-5.91L8.985,28.745
				L8.985,28.745z M-13.266,17.979c0.771-1.59,1.812-3.204,3.143-4.208c1.316-1.007,2.869-1.752,4.643-2.234
				c1.775-0.482,3.736-0.722,5.898-0.722c1.639,0,3.264,0.162,4.903,0.472c1.627,0.312,3.092,0.896,4.383,1.768
				c1.305,0.853,2.36,2.068,3.167,3.637c0.819,1.551,1.229,3.588,1.229,6.085v19.728c0,1.828,0.509,2.731,2.285,2.731
				c0.521,0,1.005-0.086,1.44-0.285v3.826c-0.534,0.085-0.993,0.16-1.402,0.21c-0.412,0.047-0.547,0.074-1.168,0.074
				c-1.154,0-2.074-0.164-2.768-0.476c-0.695-0.31-1.241-0.759-1.626-1.331c-0.385-0.583-0.633-1.264-0.757-2.049
				c-0.111-0.796-0.174-1.674-0.174-2.632H9.779c-0.819,1.206-1.638,2.275-2.482,3.204c-0.845,0.929-1.775,1.713-2.806,2.333
				c-1.032,0.634-2.211,1.103-3.527,1.444c-1.329,0.333-2.892,0.507-4.718,0.507c-1.727,0-3.352-0.199-4.867-0.609
				c-1.502-0.408-2.832-1.056-3.961-1.951c-1.13-0.882-2.012-2.009-2.657-3.377c-0.645-1.375-0.98-2.991-0.98-4.866
				c0-2.593,0.582-4.618,1.737-6.085c1.143-1.463,2.668-2.581,4.569-3.35c1.899-0.771,4.035-1.312,6.407-1.614
				c2.384-0.312,4.792-0.619,7.239-0.909c0.956-0.086,1.8-0.209,2.519-0.359c0.722-0.135,1.317-0.394,1.801-0.755
				c0.483-0.357,0.857-0.845,1.117-1.477c0.262-0.621,0.399-1.442,0.399-2.449c0-1.526-0.25-2.794-0.758-3.773
				c-0.509-0.979-1.204-1.762-2.086-2.345c-0.895-0.572-1.925-0.976-3.104-1.192c-1.166-0.213-2.433-0.32-3.774-0.32
				c-2.88,0-5.24,1.005-7.064,2.369c-1.826,1.366-2.783,3.561-2.881,6.595h-4.532C-14.482,21.433-14.035,19.558-13.266,17.979z"/>
			<path fill="#772970" d="M26.515,12.415v6.409l0.546-0.519c0.868-2.25,2.408-4.074,4.606-5.439
				c2.208-1.368,4.643-2.048,7.275-2.048c2.598,0,4.766,0.335,6.515,1.004c1.75,0.673,3.153,1.627,4.212,2.845
				c1.056,1.229,1.838,2.729,2.27,4.511c0.438,1.77,0.646,3.761,0.646,5.97v24.525h-4.97V26.476c0-1.575-0.146-3.66-0.438-5.028
				c-0.283-1.377-0.396-2.556-1.114-3.569c-0.724-1.01-1.689-1.807-2.905-2.378c-1.228-0.565-2.757-0.862-4.581-0.862
				c-1.826,0-3.438,0.318-4.854,0.978c-1.417,0.646-2.621,1.526-3.601,2.655c-0.992,1.132-2.159,2.484-2.722,4.035
				c-0.546,1.564-0.846,3.252-0.895,5.079v22.288H21.54V12.42h4.969L26.515,12.415L26.515,12.415z"/>
			<path fill="#772970" d="M80.71,18.713c-0.521-1.028-1.228-1.469-2.123-2.139c-0.895-0.671-1.912-1.167-3.054-1.477
				c-1.154-0.312-2.386-0.474-3.678-0.474c-1.008,0-2.035,0.107-3.067,0.32c-1.03,0.228-1.974,0.583-2.843,1.092
				c-0.854,0.496-1.564,1.155-2.089,1.979c-0.529,0.819-0.794,1.828-0.794,3.03c0,1.005,0.265,1.859,0.761,2.558
				c0.509,0.694,1.144,1.278,1.91,1.764c0.771,0.474,1.603,0.868,2.519,1.181c0.904,0.31,1.752,0.573,2.52,0.757l6.045,1.368
				c1.293,0.199,2.583,0.546,3.85,1.056c1.279,0.496,2.41,1.157,3.393,1.978c0.979,0.816,1.787,1.826,2.408,3.032
				c0.619,1.186,0.942,2.601,0.942,4.242c0,2.013-0.458,3.725-1.379,5.149c-0.905,1.416-2.074,2.56-3.491,3.455
				c-1.415,0.896-3.017,1.526-4.79,1.91c-1.776,0.386-3.527,0.572-5.254,0.572c-4.369,0-7.908-0.81-10.63-2.882
				c-2.706-2.061-4.26-5.377-4.641-9.933h4.544c0.188,3.067,1.308,5.389,3.344,6.952c2.047,1.553,4.582,2.113,7.596,2.113
				c1.103,0,2.248-0.113,3.428-0.361c1.179-0.229,2.269-0.644,3.276-1.216c1.005-0.585,1.84-1.319,2.481-2.199
				c0.646-0.894,0.97-1.982,0.97-3.278c0-1.103-0.227-2.018-0.683-2.767c-0.461-0.743-1.065-1.364-1.839-1.871
				c-0.77-0.511-1.642-0.937-2.634-1.27c-0.98-0.335-1.977-0.615-2.978-0.853l-5.835-1.307c-1.489-0.371-2.857-0.82-4.109-1.327
				c-1.243-0.494-2.333-1.132-3.276-1.874c-0.933-0.745-1.665-1.652-2.186-2.733c-0.535-1.079-0.798-2.409-0.798-3.998
				c0-1.873,0.423-3.477,1.254-4.829c0.846-1.34,1.936-2.421,3.278-3.243c1.342-0.804,2.846-1.412,4.507-1.801
				c1.649-0.371,3.293-0.569,4.932-0.569c1.877,0,3.613,0.236,5.218,0.724c1.613,0.482,3.028,1.229,4.261,2.232
				c1.218,1.007,2.195,1.84,2.917,3.329c0.723,1.479,1.116,3.241,1.219,5.25h-4.53C81.532,20.96,81.248,19.741,80.71,18.713z"/>
			<path fill="#772970" d="M97.289,14.9v34.767h-4.97V14.9H97.289z M97.289,1.243v6.208h-4.97V1.243H97.289z"/>
			<path fill="#772970" d="M119.64,12.415v3.729h-7.456v25.054c0,1.489,0.199,2.22,0.609,3.063c0.407,0.849,1.314,1.313,2.954,1.403
				c1.294,0,2.595-0.078,3.892-0.212v3.812c-0.678,0-1.345,0.02-2.018,0.068c-0.683,0.057-1.45,0.076-2.123,0.076
				c-3.03,0-5.349-0.585-6.555-1.764c-1.204-1.186-1.775-3.354-1.727-6.519V16.133h-6.207v-3.729h6.207V1.235h4.967v11.174h7.456
				L119.64,12.415L119.64,12.415z"/>
			<path fill="#772970" d="M130.807,14.9v34.767h-4.964V14.9H130.807z M130.807,1.243v6.208h-4.964V1.243H130.807z"/>
			<path fill="#772970" d="M146.888,16.006c-1.627,0.903-2.993,2.105-4.058,3.6c-1.096,1.488-1.898,3.184-2.46,5.077
				c-0.544,1.887-0.815,3.824-0.815,5.787c0,1.979,0.271,3.908,0.815,5.795c0.562,1.902,1.364,3.598,2.46,5.083
				c1.063,1.488,2.433,2.694,4.058,3.602c1.641,0.917,3.523,1.366,5.685,1.366c2.16,0,4.058-0.449,5.699-1.366
				c1.627-0.905,2.976-2.111,4.058-3.602c1.081-1.487,1.896-3.181,2.456-5.083c0.55-1.887,0.821-3.816,0.821-5.795
				c0-1.963-0.271-3.9-0.821-5.787c-0.56-1.893-1.375-3.588-2.456-5.077c-1.081-1.493-2.435-2.695-4.058-3.6
				c-1.644-0.919-3.539-1.377-5.699-1.377C150.411,14.629,148.529,15.087,146.888,16.006z M160.101,12.407
				c2.186,1.052,4.021,2.472,5.515,4.244c1.489,1.775,2.621,3.852,3.393,6.234c0.77,2.368,1.152,4.903,1.152,7.586
				c0,2.692-0.387,5.227-1.152,7.598c-0.77,2.386-1.898,4.46-3.393,6.226c-1.488,1.777-3.328,3.186-5.515,4.21
				c-2.186,1.03-4.683,1.559-7.523,1.559c-2.831,0-5.34-0.523-7.522-1.559c-2.186-1.022-4.021-2.433-5.5-4.21
				c-1.491-1.768-2.621-3.845-3.393-6.226c-0.77-2.371-1.153-4.905-1.153-7.598c0-2.683,0.387-5.218,1.153-7.586
				c0.77-2.384,1.899-4.458,3.393-6.234c1.478-1.771,3.313-3.192,5.5-4.244c2.186-1.058,4.691-1.592,7.522-1.592
				C155.421,10.817,157.917,11.351,160.101,12.407z"/>
			<path fill="#772970" d="M179.231,12.415v6.409l0.5-0.519c0.866-2.25,2.394-4.074,4.602-5.439
				c2.212-1.368,4.635-2.048,7.275-2.048c2.598,0,4.767,0.335,6.518,1.004c1.75,0.673,3.152,1.627,4.207,2.845
				c1.058,1.229,1.891,2.729,2.323,4.511c0.438,1.77,0.645,3.761,0.645,5.97v24.525h-4.965V26.476c0-1.575-0.148-3.66-0.438-5.028
				c-0.285-1.377-0.448-2.556-1.171-3.569c-0.718-1.01-1.687-1.807-2.914-2.378c-1.22-0.565-2.743-0.862-4.568-0.862
				c-1.824,0-3.439,0.318-4.867,0.978c-1.415,0.646-2.606,1.526-3.59,2.655c-0.99,1.132-2.107,2.484-2.669,4.035
				c-0.55,1.564-0.846,3.252-0.895,5.079v22.288h-4.969V12.42h4.971L179.231,12.415L179.231,12.415z"/>
		</g>
		<polygon fill="#545454" points="-147.309,49.667 -156,49.667 -156,0 -147.309,0 -147.309,2.488 -153.517,2.488 -153.517,47.183 
			-147.309,47.183 		"/>
		<polygon fill="#545454" points="-90.194,0 -81.503,0 -81.503,49.667 -90.194,49.667 -90.194,47.183 -83.987,47.183 -83.987,2.488 
			-90.194,2.488 		"/>
	</g>
	<path fill="#0F486D" d="M367.738,12.44c0.714-2.002,1.578-4.039,1.578-4.524c0-0.256-0.123-0.458-0.396-0.458
		c-0.38,0-1.984,1.551-2.229,1.949c-0.125,0.123-0.248,0.123-0.371,0l-0.37-0.326c-0.072-0.132-0.133-0.193-0.072-0.318
		c0.618-0.784,2.851-3.37,5.115-3.37c0.929,0,1.325,0.449,1.325,1.165c0,0.899-1.729,4.524-1.977,5.301l0.248,0.133
		c1.305-2.267,4.028-6.597,6.807-6.597c1.06,0,1.711,0.75,1.711,1.516c0,1.2-1.154,3.978-1.648,5.143l0.248,0.133
		c1.676-2.718,4.083-6.792,6.939-6.792c1.112,0,1.702,1.005,1.702,1.747c0,0.935-0.775,2.776-1.702,5.557
		c-0.626,1.876-1.244,3.235-1.244,3.748c0.062,0.266,0.187,0.458,0.37,0.458c0.682,0,2.172-2.072,2.357-2.33
		c0.061-0.13,0.186-0.13,0.246-0.095l0.44,0.281c0.113,0.143,0.113,0.203,0.062,0.46c-0.125,0.191-2.728,3.941-5.584,3.941
		c-0.671,0-1.04-0.521-1.04-0.962c0-0.724,0.677-2.726,1.852-5.83c0.952-2.515,1.331-3.607,1.331-4.128
		c0-0.388-0.221-0.653-0.652-0.653c-0.741,0-3.219,2.911-5.133,5.947c-0.195,0.326-0.751,1.163-1.183,2.267l-0.952,2.776
		c-0.072,0.195-0.229,0.257-0.476,0.257h-1.949c-0.24,0-0.371-0.123-0.311-0.318l1.949-5.361c0.812-2.268,1.578-4.392,1.578-4.851
		c0.035-0.39-0.245-0.646-0.644-0.646c-0.749,0-3.167,2.718-4.958,5.434c-0.431,0.644-0.927,1.543-1.42,2.708l-1.022,2.776
		c-0.062,0.195-0.221,0.257-0.466,0.257h-1.951c-0.186,0-0.346-0.123-0.246-0.378L367.738,12.44z"/>
	<path fill="#0F486D" d="M392.998,14.405c1.146-2.037,2.107-4.708,2.107-5.873c0-0.714-0.431-1.456-1.33-1.456
		c-1.271,0-2.443,1.129-3.961,3.775c-1.022,1.807-1.648,3.748-1.648,5.043c0,0.874,0.626,1.518,1.305,1.518
		C390.679,17.413,391.789,16.506,392.998,14.405z M386.189,14.732c0-2.718,0.864-5.301,2.603-7.277
		c1.243-1.42,2.726-2.062,4.392-2.062c1.799,0,3.836,1.165,3.836,4.074c0,2.072-0.804,5.434-2.653,7.558
		c-1.183,1.43-2.612,2.135-4.464,2.135C388.076,19.16,386.189,17.704,386.189,14.732z"/>
	<path fill="#0F486D" d="M411.572,19.16c-2.047,0-3.094-0.775-3.094-1.869c0-0.785,0.493-1.358,1.18-1.358
		c0.742,0,1.237,0.511,1.483,1.288c0.185,0.521,0.431,0.839,0.987,0.839c0.864,0,1.553-0.707,1.553-2.064
		c0.061-1.094-0.749-2.039-1.395-3.202c-0.617-1.094-1.208-1.904-1.146-3.264c0-2.072,1.666-4.136,4.577-4.136
		c1.06,0,2.417,0.449,2.417,1.809c0,0.845-0.495,1.358-1.175,1.358c-0.563,0-1.057-0.255-1.242-1.104
		c-0.115-0.378-0.238-0.897-0.739-0.897c-0.619,0-1.298,0.449-1.298,1.869c0,1.102,1.085,2.425,1.42,2.909
		c0.617,0.884,1.183,2.004,1.183,3.495C416.284,17.353,414.36,19.16,411.572,19.16z"/>
	<g>
		<path fill="#0F486D" d="M409.969,16.313l-0.311-0.258c-0.123-0.13-0.247-0.13-0.38-0.07c-0.58,0.301-1.656,1.235-2.107,1.235
			c-0.236,0-0.359-0.193-0.359-0.511c0-0.46,0.422-1.686,1.233-3.82c1.271-3.325,1.666-4.842,1.666-5.688
			c0-0.901-0.608-1.809-1.756-1.809c-2.946,0-5.793,4.074-6.72,5.555l-0.187-0.123c0.558-1.42,1.455-3.625,1.455-4.332
			c0-0.458-0.283-1.103-1.173-1.103c-2.821,0-4.867,2.462-5.301,3.034c-0.123,0.132-0.062,0.265,0.061,0.335l0.346,0.353
			c0.088,0.098,0.21,0.098,0.272-0.035c0.494-0.519,1.701-1.684,2.258-1.684c0.283,0,0.476,0.191,0.476,0.519
			c0,0.458-0.749,2.462-1.428,4.524l-2.107,5.98c-0.062,0.193-0.027,0.416,0.246,0.416h1.984c0.31,0,0.37-0.062,0.433-0.195
			l0.987-2.974c0.504-1.288,1.05-2.257,1.676-3.297c1.298-2.197,3.898-4.782,4.835-4.782c0.422,0,0.704,0.267,0.704,0.786
			c0,0.388-0.864,2.839-1.33,4.199c-0.989,2.839-1.854,5.036-1.854,5.627c0,0.573,0.362,0.962,1.05,0.962
			c2.595,0,3.688-1.686,4.138-1.007C409.007,18.5,410.092,16.374,409.969,16.313z"/>
	</g>
	<path fill="#0F486D" d="M346.824,12.44c0.717-2.002,1.581-4.039,1.581-4.524c0-0.256-0.125-0.458-0.398-0.458
		c-0.371,0-1.984,1.551-2.23,1.949c-0.124,0.123-0.247,0.123-0.37,0l-0.371-0.326c-0.062-0.132-0.123-0.193-0.062-0.318
		c0.619-0.784,2.851-3.37,5.106-3.37c0.927,0,1.332,0.449,1.332,1.165c0,0.899-1.736,4.524-1.984,5.301l0.248,0.133
		c1.306-2.267,4.031-6.597,6.817-6.597c1.042,0,1.701,0.75,1.701,1.516c0,1.2-1.146,3.978-1.641,5.143l0.248,0.133
		c1.666-2.718,4.083-6.792,6.932-6.792c1.112,0,1.703,1.005,1.703,1.747c0,0.935-0.776,2.776-1.703,5.557
		c-0.616,1.876-1.245,3.235-1.245,3.748c0.062,0.266,0.186,0.458,0.371,0.458c0.688,0,2.172-2.072,2.354-2.33
		c0.062-0.13,0.195-0.13,0.246-0.095l0.436,0.281c0.123,0.143,0.123,0.203,0.068,0.46c-0.133,0.191-2.727,3.941-5.582,3.941
		c-0.682,0-1.05-0.521-1.05-0.962c0-0.724,0.687-2.726,1.861-5.83c0.96-2.515,1.33-3.607,1.33-4.128c0-0.388-0.22-0.653-0.651-0.653
		c-0.741,0-3.219,2.911-5.143,5.947c-0.176,0.326-0.732,1.163-1.173,2.267l-0.962,2.776c-0.061,0.195-0.211,0.257-0.469,0.257
		h-1.947c-0.239,0-0.36-0.123-0.3-0.318l1.949-5.361c0.802-2.268,1.568-4.392,1.568-4.851c0.035-0.39-0.246-0.646-0.644-0.646
		c-0.742,0-3.157,2.718-4.956,5.434c-0.423,0.644-0.919,1.543-1.422,2.708l-1.021,2.776c-0.07,0.195-0.223,0.257-0.461,0.257h-1.957
		c-0.185,0-0.345-0.123-0.247-0.378L346.824,12.44z"/>
	<path fill="#545454" d="M260.696,5.781h2.102V7.66c0.512-0.653,0.97-1.129,1.386-1.42c0.696-0.503,1.49-0.759,2.39-0.759
		c1.005,0,1.816,0.266,2.435,0.786c0.344,0.291,0.67,0.73,0.944,1.306c0.475-0.707,1.03-1.235,1.677-1.581
		c0.634-0.335,1.357-0.511,2.149-0.511c1.703,0,2.868,0.644,3.485,1.932c0.325,0.688,0.493,1.623,0.493,2.796v8.811h-2.215V9.82
		c0-0.882-0.21-1.481-0.634-1.816c-0.424-0.326-0.937-0.494-1.543-0.494c-0.839,0-1.556,0.292-2.162,0.882
		c-0.601,0.583-0.909,1.561-0.909,2.929v7.701h-2.16v-8.643c0-0.899-0.105-1.553-0.308-1.967c-0.326-0.619-0.929-0.927-1.811-0.927
		c-0.81,0-1.544,0.326-2.197,0.978c-0.661,0.653-0.995,1.836-0.995,3.537v7.02h-2.127V5.781L260.696,5.781z"/>
	<g>
		<path fill="#545454" d="M251.454,12.087c-0.618,0.265-1.232,0.449-1.871,0.529c-0.626,0.088-1.26,0.15-1.887,0.203
			c-1.119,0.088-1.993,0.344-2.61,0.785c-0.626,0.441-0.935,1.102-0.935,2.001c0,0.406,0.078,0.759,0.229,1.05
			c0.15,0.3,0.354,0.539,0.608,0.731c0.246,0.193,0.539,0.346,0.872,0.433c0.326,0.098,0.662,0.143,1.007,0.143
			c0.582,0,1.146-0.08,1.694-0.23c0.556-0.15,1.039-0.379,1.473-0.697c0.423-0.308,0.767-0.706,1.03-1.19
			c0.258-0.476,0.388-1.05,0.388-1.711v-2.046H251.454z M249.002,11.328c0.273-0.035,0.601-0.088,0.979-0.16
			c0.389-0.061,0.696-0.156,0.935-0.271c0.248-0.125,0.398-0.318,0.449-0.601c0.062-0.273,0.089-0.529,0.089-0.767
			c0-0.776-0.237-1.42-0.714-1.914c-0.478-0.496-1.287-0.751-2.417-0.751c-0.504,0-0.962,0.055-1.386,0.143
			c-0.413,0.098-0.784,0.255-1.103,0.484c-0.317,0.22-0.573,0.531-0.776,0.909c-0.202,0.378-0.333,0.854-0.396,1.428h-1.481
			c0.045-0.777,0.221-1.436,0.512-1.984c0.29-0.546,0.661-0.995,1.13-1.34c0.458-0.353,0.987-0.599,1.596-0.759
			c0.608-0.168,1.253-0.246,1.934-0.246c0.626,0,1.225,0.07,1.779,0.221c0.556,0.142,1.042,0.371,1.457,0.679
			c0.414,0.318,0.731,0.732,0.97,1.252c0.238,0.529,0.354,1.165,0.354,1.932v7.137c0,0.591,0.098,0.97,0.301,1.129
			c0.2,0.158,0.606,0.123,1.225-0.115v1.19l-0.493,0.148c-0.221,0.072-0.432,0.107-0.645,0.107c-0.229,0-0.448-0.027-0.651-0.08
			c-0.248-0.035-0.44-0.115-0.583-0.238c-0.15-0.133-0.264-0.283-0.354-0.458c-0.088-0.177-0.148-0.371-0.186-0.582
			c-0.035-0.212-0.045-0.433-0.045-0.671c-0.616,0.704-1.322,1.252-2.116,1.623c-0.792,0.371-1.647,0.554-2.566,0.554
			c-0.556,0-1.084-0.078-1.588-0.228c-0.511-0.148-0.962-0.386-1.35-0.705c-0.387-0.326-0.697-0.714-0.925-1.182
			c-0.223-0.46-0.336-1.015-0.336-1.659c0-2.232,1.463-3.545,4.392-3.951L249.002,11.328z"/>
	</g>
	<g>
		<path fill="#545454" d="M425.39,12.344c0,0.742,0.096,1.448,0.289,2.119c0.195,0.659,0.478,1.241,0.839,1.744
			c0.361,0.494,0.812,0.892,1.333,1.19c0.528,0.293,1.119,0.441,1.781,0.441c0.749,0,1.402-0.158,1.959-0.468
			c0.556-0.316,1.015-0.739,1.365-1.278c0.361-0.537,0.618-1.172,0.776-1.889c0.168-0.714,0.229-1.488,0.193-2.318
			c0-0.829-0.105-1.553-0.326-2.187c-0.22-0.634-0.521-1.172-0.907-1.604c-0.39-0.441-0.841-0.776-1.359-1.006
			c-0.52-0.23-1.085-0.346-1.701-0.346c-0.68,0-1.28,0.15-1.818,0.435c-0.527,0.289-0.978,0.679-1.329,1.181
			c-0.363,0.494-0.628,1.085-0.813,1.771C425.485,10.811,425.39,11.552,425.39,12.344z M425.39,24.014h-1.455V5.738h1.455v2.302
			h0.053c0.201-0.423,0.477-0.802,0.812-1.138c0.326-0.345,0.697-0.619,1.085-0.839c0.396-0.221,0.81-0.388,1.226-0.511
			c0.425-0.113,0.839-0.178,1.245-0.178c1.014,0,1.878,0.178,2.593,0.539c0.714,0.353,1.295,0.837,1.756,1.456
			c0.466,0.617,0.802,1.34,1.015,2.187c0.2,0.847,0.31,1.747,0.31,2.708c0,0.917-0.116,1.792-0.335,2.638
			c-0.23,0.847-0.574,1.578-1.032,2.212c-0.459,0.636-1.04,1.14-1.746,1.518c-0.706,0.38-1.536,0.573-2.488,0.573
			c-0.89,0-1.746-0.212-2.558-0.616c-0.819-0.416-1.465-1.032-1.932-1.846v7.27H425.39z"/>
		<path fill="#545454" d="M440.118,18.853h-1.455V5.738h1.455V8.19h0.045c0.404-1.049,0.925-1.773,1.569-2.187
			c0.636-0.416,1.48-0.626,2.532-0.626v1.649c-0.821-0.018-1.5,0.115-2.039,0.406c-0.538,0.281-0.96,0.671-1.271,1.165
			c-0.315,0.492-0.538,1.065-0.661,1.737c-0.115,0.661-0.176,1.358-0.176,2.082V18.853z"/>
		<path fill="#545454" d="M455.501,12.292c0-0.774-0.09-1.5-0.248-2.179c-0.158-0.669-0.413-1.26-0.749-1.754
			c-0.346-0.503-0.776-0.892-1.313-1.183c-0.53-0.283-1.191-0.433-1.969-0.433c-0.759,0-1.41,0.158-1.948,0.466
			c-0.537,0.318-0.979,0.734-1.323,1.245c-0.334,0.521-0.591,1.112-0.749,1.773c-0.168,0.669-0.248,1.358-0.248,2.062
			c0,0.812,0.1,1.561,0.283,2.24c0.188,0.688,0.458,1.27,0.812,1.766c0.353,0.484,0.804,0.862,1.332,1.137
			c0.537,0.273,1.155,0.406,1.844,0.406c0.768,0,1.411-0.158,1.957-0.468c0.539-0.316,0.978-0.731,1.325-1.252
			c0.334-0.529,0.591-1.12,0.749-1.771C455.413,13.687,455.501,13.008,455.501,12.292z M451.222,19.208
			c-0.802-0.02-1.561-0.169-2.267-0.46c-0.696-0.281-1.313-0.714-1.844-1.288c-0.521-0.572-0.944-1.297-1.243-2.15
			c-0.308-0.866-0.468-1.871-0.468-3.019c0-0.962,0.125-1.859,0.362-2.698c0.244-0.829,0.607-1.561,1.095-2.187
			c0.482-0.626,1.093-1.12,1.824-1.483c0.724-0.359,1.568-0.546,2.54-0.546c0.987,0,1.844,0.188,2.576,0.546
			c0.729,0.363,1.33,0.856,1.816,1.475c0.483,0.609,0.847,1.34,1.084,2.187c0.229,0.847,0.354,1.746,0.354,2.706
			c0,1.052-0.141,1.994-0.415,2.843c-0.271,0.837-0.67,1.569-1.181,2.178c-0.506,0.608-1.12,1.077-1.846,1.403
			C452.898,19.039,452.096,19.208,451.222,19.208z"/>
		<path fill="#545454" d="M461.639,2.872h-1.604V0.615h1.604V2.872z M461.561,5.74v14.861c0,0.556-0.018,1.04-0.072,1.463
			c-0.045,0.423-0.158,0.787-0.323,1.077c-0.168,0.298-0.426,0.521-0.752,0.662c-0.333,0.14-0.794,0.21-1.375,0.21
			c-0.354,0-0.669-0.025-0.944-0.096v-1.342c0.424,0.055,0.759,0.055,1.024,0.01c0.256-0.045,0.458-0.133,0.599-0.291
			c0.15-0.15,0.248-0.355,0.311-0.609c0.053-0.248,0.078-0.546,0.078-0.882V5.74H461.561z"/>
		<path fill="#545454" d="M474.2,11.384c0-0.646-0.08-1.245-0.258-1.816c-0.166-0.565-0.414-1.049-0.749-1.465
			c-0.326-0.414-0.75-0.739-1.253-0.987c-0.493-0.248-1.075-0.371-1.721-0.371c-0.644,0-1.216,0.133-1.709,0.379
			c-0.496,0.257-0.911,0.591-1.263,1.016c-0.346,0.423-0.626,0.917-0.839,1.473c-0.201,0.556-0.344,1.146-0.404,1.771H474.2
			L474.2,11.384z M466.005,12.645c0,0.714,0.088,1.385,0.264,2.019c0.18,0.626,0.441,1.183,0.786,1.641
			c0.354,0.468,0.794,0.839,1.323,1.122c0.538,0.271,1.146,0.414,1.844,0.414c0.952,0,1.773-0.265,2.45-0.784
			c0.679-0.521,1.13-1.272,1.36-2.232h1.621c-0.176,0.626-0.406,1.208-0.694,1.736c-0.293,0.531-0.664,0.997-1.095,1.395
			c-0.441,0.396-0.952,0.707-1.553,0.927c-0.602,0.221-1.298,0.326-2.092,0.326c-1.005,0-1.869-0.177-2.593-0.528
			c-0.732-0.363-1.333-0.849-1.799-1.456c-0.469-0.617-0.812-1.35-1.04-2.18c-0.23-0.839-0.336-1.736-0.336-2.698
			s0.133-1.869,0.396-2.708c0.263-0.847,0.644-1.588,1.137-2.222c0.494-0.626,1.095-1.13,1.809-1.493
			c0.717-0.359,1.526-0.546,2.426-0.546c1.729,0,3.089,0.626,4.075,1.861c0.987,1.245,1.474,3.044,1.456,5.407H466.005z"/>
		<path fill="#545454" d="M487.5,9.859c-0.266-0.972-0.706-1.739-1.34-2.285c-0.629-0.556-1.431-0.83-2.398-0.83
			c-0.741,0-1.387,0.168-1.914,0.486c-0.538,0.316-0.972,0.75-1.314,1.278c-0.336,0.528-0.592,1.129-0.75,1.799
			c-0.159,0.661-0.239,1.333-0.239,2.011c0,0.697,0.072,1.368,0.229,2.029c0.148,0.652,0.396,1.243,0.742,1.771
			c0.333,0.521,0.774,0.937,1.305,1.252c0.539,0.311,1.183,0.468,1.941,0.468c1.085,0,1.957-0.31,2.608-0.937
			c0.652-0.626,1.067-1.49,1.245-2.583h1.561c-0.135,0.722-0.335,1.383-0.626,1.984c-0.283,0.599-0.646,1.12-1.087,1.543
			c-0.448,0.433-0.978,0.767-1.596,1.005c-0.606,0.238-1.313,0.353-2.107,0.353c-1.007,0-1.869-0.175-2.593-0.528
			c-0.733-0.361-1.333-0.847-1.801-1.456c-0.467-0.617-0.812-1.35-1.04-2.195c-0.23-0.847-0.336-1.747-0.336-2.708
			c0-0.909,0.123-1.781,0.371-2.62c0.256-0.837,0.616-1.579,1.103-2.212c0.483-0.646,1.095-1.155,1.809-1.536
			c0.724-0.378,1.553-0.574,2.487-0.574c1.456,0,2.636,0.363,3.527,1.095c0.899,0.724,1.464,1.852,1.694,3.387H487.5L487.5,9.859z"
			/>
		<path fill="#545454" d="M496.496,18.906c-0.177,0.027-0.413,0.09-0.706,0.178c-0.288,0.08-0.608,0.125-0.97,0.125
			c-0.724,0-1.279-0.195-1.658-0.573c-0.379-0.38-0.573-1.06-0.573-2.037V7h-1.764V5.74h1.764V2.087h1.457V5.74h2.354V7h-2.354
			v8.986c0,0.328,0.008,0.603,0.023,0.839c0.018,0.238,0.072,0.433,0.15,0.581c0.08,0.15,0.203,0.268,0.372,0.328
			c0.176,0.07,0.414,0.105,0.715,0.105c0.193,0,0.396-0.018,0.599-0.054c0.203-0.033,0.396-0.068,0.591-0.123V18.906L496.496,18.906
			z"/>
	</g>
	<path fill="#545454" d="M289.081,11.335c-0.09-0.959-0.283-1.727-0.6-2.31c-0.583-1.067-1.545-1.604-2.894-1.604
		c-0.979,0-1.791,0.369-2.442,1.11c-0.661,0.731-1.007,1.676-1.052,2.805h6.987V11.335z M288.322,6.142
		c0.837,0.441,1.473,1.015,1.913,1.721c0.424,0.662,0.707,1.436,0.848,2.328c0.122,0.609,0.187,1.588,0.187,2.919h-9.219
		c0.035,1.35,0.336,2.427,0.899,3.237c0.564,0.821,1.437,1.227,2.628,1.227c1.095,0,1.979-0.38,2.639-1.155
		c0.368-0.449,0.636-0.961,0.784-1.553h2.092c-0.055,0.486-0.23,1.032-0.549,1.623c-0.316,0.601-0.659,1.085-1.04,1.463
		c-0.644,0.662-1.438,1.112-2.39,1.342c-0.504,0.123-1.085,0.193-1.729,0.193c-1.562,0-2.894-0.601-3.986-1.799
		c-1.085-1.2-1.631-2.876-1.631-5.038c0-2.125,0.546-3.854,1.646-5.176c1.095-1.323,2.532-1.994,4.296-1.994
		C286.61,5.48,287.482,5.701,288.322,6.142z"/>
	<path fill="#545454" d="M296.384,16.118c0.563,0.952,1.49,1.428,2.751,1.428c0.989,0,1.791-0.449,2.425-1.323
		c0.627-0.892,0.944-2.16,0.944-3.818c0-1.666-0.325-2.911-0.979-3.713c-0.651-0.804-1.455-1.209-2.407-1.209
		c-1.065,0-1.939,0.433-2.608,1.288c-0.654,0.854-0.987,2.117-0.987,3.785C295.52,13.966,295.81,15.156,296.384,16.118z
		 M301.137,6.187c0.38,0.255,0.812,0.679,1.289,1.295V0.798h2.045v18.221h-1.914v-1.844c-0.501,0.819-1.085,1.403-1.764,1.773
		c-0.669,0.361-1.445,0.537-2.319,0.537c-1.411,0-2.629-0.626-3.66-1.859c-1.022-1.235-1.544-2.894-1.544-4.948
		c0-1.932,0.467-3.6,1.411-5.011c0.935-1.411,2.276-2.126,4.021-2.126C299.673,5.541,300.484,5.754,301.137,6.187z"/>
	<path fill="#545454" d="M307.011,5.841h2.162v13.178h-2.162V5.841z M307.011,0.858h2.162v2.523h-2.162V0.858z"/>
	<path fill="#545454" d="M313.936,17.017c0.448,0.371,0.979,0.556,1.598,0.556c0.749,0,1.479-0.186,2.18-0.546
		c1.18-0.601,1.781-1.58,1.781-2.946V12.29c-0.266,0.178-0.602,0.318-1.015,0.441c-0.406,0.105-0.804,0.195-1.2,0.238l-1.287,0.178
		c-0.777,0.103-1.351,0.271-1.738,0.501c-0.662,0.389-0.995,1.007-0.995,1.852C313.257,16.145,313.484,16.646,313.936,17.017z
		 M318.425,11.002c0.485-0.062,0.812-0.273,0.979-0.636c0.098-0.203,0.143-0.486,0.143-0.855c0-0.769-0.248-1.313-0.769-1.658
		c-0.521-0.345-1.263-0.513-2.223-0.513c-1.103,0-1.896,0.31-2.362,0.937c-0.258,0.353-0.426,0.874-0.506,1.561h-1.992
		c0.045-1.641,0.549-2.778,1.519-3.415c0.979-0.644,2.106-0.96,3.395-0.96c1.488,0,2.7,0.291,3.625,0.882
		c0.927,0.599,1.386,1.518,1.386,2.778v7.619c0,0.23,0.044,0.416,0.14,0.558c0.09,0.14,0.283,0.21,0.574,0.21
		c0.09,0,0.203-0.008,0.317-0.018l0.379-0.062v1.649c-0.336,0.098-0.581,0.158-0.759,0.185c-0.166,0.027-0.404,0.035-0.714,0.035
		c-0.725,0-1.263-0.273-1.599-0.812c-0.165-0.291-0.29-0.694-0.36-1.225c-0.432,0.591-1.058,1.102-1.867,1.543
		c-0.821,0.441-1.713,0.662-2.69,0.662c-1.183,0-2.145-0.378-2.886-1.128c-0.749-0.741-1.12-1.668-1.12-2.788
		c0-1.227,0.361-2.179,1.103-2.856c0.733-0.671,1.695-1.087,2.886-1.245L318.425,11.002z"/>
	<path fill="#0F486D" d="M333.075,16.063c0.123,0.062,0.186,0.125,0.053,0.318c-0.456,0.706-2.47,2.778-4.763,2.778
		c-1.244,0-2.788-0.997-2.788-3.202c0-4.524,3.378-10.567,7.217-10.567c1.604,0,2.135,1.228,2.135,1.809
		c0,0.909-0.681,1.624-1.297,1.624c-0.504,0-0.865-0.195-1.06-0.776c-0.186-0.458-0.459-0.97-0.952-0.97
		c-0.68,0-1.271,0.776-1.861,2.195c-0.767,1.939-1.208,3.943-1.208,5.689c0,1.613,0.469,2.328,1.271,2.328
		c0.987,0,2.194-0.97,2.565-1.42c0.07-0.131,0.186-0.203,0.246-0.131L333.075,16.063z"/>
	<path fill="#0F486D" d="M341.048,14.405c1.146-2.037,2.106-4.708,2.106-5.873c0-0.714-0.438-1.456-1.338-1.456
		c-1.271,0-2.445,1.129-3.961,3.775c-1.017,1.807-1.641,3.748-1.641,5.043c0,0.874,0.624,1.518,1.305,1.518
		C338.72,17.413,339.84,16.506,341.048,14.405z M334.23,14.732c0-2.718,0.872-5.301,2.61-7.277c1.235-1.42,2.716-2.062,4.392-2.062
		c1.791,0,3.836,1.165,3.836,4.074c0,2.072-0.802,5.434-2.663,7.558c-1.173,1.43-2.601,2.135-4.454,2.135
		C336.127,19.16,334.23,17.704,334.23,14.732z"/>
	<g>
		<g enable-background="new    ">
			<path fill="#545454" d="M249.604,49.358l-0.45-7.19h-0.035l-3.21,7.19h-1.562l-1.059-9.248h1.562l0.555,7.352h0.035l3.227-7.352
				h1.666l0.434,7.352h0.035l3.4-7.352h1.597l-4.633,9.248H249.604z"/>
			<path fill="#545454" d="M259.009,40.11l-1.874,9.248h-1.457l1.856-9.248H259.009z M257.863,38.447l0.382-1.86h1.492l-0.382,1.86
				H257.863z"/>
			<path fill="#545454" d="M265.222,40.11l-0.278,1.341h-1.787l-1.11,5.439c-0.012,0.107-0.023,0.208-0.035,0.303
				c-0.012,0.096-0.018,0.197-0.018,0.304c0,0.239,0.09,0.403,0.27,0.492c0.18,0.09,0.384,0.135,0.616,0.135
				c0.15,0,0.295-0.015,0.434-0.045c0.138-0.029,0.277-0.068,0.416-0.116l-0.261,1.395c-0.173,0.023-0.346,0.045-0.52,0.062
				c-0.174,0.019-0.348,0.027-0.521,0.027c-0.277,0-0.538-0.021-0.781-0.062c-0.242-0.042-0.454-0.12-0.633-0.233
				c-0.18-0.113-0.325-0.266-0.434-0.456c-0.11-0.191-0.165-0.436-0.165-0.734c0-0.131,0.009-0.256,0.026-0.375
				c0.017-0.119,0.037-0.25,0.061-0.394l1.179-5.742h-1.509l0.278-1.341h1.509l0.555-2.736h1.476l-0.556,2.736H265.222z"/>
			<path fill="#545454" d="M269.072,36.587l-1.059,4.883l0.034,0.035c0.371-0.537,0.84-0.938,1.406-1.207
				c0.566-0.269,1.163-0.403,1.787-0.403c0.844,0,1.472,0.191,1.883,0.572c0.41,0.382,0.615,0.983,0.615,1.807
				c0,0.203-0.023,0.465-0.069,0.787c-0.047,0.322-0.109,0.661-0.19,1.02l-1.093,5.276h-1.476l1.146-5.401
				c0.011-0.096,0.028-0.206,0.052-0.332c0.023-0.125,0.046-0.256,0.069-0.393c0.023-0.137,0.044-0.269,0.061-0.394
				c0.018-0.125,0.026-0.23,0.026-0.313c0-0.441-0.15-0.767-0.451-0.976c-0.301-0.208-0.671-0.313-1.11-0.313
				c-0.405,0-0.808,0.102-1.206,0.304c-0.399,0.203-0.737,0.459-1.015,0.77c-0.267,0.238-0.475,0.528-0.624,0.868
				c-0.151,0.339-0.272,0.694-0.365,1.064l-1.041,5.116h-1.457l2.603-12.771H269.072z"/>
		</g>
	</g>
	<g id="_x31_TigM5_1_">
		<g>
			<path fill="#FFFFFF" d="M400.83,50.02c-35.289,0-70.58,0-105.869,0c0.082-0.053,0.156-0.137,0.244-0.154
				c2.123-0.412,3.852-1.426,5.118-3.247c-0.471-0.357-0.892-0.679-1.329-1.011c-0.166,0.158-0.316,0.273-0.434,0.417
				c-2.848,3.52-8.216,3.134-11.115,0.279c-3.172-3.125-3.213-9.141-0.206-12.409c2.067-2.248,6.188-3.276,8.982-1.727
				c0.829,0.458,1.539,1.13,2.362,1.749c0.354-0.301,0.779-0.66,1.337-1.132c-0.651-0.539-1.22-1.186-1.932-1.549
				c-1.063-0.546-2.229-0.892-3.354-1.321c41.722,0,83.442,0,125.164,0c-0.106,0.055-0.208,0.139-0.319,0.156
				c-2.27,0.359-4.25,1.315-5.703,3.1c-1.941,2.382-2.673,5.135-2.258,8.212c0.549,4.062,2.588,6.883,6.562,8.169
				c0.516,0.167,1.036,0.312,1.558,0.466c-5.298,0-10.595,0-15.89,0c0.837-0.511,1.805-0.896,2.481-1.567
				c1.077-1.067,1.212-2.583,1.228-4.015c0.053-4.4,0.02-8.803,0.018-13.205c0-0.261-0.021-0.521-0.033-0.769
				c-0.619,0-1.167,0-1.746,0c0,0.359,0,0.654,0,0.948c0,4.563,0.016,9.129-0.012,13.692c-0.006,1.12-0.338,2.18-1.353,2.81
				c-2.256,1.403-4.392,0.626-5.426-1.978c-0.529,0.082-1.073,0.166-1.887,0.291c0.567,0.888,0.95,1.768,1.584,2.392
				C399.213,49.224,400.079,49.563,400.83,50.02z M350.92,49.491c0-5.59,0-11.121,0-16.654c1.224,2.457,2.308,4.932,3.398,7.408
				c1.284,2.921,2.567,5.841,3.875,8.752c0.098,0.219,0.395,0.521,0.554,0.496c0.252-0.037,0.574-0.271,0.678-0.507
				c1.811-4.136,3.594-8.286,5.381-12.432c0.548-1.268,1.093-2.542,1.639-3.812c0.066,0.018,0.133,0.031,0.201,0.049
				c0,5.568,0,11.135,0,16.703c0.622,0,1.151,0,1.709,0c0-6.37,0-12.702,0-19.089c-0.64,0-1.231,0.035-1.816-0.012
				c-0.503-0.039-0.749,0.143-0.95,0.607c-1.686,3.927-3.398,7.845-5.105,11.763c-0.537,1.231-1.079,2.462-1.69,3.851
				c-1.336-3.073-2.599-5.968-3.856-8.864c-0.974-2.242-1.934-4.489-2.921-6.723c-0.105-0.24-0.346-0.572-0.547-0.591
				c-0.765-0.068-1.541-0.027-2.315-0.027c0,6.421,0,12.733,0,19.083C349.718,49.491,350.249,49.491,350.92,49.491z M313.134,32.69
				c0.245,0.285,0.433,0.464,0.577,0.671c3.643,5.231,7.279,10.467,10.934,15.692c0.146,0.21,0.43,0.431,0.67,0.457
				c0.604,0.064,1.225,0.02,1.857,0.02c0-6.413,0-12.745,0-19.066c-0.547,0-1.042,0-1.597,0c0,5.611,0,11.162,0,16.871
				c-0.261-0.277-0.442-0.427-0.571-0.613c-3.652-5.256-7.297-10.516-10.959-15.765c-0.166-0.236-0.465-0.496-0.729-0.529
				c-0.632-0.076-1.275-0.023-1.929-0.023c0,6.419,0,12.75,0,19.062c0.604,0,1.152,0,1.744,0
				C313.134,43.874,313.134,38.345,313.134,32.69z M379.667,30.427c-2.776,6.358-5.543,12.698-8.341,19.105
				c0.317,0,0.509-0.021,0.692,0.004c0.79,0.111,1.249-0.111,1.521-0.97c0.395-1.229,0.976-2.4,1.526-3.572
				c0.105-0.221,0.444-0.464,0.677-0.468c3.104-0.029,6.21-0.029,9.312,0c0.234,0.004,0.575,0.246,0.679,0.466
				c0.473,1.009,0.901,2.039,1.3,3.079c0.62,1.618,0.603,1.624,2.476,1.383c-0.542-1.254-1.091-2.482-1.609-3.723
				c-1.922-4.599-3.826-9.203-5.758-13.798C381.476,30.343,381.45,30.355,379.667,30.427z M343.882,38.803c-3.145,0-6.235,0-9.323,0
				c0-2.347,0-4.604,0-6.952c3.344,0,6.65,0,9.954,0c0-0.529,0-0.97,0-1.411c-3.885,0-7.709,0-11.564,0c0,6.37,0,12.702,0,19.035
				c4.057,0,8.064,0,12.071,0c0-0.48,0-0.901,0-1.411c-3.506,0-6.973,0-10.441,0c0-2.581,0-5.077,0-7.628c3.127,0,6.196,0,9.304,0
				C343.882,39.902,343.882,39.424,343.882,38.803z M305.604,49.497c0-6.397,0-12.727,0-19.058c-0.533,0-1.009,0-1.522,0
				c0,6.366,0,12.694,0,19.058C304.6,49.497,305.075,49.497,305.604,49.497z"/>
			<path fill="#FFFFFF" d="M440.228,50.02c-5.728,0-11.458,0-17.185,0c0.107-0.055,0.213-0.137,0.328-0.158
				c2.376-0.412,4.374-1.491,5.815-3.447c1.973-2.677,2.495-5.674,1.799-8.899c-0.688-3.188-2.478-5.508-5.51-6.78
				c-0.833-0.35-1.729-0.55-2.597-0.82c32.372,0,64.744,0,97.116,0c0,6.054,0,12.106,0,18.159c-2.958,0-5.916,0-8.957,0
				c0-5.955,0-11.798,0-17.626c-0.617,0-1.146,0-1.691,0c0,6.372,0,12.7,0,19.085c3.584,0,7.115,0,10.648,0
				c-0.008,0.269,0.102,0.626-0.406,0.49c-0.101-0.027-0.216-0.004-0.323-0.004c-25.265,0-50.531,0-75.795,0
				c0.927-0.414,1.951-0.693,2.763-1.27c1.859-1.327,2.517-3.356,2.562-5.518c0.086-3.996,0.025-7.994,0.023-11.99
				c0-0.263-0.023-0.522-0.035-0.78c-0.556,0-1.05,0-1.584,0c0,0.378,0.004,0.701,0,1.021c-0.053,3.986-0.09,7.972-0.168,11.958
				c-0.053,2.614-1.531,4.351-4.156,5.01c-1.664,0.417-4.237-0.359-5.133-1.947c-0.644-1.139-1.063-2.33-1.073-3.625
				c-0.027-3.861-0.01-7.722-0.01-11.585c0-0.285,0-0.569,0-0.851c-0.646,0-1.177,0-1.715,0c-0.027,0.111-0.062,0.188-0.062,0.262
				c0.051,4.472,0.039,8.945,0.193,13.414c0.055,1.582,0.741,3.03,1.904,4.21C437.893,49.255,439.078,49.585,440.228,50.02z
				 M471.546,49.493c0-5.596,0-11.131,0-16.795c0.254,0.338,0.42,0.542,0.572,0.759c3.631,5.207,7.258,10.417,10.896,15.62
				c0.127,0.183,0.334,0.416,0.519,0.429c0.686,0.053,1.376,0.021,2.047,0.021c0-6.435,0-12.745,0-19.07c-0.593,0-1.142,0-1.766,0
				c0,5.594,0,11.135,0,16.84c-0.162-0.229-0.221-0.311-0.277-0.394c-3.684-5.27-7.363-10.542-11.053-15.804
				c-0.188-0.27-0.456-0.623-0.728-0.664c-0.647-0.096-1.32-0.029-1.98-0.029c0,6.427,0,12.737,0,19.085
				C470.343,49.493,470.873,49.493,471.546,49.493z M460.644,40.353c1.563-0.26,2.978-0.642,3.936-1.822
				c1.641-2.027,1.555-6.595-2.248-7.623c-1.04-0.283-2.136-0.437-3.213-0.484c-1.795-0.076-3.594-0.021-5.369-0.021
				c0,6.444,0,12.774,0,19.087c0.593,0,1.121,0,1.736,0c0-3.024,0-6.003,0-9.035c0.894,0,1.701,0.042,2.503-0.014
				c0.646-0.047,1.03,0.175,1.356,0.735c1.545,2.669,3.123,5.322,4.708,7.97c0.103,0.171,0.335,0.347,0.524,0.367
				c0.489,0.053,0.989,0.018,1.602,0.018C464.296,46.407,462.487,43.408,460.644,40.353z M506.479,49.532
				c0.014-0.121,0.037-0.18,0.021-0.223c-2.537-6.013-5.081-12.022-7.605-18.04c-0.227-0.542-0.391-0.911-1.138-0.907
				c-0.833,0.002-1.274,0.209-1.461,1.042c-0.105,0.457-0.4,0.864-0.594,1.305c-1.949,4.449-3.897,8.899-5.839,13.351
				c-0.494,1.13-0.96,2.271-1.464,3.471c0.412,0,0.71-0.027,1.003,0.006c0.52,0.057,0.817-0.082,1.013-0.634
				c0.336-0.948,0.827-1.84,1.192-2.78c0.622-1.609,0.603-1.617,2.255-1.617c2.911,0,5.824,0,8.739,0
				c0.624,1.52,1.252,2.981,1.814,4.47c0.162,0.429,0.35,0.599,0.794,0.564C505.634,49.505,506.059,49.532,506.479,49.532z"/>
			<path d="M422.881,29.916c0.866,0.27,1.762,0.47,2.595,0.818c3.034,1.274,4.821,3.594,5.51,6.782
				c0.696,3.225,0.176,6.222-1.799,8.897c-1.441,1.958-3.438,3.036-5.813,3.449c-0.115,0.021-0.221,0.104-0.33,0.156
				c-1.134,0-2.27,0-3.404,0c-0.52-0.154-1.042-0.299-1.558-0.466c-3.974-1.286-6.013-4.107-6.56-8.169
				c-0.415-3.077,0.314-5.83,2.256-8.212c1.455-1.785,3.436-2.741,5.703-3.1c0.113-0.018,0.215-0.104,0.319-0.156
				C420.828,29.916,421.854,29.916,422.881,29.916z M413.124,40.512c-0.105,1.665,0.585,3.658,1.999,5.352
				c1.28,1.533,2.997,2.287,4.997,2.569c2.792,0.394,5.225-0.32,7.162-2.289c2.724-2.772,2.935-7.607,1.126-10.793
				c-2.219-3.908-7.084-4.876-10.797-3.101C414.456,33.76,413.147,36.509,413.124,40.512z"/>
			<path d="M440.228,50.02c-1.149-0.435-2.337-0.765-3.246-1.692c-1.163-1.18-1.85-2.628-1.904-4.21
				c-0.154-4.468-0.143-8.942-0.193-13.414c0-0.074,0.035-0.15,0.062-0.262c0.538,0,1.067,0,1.715,0c0,0.281,0,0.566,0,0.851
				c0,3.861-0.018,7.723,0.01,11.585c0.01,1.295,0.432,2.486,1.073,3.625c0.894,1.588,3.469,2.365,5.133,1.947
				c2.625-0.657,4.104-2.394,4.156-5.01c0.078-3.984,0.115-7.97,0.168-11.956c0.004-0.322,0-0.644,0-1.022c0.534,0,1.028,0,1.584,0
				c0.012,0.258,0.035,0.519,0.035,0.78c0.002,3.996,0.062,7.994-0.023,11.99c-0.047,2.162-0.702,4.19-2.562,5.518
				c-0.812,0.577-1.836,0.854-2.763,1.27C442.39,50.02,441.309,50.02,440.228,50.02z"/>
			<path d="M294.636,29.916c1.124,0.429,2.29,0.775,3.354,1.321c0.712,0.363,1.278,1.011,1.932,1.549
				c-0.558,0.472-0.983,0.831-1.337,1.132c-0.823-0.619-1.533-1.29-2.362-1.749c-2.794-1.549-6.915-0.521-8.982,1.727
				c-3.007,3.268-2.966,9.283,0.206,12.409c2.899,2.853,8.268,3.241,11.115-0.279c0.115-0.144,0.268-0.259,0.436-0.417
				c0.438,0.332,0.856,0.652,1.327,1.011c-1.267,1.82-2.995,2.835-5.118,3.247c-0.088,0.02-0.162,0.102-0.244,0.154
				c-1.135,0-2.269,0-3.404,0c-0.057-0.049-0.105-0.137-0.164-0.145c-4.028-0.529-7.031-3.562-7.784-7.43
				c-0.1-0.503-0.213-1.003-0.32-1.504c0-0.649,0-1.299,0-1.947c0.053-0.107,0.145-0.213,0.156-0.326
				c0.437-3.951,2.419-6.735,6.187-8.151c0.675-0.253,1.392-0.402,2.088-0.601C292.69,29.916,293.664,29.916,294.636,29.916z"/>
			<path d="M519.997,49.532c-3.533,0-7.066,0-10.648,0c0-6.386,0-12.713,0-19.085c0.544,0,1.074,0,1.689,0
				c0,5.828,0,11.671,0,17.628c3.041,0,5.999,0,8.959,0C519.997,48.561,519.997,49.046,519.997,49.532z"/>
			<path d="M400.83,50.02c-0.751-0.457-1.617-0.796-2.227-1.399c-0.634-0.626-1.017-1.506-1.582-2.394
				c0.812-0.125,1.355-0.209,1.885-0.289c1.034,2.604,3.17,3.381,5.426,1.976c1.015-0.63,1.347-1.689,1.354-2.81
				c0.025-4.563,0.01-9.129,0.01-13.69c0-0.294,0-0.591,0-0.948c0.581,0,1.129,0,1.746,0c0.012,0.246,0.035,0.507,0.035,0.769
				c0.002,4.4,0.033,8.803-0.018,13.205c-0.018,1.43-0.152,2.946-1.228,4.013c-0.679,0.673-1.645,1.058-2.481,1.569
				C402.777,50.02,401.804,50.02,400.83,50.02z"/>
			<path fill="#FFFFFF" d="M291.717,29.916c-0.696,0.197-1.411,0.348-2.088,0.601c-3.768,1.417-5.748,4.201-6.187,8.151
				c-0.012,0.113-0.104,0.219-0.156,0.326c0-3.013,0-6.025,0-9.079C286.098,29.916,288.907,29.916,291.717,29.916z"/>
			<path fill="#FFFFFF" d="M283.286,40.941c0.107,0.501,0.223,1.001,0.32,1.504c0.753,3.867,3.756,6.901,7.784,7.43
				c0.061,0.008,0.109,0.096,0.164,0.145c-2.755,0-5.514,0-8.269,0C283.286,46.992,283.286,43.966,283.286,40.941z"/>
			<path d="M350.92,49.491c-0.671,0-1.202,0-1.77,0c0-6.351,0-12.663,0-19.083c0.774,0,1.551-0.041,2.315,0.027
				c0.201,0.02,0.441,0.351,0.547,0.589c0.987,2.236,1.947,4.483,2.921,6.725c1.258,2.896,2.521,5.791,3.856,8.864
				c0.611-1.391,1.153-2.62,1.69-3.851c1.707-3.92,3.42-7.836,5.105-11.763c0.201-0.464,0.447-0.646,0.95-0.607
				c0.585,0.047,1.179,0.01,1.816,0.01c0,6.39,0,12.721,0,19.091c-0.558,0-1.087,0-1.709,0c0-5.566,0-11.135,0-16.703
				c-0.068-0.018-0.135-0.031-0.201-0.049c-0.546,1.27-1.091,2.544-1.639,3.812c-1.787,4.146-3.568,8.296-5.381,12.432
				c-0.104,0.234-0.426,0.47-0.678,0.507c-0.159,0.025-0.456-0.277-0.554-0.496c-1.308-2.911-2.591-5.832-3.875-8.752
				c-1.091-2.476-2.175-4.952-3.398-7.408C350.92,38.37,350.92,43.903,350.92,49.491z"/>
			<path d="M313.134,32.69c0,5.654,0,11.184,0,16.777c-0.592,0-1.14,0-1.744,0c0-6.313,0-12.645,0-19.064
				c0.651,0,1.297-0.053,1.929,0.025c0.264,0.031,0.562,0.291,0.729,0.529c3.662,5.249,7.305,10.508,10.959,15.763
				c0.131,0.188,0.312,0.337,0.571,0.615c0-5.709,0-11.26,0-16.873c0.555,0,1.05,0,1.597,0c0,6.321,0,12.653,0,19.068
				c-0.635,0-1.253,0.043-1.857-0.021c-0.24-0.025-0.523-0.244-0.67-0.457c-3.654-5.223-7.291-10.461-10.934-15.69
				C313.566,33.155,313.379,32.976,313.134,32.69z"/>
			<path d="M379.667,30.427c1.781-0.072,1.809-0.084,2.476,1.506c1.932,4.595,3.836,9.199,5.758,13.798
				c0.519,1.241,1.067,2.468,1.609,3.723c-1.871,0.24-1.855,0.234-2.476-1.383c-0.398-1.04-0.827-2.07-1.3-3.079
				c-0.104-0.221-0.444-0.462-0.679-0.466c-3.104-0.029-6.208-0.029-9.312,0c-0.232,0.004-0.571,0.248-0.677,0.468
				c-0.553,1.172-1.134,2.343-1.526,3.572c-0.272,0.856-0.731,1.081-1.521,0.97c-0.186-0.025-0.375-0.004-0.692-0.004
				C374.124,43.125,376.891,36.788,379.667,30.427z M375.972,42.826c3.013,0,5.901,0,8.908,0c-1.461-3.549-2.886-7.006-4.382-10.641
				C378.945,35.834,377.476,39.289,375.972,42.826z"/>
			<path d="M343.882,38.803c0,0.621,0,1.099,0,1.633c-3.107,0-6.179,0-9.304,0c0,2.552,0,5.047,0,7.628c3.469,0,6.936,0,10.441,0
				c0,0.509,0,0.931,0,1.411c-4.007,0-8.015,0-12.071,0c0-6.333,0-12.665,0-19.035c3.855,0,7.68,0,11.564,0c0,0.441,0,0.882,0,1.411
				c-3.304,0-6.61,0-9.954,0c0,2.347,0,4.604,0,6.952C337.646,38.803,340.737,38.803,343.882,38.803z"/>
			<path d="M305.604,49.497c-0.529,0-1.005,0-1.522,0c0-6.364,0-12.692,0-19.058c0.516,0,0.989,0,1.522,0
				C305.604,36.77,305.604,43.1,305.604,49.497z"/>
			<path d="M471.546,49.493c-0.673,0-1.203,0-1.77,0c0-6.349,0-12.661,0-19.087c0.66,0,1.333-0.064,1.98,0.031
				c0.271,0.041,0.539,0.394,0.728,0.662c3.689,5.264,7.371,10.536,11.053,15.806c0.059,0.082,0.115,0.164,0.277,0.394
				c0-5.707,0-11.248,0-16.842c0.624,0,1.173,0,1.766,0c0,6.325,0,12.635,0,19.072c-0.671,0-1.361,0.031-2.047-0.021
				c-0.185-0.014-0.392-0.248-0.519-0.431c-3.639-5.202-7.266-10.411-10.896-15.618c-0.152-0.217-0.318-0.423-0.572-0.761
				C471.546,38.364,471.546,43.899,471.546,49.493z"/>
			<path d="M460.644,40.353c1.844,3.055,3.652,6.056,5.535,9.178c-0.612,0-1.11,0.035-1.602-0.018
				c-0.189-0.02-0.424-0.195-0.524-0.367c-1.585-2.648-3.163-5.301-4.708-7.97c-0.326-0.562-0.711-0.782-1.356-0.735
				c-0.802,0.056-1.609,0.014-2.503,0.014c0,3.032,0,6.011,0,9.035c-0.615,0-1.144,0-1.736,0c0-6.313,0-12.643,0-19.085
				c1.775,0,3.574-0.057,5.369,0.02c1.077,0.047,2.173,0.201,3.213,0.484c3.803,1.028,3.889,5.596,2.248,7.623
				C463.621,39.71,462.207,40.093,460.644,40.353z M455.501,38.78c0.141,0.027,0.191,0.047,0.243,0.047
				c1.323,0.004,2.65,0.041,3.973-0.008c0.683-0.025,1.388-0.119,2.033-0.333c1.319-0.437,2.027-1.448,2.137-2.81
				c0.105-1.336-0.514-2.587-1.738-3.157c-2.137-0.993-4.398-0.556-6.647-0.667C455.501,34.22,455.501,36.479,455.501,38.78z"/>
			<path d="M506.479,49.532c-0.42,0-0.845-0.027-1.269,0.008c-0.444,0.033-0.632-0.137-0.794-0.564
				c-0.562-1.487-1.19-2.948-1.814-4.47c-2.915,0-5.828,0-8.739,0c-1.652,0-1.633,0.008-2.255,1.617
				c-0.365,0.94-0.856,1.832-1.192,2.78c-0.195,0.552-0.493,0.691-1.013,0.634c-0.293-0.033-0.591-0.006-1.003-0.006
				c0.504-1.2,0.97-2.341,1.464-3.471c1.941-4.452,3.89-8.902,5.839-13.351c0.191-0.439,0.488-0.851,0.594-1.305
				c0.187-0.835,0.628-1.04,1.461-1.044c0.747-0.002,0.911,0.367,1.138,0.909c2.524,6.017,5.068,12.026,7.605,18.04
				C506.516,49.353,506.49,49.411,506.479,49.532z M497.532,32.177c-1.562,3.689-3.027,7.151-4.517,10.663c3.036,0,5.91,0,8.917,0
				C500.469,39.295,499.041,35.834,497.532,32.177z"/>
			<path fill="#FFFFFF" d="M413.124,40.512c0.023-4.003,1.332-6.752,4.487-8.261c3.713-1.773,8.578-0.808,10.797,3.101
				c1.809,3.186,1.598,8.021-1.126,10.793c-1.938,1.969-4.37,2.683-7.162,2.289c-1.998-0.283-3.717-1.036-4.997-2.569
				C413.709,44.17,413.017,42.177,413.124,40.512z"/>
			<path fill="#FFFFFF" d="M375.972,42.826c1.504-3.537,2.974-6.99,4.526-10.641c1.496,3.637,2.921,7.094,4.382,10.641
				C381.873,42.826,378.984,42.826,375.972,42.826z"/>
			<path fill="#FFFFFF" d="M455.501,38.78c0-2.3,0-4.56,0-6.928c2.247,0.109,4.511-0.326,6.647,0.667
				c1.225,0.569,1.844,1.818,1.736,3.157c-0.107,1.36-0.815,2.373-2.137,2.81c-0.646,0.212-1.351,0.306-2.033,0.332
				c-1.32,0.051-2.647,0.012-3.973,0.008C455.694,38.827,455.642,38.807,455.501,38.78z"/>
			<path fill="#FFFFFF" d="M497.532,32.177c1.509,3.657,2.937,7.118,4.398,10.663c-3.007,0-5.881,0-8.915,0
				C494.503,39.33,495.97,35.869,497.532,32.177z"/>
		</g>
	</g>
</g>
<g>
	<g>
		<path fill="#545454" d="M-118.94,232.105v67.17h-11.583v-67.17H-118.94L-118.94,232.105z M-130.523,222.84v-13.898h11.583v13.898
			H-130.523z"/>
		<path fill="#545454" d="M-88.831,229.786v10.793l-1.088,0.26c4.75-8.244,12.251-12.371,22.557-12.371
			c4.564,0,8.386,0.625,11.419,1.856c3.032,1.223,5.514,2.941,7.386,5.112c1.878,2.204,4.149,4.82,4.912,7.855
			c0.739,3.007,1.133,6.365,1.133,10.053v45.931h-11.58v-46.07c0-4.217-1.25-8.708-3.752-11.167
			c-2.524-2.452-6.741-3.68-11.142-3.68c-3.473,0-6.509,0.504-9.054,1.573c-2.55,1.047-4.679,2.549-6.392,4.471
			c-1.694,1.922-2.27,4.191-3.127,6.788c-0.857,2.569-1.275,5.42-1.275,8.477v39.608h-11.58v-69.489H-88.831L-88.831,229.786z"/>
		<g>
			<polygon fill="#772970" points="70.982,208.941 70.982,215.889 36.242,215.889 36.242,299.275 26.976,299.275 26.976,215.889 
				-5.451,215.889 -5.451,208.941 			"/>
			<path fill="#772970" d="M75.615,229.786v16.262l-0.138-0.971c2.153-5.651,4.91-9.986,9.427-13.044
				c4.516-3.031,9.915-4.422,16.192-4.169v8.481c-3.845-0.188-7.344,0.32-10.472,1.553c-3.146,1.2-5.277,2.915-7.549,5.16
				c-2.291,2.25-4.329,4.915-5.583,7.991c-1.249,3.084-1.876,6.461-1.876,10.147v38.08h-9.264v-69.49L75.615,229.786L75.615,229.786
				z"/>
			<path fill="#772970" d="M151.772,260.245c-0.533,0.996-0.74,1.718-2.269,2.153c-1.529,0.438-2.874,0.761-4.033,0.95
				c-3.59,0.627-7.269,1.179-11.092,1.667c-3.798,0.485-7.272,1.226-10.398,2.226c-3.151,0.972-5.722,2.386-7.736,4.236
				c-2.016,1.829-3.011,4.451-3.011,7.849c0,2.155,0.416,4.055,1.275,5.703c0.855,1.667,1.992,3.104,3.427,4.306
				c1.435,1.205,3.08,2.129,4.957,2.758c1.901,0.626,3.821,0.928,5.79,0.928c3.22,0,6.3-0.484,9.268-1.456
				c2.962-0.997,5.536-2.433,7.733-4.316c2.177-1.873,3.126-4.164,4.424-6.854c1.298-2.682,1.944-5.715,1.944-9.122v-11.025h-0.278
				V260.245z M110.264,240.166c1.438-2.966,3.381-5.977,5.863-7.853c2.455-1.877,5.351-3.267,8.662-4.166
				c3.311-0.905,6.968-1.348,11.001-1.348c3.058,0,6.088,0.304,9.146,0.882c3.035,0.579,5.769,1.669,8.176,3.293
				c2.434,1.592,4.402,3.86,5.907,6.782c1.529,2.893,2.292,6.694,2.292,11.352v36.801c0,3.411,0.949,5.097,4.262,5.097
				c0.973,0,1.875-0.162,2.687-0.531v7.135c-0.996,0.16-1.852,0.301-2.616,0.394c-0.768,0.089-1.021,0.138-2.18,0.138
				c-2.153,0-3.868-0.306-5.164-0.88c-1.295-0.58-2.315-1.418-3.033-2.482c-0.718-1.089-1.182-2.358-1.414-3.821
				c-0.206-1.487-0.324-3.123-0.324-4.91h-0.277c-1.529,2.248-3.056,4.242-4.632,5.977c-1.576,1.731-3.311,3.193-5.233,4.352
				c-1.926,1.184-4.125,2.062-6.581,2.692c-2.479,0.624-5.395,0.946-8.801,0.946c-3.22,0-6.252-0.369-9.078-1.135
				c-2.804-0.762-5.283-1.97-7.39-3.639c-2.107-1.646-3.752-3.751-4.956-6.3c-1.202-2.565-1.829-5.58-1.829-9.079
				c0-4.836,1.086-8.614,3.241-11.353c2.132-2.729,4.977-4.812,8.524-6.249c3.542-1.434,7.528-2.435,11.952-3.01
				c4.447-0.582,8.94-1.154,13.503-1.694c1.784-0.16,3.358-0.391,4.7-0.671c1.346-0.251,2.457-0.738,3.36-1.409
				c0.901-0.669,1.599-1.576,2.083-2.755c0.488-1.157,0.744-2.689,0.744-4.565c0-2.849-0.465-5.213-1.415-7.042
				c-0.95-1.83-2.246-3.286-3.891-4.374c-1.669-1.064-3.591-1.812-5.792-2.225c-2.175-0.396-4.538-0.6-7.041-0.6
				c-5.372,0-9.775,1.874-13.178,4.42c-3.407,2.55-5.192,6.644-5.375,12.301h-8.454C107.995,246.606,108.83,243.106,110.264,240.166
				z"/>
			<path fill="#772970" d="M184.477,229.786v11.956l1.019-0.973c1.619-4.194,4.491-7.597,8.593-10.146
				c4.12-2.551,8.662-3.822,13.572-3.822c4.845,0,8.896,0.627,12.159,1.875c3.266,1.254,5.882,3.036,7.855,5.306
				c1.965,2.293,3.425,5.093,4.236,8.409c0.812,3.309,1.205,7.019,1.205,11.139v45.749h-9.271v-43.271
				c0-2.938-0.273-6.83-0.812-9.381c-0.531-2.569-0.738-4.766-2.082-6.664c-1.347-1.878-3.152-3.363-5.42-4.429
				c-2.293-1.065-5.143-1.616-8.546-1.616c-3.406,0-6.416,0.6-9.055,1.828c-2.643,1.203-4.888,2.847-6.719,4.954
				c-1.853,2.108-4.029,4.633-5.074,7.526c-1.015,2.919-1.575,6.065-1.666,9.474v41.578h-9.263v-69.49h9.267V229.786z"/>
			<path fill="#772970" d="M285.574,241.529c-0.969-1.916-2.289-2.734-3.96-3.983c-1.667-1.251-3.567-2.177-5.696-2.756
				c-2.155-0.58-4.448-0.877-6.857-0.877c-1.878,0-3.8,0.204-5.722,0.601c-1.925,0.414-3.68,1.087-5.302,2.036
				c-1.599,0.927-2.924,2.156-3.895,3.682c-0.991,1.53-1.482,3.411-1.482,5.652c0,1.877,0.491,3.479,1.417,4.773
				c0.945,1.294,2.129,2.384,3.565,3.286c1.435,0.883,2.985,1.621,4.7,2.201c1.688,0.58,3.268,1.067,4.702,1.411l11.274,2.55
				c2.413,0.373,4.819,1.021,7.182,1.971c2.388,0.923,4.495,2.156,6.326,3.682c1.83,1.529,3.333,3.405,4.491,5.656
				c1.156,2.219,1.762,4.854,1.762,7.916c0,3.752-0.856,6.952-2.574,9.61c-1.688,2.642-3.868,4.774-6.511,6.445
				c-2.639,1.666-5.623,2.845-8.936,3.562c-3.312,0.721-6.577,1.066-9.802,1.066c-8.148,0-14.751-1.506-19.825-5.375
				c-5.047-3.844-7.945-10.025-8.662-18.528h8.477c0.35,5.722,2.436,10.057,6.235,12.969c3.818,2.896,8.546,3.939,14.173,3.939
				c2.06,0,4.192-0.209,6.395-0.671c2.198-0.438,4.233-1.203,6.11-2.27c1.874-1.091,3.433-2.459,4.634-4.102
				c1.201-1.669,1.806-3.698,1.806-6.115c0-2.057-0.419-3.772-1.271-5.165c-0.858-1.386-1.991-2.544-3.429-3.489
				c-1.438-0.954-3.061-1.744-4.913-2.369c-1.831-0.624-3.684-1.153-5.559-1.595l-10.882-2.433
				c-2.781-0.698-5.332-1.533-7.668-2.479c-2.32-0.923-4.354-2.107-6.115-3.494c-1.736-1.392-3.105-3.085-4.073-5.101
				c-1.001-2.014-1.488-4.493-1.488-7.458c0-3.492,0.789-6.483,2.34-9.008c1.576-2.501,3.611-4.516,6.115-6.049
				c2.504-1.5,5.307-2.636,8.407-3.357c3.075-0.693,6.14-1.062,9.193-1.062c3.502,0,6.745,0.44,9.732,1.348
				c3.01,0.899,5.649,2.291,7.945,4.166c2.271,1.876,4.099,3.431,5.444,6.207c1.344,2.755,2.082,6.046,2.268,9.795h-8.451
				C287.102,245.722,286.57,243.452,285.574,241.529z"/>
			<path fill="#772970" d="M316.495,234.422v64.854h-9.266v-64.854H316.495z M316.495,208.941v11.582h-9.266v-11.582H316.495z"/>
			<path fill="#772970" d="M358.191,229.786v6.953h-13.904v46.737c0,2.778,0.372,4.143,1.137,5.721
				c0.764,1.576,2.452,2.451,5.511,2.618c2.413,0,4.84-0.144,7.257-0.395v7.11c-1.26,0-2.504,0.042-3.76,0.133
				c-1.27,0.102-2.704,0.142-3.96,0.142c-5.652,0-9.979-1.09-12.225-3.289c-2.246-2.203-3.316-6.256-3.226-12.16v-46.621h-11.577
				v-6.953h11.577v-20.845h9.266v20.845h13.904V229.786z"/>
			<path fill="#772970" d="M379.028,234.422v64.854h-9.259v-64.854H379.028z M379.028,208.941v11.582h-9.259v-11.582H379.028z"/>
			<path fill="#772970" d="M409.025,236.482c-3.034,1.688-5.582,3.933-7.569,6.717c-2.042,2.777-3.545,5.929-4.591,9.469
				c-1.015,3.52-1.524,7.135-1.524,10.795c0,3.682,0.51,7.292,1.524,10.812c1.046,3.549,2.549,6.7,4.591,9.479
				c1.987,2.777,4.535,5.028,7.569,6.717c3.059,1.711,6.573,2.546,10.606,2.546c4.032,0,7.57-0.835,10.631-2.546
				c3.036-1.688,5.559-3.939,7.574-6.717c2.017-2.779,3.542-5.931,4.583-9.479c1.026-3.52,1.532-7.13,1.532-10.812
				c0-3.66-0.506-7.275-1.532-10.795c-1.041-3.54-2.566-6.691-4.583-9.469c-2.016-2.784-4.538-5.028-7.574-6.717
				c-3.061-1.715-6.599-2.569-10.631-2.569C415.599,233.913,412.084,234.768,409.025,236.482z M433.67,229.77
				c4.076,1.963,7.506,4.607,10.286,7.918c2.78,3.312,4.888,7.181,6.325,11.626c1.434,4.421,2.151,9.147,2.151,14.151
				c0,5.024-0.722,9.751-2.151,14.175c-1.438,4.449-3.545,8.318-6.325,11.623c-2.778,3.313-6.21,5.937-10.286,7.851
				c-4.076,1.926-8.731,2.9-14.034,2.9c-5.281,0-9.961-0.973-14.034-2.9c-4.076-1.914-7.505-4.537-10.261-7.851
				c-2.781-3.305-4.889-7.176-6.329-11.623c-1.434-4.424-2.15-9.15-2.15-14.175c0-5.004,0.717-9.73,2.15-14.151
				c1.438-4.447,3.545-8.314,6.329-11.626c2.756-3.311,6.185-5.955,10.261-7.918c4.076-1.971,8.753-2.97,14.034-2.97
				C424.938,226.8,429.594,227.799,433.67,229.77z"/>
			<path fill="#772970" d="M469.36,229.786v11.956l0.931-0.973c1.616-4.194,4.466-7.597,8.59-10.146
				c4.12-2.551,8.641-3.822,13.572-3.822c4.841,0,8.892,0.627,12.161,1.875c3.264,1.254,5.881,3.036,7.846,5.306
				c1.973,2.293,3.523,5.093,4.335,8.409C517.607,245.7,518,249.41,518,253.53v45.749h-9.263v-43.271
				c0-2.938-0.281-6.83-0.812-9.381c-0.535-2.569-0.841-4.766-2.185-6.664c-1.335-1.878-3.144-3.363-5.437-4.429
				c-2.271-1.065-5.118-1.616-8.524-1.616c-3.403,0-6.417,0.6-9.081,1.828c-2.639,1.203-4.862,2.847-6.693,4.954
				c-1.849,2.108-3.935,4.633-4.979,7.526c-1.023,2.919-1.576,6.065-1.671,9.474v41.578h-9.263v-69.49h9.267V229.786z"/>
		</g>
		<polygon fill="#545454" points="-139.788,299.275 -156,299.275 -156,206.625 -139.788,206.625 -139.788,211.264 -151.368,211.264 
			-151.368,294.639 -139.788,294.639 		"/>
		<polygon fill="#545454" points="-33.243,206.625 -17.03,206.625 -17.03,299.275 -33.243,299.275 -33.243,294.639 -21.663,294.639 
			-21.663,211.264 -33.243,211.264 		"/>
	</g>
</g>
</svg>
