<?xml version="1.0" encoding="utf-8"?>
<!-- Generator: Adobe Illustrator 16.0.4, SVG Export Plug-In . SVG Version: 6.00 Build 0)  -->
<!DOCTYPE svg PUBLIC "-//W3C//DTD SVG 1.1//EN" "http://www.w3.org/Graphics/SVG/1.1/DTD/svg11.dtd" [
	<!ENTITY st0 "fill-rule:evenodd;clip-rule:evenodd;fill:#0F486D;">
	<!ENTITY st1 "fill:#545454;">
	<!ENTITY st2 "fill-rule:evenodd;clip-rule:evenodd;fill:#545454;">
	<!ENTITY st3 "fill-rule:evenodd;clip-rule:evenodd;">
	<!ENTITY st4 "fill:#FFFFFF;">
	<!ENTITY st5 "fill-rule:evenodd;clip-rule:evenodd;fill:#FFFFFF;">
	<!ENTITY st6 "fill:#772970;">
	<!ENTITY st7 "fill:#0F486D;">
]>
<svg version="1.1" id="Layer_1" xmlns="http://www.w3.org/2000/svg" xmlns:xlink="http://www.w3.org/1999/xlink" x="0px" y="0px"
	 width="665.595px" height="58.025px" viewBox="12 413.003 665.595 58.025"
	 style="enable-background:new 12 413.003 665.595 58.025;" xml:space="preserve">
<g>
	<path style="&st1;" d="M31.887,426.677v36.045h-6.215v-36.045H31.887L31.887,426.677z M25.672,421.707v-7.459h6.215v7.459H25.672z"
		/>
	<path style="&st1;" d="M48.045,425.431v5.793l-0.584,0.143c2.549-4.424,6.574-6.643,12.105-6.643c2.449,0,4.5,0.336,6.128,0.996
		c1.627,0.656,2.959,1.578,3.963,2.744c1.008,1.186,2.227,2.586,2.636,4.215c0.397,1.613,0.608,3.416,0.608,5.396v24.645h-6.214V438
		c0-2.264-0.671-4.674-2.013-5.992c-1.355-1.312-3.618-1.975-5.979-1.975c-1.864,0-3.493,0.27-4.859,0.844
		c-1.368,0.562-2.511,1.367-3.43,2.398c-0.909,1.031-1.218,2.25-1.678,3.643c-0.46,1.379-0.684,2.908-0.684,4.549v21.256H41.83
		v-37.291H48.045L48.045,425.431z"/>
	<g>
		<polygon style="&st6;" points="133.805,414.248 133.805,417.974 115.162,417.974 115.162,462.722 110.19,462.722 110.19,417.974 
			92.789,417.974 92.789,414.248 		"/>
		<path style="&st6;" d="M136.291,425.431v8.73l-0.074-0.521c1.155-3.033,2.635-5.359,5.059-7c2.423-1.627,5.32-2.373,8.689-2.236
			v4.551c-2.063-0.102-3.941,0.172-5.62,0.834c-1.688,0.645-2.832,1.562-4.051,2.77c-1.229,1.207-2.323,2.641-2.996,4.287
			c-0.67,1.654-1.007,3.473-1.007,5.445v20.436h-4.971v-37.291L136.291,425.431L136.291,425.431z"/>
		<path style="&st6;" d="M177.159,441.779c-0.286,0.535-0.397,0.922-1.217,1.152c-0.821,0.236-1.542,0.408-2.164,0.514
			c-1.927,0.336-3.901,0.633-5.953,0.895c-2.038,0.26-3.902,0.658-5.58,1.193c-1.691,0.52-3.07,1.279-4.151,2.271
			c-1.082,0.98-1.616,2.391-1.616,4.211c0,1.156,0.223,2.18,0.684,3.062c0.459,0.895,1.069,1.664,1.839,2.311
			c0.77,0.648,1.653,1.145,2.66,1.48c1.02,0.336,2.051,0.498,3.107,0.498c1.728,0,3.381-0.26,4.973-0.781
			c1.59-0.535,2.971-1.305,4.15-2.316c1.168-1.004,1.678-2.232,2.374-3.678c0.697-1.438,1.043-3.064,1.043-4.895v-5.916
			L177.159,441.779L177.159,441.779z M154.885,431.001c0.771-1.592,1.814-3.207,3.146-4.213c1.317-1.008,2.872-1.754,4.648-2.236
			c1.777-0.482,3.74-0.723,5.904-0.723c1.641,0,3.267,0.162,4.908,0.473c1.629,0.312,3.096,0.896,4.388,1.77
			c1.306,0.854,2.362,2.07,3.17,3.641c0.82,1.553,1.23,3.592,1.23,6.092v19.748c0,1.83,0.509,2.734,2.287,2.734
			c0.522,0,1.006-0.086,1.442-0.285v3.83c-0.535,0.086-0.994,0.16-1.404,0.211c-0.412,0.047-0.548,0.074-1.17,0.074
			c-1.155,0-2.076-0.164-2.771-0.477c-0.695-0.311-1.242-0.76-1.628-1.332c-0.385-0.584-0.634-1.266-0.758-2.051
			c-0.111-0.797-0.174-1.676-0.174-2.635h-0.149c-0.82,1.207-1.64,2.277-2.485,3.207c-0.846,0.93-1.777,1.715-2.809,2.336
			c-1.033,0.635-2.213,1.104-3.531,1.445c-1.33,0.334-2.895,0.508-4.723,0.508c-1.728,0-3.355-0.199-4.872-0.609
			c-1.504-0.408-2.835-1.057-3.965-1.953c-1.131-0.883-2.014-2.012-2.66-3.381c-0.645-1.377-0.981-2.994-0.981-4.871
			c0-2.596,0.583-4.623,1.739-6.092c1.144-1.465,2.671-2.584,4.574-3.354c1.901-0.771,4.04-1.311,6.414-1.615
			c2.386-0.312,4.797-0.619,7.246-0.91c0.957-0.086,1.802-0.209,2.522-0.359c0.722-0.135,1.318-0.395,1.803-0.756
			c0.484-0.357,0.858-0.846,1.118-1.479c0.262-0.621,0.399-1.443,0.399-2.451c0-1.527-0.25-2.797-0.759-3.777
			c-0.51-0.98-1.205-1.764-2.088-2.348c-0.896-0.572-1.927-0.975-3.108-1.193c-1.167-0.213-2.435-0.32-3.778-0.32
			c-2.883,0-5.246,1.006-7.072,2.371c-1.828,1.367-2.786,3.564-2.884,6.602h-4.537C153.667,434.458,154.115,432.582,154.885,431.001
			z"/>
		<path style="&st6;" d="M194.708,425.431v6.416l0.547-0.52c0.869-2.252,2.41-4.078,4.611-5.445
			c2.211-1.369,4.648-2.051,7.283-2.051c2.6,0,4.771,0.336,6.522,1.006c1.752,0.674,3.156,1.629,4.216,2.848
			c1.057,1.23,1.84,2.732,2.272,4.516c0.438,1.771,0.646,3.766,0.646,5.977v24.551h-4.975v-23.221c0-1.576-0.146-3.664-0.438-5.033
			c-0.283-1.379-0.396-2.559-1.115-3.574c-0.725-1.01-1.691-1.807-2.908-2.379c-1.229-0.568-2.76-0.865-4.586-0.865
			c-1.828,0-3.441,0.32-4.859,0.979c-1.418,0.646-2.623,1.527-3.604,2.658c-0.994,1.133-2.162,2.486-2.725,4.039
			c-0.547,1.566-0.847,3.256-0.896,5.084v22.311h-4.972v-37.291h4.974L194.708,425.431L194.708,425.431z"/>
		<path style="&st6;" d="M248.96,431.736c-0.521-1.029-1.229-1.471-2.125-2.141c-0.896-0.672-1.914-1.168-3.057-1.479
			c-1.156-0.312-2.389-0.473-3.682-0.473c-1.009,0-2.037,0.107-3.07,0.32c-1.031,0.227-1.976,0.584-2.846,1.094
			c-0.855,0.496-1.566,1.156-2.091,1.979c-0.53,0.82-0.795,1.83-0.795,3.033c0,1.006,0.265,1.863,0.761,2.561
			c0.51,0.695,1.145,1.279,1.913,1.766c0.771,0.475,1.604,0.869,2.521,1.182c0.905,0.311,1.754,0.574,2.522,0.758l6.051,1.369
			c1.295,0.199,2.586,0.547,3.854,1.057c1.281,0.496,2.412,1.158,3.396,1.979c0.98,0.818,1.789,1.828,2.41,3.035
			c0.62,1.188,0.943,2.604,0.943,4.246c0,2.016-0.459,3.73-1.381,5.156c-0.906,1.418-2.076,2.562-3.494,3.459
			c-1.416,0.896-3.02,1.527-4.795,1.912c-1.778,0.387-3.531,0.572-5.26,0.572c-4.373,0-7.916-0.811-10.641-2.885
			c-2.709-2.062-4.265-5.383-4.646-9.943h4.549c0.188,3.07,1.309,5.395,3.348,6.959c2.049,1.555,4.586,2.115,7.604,2.115
			c1.104,0,2.25-0.113,3.432-0.361c1.18-0.23,2.271-0.645,3.279-1.217c1.006-0.586,1.842-1.32,2.484-2.201
			c0.646-0.895,0.971-1.984,0.971-3.281c0-1.104-0.227-2.021-0.684-2.77c-0.461-0.744-1.066-1.365-1.841-1.873
			c-0.771-0.512-1.643-0.938-2.637-1.271c-0.981-0.336-1.979-0.617-2.981-0.854l-5.841-1.309c-1.491-0.371-2.86-0.82-4.114-1.328
			c-1.244-0.494-2.336-1.133-3.279-1.875c-0.934-0.746-1.666-1.654-2.188-2.736c-0.536-1.08-0.799-2.412-0.799-4.002
			c0-1.875,0.424-3.48,1.256-4.834c0.847-1.342,1.938-2.424,3.281-3.246c1.344-0.805,2.849-1.414,4.512-1.803
			c1.65-0.371,3.296-0.57,4.937-0.57c1.879,0,3.617,0.236,5.223,0.725c1.615,0.482,3.031,1.23,4.266,2.234
			c1.219,1.008,2.197,1.842,2.92,3.332c0.724,1.479,1.117,3.244,1.22,5.256h-4.535C249.783,433.986,249.498,432.765,248.96,431.736z
			"/>
		<path style="&st6;" d="M265.556,427.919v34.803h-4.975v-34.803H265.556z M265.556,414.248v6.215h-4.975v-6.215H265.556z"/>
		<path style="&st6;" d="M287.931,425.431v3.732h-7.463v25.08c0,1.49,0.199,2.223,0.609,3.068c0.408,0.848,1.316,1.314,2.957,1.404
			c1.295,0,2.598-0.078,3.896-0.213v3.816c-0.678,0-1.346,0.02-2.02,0.068c-0.684,0.057-1.451,0.076-2.125,0.076
			c-3.033,0-5.354-0.586-6.562-1.766c-1.205-1.186-1.777-3.357-1.729-6.525v-25.018h-6.213v-3.732h6.213V414.24h4.973v11.186h7.463
			V425.431L287.931,425.431z"/>
		<path style="&st6;" d="M299.11,427.919v34.803h-4.969v-34.803H299.11z M299.11,414.248v6.215h-4.969v-6.215H299.11z"/>
		<path style="&st6;" d="M315.208,429.027c-1.629,0.904-2.996,2.107-4.062,3.604c-1.097,1.49-1.9,3.186-2.463,5.082
			c-0.545,1.889-0.816,3.828-0.816,5.793c0,1.979,0.271,3.912,0.816,5.801c0.562,1.904,1.366,3.6,2.463,5.088
			c1.065,1.49,2.436,2.697,4.062,3.605c1.643,0.918,3.527,1.367,5.691,1.367c2.162,0,4.062-0.449,5.705-1.367
			c1.629-0.906,2.979-2.113,4.062-3.605c1.082-1.49,1.899-3.184,2.459-5.088c0.551-1.889,0.822-3.822,0.822-5.801
			c0-1.965-0.271-3.904-0.822-5.793c-0.56-1.896-1.377-3.592-2.459-5.082c-1.082-1.494-2.437-2.697-4.062-3.604
			c-1.646-0.92-3.543-1.379-5.705-1.379C318.735,427.648,316.851,428.107,315.208,429.027z M328.435,425.423
			c2.188,1.053,4.025,2.475,5.521,4.248c1.491,1.777,2.623,3.855,3.396,6.24c0.771,2.371,1.153,4.908,1.153,7.594
			c0,2.695-0.387,5.232-1.153,7.605c-0.771,2.389-1.9,4.465-3.396,6.234c-1.49,1.779-3.332,3.189-5.521,4.215
			c-2.188,1.031-4.688,1.559-7.531,1.559c-2.834,0-5.346-0.523-7.53-1.559c-2.188-1.025-4.026-2.436-5.506-4.215
			c-1.492-1.77-2.623-3.85-3.396-6.234c-0.771-2.373-1.154-4.91-1.154-7.605c0-2.686,0.387-5.223,1.154-7.594
			c0.771-2.387,1.901-4.463,3.396-6.24c1.479-1.773,3.317-3.195,5.506-4.248c2.188-1.059,4.696-1.594,7.53-1.594
			C323.75,423.832,326.248,424.367,328.435,425.423z"/>
		<path style="&st6;" d="M347.585,425.431v6.416l0.5-0.52c0.867-2.252,2.396-4.078,4.607-5.445c2.213-1.369,4.639-2.051,7.283-2.051
			c2.6,0,4.771,0.336,6.524,1.006c1.752,0.674,3.156,1.629,4.211,2.848c1.06,1.23,1.894,2.732,2.326,4.516
			c0.438,1.771,0.646,3.766,0.646,5.977v24.551h-4.971v-23.221c0-1.576-0.148-3.664-0.438-5.033
			c-0.285-1.379-0.449-2.559-1.172-3.574c-0.718-1.01-1.688-1.807-2.918-2.379c-1.22-0.568-2.746-0.865-4.572-0.865
			s-3.443,0.32-4.873,0.979c-1.416,0.646-2.609,1.527-3.594,2.658c-0.99,1.133-2.109,2.486-2.672,4.039
			c-0.55,1.566-0.847,3.256-0.896,5.084v22.311h-4.974v-37.291h4.976L347.585,425.431L347.585,425.431z"/>
	</g>
	<polygon style="&st1;" points="20.7,462.722 12,462.722 12,413.003 20.7,413.003 20.7,415.494 14.486,415.494 14.486,460.236 
		20.7,460.236 	"/>
	<polygon style="&st1;" points="77.875,413.003 86.575,413.003 86.575,462.722 77.875,462.722 77.875,460.236 84.089,460.236 
		84.089,415.494 77.875,415.494 	"/>
</g>
<path style="&st0;" d="M525.28,425.456c0.715-2.004,1.581-4.043,1.581-4.529c0-0.256-0.124-0.459-0.397-0.459
	c-0.38,0-1.986,1.554-2.233,1.951c-0.124,0.124-0.248,0.124-0.371,0l-0.371-0.326c-0.071-0.133-0.133-0.194-0.071-0.318
	c0.619-0.786,2.853-3.373,5.121-3.373c0.928,0,1.325,0.45,1.325,1.166c0,0.9-1.73,4.529-1.979,5.307l0.248,0.132
	c1.307-2.27,4.034-6.604,6.815-6.604c1.061,0,1.713,0.751,1.713,1.519c0,1.201-1.157,3.982-1.651,5.148l0.248,0.132
	c1.678-2.72,4.088-6.799,6.949-6.799c1.112,0,1.703,1.007,1.703,1.748c0,0.937-0.776,2.781-1.703,5.563
	c-0.628,1.88-1.246,3.239-1.246,3.752c0.062,0.266,0.186,0.459,0.371,0.459c0.681,0,2.173-2.074,2.358-2.331
	c0.062-0.132,0.186-0.132,0.246-0.097l0.442,0.282c0.114,0.142,0.114,0.203,0.062,0.46c-0.124,0.193-2.729,3.946-5.589,3.946
	c-0.672,0-1.042-0.521-1.042-0.963c0-0.724,0.679-2.728,1.854-5.836c0.953-2.517,1.332-3.611,1.332-4.133
	c0-0.388-0.22-0.653-0.652-0.653c-0.742,0-3.223,2.914-5.139,5.952c-0.195,0.326-0.751,1.165-1.184,2.269l-0.953,2.781
	c-0.071,0.194-0.229,0.256-0.477,0.256h-1.951c-0.239,0-0.371-0.123-0.31-0.317l1.951-5.368c0.812-2.27,1.58-4.397,1.58-4.856
	c0.035-0.389-0.246-0.645-0.644-0.645c-0.751,0-3.17,2.72-4.963,5.438c-0.432,0.645-0.927,1.546-1.422,2.711l-1.023,2.781
	c-0.062,0.194-0.221,0.256-0.468,0.256h-1.952c-0.186,0-0.345-0.123-0.246-0.379L525.28,425.456z"/>
<path style="&st0;" d="M550.568,427.424c1.147-2.039,2.109-4.714,2.109-5.88c0-0.715-0.432-1.457-1.332-1.457
	c-1.272,0-2.446,1.131-3.965,3.779c-1.024,1.81-1.651,3.752-1.651,5.05c0,0.874,0.627,1.52,1.307,1.52
	C548.245,430.436,549.357,429.527,550.568,427.424z M543.752,427.751c0-2.72,0.865-5.307,2.604-7.284
	c1.245-1.422,2.729-2.066,4.397-2.066c1.801,0,3.84,1.166,3.84,4.079c0,2.075-0.804,5.439-2.657,7.567
	c-1.183,1.431-2.614,2.137-4.469,2.137C545.641,432.184,543.752,430.727,543.752,427.751z"/>
<path style="&st0;" d="M569.162,432.184c-2.049,0-3.099-0.777-3.099-1.872c0-0.785,0.494-1.36,1.183-1.36
	c0.742,0,1.237,0.513,1.483,1.29c0.186,0.521,0.433,0.839,0.989,0.839c0.865,0,1.554-0.707,1.554-2.066
	c0.062-1.095-0.75-2.04-1.395-3.205c-0.618-1.095-1.209-1.907-1.148-3.267c0-2.075,1.669-4.142,4.583-4.142
	c1.06,0,2.419,0.45,2.419,1.811c0,0.847-0.495,1.359-1.175,1.359c-0.564,0-1.059-0.256-1.244-1.104c-0.115-0.38-0.239-0.9-0.741-0.9
	c-0.618,0-1.299,0.45-1.299,1.871c0,1.104,1.086,2.429,1.422,2.914c0.618,0.883,1.184,2.005,1.184,3.497
	C573.878,430.374,571.953,432.184,569.162,432.184z"/>
<g>
	<path style="&st7;" d="M567.556,429.333l-0.31-0.257c-0.123-0.132-0.247-0.132-0.38-0.07c-0.581,0.3-1.659,1.236-2.109,1.236
		c-0.238,0-0.361-0.194-0.361-0.512c0-0.46,0.423-1.687,1.235-3.824c1.271-3.328,1.669-4.848,1.669-5.694
		c0-0.901-0.61-1.811-1.758-1.811c-2.949,0-5.8,4.079-6.728,5.562l-0.186-0.123c0.557-1.422,1.457-3.629,1.457-4.336
		c0-0.459-0.283-1.104-1.174-1.104c-2.825,0-4.874,2.464-5.308,3.037c-0.123,0.133-0.061,0.266,0.062,0.336l0.345,0.354
		c0.088,0.097,0.211,0.097,0.273-0.035c0.494-0.521,1.704-1.687,2.261-1.687c0.282,0,0.476,0.193,0.476,0.521
		c0,0.459-0.75,2.464-1.43,4.529l-2.11,5.986c-0.062,0.194-0.026,0.415,0.247,0.415h1.987c0.309,0,0.371-0.062,0.433-0.194
		l0.988-2.976c0.504-1.289,1.051-2.26,1.678-3.302c1.299-2.198,3.902-4.786,4.839-4.786c0.423,0,0.706,0.266,0.706,0.786
		c0,0.389-0.866,2.843-1.333,4.203c-0.989,2.843-1.854,5.042-1.854,5.633c0,0.574,0.362,0.963,1.051,0.963
		c2.596,0,3.69-1.687,4.141-1.007C566.594,431.522,567.68,429.394,567.556,429.333z"/>
</g>
<path style="&st0;" d="M504.346,425.456c0.716-2.004,1.581-4.043,1.581-4.529c0-0.256-0.124-0.459-0.397-0.459
	c-0.371,0-1.986,1.554-2.233,1.951c-0.124,0.124-0.248,0.124-0.371,0l-0.371-0.326c-0.062-0.133-0.123-0.194-0.062-0.318
	c0.618-0.786,2.852-3.373,5.111-3.373c0.928,0,1.334,0.45,1.334,1.166c0,0.9-1.739,4.529-1.986,5.307l0.247,0.132
	c1.307-2.27,4.035-6.604,6.825-6.604c1.042,0,1.703,0.751,1.703,1.519c0,1.201-1.146,3.982-1.642,5.148l0.248,0.132
	c1.668-2.72,4.087-6.799,6.939-6.799c1.112,0,1.704,1.007,1.704,1.748c0,0.937-0.777,2.781-1.704,5.563
	c-0.618,1.88-1.246,3.239-1.246,3.752c0.062,0.266,0.186,0.459,0.371,0.459c0.689,0,2.173-2.074,2.358-2.331
	c0.062-0.132,0.194-0.132,0.246-0.097l0.434,0.282c0.123,0.142,0.123,0.203,0.07,0.46c-0.133,0.193-2.729,3.946-5.589,3.946
	c-0.681,0-1.051-0.521-1.051-0.963c0-0.724,0.688-2.728,1.863-5.836c0.962-2.517,1.332-3.611,1.332-4.133
	c0-0.388-0.22-0.653-0.652-0.653c-0.741,0-3.223,2.914-5.148,5.952c-0.176,0.326-0.732,1.165-1.174,2.269l-0.962,2.781
	c-0.062,0.194-0.212,0.256-0.469,0.256h-1.95c-0.239,0-0.362-0.123-0.301-0.317l1.951-5.368c0.804-2.27,1.571-4.397,1.571-4.856
	c0.035-0.389-0.246-0.645-0.644-0.645c-0.742,0-3.161,2.72-4.962,5.438c-0.424,0.645-0.919,1.546-1.423,2.711l-1.022,2.781
	c-0.071,0.194-0.222,0.256-0.46,0.256h-1.96c-0.186,0-0.346-0.123-0.248-0.379L504.346,425.456z"/>
<path style="&st2;" d="M418.127,418.79h2.102v1.881c0.513-0.653,0.972-1.13,1.387-1.422c0.697-0.503,1.492-0.759,2.393-0.759
	c1.006,0,1.818,0.265,2.438,0.786c0.344,0.291,0.67,0.732,0.944,1.307c0.476-0.707,1.032-1.236,1.678-1.581
	c0.636-0.336,1.359-0.512,2.153-0.512c1.704,0,2.87,0.645,3.488,1.934c0.327,0.688,0.494,1.625,0.494,2.799v8.82h-2.217v-9.209
	c0-0.883-0.211-1.483-0.635-1.819c-0.424-0.326-0.936-0.494-1.545-0.494c-0.839,0-1.555,0.292-2.164,0.883
	c-0.601,0.583-0.909,1.562-0.909,2.932v7.708h-2.163v-8.652c0-0.9-0.105-1.555-0.309-1.969c-0.326-0.619-0.928-0.928-1.811-0.928
	c-0.812,0-1.545,0.326-2.199,0.979c-0.662,0.654-0.996,1.837-0.996,3.541v7.028h-2.129V418.79z"/>
<g>
	<path style="&st2;" d="M408.874,425.103c-0.618,0.265-1.235,0.45-1.872,0.529c-0.627,0.088-1.262,0.15-1.889,0.203
		c-1.121,0.088-1.996,0.345-2.614,0.786c-0.626,0.441-0.936,1.104-0.936,2.004c0,0.406,0.079,0.76,0.229,1.051
		c0.15,0.3,0.354,0.538,0.609,0.732c0.247,0.194,0.539,0.345,0.874,0.434c0.326,0.097,0.662,0.141,1.007,0.141
		c0.582,0,1.147-0.079,1.695-0.229c0.557-0.15,1.042-0.38,1.475-0.697c0.424-0.31,0.768-0.707,1.032-1.192
		c0.257-0.477,0.389-1.051,0.389-1.713V425.103z M406.42,424.343c0.273-0.035,0.601-0.088,0.979-0.159
		c0.39-0.062,0.698-0.158,0.937-0.273c0.247-0.124,0.397-0.317,0.449-0.601c0.062-0.273,0.089-0.529,0.089-0.768
		c0-0.777-0.238-1.422-0.715-1.916c-0.478-0.495-1.289-0.751-2.419-0.751c-0.504,0-0.963,0.054-1.387,0.142
		c-0.415,0.097-0.786,0.256-1.104,0.485c-0.318,0.221-0.574,0.53-0.777,0.91c-0.203,0.379-0.335,0.856-0.397,1.43h-1.483
		c0.045-0.777,0.221-1.439,0.513-1.986c0.291-0.548,0.662-0.998,1.13-1.343c0.459-0.353,0.989-0.6,1.598-0.759
		c0.609-0.168,1.254-0.247,1.935-0.247c0.627,0,1.228,0.07,1.782,0.221c0.557,0.142,1.043,0.371,1.458,0.68
		c0.415,0.318,0.733,0.732,0.971,1.254c0.238,0.529,0.354,1.165,0.354,1.934v7.143c0,0.592,0.097,0.972,0.3,1.131
		c0.203,0.158,0.609,0.123,1.228-0.115v1.192l-0.495,0.149c-0.22,0.071-0.432,0.106-0.645,0.106c-0.229,0-0.449-0.026-0.652-0.08
		c-0.248-0.035-0.441-0.114-0.584-0.238c-0.149-0.132-0.264-0.282-0.353-0.459c-0.088-0.177-0.149-0.371-0.185-0.582
		c-0.035-0.212-0.045-0.434-0.045-0.672c-0.618,0.706-1.324,1.254-2.119,1.625c-0.794,0.371-1.65,0.556-2.569,0.556
		c-0.556,0-1.086-0.079-1.589-0.229c-0.512-0.149-0.963-0.388-1.352-0.706c-0.388-0.326-0.697-0.715-0.927-1.184
		c-0.221-0.459-0.335-1.015-0.335-1.659c0-2.234,1.465-3.55,4.396-3.956L406.42,424.343z"/>
</g>
<g>
	<path style="&st2;" d="M582.993,425.361c0,0.742,0.096,1.449,0.29,2.12c0.195,0.662,0.478,1.244,0.84,1.748
		c0.361,0.494,0.812,0.892,1.333,1.191c0.529,0.292,1.121,0.441,1.783,0.441c0.751,0,1.404-0.158,1.961-0.468
		c0.556-0.317,1.015-0.741,1.368-1.28c0.361-0.538,0.618-1.174,0.776-1.89c0.168-0.715,0.23-1.492,0.195-2.322
		c0-0.829-0.106-1.554-0.327-2.189s-0.521-1.174-0.909-1.606c-0.389-0.441-0.84-0.777-1.36-1.007s-1.086-0.345-1.704-0.345
		c-0.68,0-1.28,0.15-1.819,0.434c-0.529,0.291-0.979,0.68-1.332,1.183c-0.362,0.494-0.628,1.086-0.813,1.774
		C583.089,423.826,582.993,424.567,582.993,425.361z M582.993,437.042h-1.457v-18.294h1.457v2.305h0.053
		c0.202-0.424,0.477-0.804,0.812-1.14c0.326-0.345,0.697-0.618,1.086-0.839c0.397-0.221,0.812-0.389,1.228-0.512
		c0.425-0.114,0.839-0.177,1.245-0.177c1.016,0,1.881,0.177,2.596,0.538c0.715,0.354,1.297,0.839,1.757,1.458
		c0.468,0.617,0.804,1.341,1.016,2.189c0.202,0.847,0.31,1.748,0.31,2.71c0,0.918-0.116,1.793-0.335,2.641
		c-0.23,0.848-0.574,1.58-1.034,2.216c-0.459,0.636-1.041,1.139-1.748,1.519s-1.536,0.574-2.489,0.574
		c-0.892,0-1.749-0.212-2.562-0.618c-0.82-0.415-1.466-1.033-1.933-1.846V437.042z"/>
	<path style="&st2;" d="M597.737,431.877h-1.456v-13.129h1.456v2.454h0.045c0.405-1.051,0.927-1.774,1.571-2.189
		c0.636-0.415,1.482-0.627,2.534-0.627v1.651c-0.821-0.018-1.501,0.114-2.04,0.406c-0.539,0.282-0.962,0.671-1.271,1.165
		c-0.317,0.494-0.539,1.068-0.662,1.739c-0.115,0.662-0.177,1.36-0.177,2.084V431.877z"/>
	<path style="&st2;" d="M613.136,425.308c0-0.776-0.088-1.501-0.247-2.181c-0.158-0.671-0.415-1.263-0.75-1.757
		c-0.346-0.503-0.777-0.892-1.315-1.183c-0.53-0.283-1.192-0.434-1.97-0.434c-0.76,0-1.412,0.159-1.951,0.468
		c-0.538,0.318-0.98,0.733-1.324,1.245c-0.335,0.521-0.592,1.113-0.751,1.775c-0.167,0.671-0.247,1.36-0.247,2.065
		c0,0.812,0.098,1.563,0.283,2.243c0.186,0.688,0.458,1.271,0.812,1.766c0.354,0.486,0.804,0.865,1.334,1.14
		c0.537,0.273,1.156,0.405,1.845,0.405c0.769,0,1.413-0.158,1.96-0.468c0.539-0.317,0.979-0.732,1.325-1.254
		c0.335-0.529,0.592-1.121,0.75-1.774C613.048,426.704,613.136,426.024,613.136,425.308z M608.854,432.231
		c-0.803-0.018-1.562-0.168-2.27-0.459c-0.697-0.283-1.314-0.716-1.846-1.29c-0.521-0.573-0.944-1.298-1.244-2.153
		c-0.309-0.866-0.469-1.872-0.469-3.021c0-0.962,0.125-1.862,0.363-2.701c0.246-0.83,0.608-1.562,1.096-2.19
		c0.484-0.627,1.094-1.121,1.827-1.483c0.724-0.361,1.571-0.547,2.542-0.547c0.989,0,1.846,0.186,2.578,0.547
		c0.732,0.362,1.333,0.856,1.819,1.475c0.484,0.61,0.847,1.343,1.086,2.19c0.229,0.848,0.353,1.748,0.353,2.71
		c0,1.051-0.14,1.996-0.415,2.844c-0.272,0.838-0.671,1.571-1.182,2.181c-0.505,0.609-1.122,1.077-1.847,1.403
		C610.53,432.063,609.729,432.231,608.854,432.231z"/>
	<path style="&st2;" d="M619.281,415.878h-1.606v-2.26h1.606V415.878z M619.202,418.749v14.878c0,0.556-0.018,1.041-0.071,1.465
		c-0.045,0.424-0.159,0.786-0.326,1.077c-0.167,0.3-0.425,0.521-0.751,0.662c-0.335,0.142-0.795,0.212-1.378,0.212
		c-0.353,0-0.67-0.026-0.944-0.097v-1.342c0.424,0.053,0.759,0.053,1.024,0.009c0.256-0.045,0.459-0.133,0.601-0.292
		c0.15-0.15,0.247-0.354,0.31-0.609c0.053-0.247,0.079-0.547,0.079-0.883v-15.08H619.202z"/>
	<path style="&st2;" d="M631.854,424.399c0-0.645-0.08-1.245-0.257-1.818c-0.167-0.565-0.414-1.051-0.75-1.466
		c-0.327-0.415-0.751-0.741-1.254-0.989c-0.494-0.247-1.077-0.371-1.722-0.371s-1.218,0.133-1.712,0.38
		c-0.496,0.257-0.911,0.592-1.264,1.016c-0.345,0.424-0.626,0.919-0.839,1.475c-0.202,0.557-0.344,1.147-0.405,1.774H631.854z
		 M623.652,425.662c0,0.715,0.088,1.387,0.264,2.021c0.178,0.628,0.441,1.184,0.786,1.643c0.353,0.468,0.795,0.839,1.325,1.122
		c0.538,0.273,1.147,0.414,1.845,0.414c0.953,0,1.775-0.265,2.454-0.785c0.68-0.521,1.131-1.272,1.36-2.234h1.624
		c-0.176,0.627-0.406,1.21-0.696,1.739c-0.292,0.53-0.663,0.998-1.096,1.396c-0.441,0.397-0.953,0.707-1.554,0.927
		c-0.602,0.222-1.299,0.327-2.093,0.327c-1.007,0-1.872-0.177-2.596-0.53c-0.733-0.362-1.334-0.848-1.801-1.457
		c-0.469-0.617-0.812-1.351-1.042-2.181c-0.229-0.839-0.336-1.739-0.336-2.702c0-0.962,0.133-1.871,0.397-2.71
		c0.265-0.848,0.645-1.59,1.139-2.225c0.494-0.627,1.095-1.131,1.81-1.493c0.717-0.361,1.528-0.547,2.429-0.547
		c1.73,0,3.091,0.627,4.079,1.863c0.988,1.245,1.476,3.046,1.457,5.412H623.652z"/>
	<path style="&st2;" d="M645.169,422.872c-0.266-0.972-0.706-1.739-1.342-2.286c-0.628-0.557-1.431-0.831-2.401-0.831
		c-0.742,0-1.387,0.169-1.916,0.486c-0.539,0.317-0.972,0.75-1.316,1.28c-0.335,0.529-0.591,1.13-0.75,1.801
		c-0.159,0.662-0.239,1.333-0.239,2.014c0,0.697,0.071,1.368,0.23,2.03c0.149,0.653,0.397,1.245,0.741,1.774
		c0.335,0.521,0.777,0.937,1.307,1.254c0.539,0.31,1.184,0.468,1.943,0.468c1.086,0,1.96-0.309,2.613-0.936
		c0.652-0.627,1.068-1.492,1.245-2.587h1.562c-0.133,0.724-0.336,1.386-0.627,1.986c-0.282,0.601-0.646,1.122-1.086,1.545
		c-0.451,0.434-0.98,0.769-1.599,1.007c-0.608,0.238-1.315,0.354-2.109,0.354c-1.008,0-1.872-0.177-2.596-0.53
		c-0.734-0.362-1.334-0.848-1.802-1.457c-0.468-0.617-0.812-1.351-1.042-2.198c-0.229-0.847-0.335-1.748-0.335-2.71
		c0-0.91,0.123-1.784,0.37-2.623c0.257-0.838,0.618-1.58,1.104-2.216c0.485-0.645,1.096-1.156,1.811-1.536
		c0.724-0.38,1.554-0.574,2.49-0.574c1.457,0,2.639,0.362,3.531,1.095c0.9,0.725,1.466,1.854,1.695,3.391H645.169z"/>
	<path style="&st2;" d="M654.175,431.93c-0.178,0.027-0.415,0.089-0.707,0.177c-0.29,0.08-0.609,0.124-0.971,0.124
		c-0.725,0-1.28-0.194-1.659-0.574c-0.38-0.38-0.575-1.06-0.575-2.039v-9.606h-1.766v-1.263h1.766v-3.655h1.458v3.655h2.357v1.263
		h-2.357v8.996c0,0.327,0.008,0.602,0.025,0.84s0.071,0.433,0.15,0.582c0.08,0.15,0.203,0.266,0.372,0.327
		c0.176,0.07,0.414,0.105,0.715,0.105c0.194,0,0.397-0.017,0.601-0.053c0.202-0.035,0.396-0.07,0.591-0.124V431.93z"/>
</g>
<path style="&st2;" d="M446.54,424.352c-0.089-0.962-0.282-1.73-0.6-2.313c-0.583-1.068-1.546-1.606-2.896-1.606
	c-0.98,0-1.792,0.37-2.446,1.112c-0.662,0.732-1.006,1.678-1.051,2.808H446.54z M445.781,419.152
	c0.838,0.441,1.474,1.016,1.916,1.722c0.424,0.662,0.706,1.439,0.848,2.331c0.123,0.609,0.186,1.589,0.186,2.922h-9.227
	c0.035,1.352,0.335,2.429,0.9,3.24c0.564,0.822,1.438,1.228,2.631,1.228c1.095,0,1.979-0.38,2.64-1.156
	c0.37-0.45,0.636-0.962,0.786-1.555h2.092c-0.053,0.486-0.229,1.033-0.547,1.625c-0.318,0.601-0.662,1.086-1.042,1.466
	c-0.645,0.662-1.439,1.112-2.393,1.343c-0.503,0.123-1.086,0.193-1.73,0.193c-1.563,0-2.896-0.601-3.991-1.801
	c-1.086-1.201-1.633-2.878-1.633-5.042c0-2.128,0.547-3.858,1.65-5.183c1.096-1.324,2.534-1.995,4.3-1.995
	C444.068,418.49,444.941,418.71,445.781,419.152z"/>
<path style="&st2;" d="M453.851,429.138c0.565,0.953,1.492,1.43,2.755,1.43c0.989,0,1.793-0.45,2.428-1.324
	c0.627-0.892,0.945-2.163,0.945-3.823c0-1.668-0.327-2.914-0.98-3.717c-0.653-0.804-1.457-1.21-2.41-1.21
	c-1.068,0-1.942,0.433-2.613,1.289c-0.653,0.856-0.988,2.119-0.988,3.788C452.986,426.983,453.276,428.175,453.851,429.138z
	 M458.609,419.196c0.381,0.256,0.812,0.68,1.29,1.298v-6.692h2.048v18.241h-1.916v-1.846c-0.503,0.821-1.086,1.404-1.766,1.775
	c-0.671,0.362-1.448,0.538-2.322,0.538c-1.412,0-2.631-0.627-3.664-1.862c-1.024-1.236-1.545-2.896-1.545-4.953
	c0-1.934,0.467-3.603,1.412-5.016c0.936-1.412,2.278-2.128,4.025-2.128C457.145,418.551,457.957,418.763,458.609,419.196z"/>
<path style="&st2;" d="M464.49,418.851h2.164v13.191h-2.164V418.851z M464.49,413.863h2.164v2.525h-2.164V413.863z"/>
<path style="&st2;" d="M471.422,430.039c0.449,0.37,0.98,0.556,1.598,0.556c0.75,0,1.482-0.186,2.182-0.547
	c1.182-0.601,1.783-1.581,1.783-2.949v-1.792c-0.266,0.176-0.602,0.317-1.016,0.44c-0.406,0.106-0.804,0.195-1.201,0.239
	l-1.289,0.177c-0.776,0.105-1.351,0.273-1.739,0.503c-0.662,0.389-0.997,1.007-0.997,1.854
	C470.742,429.165,470.971,429.667,471.422,430.039z M475.916,424.017c0.485-0.062,0.812-0.274,0.979-0.636
	c0.099-0.203,0.143-0.486,0.143-0.856c0-0.769-0.247-1.315-0.769-1.66c-0.521-0.345-1.263-0.513-2.225-0.513
	c-1.104,0-1.898,0.31-2.366,0.937c-0.256,0.353-0.424,0.874-0.504,1.562h-1.995c0.045-1.642,0.548-2.781,1.519-3.417
	c0.98-0.645,2.109-0.962,3.398-0.962c1.492,0,2.703,0.291,3.63,0.883c0.927,0.6,1.387,1.519,1.387,2.781v7.628
	c0,0.23,0.044,0.416,0.141,0.557c0.089,0.142,0.282,0.212,0.574,0.212c0.089,0,0.203-0.009,0.317-0.018l0.38-0.062v1.65
	c-0.336,0.098-0.583,0.159-0.76,0.186c-0.167,0.027-0.405,0.035-0.715,0.035c-0.724,0-1.263-0.273-1.599-0.812
	c-0.166-0.291-0.291-0.697-0.361-1.227c-0.433,0.591-1.06,1.104-1.871,1.545c-0.822,0.441-1.713,0.662-2.693,0.662
	c-1.184,0-2.146-0.38-2.889-1.13c-0.75-0.741-1.121-1.669-1.121-2.79c0-1.228,0.363-2.182,1.104-2.86
	c0.734-0.672,1.697-1.087,2.888-1.245L475.916,424.017z"/>
<path style="&st0;" d="M490.581,429.084c0.124,0.062,0.186,0.124,0.053,0.318c-0.458,0.706-2.473,2.781-4.767,2.781
	c-1.246,0-2.791-0.998-2.791-3.205c0-4.529,3.381-10.578,7.223-10.578c1.606,0,2.137,1.228,2.137,1.811
	c0,0.909-0.68,1.624-1.298,1.624c-0.504,0-0.866-0.194-1.06-0.777c-0.186-0.459-0.459-0.971-0.954-0.971
	c-0.68,0-1.271,0.777-1.863,2.198c-0.768,1.942-1.21,3.947-1.21,5.695c0,1.616,0.469,2.331,1.272,2.331
	c0.989,0,2.198-0.971,2.569-1.422c0.07-0.132,0.186-0.203,0.246-0.132L490.581,429.084z"/>
<path style="&st0;" d="M498.562,427.424c1.148-2.039,2.11-4.714,2.11-5.88c0-0.715-0.44-1.457-1.341-1.457
	c-1.272,0-2.447,1.131-3.965,3.779c-1.017,1.81-1.643,3.752-1.643,5.05c0,0.874,0.626,1.52,1.307,1.52
	C496.232,430.436,497.354,429.527,498.562,427.424z M491.737,427.751c0-2.72,0.874-5.307,2.613-7.284
	c1.237-1.422,2.72-2.066,4.397-2.066c1.793,0,3.841,1.166,3.841,4.079c0,2.075-0.804,5.439-2.666,7.567
	c-1.175,1.431-2.605,2.137-4.459,2.137C493.637,432.184,491.737,430.727,491.737,427.751z"/>
<g>
	<g>
		<path style="&st1;" d="M406.912,462.416l-0.451-7.198h-0.035l-3.213,7.198h-1.563l-1.06-9.258h1.563l0.556,7.359h0.035l3.23-7.359
			h1.667l0.435,7.359h0.035l3.404-7.359h1.598l-4.638,9.258H406.912z"/>
		<path style="&st1;" d="M416.604,453.158l-1.876,9.258h-1.459l1.858-9.258H416.604z M415.458,451.493l0.382-1.862h1.494
			l-0.383,1.862H415.458z"/>
		<path style="&st1;" d="M423.1,453.158l-0.278,1.343h-1.789l-1.111,5.444c-0.012,0.107-0.023,0.209-0.035,0.304
			c-0.012,0.096-0.018,0.197-0.018,0.305c0,0.239,0.09,0.403,0.27,0.492c0.18,0.09,0.385,0.135,0.617,0.135
			c0.15,0,0.295-0.015,0.434-0.045c0.139-0.029,0.278-0.068,0.417-0.116l-0.261,1.396c-0.174,0.023-0.347,0.045-0.521,0.062
			c-0.174,0.019-0.348,0.027-0.521,0.027c-0.277,0-0.538-0.021-0.781-0.062c-0.243-0.042-0.455-0.12-0.634-0.233
			c-0.18-0.113-0.325-0.266-0.435-0.456c-0.11-0.191-0.165-0.437-0.165-0.734c0-0.132,0.009-0.257,0.026-0.376
			c0.017-0.119,0.037-0.251,0.061-0.395l1.181-5.748h-1.511l0.278-1.343h1.511l0.556-2.739h1.477l-0.556,2.739H423.1z"/>
		<path style="&st1;" d="M427.233,449.63l-1.06,4.889l0.034,0.035c0.371-0.537,0.84-0.939,1.407-1.208s1.164-0.403,1.789-0.403
			c0.845,0,1.474,0.191,1.885,0.573c0.41,0.382,0.616,0.984,0.616,1.809c0,0.203-0.023,0.466-0.069,0.788
			c-0.047,0.322-0.11,0.662-0.191,1.021l-1.094,5.282h-1.477l1.146-5.407c0.011-0.096,0.028-0.206,0.052-0.332
			c0.023-0.125,0.046-0.256,0.069-0.394c0.023-0.137,0.044-0.269,0.061-0.394c0.018-0.126,0.026-0.23,0.026-0.313
			c0-0.441-0.15-0.768-0.451-0.977c-0.302-0.208-0.672-0.313-1.112-0.313c-0.405,0-0.808,0.102-1.207,0.305s-0.738,0.46-1.016,0.771
			c-0.267,0.238-0.476,0.528-0.625,0.868c-0.151,0.34-0.272,0.695-0.365,1.065l-1.042,5.121h-1.459l2.605-12.785H427.233z"/>
	</g>
</g>
<g>
	<path style="&st4;" d="M558.299,463.075c-35.327,0-70.654,0-105.982,0c0.082-0.053,0.157-0.136,0.246-0.153
		c2.124-0.412,3.854-1.429,5.122-3.25c-0.471-0.358-0.892-0.68-1.329-1.013c-0.167,0.159-0.318,0.274-0.435,0.418
		c-2.852,3.524-8.225,3.137-11.126,0.279c-3.176-3.128-3.218-9.149-0.207-12.421c2.07-2.25,6.195-3.279,8.991-1.729
		c0.83,0.459,1.542,1.132,2.365,1.75c0.354-0.3,0.781-0.66,1.339-1.133c-0.653-0.539-1.221-1.187-1.933-1.551
		c-1.066-0.546-2.234-0.892-3.358-1.322c41.766,0,83.531,0,125.296,0c-0.106,0.055-0.208,0.14-0.32,0.157
		c-2.271,0.359-4.253,1.316-5.709,3.103c-1.943,2.385-2.675,5.141-2.259,8.221c0.549,4.066,2.589,6.891,6.567,8.178
		c0.516,0.167,1.039,0.312,1.559,0.467c-5.302,0-10.604,0-15.905,0c0.838-0.513,1.806-0.896,2.484-1.569
		c1.077-1.069,1.213-2.586,1.229-4.019c0.051-4.405,0.019-8.812,0.017-13.219c0-0.261-0.022-0.521-0.034-0.769
		c-0.618,0-1.167,0-1.748,0c0,0.358,0,0.654,0,0.949c0,4.568,0.016,9.138-0.011,13.706c-0.007,1.121-0.339,2.183-1.354,2.813
		c-2.258,1.405-4.396,0.628-5.432-1.98c-0.529,0.081-1.073,0.165-1.888,0.29c0.568,0.889,0.951,1.77,1.585,2.396
		C556.679,462.278,557.546,462.619,558.299,463.075z M508.336,462.547c0-5.596,0-11.134,0-16.673
		c1.225,2.459,2.311,4.938,3.401,7.416c1.287,2.924,2.572,5.848,3.88,8.763c0.098,0.218,0.395,0.521,0.555,0.496
		c0.251-0.038,0.574-0.273,0.678-0.509c1.812-4.141,3.596-8.294,5.386-12.444c0.548-1.271,1.093-2.545,1.64-3.817
		c0.067,0.017,0.134,0.032,0.201,0.048c0,5.574,0,11.148,0,16.722c0.624,0,1.154,0,1.712,0c0-6.377,0-12.715,0-19.111
		c-0.64,0-1.232,0.036-1.818-0.011c-0.505-0.039-0.751,0.143-0.951,0.608c-1.688,3.932-3.403,7.853-5.112,11.776
		c-0.537,1.232-1.08,2.463-1.691,3.854c-1.339-3.075-2.603-5.974-3.862-8.873c-0.974-2.244-1.935-4.494-2.924-6.731
		c-0.105-0.24-0.345-0.572-0.547-0.591c-0.766-0.069-1.542-0.028-2.317-0.028c0,6.429,0,12.747,0,19.105
		C507.132,462.547,507.663,462.547,508.336,462.547z M470.51,445.729c0.246,0.284,0.432,0.463,0.577,0.671
		c3.647,5.236,7.288,10.479,10.945,15.708c0.147,0.212,0.43,0.432,0.67,0.457c0.607,0.065,1.227,0.021,1.86,0.021
		c0-6.421,0-12.759,0-19.087c-0.547,0-1.042,0-1.597,0c0,5.618,0,11.175,0,16.89c-0.262-0.278-0.443-0.429-0.573-0.615
		c-3.657-5.26-7.305-10.526-10.971-15.78c-0.166-0.237-0.464-0.497-0.728-0.529c-0.632-0.077-1.278-0.025-1.931-0.025
		c0,6.426,0,12.764,0,19.083c0.604,0,1.153,0,1.746,0C470.51,456.923,470.51,451.389,470.51,445.729z M537.112,443.462
		c-2.778,6.366-5.548,12.711-8.348,19.125c0.317,0,0.509-0.022,0.693,0.004c0.79,0.112,1.249-0.111,1.523-0.97
		c0.394-1.23,0.976-2.403,1.528-3.577c0.104-0.221,0.444-0.465,0.678-0.468c3.107-0.03,6.215-0.03,9.322,0
		c0.233,0.003,0.576,0.246,0.679,0.467c0.473,1.009,0.902,2.04,1.301,3.081c0.62,1.62,0.604,1.626,2.479,1.386
		c-0.544-1.256-1.093-2.485-1.611-3.727c-1.925-4.604-3.831-9.214-5.764-13.813C538.924,443.379,538.897,443.39,537.112,443.462z
		 M501.291,451.848c-3.149,0-6.242,0-9.334,0c0-2.35,0-4.61,0-6.959c3.348,0,6.657,0,9.964,0c0-0.53,0-0.971,0-1.412
		c-3.888,0-7.717,0-11.576,0c0,6.377,0,12.713,0,19.054c4.061,0,8.072,0,12.084,0c0-0.48,0-0.902,0-1.412c-3.509,0-6.98,0-10.453,0
		c0-2.585,0-5.082,0-7.638c3.131,0,6.204,0,9.315,0C501.291,452.947,501.291,452.469,501.291,451.848z M462.972,462.552
		c0-6.404,0-12.739,0-19.077c-0.532,0-1.009,0-1.523,0c0,6.372,0,12.707,0,19.077C461.966,462.552,462.442,462.552,462.972,462.552z
		"/>
	<path style="&st5;" d="M597.738,463.075c-5.734,0-11.47,0-17.204,0c0.109-0.054,0.214-0.137,0.329-0.157
		c2.379-0.413,4.378-1.492,5.822-3.452c1.975-2.679,2.498-5.679,1.8-8.907c-0.689-3.192-2.479-5.514-5.515-6.788
		c-0.834-0.35-1.73-0.551-2.599-0.82c32.406,0,64.812,0,97.219,0c0,6.06,0,12.119,0,18.178c-2.962,0-5.923,0-8.968,0
		c0-5.962,0-11.812,0-17.646c-0.616,0-1.146,0-1.692,0c0,6.379,0,12.714,0,19.106c3.587,0,7.123,0,10.66,0
		c-0.008,0.269,0.101,0.628-0.407,0.491c-0.101-0.027-0.216-0.005-0.323-0.005c-25.292,0-50.584,0-75.876,0
		c0.928-0.414,1.953-0.692,2.765-1.271c1.861-1.327,2.52-3.359,2.566-5.524c0.086-3.999,0.025-8.001,0.022-12.002
		c0-0.262-0.022-0.523-0.034-0.781c-0.557,0-1.051,0-1.586,0c0,0.38,0.004,0.701,0,1.023c-0.054,3.99-0.09,7.98-0.169,11.97
		c-0.052,2.617-1.533,4.356-4.16,5.015c-1.666,0.418-4.242-0.359-5.139-1.949c-0.643-1.14-1.063-2.332-1.073-3.629
		c-0.027-3.865-0.01-7.731-0.01-11.597c0-0.285,0-0.57,0-0.852c-0.647,0-1.179,0-1.717,0c-0.027,0.111-0.062,0.187-0.062,0.261
		c0.051,4.477,0.038,8.956,0.193,13.429c0.055,1.583,0.742,3.032,1.905,4.215C595.399,462.31,596.588,462.64,597.738,463.075z
		 M629.09,462.548c0-5.601,0-11.142,0-16.813c0.254,0.338,0.42,0.544,0.571,0.761c3.635,5.213,7.267,10.428,10.908,15.636
		c0.127,0.183,0.335,0.417,0.52,0.431c0.686,0.052,1.377,0.021,2.05,0.021c0-6.441,0-12.759,0-19.091c-0.594,0-1.143,0-1.769,0
		c0,5.601,0,11.147,0,16.859c-0.162-0.229-0.22-0.312-0.277-0.395c-3.687-5.275-7.37-10.553-11.065-15.821
		c-0.188-0.269-0.456-0.622-0.728-0.663c-0.649-0.097-1.322-0.031-1.982-0.031c0,6.434,0,12.751,0,19.107
		C627.885,462.548,628.415,462.548,629.09,462.548z M618.176,453.398c1.563-0.26,2.98-0.643,3.938-1.825
		c1.643-2.029,1.558-6.6-2.249-7.631c-1.041-0.283-2.139-0.437-3.217-0.483c-1.796-0.077-3.598-0.021-5.375-0.021
		c0,6.45,0,12.786,0,19.106c0.593,0,1.124,0,1.739,0c0-3.026,0-6.01,0-9.045c0.893,0,1.703,0.044,2.506-0.014
		c0.646-0.046,1.031,0.176,1.356,0.737c1.548,2.673,3.128,5.328,4.713,7.979c0.103,0.171,0.337,0.348,0.526,0.367
		c0.491,0.053,0.99,0.018,1.603,0.018C621.831,459.459,620.021,456.457,618.176,453.398z M664.058,462.587
		c0.013-0.12,0.038-0.18,0.021-0.222c-2.538-6.02-5.085-12.035-7.612-18.059c-0.228-0.543-0.391-0.911-1.139-0.909
		c-0.834,0.003-1.275,0.209-1.464,1.043c-0.104,0.457-0.4,0.867-0.593,1.307c-1.951,4.454-3.902,8.909-5.846,13.366
		c-0.493,1.131-0.96,2.273-1.465,3.474c0.412,0,0.712-0.026,1.005,0.006c0.519,0.057,0.817-0.082,1.013-0.635
		c0.336-0.949,0.829-1.842,1.193-2.783c0.624-1.611,0.604-1.619,2.259-1.619c2.914,0,5.829,0,8.748,0
		c0.624,1.522,1.253,2.985,1.815,4.475c0.162,0.429,0.35,0.599,0.796,0.564C663.212,462.561,663.639,462.587,664.058,462.587z"/>
	<path style="&st3;" d="M580.372,442.95c0.868,0.27,1.765,0.471,2.599,0.82c3.036,1.274,4.825,3.596,5.515,6.788
		c0.698,3.229,0.175,6.229-1.8,8.907c-1.444,1.96-3.443,3.039-5.822,3.452c-0.115,0.021-0.22,0.104-0.329,0.157
		c-1.136,0-2.271,0-3.408,0c-0.52-0.155-1.043-0.3-1.559-0.467c-3.979-1.287-6.019-4.111-6.567-8.178
		c-0.416-3.08,0.315-5.836,2.259-8.221c1.456-1.786,3.438-2.743,5.709-3.103c0.112-0.018,0.214-0.103,0.32-0.157
		C578.316,442.95,579.345,442.95,580.372,442.95z M570.605,453.559c-0.107,1.665,0.585,3.661,2.001,5.357
		c1.282,1.535,3.001,2.289,5.002,2.571c2.795,0.395,5.231-0.319,7.169-2.291c2.727-2.774,2.938-7.614,1.128-10.803
		c-2.221-3.913-7.092-4.881-10.809-3.105C571.938,446.798,570.629,449.551,570.605,453.559z"/>
	<path style="&st3;" d="M597.738,463.075c-1.15-0.435-2.339-0.765-3.251-1.692c-1.163-1.183-1.851-2.632-1.905-4.215
		c-0.155-4.473-0.143-8.952-0.193-13.429c0-0.074,0.034-0.149,0.062-0.261c0.538,0,1.069,0,1.717,0c0,0.281,0,0.566,0,0.852
		c0,3.865-0.018,7.731,0.01,11.597c0.01,1.297,0.431,2.489,1.073,3.629c0.896,1.59,3.473,2.367,5.139,1.949
		c2.627-0.658,4.108-2.397,4.16-5.015c0.079-3.989,0.115-7.979,0.169-11.97c0.004-0.322,0-0.644,0-1.023c0.535,0,1.029,0,1.586,0
		c0.012,0.258,0.034,0.52,0.034,0.781c0.003,4.001,0.063,8.003-0.022,12.002c-0.047,2.165-0.705,4.197-2.566,5.524
		c-0.812,0.578-1.837,0.856-2.765,1.271C599.902,463.075,598.82,463.075,597.738,463.075z"/>
	<path style="&st3;" d="M451.992,442.95c1.124,0.431,2.292,0.776,3.358,1.322c0.712,0.364,1.279,1.012,1.933,1.551
		c-0.558,0.473-0.984,0.833-1.339,1.133c-0.823-0.618-1.535-1.291-2.365-1.75c-2.796-1.55-6.921-0.521-8.991,1.729
		c-3.011,3.271-2.969,9.293,0.207,12.421c2.901,2.857,8.274,3.245,11.126-0.279c0.116-0.144,0.268-0.259,0.435-0.418
		c0.438,0.333,0.858,0.654,1.329,1.013c-1.268,1.821-2.998,2.838-5.122,3.25c-0.089,0.018-0.164,0.101-0.246,0.153
		c-1.136,0-2.271,0-3.408,0c-0.055-0.049-0.104-0.136-0.164-0.144c-4.033-0.53-7.039-3.566-7.793-7.438
		c-0.098-0.504-0.213-1.004-0.32-1.506c0-0.649,0-1.299,0-1.948c0.054-0.108,0.145-0.213,0.156-0.327
		c0.439-3.955,2.423-6.742,6.193-8.159c0.677-0.254,1.393-0.404,2.09-0.603C450.045,442.95,451.019,442.95,451.992,442.95z"/>
	<path style="&st3;" d="M677.591,462.588c-3.537,0-7.073,0-10.66,0c0-6.393,0-12.728,0-19.106c0.546,0,1.076,0,1.692,0
		c0,5.834,0,11.684,0,17.646c3.045,0,6.006,0,8.968,0C677.591,461.615,677.591,462.101,677.591,462.588z"/>
	<path style="&st3;" d="M558.299,463.075c-0.753-0.456-1.62-0.797-2.229-1.4c-0.634-0.627-1.017-1.508-1.585-2.396
		c0.814-0.125,1.358-0.209,1.888-0.29c1.035,2.608,3.174,3.386,5.432,1.98c1.015-0.631,1.347-1.692,1.354-2.813
		c0.026-4.568,0.011-9.138,0.011-13.706c0-0.295,0-0.591,0-0.949c0.581,0,1.13,0,1.748,0c0.012,0.247,0.034,0.508,0.034,0.769
		c0.002,4.406,0.034,8.813-0.017,13.219c-0.017,1.433-0.152,2.949-1.229,4.019c-0.679,0.673-1.646,1.057-2.484,1.569
		C560.247,463.075,559.272,463.075,558.299,463.075z"/>
	<path style="&st5;" d="M449.07,442.95c-0.697,0.198-1.413,0.349-2.09,0.603c-3.771,1.417-5.754,4.204-6.193,8.159
		c-0.012,0.114-0.103,0.219-0.156,0.327c0-3.016,0-6.031,0-9.089C443.444,442.95,446.258,442.95,449.07,442.95z"/>
	<path style="&st5;" d="M440.631,453.987c0.107,0.502,0.223,1.002,0.32,1.506c0.754,3.872,3.76,6.908,7.793,7.438
		c0.06,0.008,0.109,0.095,0.164,0.144c-2.759,0-5.519,0-8.277,0C440.631,460.045,440.631,457.016,440.631,453.987z"/>
	<path style="&st3;" d="M508.336,462.547c-0.673,0-1.204,0-1.771,0c0-6.358,0-12.677,0-19.105c0.775,0,1.552-0.041,2.317,0.028
		c0.202,0.019,0.441,0.351,0.547,0.591c0.989,2.237,1.95,4.487,2.924,6.731c1.26,2.899,2.523,5.798,3.862,8.873
		c0.611-1.392,1.154-2.622,1.691-3.854c1.709-3.924,3.424-7.845,5.112-11.776c0.2-0.466,0.446-0.647,0.951-0.608
		c0.586,0.047,1.179,0.011,1.818,0.011c0,6.396,0,12.734,0,19.111c-0.558,0-1.088,0-1.712,0c0-5.573,0-11.147,0-16.722
		c-0.067-0.016-0.134-0.031-0.201-0.048c-0.547,1.272-1.092,2.546-1.64,3.817c-1.79,4.15-3.573,8.304-5.386,12.444
		c-0.104,0.235-0.427,0.471-0.678,0.509c-0.16,0.024-0.457-0.278-0.555-0.496c-1.308-2.915-2.593-5.839-3.88-8.763
		c-1.091-2.478-2.177-4.957-3.401-7.416C508.336,451.414,508.336,456.952,508.336,462.547z"/>
	<path style="&st3;" d="M470.51,445.729c0,5.66,0,11.194,0,16.793c-0.593,0-1.142,0-1.746,0c0-6.319,0-12.657,0-19.083
		c0.652,0,1.299-0.052,1.931,0.025c0.264,0.032,0.562,0.292,0.728,0.529c3.666,5.254,7.313,10.521,10.971,15.78
		c0.13,0.187,0.312,0.337,0.573,0.615c0-5.715,0-11.271,0-16.89c0.555,0,1.05,0,1.597,0c0,6.328,0,12.666,0,19.087
		c-0.634,0-1.253,0.044-1.86-0.021c-0.24-0.025-0.522-0.245-0.67-0.457c-3.657-5.229-7.298-10.472-10.945-15.708
		C470.941,446.192,470.756,446.013,470.51,445.729z"/>
	<path style="&st3;" d="M537.112,443.462c1.785-0.072,1.812-0.083,2.48,1.508c1.933,4.6,3.839,9.21,5.764,13.813
		c0.519,1.241,1.067,2.471,1.611,3.727c-1.874,0.24-1.858,0.234-2.479-1.386c-0.398-1.041-0.828-2.072-1.301-3.081
		c-0.103-0.221-0.445-0.464-0.679-0.467c-3.107-0.03-6.215-0.03-9.322,0c-0.233,0.003-0.574,0.247-0.678,0.468
		c-0.553,1.174-1.135,2.347-1.528,3.577c-0.274,0.858-0.733,1.082-1.523,0.97c-0.185-0.026-0.376-0.004-0.693-0.004
		C531.564,456.173,534.334,449.829,537.112,443.462z M533.413,455.875c3.016,0,5.909,0,8.918,0
		c-1.463-3.553-2.888-7.014-4.387-10.653C536.39,448.875,534.92,452.333,533.413,455.875z"/>
	<path style="&st3;" d="M501.291,451.848c0,0.621,0,1.099,0,1.633c-3.111,0-6.185,0-9.315,0c0,2.556,0,5.053,0,7.638
		c3.473,0,6.944,0,10.453,0c0,0.51,0,0.932,0,1.412c-4.012,0-8.023,0-12.084,0c0-6.341,0-12.677,0-19.054c3.859,0,7.688,0,11.576,0
		c0,0.441,0,0.882,0,1.412c-3.307,0-6.616,0-9.964,0c0,2.349,0,4.609,0,6.959C495.049,451.848,498.142,451.848,501.291,451.848z"/>
	<path style="&st3;" d="M462.972,462.552c-0.529,0-1.006,0-1.523,0c0-6.37,0-12.705,0-19.077c0.515,0,0.991,0,1.523,0
		C462.972,449.813,462.972,456.148,462.972,462.552z"/>
	<path style="&st3;" d="M629.09,462.548c-0.675,0-1.205,0-1.772,0c0-6.356,0-12.674,0-19.107c0.66,0,1.333-0.065,1.982,0.031
		c0.271,0.041,0.539,0.395,0.728,0.663c3.695,5.269,7.379,10.546,11.065,15.821c0.058,0.083,0.115,0.165,0.277,0.395
		c0-5.712,0-11.259,0-16.859c0.626,0,1.175,0,1.769,0c0,6.332,0,12.649,0,19.091c-0.673,0-1.364,0.031-2.05-0.021
		c-0.185-0.014-0.393-0.248-0.52-0.431c-3.642-5.208-7.273-10.423-10.908-15.636c-0.151-0.217-0.317-0.423-0.571-0.761
		C629.09,451.407,629.09,456.948,629.09,462.548z"/>
	<path style="&st3;" d="M618.176,453.398c1.845,3.059,3.655,6.062,5.54,9.188c-0.612,0-1.111,0.035-1.603-0.018
		c-0.189-0.02-0.424-0.196-0.526-0.367c-1.585-2.651-3.165-5.307-4.713-7.979c-0.325-0.562-0.71-0.783-1.356-0.737
		c-0.803,0.058-1.613,0.014-2.506,0.014c0,3.035,0,6.019,0,9.045c-0.615,0-1.146,0-1.739,0c0-6.32,0-12.656,0-19.106
		c1.777,0,3.579-0.056,5.375,0.021c1.078,0.047,2.176,0.2,3.217,0.483c3.807,1.031,3.892,5.602,2.249,7.631
		C621.156,452.755,619.739,453.138,618.176,453.398z M613.026,451.823c0.141,0.028,0.193,0.047,0.245,0.047
		c1.325,0.004,2.652,0.042,3.976-0.008c0.684-0.025,1.389-0.119,2.035-0.333c1.322-0.438,2.03-1.45,2.139-2.812
		c0.106-1.339-0.513-2.59-1.739-3.16c-2.139-0.994-4.404-0.558-6.655-0.668C613.026,447.259,613.026,449.521,613.026,451.823z"/>
	<path style="&st3;" d="M664.058,462.587c-0.419,0-0.846-0.026-1.269,0.008c-0.446,0.034-0.634-0.136-0.796-0.564
		c-0.562-1.489-1.191-2.952-1.815-4.475c-2.919,0-5.834,0-8.748,0c-1.655,0-1.635,0.008-2.259,1.619
		c-0.364,0.941-0.857,1.834-1.193,2.783c-0.195,0.553-0.494,0.691-1.013,0.635c-0.293-0.032-0.593-0.006-1.005-0.006
		c0.505-1.2,0.972-2.343,1.465-3.474c1.943-4.457,3.895-8.912,5.846-13.366c0.192-0.439,0.489-0.85,0.593-1.307
		c0.188-0.834,0.63-1.04,1.464-1.043c0.748-0.002,0.911,0.366,1.139,0.909c2.527,6.023,5.074,12.039,7.612,18.059
		C664.096,462.408,664.07,462.467,664.058,462.587z M655.104,445.214c-1.565,3.694-3.033,7.159-4.522,10.675
		c3.038,0,5.915,0,8.925,0C658.042,452.339,656.612,448.875,655.104,445.214z"/>
	<path style="&st5;" d="M570.605,453.559c0.023-4.008,1.333-6.761,4.491-8.271c3.717-1.775,8.588-0.808,10.809,3.105
		c1.81,3.188,1.599,8.028-1.128,10.803c-1.938,1.972-4.374,2.686-7.169,2.291c-2.001-0.282-3.72-1.036-5.002-2.571
		C571.19,457.22,570.498,455.224,570.605,453.559z"/>
	<path style="&st5;" d="M533.413,455.875c1.507-3.542,2.977-6.999,4.531-10.653c1.499,3.64,2.924,7.101,4.387,10.653
		C539.322,455.875,536.429,455.875,533.413,455.875z"/>
	<path style="&st5;" d="M613.026,451.823c0-2.302,0-4.563,0-6.935c2.251,0.11,4.517-0.326,6.655,0.668
		c1.227,0.57,1.846,1.821,1.739,3.16c-0.108,1.362-0.816,2.375-2.139,2.812c-0.646,0.214-1.352,0.308-2.035,0.333
		c-1.323,0.05-2.65,0.012-3.976,0.008C613.22,451.87,613.167,451.851,613.026,451.823z"/>
	<path style="&st5;" d="M655.104,445.214c1.509,3.66,2.938,7.125,4.402,10.675c-3.01,0-5.887,0-8.925,0
		C652.07,452.374,653.538,448.909,655.104,445.214z"/>
</g>
</svg>
