<?xml version="1.0" encoding="utf-8"?>
<!-- Generator: Adobe Illustrator 16.0.4, SVG Export Plug-In . SVG Version: 6.00 Build 0)  -->
<!DOCTYPE svg PUBLIC "-//W3C//DTD SVG 1.1//EN" "http://www.w3.org/Graphics/SVG/1.1/DTD/svg11.dtd">
<svg version="1.1" xmlns="http://www.w3.org/2000/svg" xmlns:xlink="http://www.w3.org/1999/xlink" x="0px" y="0px" width="375px"
	 height="75.653px" viewBox="0 0 375 75.653" enable-background="new 0 0 375 75.653" xml:space="preserve">
<g id="Layer_1">
</g>
<g id="Layer_2">
	<g id="mediacommons">
		<g id="mc-subhead">
			<path id="mc-subhead-a" fill="#878787" d="M13.916,69.168c-0.72,0-1.292-0.204-1.719-0.608c-0.426-0.402-0.638-1.065-0.638-1.982
				c-0.767,0.917-1.656,1.578-2.669,1.982c-1.015,0.404-2.112,0.608-3.291,0.608c-0.768,0-1.488-0.083-2.162-0.247
				c-0.677-0.165-1.273-0.437-1.784-0.818c-0.514-0.381-0.917-0.871-1.212-1.474C0.147,66.029,0,65.304,0,64.452
				c0-0.961,0.165-1.746,0.49-2.36c0.328-0.607,0.76-1.107,1.294-1.489c0.533-0.382,1.146-0.671,1.832-0.868
				c0.688-0.196,1.392-0.359,2.113-0.49c0.763-0.15,1.49-0.268,2.178-0.344c0.688-0.077,1.292-0.186,1.818-0.328
				c0.524-0.143,0.939-0.35,1.242-0.622c0.306-0.272,0.458-0.672,0.458-1.196c0-0.609-0.112-1.102-0.343-1.474
				c-0.23-0.371-0.524-0.655-0.884-0.851c-0.359-0.197-0.766-0.328-1.212-0.395c-0.445-0.063-0.89-0.099-1.324-0.099
				c-1.179,0-2.162,0.226-2.949,0.671c-0.784,0.449-1.211,1.293-1.277,2.539H0.651c0.043-1.049,0.262-1.933,0.653-2.653
				c0.392-0.719,0.917-1.302,1.572-1.749c0.654-0.448,1.408-0.771,2.26-0.966c0.853-0.196,1.745-0.296,2.686-0.296
				c0.763,0,1.521,0.056,2.274,0.164c0.753,0.11,1.437,0.334,2.046,0.673c0.611,0.338,1.102,0.815,1.474,1.424
				c0.372,0.611,0.559,1.408,0.559,2.391v8.71c0,0.654,0.038,1.135,0.115,1.44c0.076,0.307,0.333,0.458,0.771,0.458
				c0.239,0,0.525-0.054,0.851-0.164v2.162c-0.442,0.272-1.108,0.412-1.964,0.412L13.916,69.168z M10.028,60.635
				c-0.567,0.12-1.164,0.22-1.784,0.296c-0.622,0.075-1.25,0.161-1.883,0.262c-0.634,0.098-1.2,0.256-1.702,0.475
				c-0.502,0.219-0.912,0.53-1.227,0.933c-0.317,0.403-0.477,0.955-0.477,1.657c0,0.458,0.093,0.846,0.277,1.162
				c0.186,0.314,0.426,0.571,0.72,0.77C4.246,66.387,4.598,66.527,5,66.615c0.401,0.086,0.814,0.13,1.229,0.13
				c0.915,0,1.701-0.125,2.357-0.377c0.653-0.25,1.19-0.566,1.606-0.948c0.415-0.382,0.72-0.796,0.917-1.243
				c0.195-0.446,0.292-0.866,0.292-1.26v-2.85c-0.354,0.261-0.806,0.463-1.37,0.575L10.028,60.635z"/>
			<g id="mc-subhead-digital">
				<path id="path3725" fill="#878787" d="M38.646,68.805v-2.291h-0.063c-0.458,0.939-1.179,1.616-2.162,2.03
					c-0.985,0.415-2.062,0.624-3.243,0.624c-1.31,0-2.451-0.242-3.422-0.721c-0.97-0.483-1.778-1.125-2.422-1.933
					c-0.645-0.81-1.129-1.746-1.458-2.815c-0.327-1.07-0.488-2.205-0.488-3.407c0-1.199,0.155-2.335,0.474-3.406
					c0.316-1.069,0.798-2.001,1.442-2.799c0.645-0.797,1.451-1.432,2.422-1.899c0.972-0.471,2.102-0.704,3.389-0.704
					c0.437,0,0.906,0.043,1.407,0.131c0.502,0.088,1.006,0.232,1.507,0.441c0.501,0.208,0.977,0.483,1.424,0.819
					c0.448,0.338,0.823,0.759,1.131,1.26h0.064v-8.711h2.784v23.382H38.646z M28.644,62.801c0.208,0.754,0.525,1.425,0.95,2.014
					c0.424,0.589,0.971,1.059,1.636,1.407c0.666,0.35,1.447,0.524,2.34,0.524c0.939,0,1.737-0.185,2.39-0.557
					c0.654-0.371,1.191-0.856,1.606-1.457c0.415-0.599,0.714-1.28,0.901-2.046c0.187-0.764,0.277-1.537,0.277-2.325
					c0-0.829-0.099-1.631-0.294-2.408c-0.196-0.776-0.508-1.457-0.934-2.045s-0.979-1.066-1.656-1.425
					c-0.678-0.359-1.494-0.54-2.457-0.54c-0.938,0-1.735,0.187-2.389,0.556c-0.654,0.373-1.179,0.863-1.573,1.475
					c-0.393,0.611-0.677,1.312-0.852,2.097c-0.175,0.784-0.261,1.594-0.261,2.421c0,0.796,0.1,1.562,0.312,2.317L28.644,62.801z"/>
				<path id="path3727" fill="#878787" d="M44.571,48.839v-3.407h2.784v3.407H44.571z M47.351,51.88v16.932h-2.784V51.88H47.351z"/>
				<path id="path3729" fill="#878787" d="M63.732,73.59c-1.267,1.375-3.253,2.063-5.96,2.063c-0.785,0-1.587-0.087-2.407-0.262
					c-0.818-0.174-1.561-0.459-2.226-0.851c-0.667-0.394-1.217-0.906-1.656-1.541c-0.437-0.632-0.677-1.405-0.72-2.324h2.784
					c0.021,0.502,0.182,0.928,0.476,1.277c0.293,0.35,0.653,0.632,1.079,0.851c0.428,0.22,0.892,0.377,1.392,0.477
					c0.504,0.099,0.986,0.147,1.442,0.147c0.917,0,1.693-0.16,2.329-0.475c0.632-0.315,1.154-0.753,1.573-1.309
					c0.415-0.56,0.713-1.23,0.901-2.015c0.187-0.786,0.277-1.649,0.277-2.587V65.93h-0.062c-0.483,1.049-1.206,1.819-2.177,2.311
					c-0.974,0.49-2.003,0.734-3.095,0.734c-1.267,0-2.37-0.231-3.307-0.688c-0.939-0.459-1.725-1.075-2.358-1.851
					c-0.634-0.778-1.109-1.681-1.424-2.718c-0.314-1.037-0.474-2.134-0.474-3.292c0-1.005,0.129-2.036,0.393-3.094
					c0.261-1.059,0.697-2.019,1.31-2.883c0.608-0.859,1.419-1.571,2.423-2.128c1.004-0.556,2.238-0.833,3.7-0.833
					c1.07,0,2.052,0.232,2.948,0.704c0.896,0.468,1.594,1.172,2.096,2.113h0.033v-2.423h2.622v15.491
					c-0.01,2.761-0.646,4.845-1.905,6.216v0.004h-0.005V73.59L63.732,73.59z M60.175,65.974c0.645-0.382,1.162-0.884,1.557-1.506
					c0.393-0.622,0.683-1.324,0.865-2.113c0.188-0.787,0.277-1.573,0.277-2.357c0-0.741-0.087-1.475-0.263-2.195
					s-0.453-1.368-0.837-1.949c-0.381-0.578-0.877-1.042-1.49-1.393c-0.612-0.35-1.354-0.525-2.226-0.525
					c-0.896,0-1.658,0.169-2.292,0.507c-0.633,0.339-1.153,0.792-1.556,1.361c-0.402,0.567-0.697,1.223-0.884,1.963
					c-0.186,0.743-0.276,1.518-0.276,2.328c0,0.765,0.074,1.529,0.23,2.291c0.151,0.767,0.414,1.457,0.784,2.079
					c0.371,0.622,0.862,1.124,1.474,1.505c0.613,0.382,1.375,0.572,2.291,0.572c0.917-0.01,1.703-0.201,2.346-0.583L60.175,65.974z"
					/>
				<path id="path3731" fill="#878787" d="M69.322,48.839v-3.407h2.786v3.407H69.322z M72.114,51.88v16.932h-2.786V51.88H72.114z"/>
				<path id="path3733" fill="#878787" d="M83.668,51.88v2.457h-3.374v10.514c0,0.328,0.026,0.589,0.083,0.784
					c0.054,0.195,0.158,0.351,0.311,0.459c0.152,0.108,0.366,0.182,0.639,0.212c0.272,0.032,0.627,0.05,1.067,0.05h1.277v2.457
					h-2.127c-0.72,0-1.337-0.051-1.85-0.147c-0.516-0.101-0.929-0.279-1.244-0.541c-0.314-0.263-0.552-0.633-0.705-1.112
					c-0.151-0.48-0.229-1.112-0.229-1.901V54.337h-2.884V51.88h2.881v-5.075H80.3v5.075h3.384H83.668z"/>
				<path id="path3735" fill="#878787" d="M99.741,69.168c-0.719,0-1.292-0.204-1.719-0.608c-0.425-0.402-0.638-1.065-0.638-1.982
					c-0.765,0.917-1.654,1.578-2.669,1.982c-1.013,0.403-2.113,0.608-3.292,0.608c-0.764,0-1.485-0.083-2.162-0.247
					c-0.676-0.165-1.274-0.437-1.784-0.818c-0.513-0.381-0.917-0.871-1.212-1.474c-0.294-0.601-0.441-1.324-0.441-2.178
					c0-0.959,0.163-1.745,0.49-2.357c0.326-0.608,0.759-1.109,1.292-1.49c0.536-0.381,1.147-0.671,1.834-0.868
					c0.689-0.194,1.392-0.357,2.113-0.49c0.765-0.15,1.49-0.268,2.178-0.345c0.689-0.074,1.293-0.185,1.819-0.326
					c0.523-0.145,0.938-0.352,1.241-0.625c0.307-0.272,0.459-0.67,0.459-1.196c0-0.609-0.115-1.102-0.346-1.474
					c-0.229-0.371-0.524-0.654-0.884-0.851c-0.358-0.198-0.765-0.328-1.21-0.396c-0.448-0.062-0.891-0.098-1.327-0.098
					c-1.178,0-2.161,0.225-2.947,0.671c-0.786,0.449-1.211,1.293-1.279,2.54h-2.784c0.043-1.049,0.262-1.934,0.656-2.654
					c0.392-0.721,0.916-1.305,1.571-1.751c0.655-0.447,1.408-0.771,2.259-0.966c0.852-0.195,1.744-0.293,2.685-0.293
					c0.763,0,1.524,0.054,2.277,0.163c0.753,0.109,1.434,0.333,2.045,0.671c0.61,0.338,1.103,0.816,1.474,1.424
					C99.813,54.354,100,55.15,100,56.132v8.711c0,0.653,0.037,1.135,0.114,1.441c0.077,0.305,0.332,0.457,0.77,0.457
					c0.239,0,0.525-0.054,0.853-0.165v2.162c-0.463,0.283-1.128,0.426-1.986,0.426h0.021h-0.021L99.741,69.168z M95.843,60.635
					c-0.566,0.12-1.162,0.22-1.784,0.296c-0.623,0.075-1.25,0.161-1.883,0.262c-0.633,0.098-1.199,0.256-1.701,0.475
					c-0.504,0.219-0.911,0.53-1.229,0.933c-0.315,0.403-0.475,0.955-0.475,1.657c0,0.458,0.092,0.846,0.276,1.162
					c0.187,0.314,0.427,0.571,0.72,0.77c0.296,0.196,0.646,0.339,1.049,0.427c0.401,0.086,0.812,0.13,1.228,0.13
					c0.916,0,1.702-0.125,2.357-0.377c0.656-0.25,1.191-0.566,1.605-0.948c0.415-0.382,0.722-0.796,0.917-1.243
					c0.197-0.446,0.294-0.866,0.294-1.26v-2.85c-0.353,0.261-0.806,0.453-1.381,0.572v-0.005H95.843z"/>
				<path id="path3737" fill="#878787" d="M106.623,45.423v23.383h-2.783V45.423h2.78H106.623z"/>
			</g>
			<g id="mc-subhead-scholarly">
				<path id="path3739" fill="#878787" d="M120.867,65.027c0.262,0.426,0.606,0.765,1.029,1.017c0.426,0.25,0.903,0.433,1.441,0.538
					c0.534,0.11,1.086,0.165,1.655,0.165c0.438,0,0.896-0.032,1.375-0.098c0.479-0.066,0.923-0.188,1.324-0.359
					c0.403-0.175,0.734-0.433,0.998-0.77c0.263-0.338,0.395-0.772,0.395-1.294c0-0.72-0.273-1.266-0.818-1.637
					c-0.546-0.37-1.23-0.672-2.047-0.902c-0.817-0.231-1.706-0.438-2.667-0.622c-0.962-0.187-1.849-0.447-2.668-0.786
					c-0.818-0.338-1.501-0.812-2.047-1.425c-0.546-0.608-0.818-1.462-0.818-2.554c0-0.851,0.189-1.58,0.574-2.194
					c0.382-0.609,0.873-1.108,1.474-1.49c0.603-0.382,1.278-0.666,2.032-0.853c0.754-0.185,1.499-0.275,2.245-0.275
					c0.958,0,1.843,0.08,2.652,0.245c0.81,0.164,1.525,0.447,2.145,0.853c0.624,0.402,1.118,0.947,1.49,1.637
					c0.371,0.688,0.589,1.544,0.653,2.571h-2.783c-0.045-0.545-0.188-0.997-0.427-1.36c-0.239-0.359-0.546-0.651-0.917-0.867
					c-0.372-0.217-0.778-0.377-1.229-0.475c-0.448-0.101-0.902-0.147-1.359-0.147c-0.414,0-0.835,0.033-1.26,0.099
					c-0.427,0.064-0.815,0.182-1.162,0.344c-0.349,0.162-0.633,0.383-0.853,0.652c-0.219,0.274-0.327,0.628-0.327,1.067
					c0,0.481,0.168,0.878,0.508,1.196c0.337,0.315,0.77,0.579,1.293,0.786c0.525,0.208,1.112,0.382,1.768,0.524
					c0.654,0.146,1.31,0.29,1.966,0.442c0.697,0.152,1.378,0.338,2.045,0.557c0.665,0.22,1.255,0.508,1.766,0.868
					c0.514,0.357,0.929,0.814,1.245,1.359c0.316,0.546,0.476,1.223,0.476,2.03c0,1.028-0.212,1.878-0.638,2.556
					c-0.426,0.676-0.984,1.221-1.67,1.637c-0.69,0.413-1.463,0.702-2.328,0.866c-0.859,0.163-1.719,0.247-2.57,0.247
					c-0.941,0-1.833-0.1-2.685-0.295c-0.853-0.196-1.606-0.521-2.261-0.966c-0.653-0.448-1.178-1.037-1.573-1.768
					c-0.395-0.733-0.611-1.622-0.654-2.669h2.786c0,0.613,0.141,1.13,0.401,1.557h0.01l0.01-0.002L120.867,65.027L120.867,65.027z"
					/>
				<path id="path3741" fill="#878787" d="M145.227,54.822c-0.7-0.589-1.637-0.884-2.816-0.884c-1.004,0-1.846,0.186-2.522,0.557
					c-0.677,0.373-1.216,0.862-1.62,1.475c-0.404,0.61-0.693,1.317-0.867,2.113c-0.176,0.797-0.263,1.618-0.263,2.472
					c0,0.783,0.094,1.55,0.278,2.29c0.185,0.743,0.475,1.407,0.868,1.982c0.393,0.578,0.904,1.042,1.537,1.392
					c0.634,0.35,1.387,0.524,2.261,0.524c1.372,0,2.452-0.358,3.225-1.081c0.776-0.72,1.248-1.735,1.424-3.042h2.848
					c-0.307,2.095-1.084,3.711-2.339,4.847c-1.255,1.135-2.964,1.702-5.125,1.702c-1.289,0-2.429-0.208-3.421-0.624
					c-0.993-0.414-1.823-1.003-2.49-1.767c-0.665-0.764-1.168-1.676-1.506-2.734c-0.338-1.061-0.507-2.223-0.507-3.488
					c0-1.265,0.164-2.452,0.488-3.553c0.329-1.102,0.825-2.063,1.49-2.88c0.667-0.818,1.501-1.464,2.506-1.932
					c1.003-0.471,2.172-0.704,3.504-0.704c0.96,0,1.862,0.112,2.702,0.344c0.842,0.229,1.584,0.584,2.228,1.064
					c0.645,0.482,1.171,1.087,1.587,1.818c0.415,0.733,0.676,1.6,0.786,2.603H146.6c-0.222-1.07-0.674-1.899-1.378-2.49l0.01-0.006
					L145.227,54.822L145.227,54.822z"/>
				<path id="path3743" fill="#878787" d="M155.481,45.423v8.941h0.064c0.219-0.524,0.525-0.967,0.917-1.325
					c0.394-0.358,0.836-0.654,1.324-0.884c0.491-0.231,1.005-0.399,1.541-0.508c0.533-0.108,1.052-0.163,1.555-0.163
					c1.112,0,2.039,0.152,2.783,0.458c0.742,0.307,1.344,0.732,1.802,1.278c0.459,0.545,0.78,1.196,0.966,1.948
					c0.187,0.753,0.276,1.589,0.276,2.505v11.134h-2.782V57.346c0-1.049-0.308-1.876-0.917-2.489
					c-0.611-0.609-1.451-0.917-2.523-0.917c-0.852,0-1.588,0.132-2.208,0.395c-0.622,0.262-1.142,0.633-1.555,1.112
					c-0.416,0.481-0.729,1.042-0.936,1.686c-0.207,0.645-0.311,1.349-0.311,2.112v9.562h-2.784V45.426h2.771v-0.002h0.01l0.01-0.001
					H155.481z"/>
				<path id="path3745" fill="#878787" d="M169.856,56.877c0.351-1.08,0.874-2.019,1.574-2.815c0.701-0.796,1.562-1.424,2.586-1.882
					c1.026-0.459,2.203-0.688,3.537-0.688c1.354,0,2.54,0.229,3.55,0.688c1.016,0.458,1.868,1.086,2.573,1.882
					c0.695,0.797,1.224,1.737,1.574,2.815c0.351,1.081,0.523,2.245,0.523,3.488c0,1.243-0.176,2.403-0.523,3.471
					c-0.351,1.07-0.872,2.001-1.574,2.799c-0.699,0.798-1.555,1.419-2.573,1.868c-1.015,0.447-2.203,0.671-3.55,0.671
					c-1.332,0-2.512-0.226-3.537-0.671c-1.029-0.447-1.889-1.07-2.586-1.868c-0.697-0.798-1.223-1.731-1.574-2.799
					c-0.349-1.069-0.524-2.226-0.524-3.471s0.171-2.408,0.524-3.486V56.877z M172.688,63.093c0.272,0.798,0.649,1.463,1.13,1.998
					c0.481,0.534,1.043,0.945,1.686,1.229c0.646,0.285,1.326,0.426,2.046,0.426c0.72,0,1.405-0.141,2.044-0.426
					c0.647-0.284,1.207-0.693,1.691-1.229c0.481-0.535,0.858-1.199,1.129-1.998c0.272-0.797,0.405-1.706,0.405-2.734
					c0-1.027-0.14-1.937-0.405-2.733c-0.274-0.797-0.651-1.468-1.129-2.014c-0.483-0.546-1.044-0.962-1.691-1.244
					c-0.643-0.282-1.325-0.427-2.044-0.427c-0.72,0-1.404,0.145-2.046,0.427c-0.645,0.283-1.207,0.699-1.686,1.244
					c-0.482,0.546-0.857,1.216-1.13,2.014c-0.274,0.797-0.41,1.708-0.41,2.733c0.01,1.028,0.151,1.938,0.424,2.734h-0.02H172.688z"
					/>
				<path id="path3747" fill="#878787" d="M191.335,45.423v23.383h-2.786V45.423h2.779H191.335z"/>
				<path id="path3749" fill="#878787" d="M208.006,69.168c-0.727,0-1.296-0.204-1.721-0.608c-0.428-0.402-0.644-1.065-0.644-1.982
					c-0.763,0.917-1.651,1.578-2.665,1.982c-1.019,0.403-2.116,0.608-3.296,0.608c-0.768,0-1.487-0.083-2.162-0.247
					c-0.679-0.165-1.273-0.437-1.783-0.818c-0.513-0.381-0.912-0.871-1.208-1.474c-0.295-0.601-0.44-1.324-0.44-2.178
					c0-0.959,0.165-1.745,0.486-2.357c0.324-0.609,0.758-1.109,1.291-1.49c0.534-0.381,1.154-0.671,1.834-0.868
					c0.689-0.194,1.39-0.357,2.112-0.49c0.766-0.15,1.49-0.268,2.176-0.345c0.692-0.074,1.295-0.185,1.822-0.326
					c0.525-0.145,0.942-0.352,1.24-0.625c0.309-0.272,0.458-0.67,0.458-1.196c0-0.609-0.108-1.102-0.343-1.474
					c-0.231-0.371-0.524-0.654-0.886-0.851c-0.358-0.198-0.77-0.328-1.21-0.396c-0.448-0.062-0.893-0.098-1.322-0.098
					c-1.183,0-2.161,0.225-2.95,0.671c-0.784,0.449-1.214,1.293-1.282,2.54h-2.784c0.045-1.049,0.264-1.934,0.65-2.654
					c0.395-0.721,0.917-1.305,1.574-1.751c0.65-0.447,1.405-0.771,2.257-0.966c0.854-0.195,1.739-0.293,2.685-0.293
					c0.766,0,1.526,0.054,2.276,0.163c0.754,0.109,1.439,0.333,2.047,0.671c0.608,0.338,1.104,0.816,1.476,1.424
					c0.368,0.612,0.557,1.409,0.557,2.391v8.711c0,0.653,0.038,1.135,0.115,1.441c0.074,0.305,0.33,0.457,0.771,0.457
					c0.236,0,0.523-0.054,0.854-0.165v2.162c-0.477,0.283-1.142,0.426-1.987,0.426h-0.011L208.006,69.168z M204.106,60.635
					c-0.565,0.12-1.156,0.22-1.785,0.296c-0.617,0.075-1.246,0.161-1.879,0.262c-0.638,0.098-1.197,0.256-1.7,0.475
					c-0.501,0.219-0.91,0.53-1.232,0.933c-0.313,0.403-0.477,0.955-0.477,1.657c0,0.458,0.096,0.846,0.276,1.162
					c0.186,0.314,0.429,0.571,0.721,0.77c0.295,0.196,0.648,0.339,1.049,0.427c0.4,0.086,0.813,0.13,1.229,0.13
					c0.916,0,1.699-0.125,2.359-0.377c0.656-0.25,1.192-0.566,1.608-0.948c0.413-0.382,0.724-0.796,0.914-1.243
					c0.195-0.446,0.296-0.866,0.296-1.26v-2.85c-0.346,0.261-0.81,0.453-1.367,0.572L204.106,60.635L204.106,60.635L204.106,60.635z
					"/>
				<path id="path3751" fill="#878787" d="M215.107,51.88v3.57h0.064c0.679-1.376,1.505-2.391,2.491-3.045
					c0.986-0.653,2.225-0.959,3.731-0.916v2.948c-1.111,0-2.062,0.152-2.849,0.459c-0.779,0.305-1.411,0.753-1.898,1.342
					c-0.483,0.589-0.83,1.305-1.049,2.145c-0.22,0.84-0.325,1.807-0.325,2.898v7.533h-2.787V51.881h2.611V51.88H215.107z"/>
				<path id="path3753" fill="#878787" d="M226.44,45.423v23.383h-2.783V45.423h2.781H226.44z"/>
				<path id="path3755" fill="#878787" d="M236.442,73.137c-0.313,0.566-0.666,1.031-1.049,1.393c-0.382,0.357-0.8,0.62-1.258,0.783
					c-0.458,0.164-1.006,0.246-1.637,0.246c-0.326,0-0.65-0.021-0.986-0.063c-0.324-0.043-0.649-0.12-0.947-0.23v-2.555
					c0.268,0.086,0.526,0.175,0.801,0.263c0.274,0.087,0.554,0.131,0.838,0.131c0.565,0,1.029-0.131,1.375-0.394
					c0.347-0.262,0.65-0.644,0.914-1.146l1.147-2.849l-6.713-16.832h3.143l4.944,13.852h0.062l4.753-13.852h2.949l-7.366,19.158
					c-0.354,0.83-0.675,1.53-0.987,2.097h-0.01L236.442,73.137z"/>
			</g>
			<g id="mc-subhead-network">
				<path id="path3757" fill="#878787" d="M257.553,51.88v2.687h0.062c1.155-2.052,2.992-3.078,5.501-3.078
					c1.113,0,2.041,0.151,2.792,0.459c0.735,0.306,1.341,0.731,1.796,1.277c0.458,0.546,0.775,1.196,0.968,1.948
					c0.188,0.753,0.271,1.589,0.271,2.505v11.134h-2.782V57.351c0-1.049-0.31-1.875-0.916-2.49c-0.61-0.609-1.449-0.917-2.523-0.917
					c-0.853,0-1.587,0.133-2.208,0.395c-0.62,0.263-1.142,0.634-1.556,1.112c-0.411,0.481-0.728,1.042-0.935,1.686
					c-0.208,0.646-0.315,1.349-0.315,2.112v9.563h-2.787V51.88h2.624H257.553z"/>
				<path id="path3759" fill="#878787" d="M283.813,67.728c-1.269,0.959-2.861,1.441-4.781,1.441c-1.356,0-2.528-0.22-3.517-0.656
					c-0.994-0.436-1.827-1.049-2.505-1.833c-0.678-0.784-1.185-1.724-1.522-2.816c-0.339-1.092-0.526-2.283-0.574-3.57
					c0-1.286,0.198-2.466,0.593-3.538c0.397-1.07,0.945-1.996,1.658-2.783c0.704-0.787,1.546-1.399,2.521-1.833
					c0.973-0.437,2.037-0.653,3.194-0.653c1.503,0,2.75,0.312,3.748,0.933c0.996,0.622,1.79,1.411,2.392,2.373
					c0.605,0.959,1.018,2.008,1.242,3.144c0.231,1.135,0.317,2.215,0.274,3.241h-12.675c-0.021,0.742,0.065,1.449,0.267,2.114
					c0.193,0.667,0.517,1.256,0.947,1.768c0.44,0.514,0.989,0.923,1.665,1.228c0.678,0.308,1.474,0.458,2.392,0.458
					c1.181,0,2.147-0.272,2.898-0.818c0.754-0.547,1.249-1.376,1.49-2.491h2.749c-0.36,1.9-1.188,3.331-2.446,4.29h0.01H283.813z
					 M283.141,56.857c-0.251-0.588-0.59-1.097-1.021-1.524c-0.426-0.426-0.93-0.763-1.5-1.016c-0.579-0.251-1.217-0.377-1.913-0.377
					c-0.723,0-1.368,0.126-1.952,0.377c-0.577,0.252-1.073,0.596-1.49,1.031c-0.413,0.439-0.741,0.945-0.983,1.524
					c-0.237,0.578-0.387,1.196-0.432,1.851h9.725c-0.029-0.654-0.184-1.277-0.435-1.868v0.002H283.141z"/>
				<path id="path3761" fill="#878787" d="M295.992,51.88v2.457h-3.378v10.514c0,0.328,0.027,0.589,0.08,0.784
					c0.059,0.195,0.158,0.351,0.314,0.459c0.146,0.108,0.359,0.182,0.639,0.212c0.274,0.032,0.628,0.05,1.066,0.05h1.282v2.457
					h-2.129c-0.721,0-1.337-0.051-1.85-0.147c-0.514-0.101-0.929-0.279-1.243-0.541c-0.314-0.263-0.554-0.633-0.7-1.112
					c-0.151-0.481-0.231-1.112-0.231-1.901V54.337h-2.877V51.88h2.877v-5.075h2.789v5.075h3.378H295.992z"/>
				<path id="path3763" fill="#878787" d="M313.544,68.805l-3.438-13.459h-0.063l-3.405,13.459h-3.014l-5.437-16.932h3.079
					l3.834,13.852h0.062l3.405-13.852h3.044l3.537,13.852h0.062l3.8-13.852h2.879l-5.394,16.932H313.544h0.01H313.544
					L313.544,68.805z"/>
				<path id="path3765" fill="#878787" d="M323.497,56.877c0.35-1.08,0.868-2.019,1.572-2.815c0.697-0.796,1.563-1.424,2.584-1.882
					c1.028-0.459,2.204-0.688,3.538-0.688c1.355,0,2.541,0.229,3.553,0.688c1.014,0.458,1.866,1.086,2.571,1.882
					c0.698,0.797,1.221,1.737,1.572,2.815c0.35,1.081,0.523,2.245,0.523,3.488c0,1.243-0.174,2.403-0.523,3.471
					c-0.357,1.07-0.872,2.001-1.572,2.799c-0.697,0.798-1.556,1.419-2.571,1.868c-1.018,0.446-2.205,0.671-3.553,0.671
					c-1.329,0-2.51-0.226-3.538-0.671c-1.028-0.447-1.887-1.07-2.584-1.868c-0.694-0.798-1.225-1.731-1.572-2.799
					c-0.353-1.069-0.526-2.226-0.526-3.471s0.186-2.408,0.526-3.486V56.877z M326.333,63.093c0.272,0.798,0.65,1.463,1.132,1.998
					c0.481,0.534,1.037,0.945,1.685,1.229c0.647,0.285,1.323,0.426,2.043,0.426c0.725,0,1.407-0.141,2.048-0.426
					c0.646-0.284,1.205-0.693,1.687-1.229c0.481-0.535,0.86-1.199,1.127-1.998c0.273-0.797,0.409-1.706,0.409-2.734
					c0-1.027-0.14-1.937-0.409-2.733c-0.272-0.797-0.651-1.468-1.127-2.014c-0.481-0.546-1.041-0.962-1.687-1.244
					c-0.649-0.282-1.323-0.427-2.048-0.427c-0.72,0-1.403,0.145-2.043,0.427c-0.647,0.283-1.201,0.699-1.685,1.244
					c-0.483,0.546-0.861,1.216-1.132,2.014c-0.273,0.797-0.404,1.708-0.404,2.733c0,1.028,0.131,1.938,0.408,2.734H326.333z"/>
				<path id="path3767" fill="#878787" d="M344.56,51.88v3.57h0.062c0.676-1.376,1.505-2.391,2.492-3.045
					c0.985-0.653,2.227-0.959,3.734-0.916v2.948c-1.112,0-2.069,0.152-2.85,0.459c-0.782,0.305-1.416,0.753-1.902,1.342
					c-0.484,0.589-0.828,1.305-1.047,2.145c-0.223,0.84-0.325,1.807-0.325,2.898v7.533h-2.79V51.881h2.629V51.88H344.56z"/>
				<path id="path3769" fill="#878787" d="M355.882,45.423v13.852l7.733-7.402h3.733l-6.715,6.155l7.199,10.774h-3.537L358.5,59.96
					l-2.623,2.424v6.418h-2.785V45.42h2.77v0.001v0.002H355.882L355.882,45.423z"/>
			</g>
		</g>
		<g id="mc-commons">
			<path id="mc-commons-mons" fill="#10496E" d="M369.147,10.698c-7.073,0-11.138,4.818-11.138,9.633
				c-0.147,3.163,1.28,5.041,2.786,7.598c1.576,2.709,3.541,4.891,3.384,7.451c0,3.16-1.659,4.814-3.759,4.814
				c-1.356,0-1.954-0.751-2.411-1.956c-0.605-1.806-1.807-3.009-3.613-3.009c-0.178,0-0.349,0.023-0.515,0.055
				c-0.123,0-0.248,0.026-0.372,0.086c-0.021,0.012-0.056,0.027-0.076,0.041c-0.283,0.105-0.546,0.252-0.776,0.442
				c-1.461,0.902-3.403,2.388-4.269,2.388c-0.608,0-0.904-0.449-0.904-1.203c0-1.053,1.057-3.913,3.008-8.876
				c3.083-7.751,4.062-11.288,4.062-13.244c0-2.108-1.507-4.216-4.292-4.216c-7.156,0-14.069,9.482-16.328,12.944l-0.453-0.302
				c1.358-3.311,3.54-8.427,3.54-10.082c0-1.053-0.677-2.56-2.859-2.56c-5.045,0-9.062,3.101-11.251,5.277
				c-1.573-3.716-5.226-5.279-8.537-5.279c-4.062,0-7.675,1.507-10.685,4.818c-4.086,4.45-6.173,10.252-6.296,16.36
				c-0.062,0.043-0.129,0.101-0.175,0.19c-0.451,0.601-4.062,5.417-5.719,5.417c-0.453,0-0.754-0.452-0.903-1.055
				c0-1.203,1.503-4.363,3.006-8.729c2.26-6.47,4.139-10.76,4.139-12.942c0-1.731-1.429-4.064-4.139-4.064
				c-6.922,0-12.791,9.482-16.854,15.805l-0.603-0.303c1.201-2.708,3.99-9.178,3.99-11.962c0-1.807-1.577-3.539-4.135-3.539
				c-6.777,0-13.396,10.083-16.559,15.352l-0.607-0.3c0.605-1.806,4.814-10.233,4.814-12.341c0-1.656-0.98-2.709-3.236-2.709
				c-5.492,0-10.909,6.021-12.416,7.828c-0.146,0.302,0,0.451,0.146,0.751l0.904,0.753c0.3,0.302,0.605,0.302,0.902,0
				c0.606-0.902,4.514-4.511,5.419-4.511c0.68,0,0.98,0.448,0.98,1.052c0,1.129-2.107,5.868-3.841,10.535h0.028l-5.213,13.993
				c-0.226,0.603,0.15,0.903,0.609,0.903h4.74c0.6,0,0.979-0.149,1.129-0.604l2.482-6.471c1.205-2.708,2.409-4.814,3.464-6.319
				c4.36-6.32,10.231-12.643,12.04-12.643c0.979,0,1.656,0.604,1.574,1.504c0,1.053-1.88,6.024-3.839,11.287l-4.733,12.492
				c-0.153,0.45,0.146,0.751,0.747,0.751h4.74c0.606,0,0.982-0.149,1.129-0.603l2.33-6.472c1.053-2.559,2.412-4.514,2.859-5.268
				c4.664-7.073,10.683-13.845,12.487-13.845c1.057,0,1.579,0.602,1.579,1.504c0,1.202-0.904,3.76-3.238,9.632
				c-2.86,7.226-4.512,11.889-4.512,13.544c0,1.054,0.903,2.257,2.556,2.257c5.139,0,9.927-4.798,12.192-7.461
				c1.071,5,4.942,7.461,8.725,7.463c4.516,0,7.979-1.658,10.839-4.968c4.511-4.968,6.471-12.792,6.471-17.607
				c0-0.54-0.044-1.046-0.104-1.533c1.404-1.324,3.687-3.279,4.845-3.279c0.675,0,1.127,0.451,1.127,1.204
				c0,1.053-1.805,5.72-3.463,10.535l-5.118,13.914c-0.146,0.452-0.067,0.981,0.61,0.981h4.813c0.749,0,0.901-0.148,1.055-0.451
				l2.41-6.924c1.201-3.008,2.56-5.268,4.064-7.673c3.16-5.118,9.479-11.138,11.731-11.138c1.057,0,1.737,0.602,1.737,1.805
				c0,0.902-2.113,6.623-3.24,9.783c-2.409,6.621-4.511,11.739-4.511,13.092c0,1.355,0.9,2.258,2.556,2.258
				c5.887,0,8.578-3.397,9.803-2.596c0.951,1.583,3.323,2.594,7.036,2.594c6.777,0,11.437-4.216,11.437-10.083
				c0-3.462-1.358-6.095-2.857-8.122c-0.828-1.129-3.463-4.218-3.463-6.773c0-3.313,1.657-4.366,3.16-4.366
				c1.201,0,1.507,1.203,1.806,2.109c0.452,1.954,1.659,2.559,3.01,2.559c1.656,0,2.861-1.205,2.861-3.165
				c-0.014-3.163-3.328-4.218-5.886-4.218h0.021l0.015,0.004h-0.012v0.002L369.147,10.698L369.147,10.698z M313.932,31.692h-0.006
				c-2.932,4.891-5.645,6.998-8.576,6.998c-1.657,0-3.16-1.505-3.16-3.538c0-3.008,1.499-7.524,3.984-11.737
				c3.687-6.169,6.551-8.804,9.633-8.804c2.184,0,3.236,1.73,3.236,3.385c0.01,2.708-2.329,8.956-5.105,13.696H313.932z"/>
			<path id="mc-commons-om" fill="#10496E" d="M248.406,32.52l-1.053-0.679c-0.149-0.074-0.452-0.074-0.609,0.228
				c-0.448,0.601-4.062,5.417-5.72,5.417c-0.449,0-0.756-0.452-0.903-1.055c0-1.204,1.501-4.363,3.007-8.729
				c2.257-6.47,4.136-10.76,4.136-12.942c0-1.732-1.433-4.064-4.136-4.064c-6.921,0-12.79,9.481-16.852,15.805l-0.609-0.303
				c1.2-2.708,3.99-9.179,3.99-11.962c0-1.807-1.576-3.539-4.135-3.539c-6.779,0-13.398,10.083-16.561,15.352l-0.603-0.301
				c0.599-1.806,4.812-10.232,4.812-12.341c0-1.655-0.978-2.708-3.235-2.708c-4.241,0-8.422,3.582-10.809,6.047
				c-1.363-4.271-5.295-6.047-8.833-6.047c-4.058,0-7.671,1.507-10.682,4.818c-4.214,4.589-6.319,10.608-6.319,16.928h0.002
				c0,6.924,4.595,10.31,9.026,10.312c4.514,0,7.972-1.658,10.837-4.968c4.513-4.968,6.473-12.792,6.473-17.607
				c0-0.114-0.014-0.22-0.018-0.333c0.902-1.124,4.429-4.332,5.278-4.332c0.679,0,0.983,0.449,0.983,1.052
				c0,1.129-2.109,5.869-3.841,10.535h0.026l-5.219,13.994c-0.229,0.604,0.148,0.903,0.608,0.903h4.74
				c0.604,0,0.981-0.149,1.127-0.603l2.483-6.472c1.2-2.708,2.41-4.813,3.463-6.32c4.364-6.319,10.228-12.64,12.031-12.64
				c0.986,0,1.659,0.603,1.58,1.503c0,1.053-1.881,6.022-3.84,11.286l-4.741,12.492c-0.149,0.448,0.146,0.751,0.752,0.751h4.738
				c0.605,0,0.981-0.149,1.125-0.604l2.331-6.471c1.055-2.558,2.409-4.513,2.859-5.268c4.666-7.073,10.686-13.845,12.488-13.845
				c1.058,0,1.576,0.603,1.576,1.505c0,1.202-0.901,3.76-3.236,9.632c-2.858,7.225-4.513,11.889-4.513,13.543
				c0,1.054,0.903,2.258,2.56,2.258c6.919,0,13.242-8.729,13.537-9.18c0.137-0.605,0.137-0.755-0.17-1.056h0.013l0.021,0.006
				H248.406z M189.866,31.692h-0.011c-2.927,4.891-5.645,6.998-8.572,6.998c-1.659,0-3.162-1.505-3.162-3.538
				c0-3.008,1.503-7.524,3.986-11.737c3.689-6.169,6.548-8.804,9.631-8.804c2.183,0,3.235,1.73,3.235,3.385
				c0.015,2.708-2.328,8.956-5.103,13.696H189.866z"/>
			<path id="mc-commons-c" fill="#10496E" d="M171.066,35.531c0.298,0.148,0.448,0.301,0.147,0.751
				c-1.128,1.657-6.021,6.472-11.588,6.472c-3.009,0-6.774-2.332-6.774-7.45c0-10.536,8.204-24.607,17.532-24.607
				c3.913,0,5.191,2.86,5.191,4.214c0,2.108-1.655,3.764-3.16,3.764c-1.203,0-2.106-0.453-2.558-1.806
				c-0.453-1.054-1.128-2.257-2.333-2.257c-1.655,0-3.083,1.806-4.512,5.118c-1.879,4.514-2.936,9.181-2.936,13.243
				c0,3.761,1.129,5.417,3.084,5.417c2.409,0,5.344-2.256,6.244-3.31c0.152-0.301,0.453-0.453,0.604-0.301L171.066,35.531z"/>
		</g>
		<g id="mc-media">
			<path id="mc-media-a" fill="#555555" d="M133.702,23.765c1.188-0.153,1.985-0.651,2.385-1.492
				c0.23-0.463,0.346-1.126,0.346-1.994c0-1.771-0.626-3.056-1.879-3.857c-1.255-0.798-3.05-1.197-5.385-1.197
				c-2.703,0-4.616,0.733-5.745,2.198c-0.632,0.812-1.045,2.016-1.237,3.618h-4.835c0.094-3.811,1.324-6.461,3.694-7.953
				c2.366-1.492,5.108-2.236,8.236-2.236c3.623,0,6.565,0.691,8.824,2.072c2.244,1.382,3.364,3.531,3.364,6.445v17.762
				c0,0.536,0.11,0.968,0.33,1.293c0.223,0.323,0.689,0.486,1.4,0.486c0.229,0,0.485-0.014,0.776-0.043
				c0.289-0.028,0.595-0.071,0.921-0.13v3.828c-0.805,0.231-1.421,0.374-1.841,0.432c-0.422,0.062-0.999,0.086-1.728,0.086
				c-1.783,0-3.081-0.631-3.885-1.9c-0.421-0.67-0.721-1.619-0.893-2.848c-1.054,1.381-2.573,2.581-4.546,3.596
				c-1.977,1.018-4.156,1.528-6.535,1.528c-2.86,0-5.192-0.866-7.008-2.603c-1.812-1.733-2.72-3.903-2.72-6.512
				c0-2.852,0.894-5.069,2.676-6.64c1.786-1.57,4.128-2.54,7.024-2.903l8.271-1.035v-0.001H133.702z M122.801,37.767
				c1.092,0.86,2.389,1.291,3.883,1.291c1.825,0,3.588-0.422,5.296-1.264c2.875-1.399,4.318-3.687,4.318-6.866V26.76
				c-0.634,0.402-1.449,0.738-2.441,1.01c-0.996,0.27-1.975,0.462-2.932,0.575l-3.128,0.401c-1.875,0.25-3.291,0.642-4.232,1.177
				c-1.604,0.901-2.405,2.336-2.405,4.306c-0.013,1.494,0.542,2.67,1.63,3.535L122.801,37.767L122.801,37.767z"/>
			<path id="mc-media-i" fill="#555555" d="M107.62,0.142h5.268v5.873h-5.268V0.142z M107.62,11.746h5.268v30.682h-5.268V11.742
				V11.746z"/>
			<path id="mc-media-d" fill="#555555" d="M95.319,12.553c0.918,0.575,1.958,1.582,3.126,3.021V0h4.979v42.423h-4.664v-4.288
				c-1.203,1.901-2.629,3.271-4.273,4.117c-1.642,0.841-3.525,1.266-5.646,1.266c-3.422,0-6.385-1.449-8.888-4.332
				c-2.503-2.888-3.756-6.732-3.756-11.526c0-4.491,1.141-8.379,3.425-11.672c2.284-3.292,5.546-4.936,9.79-4.936
				c2.338,0,4.312,0.499,5.903,1.496v0.005H95.319z M83.749,35.662c1.395,2.225,3.628,3.337,6.702,3.337
				c2.388,0,4.344-1.03,5.883-3.094c1.537-2.06,2.305-5.02,2.305-8.877c0-3.896-0.79-6.779-2.375-8.649
				c-1.583-1.872-3.542-2.807-5.871-2.807c-2.597,0-4.7,0.997-6.315,2.993c-1.613,1.996-2.417,4.933-2.417,8.808
				c0.01,3.315,0.705,6.076,2.095,8.302L83.749,35.662L83.749,35.662z"/>
			<path id="mc-media-e" fill="#555555" d="M65.817,12.451c2.038,1.028,3.595,2.358,4.664,3.989c1.028,1.554,1.715,3.366,2.06,5.435
				c0.306,1.422,0.456,3.685,0.456,6.793h-22.42c0.097,3.136,0.827,5.651,2.2,7.548c1.371,1.895,3.495,2.841,6.367,2.841
				c2.686,0,4.827-0.898,6.427-2.689c0.895-1.042,1.528-2.247,1.902-3.616h5.097c-0.135,1.133-0.581,2.395-1.339,3.786
				c-0.757,1.392-1.603,2.529-2.538,3.412c-1.564,1.532-3.495,2.571-5.8,3.109c-1.237,0.306-2.635,0.46-4.199,0.46
				c-3.812,0-7.042-1.398-9.696-4.188c-2.65-2.792-3.973-6.701-3.973-11.728c0-4.951,1.333-8.97,4.006-12.061
				c2.668-3.084,6.157-4.634,10.469-4.634c2.176-0.011,4.281,0.503,6.326,1.531L65.817,12.451z M67.67,24.55
				c-0.209-2.245-0.692-4.039-1.454-5.382c-1.405-2.496-3.756-3.741-7.049-3.741c-2.362,0-4.34,0.861-5.938,2.577
				c-1.598,1.718-2.445,3.901-2.54,6.547l16.975-0.01L67.67,24.55z"/>
			<path id="mc-media-m" fill="#555555" d="M0.033,11.595h5.125v4.376c1.228-1.517,2.34-2.62,3.337-3.31
				c1.707-1.171,3.644-1.756,5.814-1.756c2.457,0,4.43,0.604,5.928,1.812c0.845,0.693,1.614,1.71,2.303,3.052
				c1.153-1.653,2.502-2.875,4.056-3.672c1.555-0.797,3.3-1.195,5.238-1.195c4.145,0,6.967,1.494,8.462,4.489
				c0.804,1.612,1.208,3.782,1.208,6.506v20.52H36.12V21.005c0-2.052-0.512-3.462-1.538-4.228c-1.028-0.771-2.279-1.153-3.757-1.153
				c-2.036,0-3.787,0.68-5.253,2.042c-1.466,1.362-2.204,3.633-2.204,6.822V42.42H18.1V22.301c0-2.092-0.25-3.617-0.747-4.577
				c-0.79-1.439-2.255-2.159-4.403-2.159c-1.958,0-3.739,0.758-5.34,2.273c-1.603,1.516-2.405,4.261-2.405,8.233v16.349H0.023
				V11.593h0.01V11.595z"/>
		</g>
	</g>
</g>
</svg>
