<?xml version="1.0" encoding="utf-8"?>
<!-- Generator: Adobe Illustrator 16.0.4, SVG Export Plug-In . SVG Version: 6.00 Build 0)  -->
<!DOCTYPE svg PUBLIC "-//W3C//DTD SVG 1.1//EN" "http://www.w3.org/Graphics/SVG/1.1/DTD/svg11.dtd">
<svg version="1.1" id="media-commons-logos" xmlns="http://www.w3.org/2000/svg" xmlns:xlink="http://www.w3.org/1999/xlink"
	 x="0px" y="0px" width="372.255px" height="490.51px" viewBox="12 9 372.255 490.51" enable-background="new 12 9 372.255 490.51"
	 xml:space="preserve">
<g id="mediacommons">
	<g id="mc-commons">
		<path id="mc-commons-mons" fill="#10496E" d="M378.439,19.62c-7.021,0-11.056,4.782-11.056,9.562
			c-0.146,3.14,1.271,5.004,2.766,7.543c1.564,2.689,3.511,4.855,3.359,7.396c0,3.137-1.645,4.78-3.732,4.78
			c-1.347,0-1.942-0.746-2.393-1.942c-0.6-1.793-1.793-2.987-3.586-2.987c-0.177,0-0.346,0.023-0.511,0.054
			c-0.123,0-0.246,0.026-0.37,0.086c-0.021,0.012-0.052,0.027-0.075,0.041c-0.283,0.104-0.541,0.25-0.771,0.438
			c-1.452,0.896-3.378,2.371-4.24,2.371c-0.601,0-0.896-0.446-0.896-1.194c0-1.045,1.048-3.884,2.986-8.812
			c3.062-7.694,4.033-11.204,4.033-13.146c0-2.093-1.495-4.185-4.259-4.185c-7.099,0-13.966,9.412-16.207,12.849l-0.451-0.299
			c1.347-3.287,3.514-8.365,3.514-10.008c0-1.046-0.673-2.541-2.839-2.541c-5.008,0-8.995,3.078-11.168,5.238
			c-1.561-3.688-5.187-5.24-8.474-5.24c-4.033,0-7.62,1.495-10.608,4.782c-4.054,4.418-6.127,10.177-6.249,16.241
			c-0.062,0.043-0.127,0.099-0.172,0.189c-0.45,0.597-4.034,5.377-5.678,5.377c-0.449,0-0.749-0.448-0.896-1.047
			c0-1.194,1.492-4.331,2.984-8.664c2.242-6.423,4.108-10.681,4.108-12.848c0-1.718-1.418-4.034-4.108-4.034
			c-6.871,0-12.698,9.412-16.729,15.688l-0.598-0.3c1.194-2.688,3.961-9.111,3.961-11.875c0-1.793-1.568-3.512-4.107-3.512
			c-6.725,0-13.297,10.009-16.436,15.239l-0.599-0.299c0.597-1.793,4.778-10.158,4.778-12.25c0-1.644-0.972-2.689-3.212-2.689
			c-5.452,0-10.829,5.977-12.325,7.77c-0.146,0.3,0,0.447,0.147,0.746l0.896,0.748c0.297,0.299,0.601,0.299,0.896,0
			c0.602-0.896,4.482-4.479,5.379-4.479c0.674,0,0.973,0.445,0.973,1.045c0,1.12-2.092,5.825-3.811,10.457h0.029L257.512,49.8
			c-0.223,0.597,0.15,0.896,0.602,0.896h4.705c0.596,0,0.973-0.148,1.121-0.6l2.465-6.424c1.195-2.688,2.39-4.778,3.438-6.272
			c4.328-6.274,10.156-12.55,11.951-12.55c0.971,0,1.643,0.6,1.566,1.494c0,1.045-1.867,5.979-3.812,11.204l-4.701,12.4
			c-0.15,0.446,0.146,0.746,0.744,0.746h4.705c0.602,0,0.975-0.148,1.121-0.599l2.316-6.425c1.045-2.54,2.391-4.48,2.838-5.229
			c4.629-7.021,10.604-13.743,12.396-13.743c1.049,0,1.569,0.597,1.569,1.493c0,1.194-0.899,3.733-3.215,9.562
			c-2.839,7.172-4.479,11.801-4.479,13.444c0,1.046,0.896,2.241,2.537,2.241c5.1,0,9.857-4.763,12.104-7.407
			c1.062,4.963,4.908,7.407,8.662,7.409c4.48,0,7.918-1.646,10.757-4.931c4.479-4.932,6.423-12.698,6.423-17.479
			c0-0.536-0.042-1.038-0.104-1.522c1.393-1.314,3.66-3.255,4.809-3.255c0.671,0,1.119,0.448,1.119,1.195
			c0,1.045-1.793,5.677-3.438,10.457l-5.079,13.815c-0.146,0.449-0.071,0.974,0.602,0.974h4.78c0.744,0,0.896-0.147,1.045-0.448
			l2.393-6.873c1.192-2.986,2.541-5.229,4.035-7.617c3.134-5.08,9.409-11.056,11.646-11.056c1.049,0,1.722,0.597,1.722,1.792
			c0,0.896-2.095,6.574-3.213,9.71c-2.393,6.573-4.479,11.653-4.479,12.997c0,1.346,0.896,2.242,2.539,2.242
			c5.842,0,8.514-3.373,9.732-2.577c0.946,1.571,3.296,2.575,6.984,2.575c6.729,0,11.356-4.185,11.356-10.009
			c0-3.437-1.346-6.051-2.836-8.064c-0.823-1.121-3.438-4.186-3.438-6.723c0-3.289,1.646-4.334,3.136-4.334
			c1.194,0,1.495,1.194,1.794,2.093c0.448,1.94,1.645,2.54,2.986,2.54c1.646,0,2.84-1.196,2.84-3.141
			c-0.01-3.14-3.3-4.187-5.84-4.187h0.021l0.011,0.004H378.439z M323.63,40.46h-0.006c-2.91,4.854-5.601,6.946-8.511,6.946
			c-1.646,0-3.14-1.494-3.14-3.512c0-2.985,1.493-7.469,3.958-11.651c3.662-6.124,6.501-8.739,9.562-8.739
			c2.167,0,3.213,1.718,3.213,3.36c0.01,2.689-2.311,8.89-5.07,13.596H323.63z"/>
		<path id="mc-commons-om" fill="#10496E" d="M258.58,41.28l-1.045-0.673c-0.15-0.073-0.449-0.073-0.602,0.226
			c-0.445,0.597-4.031,5.377-5.677,5.377c-0.448,0-0.75-0.448-0.896-1.047c0-1.194,1.49-4.331,2.984-8.664
			c2.24-6.423,4.105-10.681,4.105-12.848c0-1.719-1.418-4.034-4.105-4.034c-6.871,0-12.697,9.412-16.729,15.688l-0.601-0.3
			c1.194-2.688,3.961-9.112,3.961-11.875c0-1.793-1.567-3.512-4.108-3.512c-6.726,0-13.295,10.009-16.435,15.239l-0.597-0.3
			c0.595-1.793,4.778-10.157,4.778-12.25c0-1.643-0.969-2.688-3.211-2.688c-4.209,0-8.363,3.555-10.731,6.003
			c-1.356-4.239-5.257-6.003-8.765-6.003c-4.031,0-7.618,1.495-10.604,4.782c-4.184,4.555-6.274,10.53-6.274,16.804h0.002
			c0,6.873,4.56,10.234,8.96,10.236c4.482,0,7.916-1.646,10.756-4.931c4.482-4.932,6.425-12.698,6.425-17.479
			c0-0.114-0.013-0.218-0.016-0.33c0.896-1.115,4.396-4.3,5.241-4.3c0.674,0,0.974,0.446,0.974,1.045
			c0,1.12-2.091,5.826-3.812,10.457h0.026l-5.18,13.892c-0.228,0.598,0.147,0.896,0.601,0.896h4.704
			c0.601,0,0.974-0.148,1.119-0.598l2.465-6.425c1.196-2.688,2.394-4.777,3.438-6.273c4.332-6.273,10.156-12.547,11.947-12.547
			c0.975,0,1.645,0.599,1.568,1.493c0,1.045-1.867,5.978-3.811,11.203l-4.707,12.4c-0.148,0.444,0.146,0.746,0.748,0.746h4.705
			c0.599,0,0.972-0.148,1.119-0.599l2.314-6.424c1.047-2.539,2.391-4.479,2.838-5.229c4.631-7.021,10.609-13.743,12.398-13.743
			c1.047,0,1.566,0.597,1.566,1.493c0,1.194-0.896,3.733-3.213,9.562c-2.837,7.171-4.479,11.802-4.479,13.444
			c0,1.046,0.896,2.242,2.541,2.242c6.868,0,13.143-8.666,13.439-9.113c0.131-0.601,0.131-0.75-0.17-1.048h0.01l0.02,0.005H258.58z
			 M200.47,40.46h-0.007c-2.908,4.854-5.602,6.946-8.51,6.946c-1.645,0-3.137-1.494-3.137-3.512c0-2.985,1.492-7.469,3.957-11.651
			c3.662-6.124,6.5-8.739,9.562-8.739c2.165,0,3.21,1.718,3.21,3.36c0.012,2.689-2.311,8.89-5.069,13.596H200.47z"/>
		<path id="mc-commons-c" fill="#10496E" d="M181.81,44.27c0.297,0.147,0.445,0.299,0.146,0.746
			c-1.119,1.645-5.977,6.425-11.503,6.425c-2.987,0-6.724-2.315-6.724-7.396c0-10.458,8.143-24.426,17.403-24.426
			c3.884,0,5.153,2.839,5.153,4.184c0,2.092-1.643,3.735-3.137,3.735c-1.195,0-2.092-0.449-2.539-1.792
			c-0.45-1.046-1.12-2.241-2.316-2.241c-1.643,0-3.062,1.792-4.48,5.08c-1.866,4.481-2.914,9.113-2.914,13.146
			c0,3.733,1.121,5.377,3.062,5.377c2.391,0,5.305-2.239,6.198-3.285c0.151-0.299,0.45-0.449,0.601-0.299L181.81,44.27z"/>
	</g>
	<g id="mc-media">
		<path id="mc-media-a" fill="#555555" d="M144.72,32.59c1.18-0.152,1.971-0.646,2.368-1.481c0.229-0.459,0.343-1.117,0.343-1.979
			c0-1.758-0.621-3.034-1.865-3.829c-1.246-0.791-3.028-1.188-5.346-1.188c-2.683,0-4.582,0.728-5.703,2.182
			c-0.627,0.806-1.037,2.001-1.228,3.591h-4.8c0.094-3.783,1.315-6.414,3.667-7.894c2.349-1.481,5.071-2.22,8.176-2.22
			c3.597,0,6.517,0.686,8.76,2.056c2.228,1.372,3.339,3.505,3.339,6.398v17.632c0,0.532,0.109,0.961,0.328,1.284
			c0.221,0.321,0.684,0.483,1.389,0.483c0.228,0,0.482-0.014,0.771-0.043c0.287-0.028,0.591-0.071,0.914-0.129v3.8
			c-0.8,0.229-1.41,0.371-1.828,0.428c-0.419,0.062-0.991,0.086-1.714,0.086c-1.771,0-3.059-0.627-3.857-1.886
			c-0.418-0.665-0.715-1.607-0.886-2.827c-1.047,1.371-2.554,2.562-4.514,3.569c-1.962,1.011-4.125,1.517-6.486,1.517
			c-2.839,0-5.155-0.86-6.957-2.584c-1.799-1.721-2.7-3.875-2.7-6.463c0-2.832,0.887-5.033,2.657-6.592
			c1.772-1.559,4.097-2.521,6.972-2.882l8.211-1.028V32.59H144.72z M133.9,46.49c1.084,0.854,2.371,1.281,3.854,1.281
			c1.812,0,3.562-0.419,5.258-1.255c2.854-1.389,4.286-3.659,4.286-6.816v-4.136c-0.63,0.399-1.438,0.733-2.424,1.002
			c-0.988,0.268-1.96,0.459-2.91,0.571l-3.105,0.398c-1.861,0.248-3.266,0.638-4.201,1.169c-1.592,0.894-2.387,2.319-2.387,4.274
			c-0.012,1.483,0.538,2.651,1.618,3.51L133.9,46.49L133.9,46.49z"/>
		<path id="mc-media-i" fill="#555555" d="M118.83,9.14h5.229v5.83h-5.229V9.14z M118.83,20.66h5.229v30.456h-5.229v-30.46V20.66z"
			/>
		<path id="mc-media-d" fill="#555555" d="M106.62,21.46c0.911,0.571,1.944,1.571,3.103,3V9h4.942v42.111h-4.629v-4.256
			c-1.194,1.886-2.61,3.247-4.242,4.086c-1.63,0.836-3.499,1.256-5.604,1.256c-3.396,0-6.338-1.436-8.822-4.299
			c-2.485-2.867-3.729-6.683-3.729-11.442c0-4.457,1.133-8.317,3.4-11.586c2.268-3.268,5.506-4.899,9.719-4.899
			c2.32,0,4.28,0.495,5.86,1.485v0.004H106.62z M95.134,44.4c1.384,2.209,3.601,3.313,6.652,3.313c2.37,0,4.313-1.022,5.84-3.072
			c1.526-2.045,2.288-4.983,2.288-8.812c0-3.867-0.784-6.729-2.357-8.585c-1.572-1.858-3.516-2.786-5.828-2.786
			c-2.578,0-4.666,0.99-6.269,2.971c-1.601,1.981-2.399,4.896-2.399,8.743c0.01,3.29,0.7,6.03,2.08,8.24L95.134,44.4L95.134,44.4z"
			/>
		<path id="mc-media-e" fill="#555555" d="M77.334,21.36c2.023,1.02,3.568,2.34,4.629,3.959c1.021,1.543,1.703,3.342,2.045,5.396
			c0.303,1.411,0.453,3.657,0.453,6.743H62.205c0.096,3.112,0.82,5.61,2.184,7.492c1.36,1.881,3.469,2.821,6.32,2.821
			c2.666,0,4.792-0.891,6.38-2.67c0.888-1.033,1.517-2.229,1.888-3.589h5.059c-0.133,1.125-0.576,2.377-1.329,3.759
			c-0.752,1.381-1.591,2.51-2.519,3.386c-1.552,1.521-3.469,2.552-5.757,3.086c-1.229,0.304-2.616,0.456-4.168,0.456
			c-3.784,0-6.991-1.387-9.625-4.157c-2.631-2.771-3.944-6.651-3.944-11.642c0-4.914,1.323-8.904,3.976-11.972
			c2.649-3.064,6.112-4.601,10.392-4.601c2.16-0.01,4.25,0.5,6.28,1.52L77.334,21.36z M79.174,33.37
			c-0.208-2.229-0.688-4.009-1.443-5.343c-1.396-2.477-3.729-3.713-6.998-3.713c-2.345,0-4.308,0.854-5.895,2.558
			c-1.586,1.705-2.427,3.872-2.521,6.499l16.851-0.01L79.174,33.37z"/>
		<path id="mc-media-m" fill="#555555" d="M12.033,20.51h5.087v4.344c1.219-1.506,2.323-2.601,3.313-3.285
			c1.694-1.163,3.617-1.744,5.771-1.744c2.438,0,4.398,0.601,5.885,1.8c0.838,0.688,1.602,1.697,2.285,3.029
			c1.145-1.641,2.484-2.854,4.027-3.645s3.276-1.187,5.199-1.187c4.115,0,6.916,1.483,8.4,4.457c0.799,1.6,1.199,3.753,1.199,6.458
			v20.369h-5.344V29.851c0-2.036-0.508-3.437-1.527-4.197c-1.02-0.765-2.262-1.144-3.729-1.144c-2.021,0-3.759,0.674-5.215,2.027
			c-1.456,1.352-2.188,3.606-2.188,6.771v17.8h-5.229V31.137c0-2.076-0.248-3.59-0.742-4.543c-0.783-1.429-2.238-2.143-4.371-2.143
			c-1.943,0-3.711,0.753-5.301,2.257c-1.591,1.504-2.386,4.229-2.386,8.173v16.228h-5.144V20.508h0.01V20.51z"/>
	</g>
</g>
<g id="in-media-res">
	<g id="imr-res">
		<path id="imr-res-s" fill="#333333" d="M348.57,144.53c1.479,6.944,5.069,9.52,12.097,9.52c6.789,0,9.987-3.588,9.987-7.49
			c0-11.704-25.908-3.434-25.908-19.352c0-6.709,5.229-11.548,14.203-11.548c8.736,0,14.433,3.59,15.604,12.717h-4.762
			c-0.855-6.241-5.069-8.504-10.925-8.504c-5.934,0-9.129,2.81-9.129,6.944c0,11.002,25.902,4.135,25.902,19.664
			c0,7.725-6.94,11.78-16.464,11.78c-9.519,0-14.979-6.086-15.372-13.73h4.771H348.57z"/>
		<path id="imr-res-e" fill="#333333" d="M308.07,138.05c-0.079,8.739,4.604,15.996,13.576,15.996
			c6.084,0,10.844-3.354,12.248-9.287h5.229c-2.336,7.648-7.176,13.5-17.477,13.5c-12.952,0-18.573-9.208-18.573-21.146
			c0-11.784,7.022-21.458,18.573-21.458c11.077,0,17.865,7.881,17.791,22.394h-31.369v0.011L308.07,138.05z M334.439,134.15
			c0-7.879-4.367-14.278-12.797-14.278c-8.271,0-12.642,6.633-13.575,14.278h26.379H334.439z"/>
		<path id="imr-res-r" fill="#333333" d="M288.41,157.17h-4.684v-40.418h4.684v7.567h0.154c2.576-6.477,6.396-8.659,13.188-8.659
			v5.071c-10.535-0.232-13.344,7.567-13.344,16.618L288.41,157.17L288.41,157.17z"/>
	</g>
	<g id="imr-media">
		<path id="imr-media-a" fill="#EA6A20" d="M253.97,132.47c1.572-0.201,2.628-0.862,3.16-1.979c0.308-0.611,0.455-1.49,0.455-2.64
			c0-2.345-0.83-4.047-2.483-5.104c-1.662-1.059-4.039-1.589-7.134-1.589c-3.569,0-6.108,0.972-7.604,2.912
			c-0.837,1.072-1.384,2.668-1.636,4.786h-6.399c0.127-5.043,1.758-8.552,4.891-10.525c3.134-1.973,6.768-2.96,10.9-2.96
			c4.793,0,8.688,0.914,11.684,2.742c2.97,1.829,4.449,4.674,4.449,8.536v23.505c0,0.712,0.146,1.282,0.438,1.714
			c0.295,0.432,0.906,0.646,1.852,0.646c0.305,0,0.646-0.019,1.027-0.057c0.38-0.039,0.789-0.095,1.223-0.172v5.065
			c-1.07,0.306-1.883,0.496-2.441,0.571c-0.56,0.077-1.316,0.115-2.281,0.115c-2.363,0-4.078-0.838-5.146-2.515
			c-0.56-0.89-0.947-2.146-1.179-3.771c-1.396,1.829-3.405,3.415-6.021,4.761c-2.613,1.347-5.498,2.021-8.646,2.021
			c-3.785,0-6.875-1.147-9.275-3.443c-2.4-2.295-3.6-5.167-3.6-8.618c0-3.777,1.178-6.709,3.543-8.789
			c2.359-2.08,5.459-3.359,9.293-3.843l10.95-1.36h-0.021l0.011-0.01L253.97,132.47z M239.53,151
			c1.444,1.14,3.161,1.708,5.144,1.708c2.414,0,4.75-0.557,7.01-1.672c3.812-1.853,5.717-4.883,5.717-9.092v-5.518
			c-0.836,0.537-1.913,0.981-3.229,1.338c-1.315,0.357-2.608,0.611-3.879,0.767l-4.146,0.532c-2.481,0.329-4.352,0.85-5.604,1.56
			c-2.119,1.19-3.183,3.09-3.183,5.7c0,1.979,0.722,3.539,2.171,4.68v-0.01V151z"/>
		<path id="imr-media-i" fill="#EA6A20" d="M217.03,101h6.971v7.976h-6.971v-7.98V101z M217.03,116.56h6.971v40.609h-6.971V116.56
			L217.03,116.56z"/>
		<path id="imr-media-d" fill="#EA6A20" d="M199.18,117.62c1.213,0.763,2.596,2.095,4.137,4v-20.609h6.593v56.152h-6.173v-5.67
			c-1.596,2.514-3.479,4.331-5.653,5.446c-2.18,1.117-4.668,1.677-7.479,1.677c-4.528,0-8.451-1.911-11.765-5.73
			c-3.313-3.824-4.973-8.91-4.973-15.259c0-5.942,1.512-11.093,4.534-15.448c3.021-4.354,7.345-6.535,12.959-6.535
			c3.101-0.01,5.711,0.65,7.811,1.972l0.01,0.01V117.62z M183.87,148.21c1.845,2.946,4.803,4.42,8.868,4.42
			c3.16,0,5.756-1.365,7.789-4.096c2.033-2.731,3.053-6.646,3.053-11.753c0-5.156-1.05-8.973-3.146-11.448
			c-2.098-2.477-4.688-3.714-7.771-3.714c-3.437,0-6.224,1.319-8.358,3.961c-2.134,2.642-3.203,6.528-3.203,11.658
			c0,4.37,0.931,8.029,2.771,10.97L183.87,148.21z"/>
		<path id="imr-media-e" fill="#EA6A20" d="M158.57,117.49c2.699,1.356,4.757,3.116,6.172,5.274
			c1.363,2.059,2.271,4.457,2.726,7.199c0.403,1.879,0.606,4.876,0.606,8.991h-29.68c0.127,4.151,1.098,7.48,2.912,9.99
			c1.812,2.508,4.623,3.762,8.428,3.762c3.553,0,6.389-1.185,8.506-3.558c1.185-1.377,2.022-2.972,2.518-4.785h6.73
			c-0.178,1.499-0.771,3.167-1.771,5.009c-1.004,1.842-2.123,3.347-3.357,4.515c-2.065,2.032-4.625,3.404-7.676,4.114
			c-1.639,0.406-3.49,0.608-5.559,0.608c-5.048,0-9.326-1.848-12.834-5.541c-3.508-3.696-5.262-8.87-5.262-15.523
			c0-6.553,1.768-11.874,5.301-15.962c3.532-4.089,8.15-6.134,13.855-6.134c2.871-0.01,5.66,0.67,8.36,2.028l0.011,0.011
			L158.57,117.49z M161.03,133.51c-0.276-2.973-0.92-5.347-1.928-7.125c-1.865-3.302-4.974-4.953-9.33-4.953
			c-3.123,0-5.742,1.139-7.855,3.409c-2.117,2.273-3.236,5.163-3.363,8.669h22.479h-0.01H161.03z"/>
		<path id="imr-media-m" fill="#EA6A20" d="M69.934,116.37h6.781v5.791c1.624-2.006,3.098-3.467,4.419-4.381
			c2.261-1.55,4.825-2.324,7.695-2.324c3.25,0,5.866,0.801,7.848,2.399c1.118,0.914,2.134,2.263,3.048,4.039
			c1.523-2.186,3.314-3.805,5.373-4.856c2.057-1.055,4.367-1.582,6.934-1.582c5.484,0,9.221,1.979,11.199,5.943
			c1.066,2.133,1.601,5.004,1.601,8.608v27.162h-7.123v-28.34c0-2.717-0.681-4.584-2.038-5.603
			c-1.357-1.016-3.018-1.521-4.973-1.521c-2.69,0-5.01,0.901-6.951,2.705c-1.943,1.803-2.914,4.812-2.914,9.028v23.732h-6.979
			v-26.628c0-2.768-0.332-4.787-0.992-6.058c-1.041-1.905-2.982-2.856-5.828-2.856c-2.59,0-4.945,1.002-7.066,3.008
			c-2.121,2.008-3.182,5.643-3.182,10.896v21.639H69.93v-40.799h-0.001l0.01-0.01h-0.012L69.934,116.37z"/>
	</g>
	<g id="imr-in">
		<path id="imr-in-n" fill="#333333" d="M27.693,157.17h-4.685v-40.418h4.685v5.619c3.744-3.979,7.41-6.709,13.031-6.709
			c4.913,0,9.439,1.56,12.326,5.773c1.95,2.887,2.028,5.93,2.028,9.285v26.451h-4.681v-26.374c0-7.256-2.967-10.924-10.457-10.924
			c-5.772,0-9.752,3.746-11.235,7.881c-0.937,2.574-1.015,4.839-1.015,7.646v21.771L27.693,157.17l-0.001-0.009L27.693,157.17z"/>
		<path id="imr-in-i" fill="#333333" d="M12.794,111.18v-5.931h5.147v5.931h-5.149H12.794z M13.023,157.17v-40.418h4.683v40.418
			H13.023z"/>
	</g>
</g>
<g id="the-new-everyday">
	<g id="tne-everyday">
		<path id="path3617" fill="#1AB7B7" d="M203.33,242.49c-1.9,1.443-4.299,2.166-7.188,2.166c-2.029,0-3.791-0.328-5.281-0.982
			c-1.494-0.654-2.748-1.574-3.768-2.756c-1.017-1.18-1.773-2.588-2.285-4.229c-0.509-1.645-0.795-3.428-0.857-5.359
			c0-1.936,0.293-3.705,0.884-5.311c0.589-1.605,1.415-3.004,2.483-4.186c1.062-1.18,2.324-2.1,3.783-2.752
			c1.461-0.658,3.059-0.986,4.799-0.986c2.26,0,4.137,0.473,5.629,1.402c1.494,0.936,2.688,2.123,3.592,3.564
			c0.902,1.439,1.521,3.018,1.869,4.725c0.346,1.705,0.479,3.328,0.418,4.869h-19.01c-0.033,1.113,0.097,2.172,0.392,3.174
			c0.297,0.998,0.771,1.883,1.428,2.652c0.658,0.771,1.492,1.387,2.513,1.844c1.014,0.463,2.211,0.688,3.587,0.688
			c1.771,0,3.223-0.406,4.354-1.229c1.132-0.818,1.875-2.062,2.234-3.738h4.137c-0.539,2.859-1.771,5.01-3.67,6.451l-0.02,0.01
			L203.33,242.49z M202.32,226.17c-0.379-0.883-0.887-1.646-1.523-2.285c-0.641-0.641-1.395-1.146-2.262-1.523
			c-0.873-0.381-1.832-0.566-2.877-0.566c-1.084,0-2.061,0.189-2.93,0.566c-0.867,0.377-1.615,0.895-2.238,1.551
			c-0.619,0.656-1.113,1.42-1.473,2.287c-0.363,0.867-0.574,1.795-0.641,2.775h14.608c-0.07-0.971-0.289-1.908-0.672-2.789v-0.02
			L202.32,226.17z"/>
		<path id="path3619" fill="#1AB7B7" d="M217.98,244.12l-9.441-25.431h4.671l7.134,21.194h0.1l6.938-21.194h4.377l-9.295,25.431
			h-4.479v0.01v-0.01H217.98z"/>
		<path id="path3621" fill="#1AB7B7" d="M252.12,242.49c-1.903,1.443-4.297,2.166-7.185,2.166c-2.033,0-3.791-0.328-5.285-0.982
			c-1.491-0.654-2.743-1.574-3.758-2.756c-1.021-1.18-1.781-2.588-2.287-4.229c-0.515-1.645-0.799-3.428-0.862-5.359
			c0-1.936,0.291-3.705,0.888-5.311c0.592-1.605,1.418-3.004,2.479-4.186c1.07-1.18,2.334-2.1,3.793-2.752
			c1.457-0.658,3.056-0.986,4.796-0.986c2.264,0,4.139,0.473,5.631,1.402c1.492,0.936,2.688,2.123,3.592,3.564
			c0.897,1.439,1.521,3.018,1.863,4.725c0.348,1.705,0.487,3.328,0.42,4.869h-19.031c-0.035,1.113,0.101,2.172,0.394,3.174
			c0.298,0.998,0.771,1.883,1.429,2.652c0.657,0.771,1.491,1.387,2.506,1.844c1.021,0.463,2.214,0.688,3.593,0.688
			c1.771,0,3.225-0.406,4.354-1.229c1.129-0.818,1.875-2.062,2.232-3.738h4.132c-0.562,2.859-1.791,5.01-3.688,6.451h0.01v0.01
			L252.12,242.49z M251.109,226.17c-0.377-0.883-0.887-1.646-1.521-2.285c-0.644-0.641-1.396-1.146-2.269-1.523
			c-0.867-0.381-1.826-0.566-2.875-0.566c-1.084,0-2.059,0.189-2.932,0.566c-0.865,0.377-1.609,0.895-2.23,1.551
			c-0.629,0.656-1.118,1.42-1.479,2.287c-0.354,0.867-0.567,1.795-0.637,2.775h14.606c-0.08-0.971-0.291-1.908-0.674-2.789
			l0.012-0.02L251.109,226.17z"/>
		<path id="path3623" fill="#1AB7B7" d="M264.8,218.689v5.358h0.103c1.016-2.062,2.262-3.59,3.738-4.573
			c1.477-0.981,3.346-1.44,5.604-1.375v4.426c-1.67,0-3.096,0.229-4.275,0.688c-1.182,0.457-2.132,1.131-2.855,2.017
			c-0.715,0.886-1.24,1.961-1.568,3.222c-0.331,1.264-0.492,2.715-0.492,4.354v11.312h-4.18v-25.431h3.938v-0.011v0.011
			L264.8,218.689z"/>
		<path id="path3625" fill="#1AB7B7" d="M287.891,250.61c-0.472,0.852-0.996,1.549-1.568,2.092
			c-0.572,0.539-1.207,0.932-1.895,1.178c-0.689,0.246-1.512,0.369-2.461,0.369c-0.49,0-0.982-0.033-1.475-0.096
			c-0.494-0.068-0.971-0.186-1.428-0.352v-3.834c0.394,0.129,0.795,0.263,1.203,0.395c0.412,0.133,0.824,0.193,1.258,0.193
			c0.854,0,1.535-0.193,2.062-0.588c0.527-0.395,0.984-0.969,1.376-1.723l1.729-4.279l-10.082-25.276h4.72l7.431,20.806h0.098
			l7.132-20.806h4.431l-11.066,28.771c-0.511,1.238-1,2.289-1.479,3.141l0.01,0.021L287.891,250.61z"/>
		<path id="path3627" fill="#1AB7B7" d="M321.26,244.12v-3.443h-0.1c-0.689,1.41-1.772,2.429-3.246,3.054
			c-1.477,0.619-3.102,0.933-4.868,0.933c-1.972,0-3.683-0.359-5.144-1.082c-1.457-0.719-2.668-1.687-3.641-2.9
			c-0.966-1.213-1.691-2.62-2.188-4.229c-0.491-1.609-0.735-3.312-0.735-5.115c0-1.805,0.237-3.508,0.713-5.115
			c0.474-1.604,1.196-3.008,2.163-4.209c0.969-1.189,2.182-2.145,3.641-2.852c1.459-0.705,3.154-1.058,5.09-1.058
			c0.656,0,1.359,0.065,2.115,0.194c0.754,0.133,1.51,0.354,2.265,0.666c0.756,0.312,1.468,0.722,2.141,1.23
			c0.672,0.508,1.236,1.139,1.696,1.893h0.097v-13.09h4.184v35.117h-4.182v0.01L321.26,244.12z M306.24,235.09
			c0.311,1.131,0.787,2.139,1.425,3.023c0.641,0.887,1.458,1.592,2.46,2.113c1.001,0.525,2.174,0.787,3.521,0.787
			c1.404,0,2.604-0.275,3.584-0.836c0.985-0.559,1.784-1.285,2.414-2.188c0.619-0.902,1.067-1.928,1.353-3.072
			c0.274-1.146,0.417-2.312,0.417-3.492c0-1.246-0.147-2.451-0.441-3.615c-0.295-1.162-0.761-2.188-1.4-3.07
			c-0.642-0.887-1.467-1.602-2.483-2.141c-1.018-0.543-2.245-0.812-3.688-0.812c-1.406,0-2.605,0.277-3.587,0.836
			c-0.984,0.561-1.771,1.299-2.36,2.217c-0.592,0.918-1.021,1.967-1.28,3.146c-0.262,1.181-0.392,2.394-0.392,3.642
			c0,1.17,0.159,2.33,0.472,3.459h-0.01h0.01L306.24,235.09z"/>
		<path id="path3629" fill="#1AB7B7" d="M350.43,244.66c-1.081,0-1.938-0.303-2.582-0.91c-0.641-0.604-0.961-1.598-0.961-2.975
			c-1.146,1.377-2.479,2.369-4.01,2.975c-1.521,0.607-3.169,0.91-4.939,0.91c-1.146,0-2.229-0.121-3.24-0.367
			c-1.021-0.248-1.916-0.656-2.686-1.229c-0.768-0.573-1.377-1.312-1.818-2.217c-0.438-0.898-0.663-1.988-0.663-3.271
			c0-1.441,0.246-2.621,0.735-3.541c0.491-0.916,1.138-1.662,1.943-2.236c0.803-0.571,1.721-1.01,2.752-1.303
			c1.031-0.297,2.091-0.541,3.173-0.738c1.147-0.229,2.238-0.399,3.271-0.518c1.028-0.113,1.94-0.277,2.729-0.49
			c0.786-0.215,1.408-0.521,1.871-0.938c0.46-0.407,0.688-1.007,0.688-1.793c0-0.918-0.172-1.655-0.518-2.214
			c-0.347-0.559-0.788-0.982-1.329-1.277c-0.542-0.296-1.146-0.492-1.813-0.593c-0.674-0.101-1.338-0.146-1.994-0.146
			c-1.771,0-3.245,0.338-4.43,1.008c-1.177,0.676-1.815,1.943-1.913,3.812h-4.185c0.064-1.572,0.394-2.902,0.984-3.984
			c0.589-1.08,1.373-1.957,2.355-2.633c0.985-0.67,2.113-1.154,3.396-1.447c1.28-0.297,2.622-0.443,4.033-0.443
			c1.146,0,2.287,0.082,3.415,0.244c1.133,0.166,2.155,0.502,3.075,1.008c0.916,0.512,1.653,1.227,2.212,2.143
			c0.561,0.92,0.841,2.117,0.841,3.592v13.084c0,0.98,0.054,1.703,0.169,2.162c0.115,0.461,0.499,0.688,1.158,0.688
			c0.354,0,0.784-0.08,1.275-0.244v3.244c-0.729,0.432-1.729,0.648-3.011,0.648v-0.021l-0.02,0.011L350.43,244.66z M344.57,231.84
			c-0.853,0.186-1.738,0.33-2.679,0.443c-0.936,0.115-1.879,0.246-2.827,0.395c-0.952,0.146-1.806,0.391-2.56,0.715
			c-0.754,0.326-1.37,0.795-1.844,1.4c-0.479,0.605-0.715,1.436-0.715,2.484c0,0.686,0.138,1.27,0.419,1.744
			c0.274,0.477,0.64,0.855,1.084,1.154c0.438,0.295,0.965,0.51,1.566,0.643c0.605,0.131,1.225,0.193,1.85,0.193
			c1.378,0,2.559-0.188,3.542-0.564c0.98-0.375,1.784-0.854,2.41-1.426c0.62-0.574,1.082-1.197,1.377-1.869
			c0.294-0.67,0.438-1.305,0.438-1.895v-4.277c-0.511,0.408-1.2,0.697-2.061,0.869v-0.01v0.01L344.57,231.84z"/>
		<path id="path3631" fill="#1AB7B7" d="M364.62,250.61c-0.479,0.852-1.001,1.549-1.572,2.092c-0.578,0.539-1.208,0.932-1.896,1.178
			c-0.687,0.246-1.506,0.369-2.461,0.369c-0.487,0-0.979-0.033-1.474-0.096c-0.494-0.068-0.966-0.186-1.427-0.352v-3.834
			c0.396,0.129,0.792,0.263,1.202,0.395c0.409,0.133,0.831,0.193,1.256,0.193c0.853,0,1.543-0.193,2.067-0.588
			c0.521-0.395,0.979-0.969,1.375-1.723l1.722-4.279l-10.085-25.276h4.726l7.425,20.806h0.104l7.129-20.806h4.426l-11.064,28.771
			c-0.5,1.238-0.989,2.289-1.46,3.141v0.021L364.62,250.61z"/>
	</g>
	<g id="tne-new">
		<path id="path3611" fill="#555555" d="M93.164,218.689v4.035h0.095c1.737-3.082,4.493-4.625,8.263-4.625
			c1.674,0,3.067,0.229,4.183,0.688c1.114,0.461,2.018,1.1,2.704,1.916c0.688,0.82,1.173,1.799,1.451,2.93
			c0.277,1.133,0.416,2.389,0.416,3.764v16.725h-4.179v-17.21c0-1.576-0.458-2.82-1.378-3.74c-0.919-0.918-2.18-1.377-3.788-1.377
			c-1.274,0-2.382,0.199-3.315,0.592c-0.938,0.395-1.715,0.951-2.338,1.67c-0.623,0.727-1.088,1.566-1.403,2.533
			c-0.312,0.97-0.466,2.025-0.466,3.174v14.361h-4.184v-25.43h3.942l-0.001,0.01h0.009L93.164,218.689z"/>
		<path id="path3613" fill="#555555" d="M134.08,242.49c-1.9,1.443-4.297,2.166-7.182,2.166c-2.033,0-3.793-0.328-5.287-0.982
			c-1.492-0.654-2.742-1.574-3.764-2.756c-1.019-1.18-1.777-2.588-2.283-4.229c-0.51-1.645-0.795-3.428-0.861-5.359
			c0-1.936,0.295-3.705,0.887-5.311c0.59-1.605,1.416-3.004,2.48-4.186c1.065-1.18,2.328-2.1,3.789-2.752
			c1.459-0.658,3.055-0.986,4.797-0.986c2.261,0,4.136,0.473,5.629,1.402c1.492,0.936,2.688,2.123,3.592,3.564
			c0.9,1.439,1.525,3.018,1.867,4.725c0.343,1.705,0.482,3.328,0.42,4.869h-19.031c-0.037,1.113,0.094,2.172,0.391,3.174
			c0.295,0.998,0.77,1.883,1.429,2.652c0.651,0.771,1.489,1.387,2.506,1.844c1.019,0.463,2.214,0.688,3.591,0.688
			c1.774,0,3.223-0.406,4.354-1.229c1.132-0.818,1.875-2.062,2.233-3.738h4.135c-0.569,2.859-1.801,5.01-3.7,6.451h-0.011l0.01,0.01
			L134.08,242.49z M133.07,226.17c-0.377-0.883-0.883-1.646-1.524-2.285c-0.64-0.641-1.396-1.146-2.265-1.523
			c-0.867-0.381-1.828-0.566-2.877-0.566c-1.082,0-2.057,0.189-2.93,0.566c-0.861,0.377-1.611,0.895-2.23,1.551
			c-0.625,0.656-1.115,1.42-1.479,2.287c-0.359,0.867-0.57,1.795-0.637,2.775h14.604c-0.069-0.971-0.289-1.908-0.67-2.789
			l0.021-0.02L133.07,226.17z"/>
		<path id="path3615" fill="#555555" d="M162.51,244.12l-5.162-20.213h-0.1l-5.113,20.213h-4.527l-8.166-25.431h4.625l5.759,20.806
			h0.096l5.117-20.806h4.569l5.312,20.806h0.1l5.707-20.806h4.328l-8.117,25.431h-4.431H162.51z"/>
	</g>
	<g id="tne-the">
		<path id="path3605" fill="#23A59F" d="M25.594,218.74v2.605h-5.163v17.115c0,1.02,0.142,1.812,0.415,2.385
			c0.28,0.576,0.978,0.896,2.094,0.959c0.885,0,1.77-0.051,2.654-0.146v2.604c-0.457,0-0.918,0.018-1.377,0.05
			c-0.457,0.03-0.918,0.054-1.38,0.054c-2.062,0-3.506-0.404-4.325-1.205c-0.818-0.808-1.214-2.287-1.183-4.455v-17.33h-4.427
			v-2.606h4.427v-7.623h3.102v7.623h5.163v0.011v-0.011V218.74z"/>
		<path id="path3607" fill="#23A59F" d="M33.113,209v14.119h0.101c0.59-1.543,1.64-2.781,3.146-3.715
			c1.512-0.938,3.166-1.402,4.971-1.402c1.771,0,3.252,0.229,4.451,0.688c1.195,0.462,2.156,1.106,2.875,1.942
			c0.724,0.834,1.229,1.861,1.524,3.072c0.296,1.215,0.441,2.578,0.441,4.084v16.328h-3.097v-15.838c0-1.08-0.104-2.089-0.297-3.021
			c-0.195-0.936-0.543-1.75-1.035-2.438c-0.489-0.688-1.151-1.23-1.989-1.625c-0.834-0.396-1.877-0.589-3.125-0.589
			c-1.243,0-2.353,0.222-3.317,0.664c-0.968,0.44-1.787,1.05-2.461,1.817c-0.672,0.771-1.195,1.689-1.572,2.754
			c-0.375,1.066-0.58,2.224-0.613,3.468v14.808h-3.1v-35.101h3.1h-0.003V209z"/>
		<path id="path3609" fill="#23A59F" d="M58.023,235.73c0.312,1.195,0.812,2.271,1.5,3.221c0.688,0.955,1.558,1.74,2.605,2.363
			c1.047,0.621,2.312,0.934,3.789,0.934c2.261,0,4.031-0.59,5.309-1.771c1.279-1.184,2.164-2.754,2.657-4.723h3.101
			c-0.662,2.887-1.862,5.115-3.619,6.689c-1.754,1.57-4.232,2.355-7.445,2.355c-2.003,0-3.732-0.354-5.189-1.059
			s-2.646-1.67-3.564-2.9c-0.922-1.229-1.602-2.652-2.041-4.277c-0.441-1.619-0.668-3.336-0.668-5.141
			c0-1.67,0.227-3.311,0.668-4.918c0.439-1.604,1.119-3.039,2.041-4.305c0.918-1.26,2.107-2.277,3.564-3.049
			s3.188-1.156,5.189-1.156c2.029,0,3.768,0.412,5.212,1.23c1.438,0.818,2.613,1.895,3.517,3.223s1.551,2.854,1.94,4.572
			c0.396,1.723,0.556,3.471,0.49,5.234H57.557c0,1.141,0.159,2.3,0.469,3.49h-0.003V235.73z M73.363,226.26
			c-0.375-1.08-0.907-2.039-1.594-2.873c-0.692-0.838-1.524-1.51-2.511-2.02c-0.983-0.508-2.101-0.762-3.343-0.762
			c-1.281,0-2.411,0.254-3.395,0.762c-0.986,0.51-1.82,1.182-2.512,2.02c-0.688,0.834-1.234,1.805-1.646,2.902
			c-0.409,1.096-0.682,2.219-0.812,3.365h16.427c-0.033-1.182-0.236-2.32-0.615-3.4L73.363,226.26z"/>
	</g>
</g>
<g>
	<g id="altac-alt-ac">
		<g id="altac-alt-ac-alt">
			<path id="altac-alt-ac-alt-hyphen" fill="#BE1E2D" d="M129.85,330.939v5.239h-18.928v-5.239h18.932H129.85z"/>
			<g id="altac-alt-ac-alt-alt">
				<path id="path3540" fill="#BE1E2D" d="M75.363,352.48c-1.439,0-2.586-0.403-3.438-1.213c-0.852-0.81-1.275-2.13-1.275-3.963
					c-1.529,1.833-3.309,3.153-5.34,3.963c-2.029,0.81-4.223,1.213-6.582,1.213c-1.527,0-2.969-0.164-4.322-0.49
					c-1.354-0.328-2.543-0.873-3.567-1.641c-1.026-0.765-1.834-1.744-2.424-2.944c-0.589-1.2-0.884-2.652-0.884-4.354
					c0-1.922,0.326-3.492,0.979-4.716c0.655-1.223,1.519-2.216,2.588-2.979c1.068-0.765,2.291-1.344,3.666-1.733
					c1.375-0.394,2.785-0.722,4.225-0.981c1.527-0.305,2.979-0.533,4.354-0.688c1.375-0.151,2.586-0.371,3.635-0.654
					c1.049-0.283,1.877-0.697,2.488-1.244c0.611-0.546,0.918-1.343,0.918-2.392c0-1.224-0.229-2.203-0.688-2.946
					c-0.459-0.742-1.049-1.311-1.771-1.703c-0.721-0.394-1.529-0.651-2.424-0.785c-0.895-0.131-1.779-0.194-2.652-0.194
					c-2.356,0-4.32,0.446-5.895,1.344c-1.572,0.896-2.423,2.587-2.555,5.075h-5.566c0.088-2.098,0.523-3.863,1.311-5.307
					c0.785-1.439,1.834-2.607,3.145-3.504c1.312-0.896,2.816-1.539,4.52-1.934c1.703-0.395,3.493-0.59,5.371-0.59
					c1.527,0,3.045,0.107,4.553,0.327c1.506,0.22,2.871,0.666,4.093,1.344c1.222,0.677,2.204,1.627,2.946,2.849
					c0.742,1.226,1.112,2.815,1.112,4.781v17.42c0,1.312,0.076,2.271,0.229,2.883c0.152,0.612,0.666,0.917,1.539,0.917
					c0.479,0,1.049-0.105,1.703-0.327v4.321c-0.961,0.55-2.291,0.83-3.994,0.83v0.011l-0.001,0.01V352.48z M67.574,335.42
					c-1.137,0.24-2.325,0.438-3.57,0.59c-1.243,0.152-2.5,0.327-3.766,0.522c-1.269,0.194-2.402,0.515-3.406,0.948
					c-1.006,0.438-1.823,1.061-2.456,1.865c-0.634,0.812-0.949,1.911-0.949,3.311c0,0.917,0.188,1.689,0.558,2.324
					c0.369,0.634,0.851,1.146,1.438,1.537c0.59,0.396,1.288,0.68,2.097,0.854c0.807,0.176,1.627,0.263,2.457,0.263
					c1.834,0,3.405-0.251,4.715-0.753c1.311-0.503,2.379-1.136,3.209-1.896c0.83-0.767,1.44-1.597,1.834-2.489
					c0.394-0.896,0.59-1.734,0.59-2.521v-5.694c-0.698,0.528-1.615,0.909-2.75,1.147v-0.01L67.574,335.42z"/>
				<path id="path3542" fill="#BE1E2D" d="M87.804,305v46.762h-5.564v-46.76h5.57h-0.005V305z"/>
				<path id="path3544" fill="#BE1E2D" d="M109.61,317.9v4.912h-6.746v21.021c0,0.655,0.056,1.18,0.164,1.572
					c0.107,0.394,0.316,0.696,0.623,0.917c0.305,0.219,0.73,0.356,1.275,0.426c0.545,0.064,1.254,0.099,2.129,0.099h2.555v4.911
					h-4.258c-1.44,0-2.676-0.099-3.701-0.295c-1.024-0.193-1.854-0.557-2.488-1.079c-0.633-0.522-1.104-1.268-1.407-2.229
					c-0.308-0.96-0.459-2.229-0.459-3.8v-21.539h-5.765v-4.912h5.779v-10.149h5.567v10.149h6.76h-0.02L109.61,317.9z"/>
			</g>
			<path id="altac-alt-ac-alt-hash" fill="#BE1E2D" d="M13.604,338.27v-4.453h7.008l1.375-9.822h-6.68v-4.452h7.271l1.897-13.427
				h4.521l-1.898,13.427h8.121l1.897-13.427h4.521l-1.898,13.427h5.83v4.452H39.15l-1.375,9.822h5.959v4.453H37.12l-1.899,13.491
				h-4.52l1.9-13.491H24.48l-1.899,13.491h-4.519l1.897-13.491H13.604z M25.134,333.82h8.121l1.375-9.824h-8.121l-1.375,9.818
				V333.82z"/>
		</g>
		<g id="altac-alt-ac-ac">
			<path id="path3550" fill="#BE1E2D" d="M186.17,323.8c-1.396-1.179-3.273-1.77-5.634-1.77c-2.009,0-3.688,0.372-5.042,1.112
				c-1.354,0.741-2.436,1.727-3.242,2.945c-0.809,1.225-1.387,2.632-1.736,4.227c-0.35,1.596-0.522,3.24-0.522,4.943
				c0,1.57,0.187,3.104,0.557,4.584c0.371,1.484,0.949,2.809,1.735,3.963c0.785,1.157,1.812,2.086,3.078,2.783
				c1.266,0.698,2.771,1.048,4.519,1.048c2.752,0,4.9-0.722,6.451-2.161c1.549-1.438,2.499-3.472,2.851-6.091h5.696
				c-0.61,4.19-2.172,7.423-4.683,9.691c-2.512,2.271-5.928,3.405-10.25,3.405c-2.577,0-4.858-0.416-6.844-1.244
				c-1.987-0.828-3.646-2.008-4.979-3.536c-1.334-1.527-2.337-3.353-3.014-5.47c-0.678-2.116-1.016-4.44-1.016-6.977
				s0.327-4.9,0.981-7.105c0.655-2.202,1.646-4.125,2.979-5.765c1.33-1.637,3.002-2.925,5.01-3.862
				c2.008-0.938,4.345-1.405,7.008-1.405c1.921,0,3.722,0.229,5.402,0.688c1.681,0.458,3.166,1.168,4.453,2.128
				c1.287,0.961,2.348,2.174,3.178,3.637c0.828,1.465,1.353,3.197,1.57,5.207h-5.764c-0.439-2.148-1.359-3.812-2.76-4.989
				l-0.01,0.01v-0.01L186.17,323.8z"/>
			<path id="path3548" fill="#BE1E2D" d="M159.4,352.48c-1.44,0-2.586-0.403-3.438-1.213c-0.853-0.81-1.277-2.13-1.277-3.963
				c-1.528,1.833-3.308,3.153-5.338,3.963c-2.028,0.81-4.224,1.213-6.582,1.213c-1.528,0-2.97-0.164-4.321-0.49
				c-1.354-0.328-2.545-0.873-3.569-1.641c-1.026-0.765-1.833-1.744-2.423-2.944c-0.59-1.2-0.885-2.652-0.885-4.354
				c0-1.922,0.327-3.492,0.981-4.716c0.655-1.223,1.519-2.216,2.588-2.979c1.067-0.765,2.291-1.344,3.666-1.733
				c1.375-0.394,2.784-0.722,4.226-0.981c1.526-0.305,2.979-0.533,4.354-0.688c1.375-0.151,2.587-0.371,3.636-0.654
				c1.048-0.283,1.877-0.697,2.488-1.244c0.61-0.546,0.917-1.343,0.917-2.392c0-1.224-0.229-2.203-0.688-2.946
				c-0.457-0.742-1.048-1.311-1.77-1.703c-0.721-0.394-1.528-0.651-2.423-0.785c-0.896-0.131-1.779-0.194-2.652-0.194
				c-2.356,0-4.321,0.446-5.896,1.344c-1.571,0.896-2.422,2.587-2.555,5.075h-5.566c0.088-2.098,0.523-3.863,1.312-5.307
				c0.785-1.44,1.834-2.607,3.144-3.504c1.311-0.896,2.815-1.539,4.52-1.934c1.703-0.395,3.493-0.59,5.371-0.59
				c1.527,0,3.045,0.107,4.553,0.327c1.506,0.22,2.871,0.666,4.094,1.344c1.222,0.677,2.203,1.627,2.945,2.849
				c0.742,1.226,1.113,2.815,1.113,4.781v17.42c0,1.312,0.076,2.271,0.229,2.883c0.154,0.612,0.666,0.917,1.541,0.917
				c0.479,0,1.049-0.105,1.703-0.327v4.321c-0.961,0.57-2.291,0.854-3.99,0.854v-0.011l0.01,0.01L159.4,352.48z M151.59,335.42
				c-1.137,0.24-2.326,0.438-3.57,0.59s-2.5,0.327-3.766,0.522c-1.268,0.194-2.402,0.515-3.406,0.948
				c-1.006,0.438-1.824,1.061-2.457,1.865c-0.633,0.812-0.949,1.911-0.949,3.311c0,0.917,0.187,1.689,0.558,2.324
				c0.37,0.634,0.853,1.146,1.44,1.537c0.59,0.396,1.287,0.68,2.096,0.854c0.809,0.176,1.626,0.263,2.456,0.263
				c1.834,0,3.405-0.251,4.716-0.753c1.311-0.503,2.38-1.136,3.209-1.896c0.829-0.767,1.441-1.597,1.835-2.489
				c0.394-0.896,0.588-1.734,0.588-2.521v-5.694c-0.688,0.528-1.608,0.909-2.75,1.147h-0.01v-0.01L151.59,335.42z"/>
		</g>
	</g>
	<g id="altac-ademy">
		<path id="path3552" fill="#555555" d="M200.38,323.21c0.698-1.44,1.647-2.62,2.851-3.537c1.198-0.917,2.606-1.593,4.226-2.03
			c1.614-0.436,3.405-0.652,5.37-0.652c1.482,0,2.97,0.144,4.454,0.427c1.48,0.284,2.812,0.817,3.993,1.604s2.141,1.892,2.882,3.31
			c0.741,1.421,1.112,3.266,1.112,5.534v17.943c0,1.659,0.81,2.487,2.424,2.487c0.479,0,0.918-0.088,1.312-0.263v3.472
			c-0.479,0.088-0.905,0.153-1.276,0.196c-0.369,0.044-0.841,0.062-1.404,0.062c-1.049,0-1.894-0.143-2.521-0.427
			c-0.635-0.282-1.125-0.688-1.475-1.212c-0.354-0.521-0.58-1.146-0.688-1.865c-0.107-0.722-0.161-1.518-0.161-2.392h-0.134
			c-0.741,1.092-1.493,2.062-2.26,2.915c-0.765,0.852-1.615,1.562-2.556,2.128c-0.938,0.565-2.01,1.004-3.209,1.311
			c-1.2,0.309-2.633,0.459-4.289,0.459c-1.571,0-3.045-0.188-4.422-0.558c-1.375-0.37-2.575-0.96-3.604-1.771
			c-1.025-0.809-1.832-1.834-2.424-3.076c-0.589-1.243-0.885-2.72-0.885-4.422c0-2.355,0.524-4.199,1.572-5.532
			c1.049-1.331,2.434-2.35,4.157-3.046c1.728-0.697,3.668-1.188,5.83-1.476c2.16-0.286,4.354-0.558,6.582-0.817
			c0.873-0.088,1.638-0.195,2.291-0.326c0.655-0.133,1.201-0.359,1.64-0.688c0.438-0.327,0.772-0.771,1.018-1.343
			c0.236-0.566,0.357-1.312,0.357-2.229c0-1.396-0.229-2.543-0.688-3.438c-0.458-0.896-1.093-1.604-1.897-2.129
			c-0.811-0.522-1.746-0.886-2.813-1.08c-1.07-0.197-2.218-0.295-3.438-0.295c-2.621,0-4.762,0.622-6.42,1.864
			s-2.531,3.24-2.619,5.992h-4.125c0.149-1.971,0.569-3.67,1.26-5.107v0.029h-0.02L200.38,323.21z M221.01,333.3
			c-0.264,0.479-0.767,0.829-1.508,1.048c-0.742,0.221-1.396,0.371-1.965,0.458c-1.746,0.309-3.548,0.579-5.402,0.817
			c-1.854,0.241-3.547,0.604-5.076,1.081c-1.525,0.479-2.78,1.169-3.766,2.062c-0.982,0.896-1.475,2.174-1.475,3.831
			c0,1.048,0.207,1.979,0.623,2.782c0.414,0.811,0.971,1.508,1.668,2.098c0.695,0.59,1.508,1.037,2.425,1.344s1.854,0.46,2.813,0.46
			c1.57,0,3.078-0.24,4.521-0.724c1.439-0.479,2.693-1.18,3.768-2.097c1.067-0.917,1.92-2.029,2.557-3.341
			c0.633-1.311,0.947-2.793,0.947-4.453v-5.369h-0.131V333.3z"/>
		<path id="path3554" fill="#555555" d="M256.84,351.76v-6.418h-0.133c-0.438,1.092-1.08,2.096-1.932,3.014
			c-0.854,0.916-1.824,1.69-2.914,2.323c-1.096,0.634-2.264,1.124-3.504,1.477c-1.244,0.35-2.479,0.521-3.701,0.521
			c-2.576,0-4.812-0.471-6.713-1.407c-1.898-0.938-3.482-2.229-4.748-3.862c-1.27-1.64-2.205-3.536-2.816-5.697
			c-0.609-2.161-0.916-4.44-0.916-6.845c0-2.399,0.305-4.686,0.916-6.846c0.611-2.159,1.551-4.062,2.816-5.696
			c1.266-1.64,2.85-2.938,4.748-3.896c1.896-0.959,4.137-1.439,6.713-1.439c1.268,0,2.5,0.153,3.701,0.46
			c1.197,0.307,2.322,0.772,3.371,1.406s1.977,1.407,2.781,2.324c0.809,0.917,1.434,1.987,1.867,3.209h0.131v-19.369h4.125v46.763
			h-3.81v0.021l0.01-0.02L256.84,351.76z M234.21,340.07c0.414,1.727,1.067,3.265,1.965,4.615c0.896,1.354,2.041,2.455,3.438,3.31
			c1.396,0.853,3.078,1.276,5.043,1.276c2.185,0,4.025-0.428,5.535-1.276c1.506-0.854,2.728-1.954,3.666-3.31
			c0.938-1.354,1.612-2.893,2.028-4.615c0.414-1.728,0.621-3.46,0.621-5.207c0-1.745-0.207-3.48-0.621-5.206
			c-0.416-1.728-1.092-3.267-2.028-4.617c-0.938-1.354-2.16-2.455-3.666-3.31c-1.51-0.853-3.354-1.274-5.535-1.274
			c-1.965,0-3.646,0.426-5.043,1.274c-1.397,0.854-2.545,1.953-3.438,3.31c-0.896,1.354-1.551,2.894-1.965,4.617
			c-0.416,1.726-0.621,3.461-0.621,5.206c0,1.75,0.199,3.488,0.619,5.21h-0.01L234.21,340.07z"/>
		<path id="path3556" fill="#555555" d="M268.92,340.6c0.416,1.598,1.082,3.023,1.998,4.291c0.918,1.269,2.073,2.312,3.471,3.146
			c1.398,0.831,3.078,1.245,5.043,1.245c3.016,0,5.371-0.786,7.074-2.358c1.703-1.569,2.881-3.666,3.537-6.286h4.125
			c-0.873,3.844-2.479,6.812-4.812,8.906c-2.338,2.097-5.646,3.146-9.924,3.146c-2.662,0-4.968-0.472-6.908-1.407
			c-1.942-0.938-3.524-2.229-4.748-3.864c-1.224-1.638-2.129-3.536-2.719-5.696c-0.591-2.161-0.886-4.439-0.886-6.846
			c0-2.228,0.295-4.408,0.886-6.549c0.59-2.142,1.495-4.052,2.719-5.729c1.224-1.682,2.806-3.033,4.748-4.062
			c1.94-1.024,4.246-1.539,6.908-1.539c2.706,0,5.021,0.548,6.941,1.639c1.921,1.093,3.479,2.521,4.684,4.29
			c1.202,1.77,2.062,3.799,2.588,6.091c0.522,2.292,0.741,4.617,0.653,6.978h-25.989c0,1.488,0.211,3.021,0.62,4.619h0.011v-0.01
			L268.92,340.6z M289.359,327.99c-0.502-1.439-1.211-2.719-2.129-3.831c-0.916-1.112-2.029-2.008-3.34-2.688
			c-1.312-0.676-2.798-1.015-4.453-1.015c-1.703,0-3.211,0.339-4.521,1.015c-1.311,0.681-2.424,1.572-3.34,2.688
			c-0.916,1.112-1.648,2.399-2.193,3.862c-0.547,1.465-0.906,2.959-1.08,4.485h21.873c-0.06-1.58-0.33-3.09-0.83-4.53h0.012
			L289.359,327.99z"/>
		<path id="path3558" fill="#555555" d="M302.359,317.97v5.698h0.194c1.093-2.097,2.521-3.732,4.29-4.912
			c1.771-1.18,4.026-1.77,6.777-1.77c2.228,0,4.246,0.547,6.059,1.639c1.813,1.092,3.022,2.751,3.639,4.979
			c1.003-2.228,2.485-3.887,4.451-4.979c1.967-1.092,4.062-1.639,6.286-1.639c7.468,0,11.198,3.949,11.198,11.854v22.923h-4.126
			v-22.728c0-2.793-0.589-4.922-1.77-6.387c-1.181-1.463-3.253-2.191-6.224-2.191c-1.791,0-3.271,0.339-4.453,1.016
			c-1.18,0.68-2.115,1.582-2.813,2.72c-0.699,1.137-1.189,2.437-1.476,3.896c-0.282,1.463-0.427,2.979-0.427,4.553v19.123h-4.126
			v-22.91c0-1.136-0.121-2.215-0.357-3.238c-0.24-1.025-0.635-1.922-1.182-2.688c-0.548-0.765-1.274-1.364-2.191-1.802
			s-2.03-0.654-3.34-0.654c-1.748,0-3.269,0.316-4.555,0.948c-1.287,0.635-2.337,1.508-3.145,2.62
			c-0.811,1.113-1.407,2.423-1.801,3.931c-0.396,1.507-0.593,3.153-0.593,4.943v18.86h-4.127v-33.771h3.791v-0.021h0.011
			L302.359,317.97z"/>
		<path id="path3560" fill="#555555" d="M351.08,317.97l11.135,28.816l10.413-28.816h4.126l-14.671,38.902
			c-0.61,1.438-1.18,2.63-1.702,3.567c-0.521,0.938-1.104,1.683-1.734,2.229c-0.634,0.546-1.375,0.938-2.229,1.18
			c-0.854,0.239-1.933,0.359-3.24,0.359c-0.83-0.044-1.475-0.076-1.934-0.1c-0.458-0.021-0.862-0.101-1.213-0.229v-3.471
			c0.479,0.087,0.949,0.163,1.408,0.229c0.459,0.066,0.929,0.102,1.406,0.102c0.917,0,1.67-0.133,2.262-0.396
			c0.59-0.263,1.104-0.623,1.539-1.081c0.437-0.458,0.809-1.016,1.11-1.67c0.306-0.654,0.634-1.376,0.981-2.16l1.439-3.8
			l-13.492-33.663h4.382h-0.012L351.08,317.97z"/>
	</g>
</g>
<g>
	<g>
		<path fill-rule="evenodd" clip-rule="evenodd" fill="#545454" d="M31.887,426.678v36.045h-6.215v-36.045H31.887z M25.672,421.705
			v-7.458h6.215v7.458H25.672z"/>
		<path fill-rule="evenodd" clip-rule="evenodd" fill="#545454" d="M48.045,425.433v5.792l-0.584,0.139
			c2.549-4.424,6.574-6.638,12.105-6.638c2.449,0,4.5,0.335,6.128,0.996c1.627,0.656,2.959,1.578,3.963,2.743
			c1.008,1.182,2.227,2.587,2.636,4.216c0.397,1.613,0.608,3.416,0.608,5.394v24.648h-6.214V438c0-2.263-0.671-4.673-2.013-5.992
			c-1.355-1.317-3.618-1.975-5.979-1.975c-1.864,0-3.493,0.271-4.859,0.844c-1.368,0.562-2.511,1.368-3.43,2.399
			c-0.909,1.032-1.218,2.249-1.678,3.643c-0.46,1.379-0.684,2.908-0.684,4.549v21.255h-6.214v-37.29H48.045z"/>
		<g>
			<polygon fill-rule="evenodd" clip-rule="evenodd" fill="#772970" points="133.805,414.247 133.805,417.976 115.162,417.976 
				115.162,462.723 110.19,462.723 110.19,417.976 92.789,417.976 92.789,414.247 			"/>
			<path fill-rule="evenodd" clip-rule="evenodd" fill="#772970" d="M136.291,425.433v8.726l-0.074-0.52
				c1.155-3.034,2.635-5.36,5.059-7c2.423-1.627,5.32-2.373,8.689-2.238v4.552c-2.063-0.101-3.941,0.172-5.62,0.833
				c-1.688,0.645-2.832,1.565-4.051,2.77c-1.229,1.207-2.323,2.636-2.996,4.288c-0.67,1.654-1.007,3.467-1.007,5.445v20.435h-4.971
				v-37.29H136.291z"/>
			<path fill-rule="evenodd" clip-rule="evenodd" fill="#772970" d="M177.159,441.778c-0.286,0.534-0.397,0.922-1.217,1.156
				c-0.821,0.235-1.542,0.408-2.164,0.509c-1.927,0.337-3.901,0.633-5.953,0.895c-2.038,0.261-3.902,0.658-5.58,1.194
				c-1.691,0.522-3.07,1.28-4.151,2.274c-1.082,0.981-1.616,2.388-1.616,4.212c0,1.156,0.223,2.175,0.684,3.06
				c0.459,0.895,1.069,1.665,1.839,2.311s1.653,1.142,2.66,1.479c1.02,0.336,2.051,0.498,3.107,0.498
				c1.728,0,3.381-0.26,4.973-0.781c1.59-0.535,2.971-1.306,4.15-2.316c1.168-1.005,1.678-2.235,2.374-3.678
				c0.697-1.44,1.043-3.067,1.043-4.896v-5.916H177.159z M154.885,431.003c0.771-1.592,1.814-3.207,3.146-4.214
				c1.317-1.007,2.872-1.753,4.648-2.235c1.777-0.487,3.74-0.724,5.904-0.724c1.641,0,3.267,0.163,4.908,0.474
				c1.629,0.31,3.096,0.895,4.388,1.766c1.306,0.855,2.362,2.073,3.17,3.64c0.82,1.553,1.23,3.593,1.23,6.092v19.748
				c0,1.831,0.509,2.735,2.287,2.735c0.522,0,1.006-0.087,1.442-0.285v3.829c-0.535,0.086-0.994,0.161-1.404,0.211
				c-0.412,0.048-0.548,0.074-1.17,0.074c-1.155,0-2.076-0.164-2.771-0.472c-0.695-0.312-1.242-0.761-1.628-1.332
				c-0.385-0.584-0.634-1.266-0.758-2.051c-0.111-0.798-0.174-1.676-0.174-2.635h-0.149c-0.82,1.206-1.64,2.276-2.485,3.207
				c-0.846,0.93-1.777,1.714-2.809,2.335c-1.033,0.636-2.213,1.106-3.531,1.445c-1.33,0.335-2.895,0.508-4.723,0.508
				c-1.728,0-3.355-0.198-4.872-0.609c-1.504-0.408-2.835-1.057-3.965-1.952c-1.131-0.883-2.014-2.013-2.66-3.381
				c-0.645-1.377-0.981-2.994-0.981-4.872c0-2.595,0.583-4.623,1.739-6.092c1.144-1.465,2.671-2.583,4.574-3.354
				c1.901-0.769,4.04-1.306,6.414-1.615c2.386-0.312,4.797-0.619,7.246-0.909c0.957-0.086,1.802-0.21,2.522-0.36
				c0.722-0.135,1.318-0.397,1.803-0.756c0.484-0.36,0.858-0.846,1.118-1.479c0.262-0.621,0.399-1.443,0.399-2.45
				c0-1.528-0.25-2.797-0.759-3.778c-0.51-0.983-1.205-1.764-2.088-2.348c-0.896-0.571-1.927-0.972-3.108-1.193
				c-1.167-0.213-2.435-0.323-3.778-0.323c-2.883,0-5.246,1.006-7.072,2.373c-1.828,1.368-2.786,3.565-2.884,6.6h-4.537
				C153.667,434.459,154.115,432.581,154.885,431.003z"/>
			<path fill-rule="evenodd" clip-rule="evenodd" fill="#772970" d="M194.709,425.433v6.416l0.547-0.522
				c0.87-2.251,2.411-4.077,4.611-5.444c2.212-1.369,4.649-2.052,7.284-2.052c2.599,0,4.773,0.337,6.525,1.007
				c1.752,0.673,3.156,1.629,4.214,2.847c1.056,1.23,1.839,2.733,2.274,4.512c0.436,1.776,0.646,3.767,0.646,5.978v24.55h-4.973
				v-23.22c0-1.577-0.148-3.665-0.436-5.034c-0.286-1.379-0.396-2.558-1.117-3.576c-0.723-1.008-1.692-1.805-2.909-2.377
				c-1.23-0.572-2.76-0.868-4.586-0.868c-1.827,0-3.443,0.323-4.86,0.982c-1.417,0.645-2.623,1.527-3.604,2.658
				c-0.994,1.132-2.162,2.486-2.723,4.039c-0.546,1.567-0.845,3.255-0.894,5.084v22.312h-4.971v-37.29H194.709z"/>
			<path fill-rule="evenodd" clip-rule="evenodd" fill="#772970" d="M248.962,431.734c-0.521-1.028-1.229-1.466-2.125-2.137
				s-1.915-1.168-3.057-1.479c-1.157-0.311-2.388-0.471-3.681-0.471c-1.007,0-2.038,0.11-3.07,0.323
				c-1.032,0.222-1.975,0.583-2.846,1.092c-0.857,0.498-1.567,1.158-2.089,1.976c-0.532,0.821-0.794,1.83-0.794,3.033
				c0,1.007,0.262,1.867,0.758,2.562c0.509,0.694,1.143,1.279,1.914,1.763c0.771,0.474,1.603,0.871,2.522,1.181
				c0.907,0.312,1.754,0.573,2.523,0.758l6.052,1.368c1.294,0.2,2.586,0.548,3.854,1.058c1.281,0.495,2.411,1.157,3.394,1.975
				c0.982,0.821,1.789,1.827,2.41,3.035c0.621,1.191,0.945,2.606,0.945,4.248c0,2.014-0.459,3.731-1.38,5.158
				c-0.906,1.418-2.076,2.562-3.494,3.459c-1.417,0.893-3.019,1.526-4.796,1.911c-1.778,0.387-3.53,0.572-5.259,0.572
				c-4.374,0-7.916-0.809-10.639-2.885c-2.71-2.062-4.263-5.38-4.649-9.942h4.55c0.187,3.07,1.306,5.396,3.345,6.959
				c2.049,1.554,4.586,2.114,7.605,2.114c1.106,0,2.251-0.112,3.432-0.36c1.179-0.235,2.272-0.646,3.28-1.218
				c1.006-0.585,1.841-1.319,2.486-2.201c0.645-0.896,0.969-1.985,0.969-3.281c0-1.104-0.225-2.025-0.683-2.772
				c-0.46-0.744-1.068-1.365-1.84-1.873c-0.771-0.512-1.641-0.936-2.635-1.271c-0.983-0.334-1.978-0.619-2.983-0.856l-5.841-1.306
				c-1.492-0.374-2.86-0.822-4.114-1.33c-1.245-0.495-2.337-1.131-3.282-1.875c-0.932-0.747-1.665-1.655-2.186-2.737
				c-0.536-1.08-0.797-2.411-0.797-4.002c0-1.874,0.422-3.479,1.254-4.834c0.846-1.342,1.938-2.423,3.283-3.246
				c1.343-0.805,2.846-1.414,4.511-1.802c1.651-0.372,3.295-0.57,4.934-0.57c1.878,0,3.618,0.236,5.222,0.724
				c1.615,0.482,3.032,1.229,4.264,2.235c1.218,1.007,2.199,1.841,2.921,3.331c0.721,1.479,1.117,3.244,1.218,5.256h-4.535
				C249.781,433.984,249.497,432.767,248.962,431.734z"/>
			<path fill-rule="evenodd" clip-rule="evenodd" fill="#772970" d="M265.555,427.921v34.802h-4.973v-34.802H265.555z
				 M265.555,414.247v6.215h-4.973v-6.215H265.555z"/>
			<path fill-rule="evenodd" clip-rule="evenodd" fill="#772970" d="M287.929,425.433v3.731h-7.46v25.081
				c0,1.49,0.199,2.223,0.609,3.069s1.317,1.316,2.957,1.406c1.295,0,2.599-0.077,3.894-0.212v3.815
				c-0.674,0-1.342,0.023-2.017,0.072c-0.682,0.054-1.451,0.076-2.124,0.076c-3.033,0-5.356-0.585-6.562-1.765
				c-1.205-1.183-1.779-3.357-1.729-6.525v-25.019h-6.214v-3.731h6.214v-11.186h4.972v11.186H287.929z"/>
			<path fill-rule="evenodd" clip-rule="evenodd" fill="#772970" d="M299.111,427.921v34.802h-4.969v-34.802H299.111z
				 M299.111,414.247v6.215h-4.969v-6.215H299.111z"/>
			<path fill-rule="evenodd" clip-rule="evenodd" fill="#772970" d="M315.21,429.026c-1.63,0.907-2.997,2.111-4.063,3.605
				c-1.095,1.49-1.902,3.181-2.464,5.081c-0.545,1.889-0.818,3.829-0.818,5.793c0,1.975,0.273,3.913,0.818,5.802
				c0.562,1.904,1.369,3.595,2.464,5.087c1.066,1.49,2.434,2.698,4.063,3.604c1.64,0.918,3.527,1.366,5.691,1.366
				c2.163,0,4.063-0.448,5.705-1.366c1.629-0.906,2.982-2.114,4.065-3.604c1.081-1.492,1.9-3.183,2.459-5.087
				c0.549-1.889,0.822-3.827,0.822-5.802c0-1.964-0.273-3.904-0.822-5.793c-0.559-1.9-1.378-3.591-2.459-5.081
				c-1.083-1.494-2.437-2.698-4.065-3.605c-1.642-0.92-3.542-1.379-5.705-1.379C318.737,427.647,316.85,428.106,315.21,429.026z
				 M328.434,425.424c2.187,1.054,4.028,2.472,5.52,4.249s2.623,3.853,3.393,6.239c0.77,2.372,1.156,4.908,1.156,7.594
				c0,2.696-0.387,5.232-1.156,7.606c-0.77,2.388-1.901,4.464-3.393,6.238c-1.491,1.778-3.333,3.185-5.52,4.212
				c-2.188,1.034-4.686,1.557-7.532,1.557c-2.834,0-5.345-0.522-7.531-1.557c-2.187-1.027-4.027-2.434-5.506-4.212
				c-1.492-1.774-2.623-3.851-3.396-6.238c-0.77-2.374-1.154-4.91-1.154-7.606c0-2.686,0.385-5.222,1.154-7.594
				c0.772-2.387,1.903-4.462,3.396-6.239c1.479-1.777,3.319-3.195,5.506-4.249c2.187-1.058,4.697-1.594,7.531-1.594
				C323.748,423.83,326.246,424.366,328.434,425.424z"/>
			<path fill-rule="evenodd" clip-rule="evenodd" fill="#772970" d="M347.586,425.433v6.416l0.501-0.522
				c0.867-2.251,2.396-4.077,4.608-5.444c2.212-1.369,4.638-2.052,7.283-2.052c2.598,0,4.772,0.337,6.527,1.007
				c1.751,0.673,3.155,1.629,4.21,2.847c1.058,1.23,1.891,2.733,2.327,4.512c0.435,1.776,0.645,3.767,0.645,5.978v24.55h-4.969
				v-23.22c0-1.577-0.151-3.665-0.436-5.034c-0.288-1.379-0.451-2.558-1.172-3.576c-0.718-1.008-1.688-1.805-2.918-2.377
				c-1.219-0.572-2.747-0.868-4.574-0.868s-3.444,0.323-4.873,0.982c-1.416,0.645-2.609,1.527-3.593,2.658
				c-0.992,1.132-2.11,2.486-2.671,4.039c-0.549,1.567-0.846,3.255-0.896,5.084v22.312h-4.971v-37.29H347.586z"/>
		</g>
		<polygon fill-rule="evenodd" clip-rule="evenodd" fill="#545454" points="20.7,462.723 12,462.723 12,413.004 20.7,413.004 
			20.7,415.493 14.486,415.493 14.486,460.234 20.7,460.234 		"/>
		<polygon fill-rule="evenodd" clip-rule="evenodd" fill="#545454" points="77.875,413.004 86.575,413.004 86.575,462.723 
			77.875,462.723 77.875,460.234 84.089,460.234 84.089,415.493 77.875,415.493 		"/>
	</g>
</g>
</svg>
