<?xml version="1.0" encoding="utf-8"?>
<!-- Generator: Adobe Illustrator 16.0.4, SVG Export Plug-In . SVG Version: 6.00 Build 0)  -->
<!DOCTYPE svg PUBLIC "-//W3C//DTD SVG 1.1//EN" "http://www.w3.org/Graphics/SVG/1.1/DTD/svg11.dtd">
<svg version="1.1" id="Layer_1" xmlns="http://www.w3.org/2000/svg" xmlns:xlink="http://www.w3.org/1999/xlink" x="0px" y="0px"
	 width="120px" height="80px" viewBox="0 0 120 80" enable-background="new 0 0 120 80" xml:space="preserve">
<g>
	<polyline fill="#F9F9F9" points="120,0 0,0 0,79 120,79 120,0 	"/>
</g>
<g>
	<path fill="#B7B7B7" d="M28.575,28.493H24.86v32.169h3.714V28.493 M28.763,19.337h-4.084v4.722h-0.001h4.085V19.337"/>
	<path fill="#B7B7B7" d="M33.125,28.181h-0.009l0.004,0.006L33.125,28.181 M66.516,27.462c-2.035,0-3.869,0.419-5.502,1.258
		c-1.631,0.837-3.052,2.125-4.259,3.864c-0.726-1.412-1.531-2.486-2.42-3.212c-1.572-1.273-3.646-1.91-6.225-1.91
		c-2.277,0-4.311,0.616-6.104,1.849c-1.049,0.727-2.217,1.891-3.505,3.486v-4.608h-5.379l-0.001-0.002l-0.002,0.003l0,0v32.472
		h5.438V43.439c0-4.18,0.842-7.074,2.524-8.672c1.683-1.596,3.551-2.394,5.605-2.394c2.258,0,3.796,0.757,4.622,2.272
		c0.523,1.011,0.788,2.619,0.788,4.821V60.66h5.536V41.773c0-3.356,0.771-5.75,2.31-7.186c1.54-1.436,3.381-2.153,5.514-2.153
		c1.551,0,2.869,0.402,3.945,1.211c1.076,0.811,1.617,2.297,1.617,4.461V60.66h5.648V39.043c0-2.871-0.424-5.154-1.27-6.852
		C73.83,29.036,70.865,27.462,66.516,27.462"/>
	<path fill="#B7B7B7" d="M95.322,27.623c-5.391,0-8.422,1.737-10.463,6.894h-0.123v-6.024h-3.715v32.169h3.715V44.889
		c0-7.101,2.168-13.232,10.227-13.232c0.117,0,0.238,0.001,0.359,0.004V27.623"/>
</g>
<g display="none">
	<polyline display="inline" fill="#C8C8C8" points="120,0 0,0 0,1 120,1 120,0 	"/>
	<polyline display="inline" fill="#C8C8C8" points="120,79 0,79 0,80 120,80 120,79 	"/>
</g>
</svg>
