<?xml version="1.0" encoding="utf-8"?>
<!-- Generator: Adobe Illustrator 16.0.4, SVG Export Plug-In . SVG Version: 6.00 Build 0)  -->
<!DOCTYPE svg PUBLIC "-//W3C//DTD SVG 1.1//EN" "http://www.w3.org/Graphics/SVG/1.1/DTD/svg11.dtd">
<svg version="1.1" xmlns="http://www.w3.org/2000/svg" xmlns:xlink="http://www.w3.org/1999/xlink" x="0px" y="0px" width="120px"
	 height="80px" viewBox="0 0 120 80" enable-background="new 0 0 120 80" xml:space="preserve">
<g id="Layer_2">
	<g id="Layer_3">
		<rect fill="#EAEAEA" width="120" height="79"/>
	</g>
	
		<rect x="1.726" y="48.554" transform="matrix(-0.9009 0.4339 -0.4339 -0.9009 170.3274 121.1225)" fill="#B7B7B7" width="139.226" height="62.896"/>
</g>
<g id="Layer_1">
	<g>
		<g>
			<g>
				<path fill="#B7B7B7" d="M8.355,60.315l5.76,11.96l-1.928,0.93l-5.76-11.961L8.355,60.315L8.355,60.315z M5.631,59.594
					l-1.192-2.475l1.929-0.928l1.191,2.473L5.631,59.594z"/>
				<path fill="#B7B7B7" d="M13.168,57.487l0.926,1.922l-0.159,0.135c0.083-1.85,0.978-3.186,2.694-4.013
					c0.76-0.365,1.449-0.562,2.06-0.585c0.609-0.025,1.17,0.082,1.668,0.317c0.502,0.243,1.104,0.526,1.491,1.005
					c0.381,0.477,0.735,1.043,1.051,1.701l3.938,8.177l-1.928,0.93l-3.951-8.204c-0.362-0.751-0.955-1.451-1.582-1.688
					c-0.631-0.235-1.438-0.113-2.171,0.238c-0.578,0.279-1.04,0.612-1.373,1.007c-0.334,0.392-0.561,0.827-0.68,1.308
					c-0.117,0.479-0.019,0.929,0.062,1.459c0.078,0.526,0.252,1.068,0.515,1.612l3.398,7.053L17.2,70.79L11.24,58.416L13.168,57.487
					L13.168,57.487z"/>
				<g>
					<polygon fill="#B7B7B7" points="37.986,40.962 38.582,42.199 32.798,44.984 39.949,59.832 38.406,60.576 31.255,45.729 
						25.858,48.327 25.262,47.091 					"/>
					<path fill="#B7B7B7" d="M40.544,44.303l1.395,2.896l-0.105-0.164c-0.126-1.178-0.04-2.17,0.449-3.078
						c0.493-0.899,1.272-1.582,2.338-2.041l0.728,1.512c-0.656,0.274-1.195,0.646-1.61,1.116c-0.421,0.466-0.629,0.942-0.814,1.523
						c-0.188,0.585-0.3,1.223-0.245,1.872c0.057,0.648,0.242,1.301,0.558,1.956l3.266,6.781l-1.542,0.741l-5.958-12.372
						L40.544,44.303L40.544,44.303z"/>
					<path fill="#B7B7B7" d="M55.835,43.619c-0.004,0.219,0.024,0.363-0.194,0.564c-0.217,0.2-0.413,0.365-0.59,0.492
						c-0.542,0.399-1.108,0.794-1.704,1.187c-0.589,0.393-1.104,0.803-1.54,1.231c-0.441,0.426-0.749,0.884-0.924,1.374
						c-0.178,0.485-0.119,1.034,0.172,1.638c0.185,0.385,0.417,0.691,0.7,0.914c0.286,0.229,0.598,0.394,0.94,0.491
						c0.343,0.101,0.695,0.133,1.062,0.094c0.372-0.041,0.717-0.141,1.044-0.298c0.536-0.258,1.007-0.593,1.419-1.003
						c0.406-0.415,0.712-0.877,0.916-1.389c0.201-0.508,0.164-0.993,0.148-1.575c-0.013-0.582-0.166-1.174-0.458-1.78l-0.946-1.962
						L55.835,43.619L55.835,43.619z M47.203,43.371c-0.015-0.643,0.051-1.334,0.303-1.867c0.248-0.531,0.61-1.012,1.084-1.437
						c0.474-0.427,1.044-0.798,1.716-1.121c0.51-0.246,1.04-0.436,1.599-0.577c0.555-0.142,1.104-0.166,1.644-0.071
						c0.541,0.088,1.063,0.335,1.565,0.735c0.503,0.393,0.956,1.007,1.355,1.836l3.156,6.552c0.293,0.609,0.596,0.833,1.146,0.566
						c0.163-0.076,0.297-0.178,0.402-0.31l0.611,1.271c-0.152,0.109-0.282,0.202-0.401,0.279c-0.12,0.077-0.158,0.106-0.352,0.201
						c-0.357,0.171-0.67,0.254-0.936,0.256c-0.265,0-0.506-0.066-0.717-0.198c-0.213-0.138-0.398-0.327-0.563-0.57
						c-0.162-0.247-0.322-0.528-0.476-0.846l-0.045,0.021c-0.062,0.523-0.147,1.001-0.259,1.436
						c-0.115,0.437-0.278,0.834-0.499,1.195c-0.219,0.364-0.509,0.697-0.865,1.007c-0.359,0.31-0.816,0.602-1.384,0.874
						c-0.535,0.259-1.072,0.436-1.608,0.526c-0.533,0.088-1.048,0.073-1.542-0.057c-0.492-0.123-0.946-0.366-1.366-0.726
						c-0.42-0.359-0.783-0.847-1.083-1.468c-0.415-0.861-0.558-1.621-0.434-2.281c0.121-0.657,0.417-1.255,0.884-1.797
						c0.465-0.539,1.044-1.037,1.73-1.494c0.691-0.459,1.391-0.922,2.103-1.383c0.284-0.172,0.525-0.34,0.726-0.497
						c0.202-0.153,0.345-0.328,0.438-0.52c0.093-0.192,0.131-0.409,0.11-0.659c-0.017-0.245-0.106-0.539-0.267-0.872
						c-0.243-0.506-0.524-0.89-0.839-1.14c-0.315-0.252-0.656-0.407-1.023-0.468c-0.37-0.054-0.753-0.035-1.156,0.07
						c-0.396,0.102-0.806,0.255-1.223,0.455c-0.895,0.432-1.468,1.12-1.816,1.846c-0.347,0.725-0.292,1.6,0.162,2.619l-1.408,0.679
						C47.376,44.701,47.216,44.01,47.203,43.371z"/>
					<path fill="#B7B7B7" d="M58.667,35.573l1.025,2.129l0.087-0.255c-0.089-0.876,0.097-1.714,0.561-2.495
						c0.468-0.786,1.114-1.376,1.933-1.77c0.805-0.389,1.533-0.602,2.185-0.642c0.651-0.038,1.239,0.069,1.763,0.315
						c0.523,0.25,1.007,0.632,1.427,1.159c0.418,0.522,0.801,1.152,1.155,1.886l3.923,8.146l-1.543,0.743l-3.711-7.705
						c-0.252-0.523-0.633-1.193-0.938-1.606c-0.31-0.414-0.533-0.788-0.92-1.02c-0.384-0.225-0.812-0.346-1.282-0.353
						c-0.472-0.006-0.995,0.124-1.56,0.397c-0.568,0.273-1.018,0.622-1.351,1.052c-0.337,0.426-0.571,0.898-0.694,1.421
						c-0.128,0.525-0.273,1.147-0.199,1.747c0.08,0.601,0.256,1.207,0.534,1.82l3.566,7.403l-1.543,0.743l-5.96-12.373
						L58.667,35.573L58.667,35.573z"/>
					<path fill="#B7B7B7" d="M76.505,29.558c-0.326-0.264-0.615-0.303-1.003-0.392c-0.384-0.088-0.78-0.101-1.183-0.034
						c-0.409,0.069-0.816,0.201-1.218,0.394c-0.312,0.15-0.614,0.342-0.901,0.564c-0.284,0.229-0.52,0.489-0.707,0.788
						c-0.187,0.294-0.302,0.62-0.332,0.969c-0.034,0.352,0.046,0.726,0.236,1.125c0.163,0.333,0.382,0.58,0.646,0.735
						c0.268,0.155,0.56,0.254,0.876,0.3c0.315,0.041,0.636,0.049,0.971,0.014c0.331-0.031,0.637-0.072,0.904-0.125l2.096-0.451
						c0.434-0.127,0.89-0.205,1.365-0.225c0.476-0.027,0.933,0.024,1.367,0.148c0.437,0.126,0.848,0.339,1.235,0.647
						c0.381,0.303,0.707,0.724,0.971,1.268c0.32,0.668,0.453,1.307,0.395,1.917c-0.054,0.607-0.232,1.161-0.529,1.67
						c-0.297,0.507-0.693,0.958-1.182,1.351c-0.491,0.396-1.004,0.718-1.541,0.976c-1.357,0.653-2.587,0.914-3.762,0.633
						c-1.17-0.279-2.183-1.148-3.032-2.605l1.412-0.68c0.549,0.991,1.268,1.595,2.151,1.809c0.883,0.21,1.759,0.016,2.696-0.435
						c0.342-0.165,0.68-0.374,1.007-0.633c0.328-0.255,0.603-0.554,0.824-0.894c0.219-0.344,0.359-0.712,0.418-1.101
						c0.058-0.395-0.017-0.805-0.224-1.235c-0.176-0.365-0.394-0.637-0.653-0.817c-0.264-0.177-0.55-0.293-0.871-0.346
						c-0.321-0.055-0.66-0.066-1.022-0.027c-0.356,0.035-0.711,0.089-1.062,0.161l-2.019,0.44c-0.523,0.099-1.02,0.154-1.489,0.173
						c-0.466,0.022-0.907-0.026-1.318-0.132c-0.41-0.109-0.781-0.3-1.116-0.582c-0.338-0.278-0.633-0.681-0.887-1.208
						c-0.3-0.622-0.425-1.217-0.384-1.792c0.049-0.572,0.215-1.093,0.5-1.568c0.289-0.468,0.657-0.896,1.111-1.272
						c0.451-0.369,0.931-0.681,1.44-0.925c0.582-0.281,1.159-0.463,1.736-0.542c0.577-0.08,1.136-0.043,1.679,0.105
						c0.539,0.152,0.977,0.282,1.438,0.669c0.46,0.383,0.864,0.909,1.216,1.562l-1.406,0.679
						C77.119,30.182,76.836,29.821,76.505,29.558z"/>
					<path fill="#B7B7B7" d="M81.042,25.813l5.563,11.548l-1.544,0.743L79.5,26.555L81.042,25.813z M78.858,21.275l0.992,2.062
						l-1.543,0.743l-0.993-2.062L78.858,21.275z"/>
					<path fill="#B7B7B7" d="M87.586,21.644l0.596,1.238l-2.313,1.115l4.008,8.321c0.238,0.495,0.417,0.708,0.68,0.927
						c0.264,0.22,0.618,0.24,1.142,0.024c0.4-0.194,0.794-0.412,1.175-0.653l0.61,1.268c-0.21,0.101-0.414,0.209-0.616,0.324
						c-0.202,0.12-0.437,0.243-0.646,0.344c-0.939,0.453-1.754,0.605-2.318,0.394c-0.562-0.212-1.087-0.848-1.578-1.907
						l-3.998-8.301l-1.926,0.928l-0.597-1.237l1.926-0.928L81.94,19.79l1.542-0.743l1.788,3.712L87.586,21.644L87.586,21.644z"/>
					<path fill="#B7B7B7" d="M91.452,20.799l5.563,11.548l-1.542,0.742l-5.562-11.548L91.452,20.799z M89.268,16.262l0.992,2.062
						l-1.539,0.743l-0.994-2.063L89.268,16.262z"/>
					<path fill="#B7B7B7" d="M96.622,18.761c-0.359,0.544-0.592,1.147-0.682,1.803c-0.104,0.658-0.084,1.34,0.046,2.054
						c0.133,0.708,0.359,1.393,0.672,2.044c0.316,0.655,0.71,1.258,1.181,1.803c0.479,0.548,1,0.988,1.578,1.319
						c0.567,0.334,1.187,0.533,1.836,0.589c0.656,0.06,1.312-0.074,1.983-0.398s1.188-0.754,1.552-1.306
						c0.359-0.542,0.587-1.147,0.686-1.802c0.098-0.657,0.08-1.34-0.051-2.056c-0.132-0.708-0.356-1.393-0.672-2.048
						c-0.312-0.65-0.709-1.254-1.182-1.799c-0.478-0.546-0.999-0.986-1.574-1.318c-0.574-0.334-1.188-0.531-1.837-0.589
						c-0.657-0.06-1.318,0.071-1.989,0.395C97.497,17.776,96.985,18.21,96.622,18.761z M100.149,15.59
						c0.849,0.021,1.646,0.218,2.394,0.584c0.745,0.366,1.428,0.886,2.049,1.562c0.617,0.672,1.142,1.456,1.571,2.347
						c0.432,0.896,0.717,1.793,0.856,2.697c0.143,0.906,0.124,1.765-0.054,2.577c-0.179,0.812-0.525,1.555-1.04,2.222
						c-0.514,0.669-1.206,1.217-2.088,1.642c-0.879,0.423-1.742,0.625-2.585,0.609c-0.844-0.014-1.638-0.207-2.381-0.576
						c-0.748-0.366-1.43-0.885-2.05-1.562c-0.619-0.672-1.145-1.456-1.576-2.352c-0.429-0.89-0.714-1.79-0.854-2.691
						c-0.143-0.908-0.123-1.765,0.057-2.578c0.174-0.81,0.519-1.556,1.028-2.232c0.509-0.678,1.202-1.23,2.081-1.655
						C98.442,15.761,99.303,15.564,100.149,15.59z"/>
					<path fill="#B7B7B7" d="M106.095,12.73l1.023,2.128l0.072-0.248c-0.091-0.875,0.091-1.71,0.56-2.496
						c0.468-0.784,1.109-1.373,1.931-1.768c0.807-0.389,1.535-0.603,2.186-0.641c0.652-0.039,1.24,0.067,1.762,0.314
						c0.526,0.25,1.023,0.625,1.443,1.15c0.418,0.524,0.803,1.153,1.155,1.887l3.923,8.146l-1.542,0.742l-3.71-7.704
						c-0.253-0.523-0.633-1.194-0.94-1.605c-0.309-0.415-0.547-0.782-0.934-1.012c-0.385-0.226-0.813-0.346-1.285-0.352
						c-0.472-0.008-0.99,0.123-1.559,0.396c-0.565,0.273-1.018,0.622-1.355,1.054c-0.335,0.425-0.564,0.896-0.689,1.418
						c-0.127,0.524-0.258,1.141-0.183,1.74c0.08,0.602,0.257,1.206,0.534,1.82l3.566,7.403l-1.543,0.743l-5.961-12.373
						L106.095,12.73L106.095,12.73z"/>
				</g>
				<polygon fill="#B7B7B7" points="10.644,73.947 7.946,75.246 0,58.75 2.699,57.449 3.097,58.275 1.169,59.204 8.319,74.05 
					10.247,73.122 				"/>
				<polygon fill="#B7B7B7" points="20.436,48.907 23.136,47.607 31.082,64.104 28.381,65.403 27.984,64.577 29.911,63.647 
					22.761,48.804 20.834,49.733 				"/>
			</g>
		</g>
	</g>
</g>
</svg>
