<?xml version="1.0" encoding="utf-8"?>
<!-- Generator: Adobe Illustrator 16.0.4, SVG Export Plug-In . SVG Version: 6.00 Build 0)  -->
<!DOCTYPE svg PUBLIC "-//W3C//DTD SVG 1.1//EN" "http://www.w3.org/Graphics/SVG/1.1/DTD/svg11.dtd">
<svg version="1.1" xmlns="http://www.w3.org/2000/svg" xmlns:xlink="http://www.w3.org/1999/xlink" x="0px" y="0px" width="120px"
	 height="80px" viewBox="0 0 120 80" enable-background="new 0 0 120 80" xml:space="preserve">
<g id="Layer_1">
	<g id="Layer_3">
		<rect fill="#EAEAEA" width="120" height="79"/>
	</g>
	
		<rect x="1.569" y="48.892" transform="matrix(0.9009 -0.4339 0.4339 0.9009 -27.8103 38.8434)" fill="#B7B7B7" width="139.218" height="62.892"/>
</g>
<g id="Layer_2">
	<g id="altac-alt-ac">
		<g>
			<g id="altac-alt-ac-alt_8_">
				<path id="altac-alt-ac-alt-hyphen_8_" fill="#B7B7B7" d="M70.713,29.945l1.476,3.037l-10.966,5.332l-1.477-3.036l10.97-5.335
					L70.713,29.945z"/>
				<g id="altac-alt-ac-alt-alt_8_">
					<path id="path3540_8_" fill="#B7B7B7" d="M45.211,57.777c-0.833,0.404-1.611,0.494-2.333,0.266
						c-0.721-0.229-1.337-0.875-1.854-1.938c-0.37,1.494-1.029,2.76-1.979,3.801c-0.947,1.041-2.105,1.891-3.472,2.557
						c-0.884,0.43-1.766,0.74-2.642,0.934c-0.877,0.191-1.719,0.211-2.529,0.055c-0.81-0.154-1.554-0.496-2.233-1.023
						c-0.68-0.531-1.26-1.287-1.74-2.273c-0.542-1.115-0.794-2.113-0.76-3.008c0.034-0.895,0.255-1.711,0.66-2.455
						c0.403-0.744,0.949-1.424,1.635-2.039c0.686-0.613,1.411-1.201,2.172-1.756c0.798-0.607,1.575-1.15,2.327-1.627
						c0.755-0.475,1.395-0.943,1.923-1.404c0.529-0.457,0.89-0.932,1.092-1.42c0.199-0.488,0.153-1.037-0.143-1.645
						c-0.344-0.709-0.753-1.213-1.229-1.514c-0.475-0.301-0.977-0.463-1.505-0.488c-0.529-0.025-1.068,0.055-1.626,0.23
						c-0.556,0.176-1.085,0.387-1.591,0.633c-1.366,0.664-2.378,1.475-3.037,2.439c-0.658,0.963-0.676,2.182-0.05,3.66l-3.225,1.568
						c-0.541-1.24-0.787-2.387-0.736-3.443c0.05-1.055,0.329-2.029,0.834-2.918c0.508-0.887,1.198-1.684,2.075-2.393
						c0.876-0.707,1.856-1.326,2.946-1.857c0.885-0.428,1.794-0.794,2.73-1.091c0.934-0.297,1.851-0.423,2.75-0.375
						s1.736,0.322,2.511,0.821c0.775,0.502,1.436,1.319,1.99,2.458l4.908,10.092c0.371,0.762,0.684,1.295,0.945,1.605
						c0.261,0.314,0.646,0.346,1.151,0.1c0.277-0.135,0.579-0.357,0.895-0.67l1.218,2.504c-0.402,0.59-1.095,1.127-2.082,1.607
						l0.003,0.006l0.003,0.006l-0.002-0.004H45.211z M35.893,50.086c-0.591,0.461-1.224,0.91-1.902,1.35
						c-0.677,0.436-1.356,0.893-2.034,1.361c-0.682,0.471-1.248,0.975-1.708,1.508c-0.459,0.539-0.756,1.131-0.896,1.773
						c-0.139,0.65-0.011,1.375,0.383,2.188c0.258,0.529,0.585,0.924,0.977,1.188c0.393,0.264,0.816,0.424,1.268,0.486
						c0.454,0.062,0.938,0.031,1.455-0.096c0.518-0.127,1.016-0.309,1.498-0.541c1.063-0.518,1.902-1.104,2.52-1.766
						c0.619-0.658,1.059-1.326,1.326-2c0.264-0.678,0.384-1.332,0.362-1.959c-0.025-0.631-0.146-1.172-0.369-1.629l-1.604-3.299
						c-0.256,0.504-0.68,0.982-1.271,1.439l-0.003-0.006V50.086z"/>
					<path id="path3542_8_" fill="#B7B7B7" d="M39.044,26.762l13.173,27.094l-3.223,1.566L35.821,28.329l3.227-1.569L39.044,26.762
						L39.044,26.762L39.044,26.762z"/>
					<path id="path3544_8_" fill="#B7B7B7" d="M55.312,28.091l1.385,2.848l-3.908,1.9L58.71,45.02
						c0.185,0.379,0.364,0.668,0.538,0.865c0.173,0.197,0.379,0.312,0.619,0.354c0.238,0.041,0.523,0.002,0.859-0.113
						c0.333-0.115,0.755-0.295,1.261-0.541l1.479-0.721l1.386,2.848l-2.468,1.199c-0.833,0.406-1.579,0.695-2.227,0.871
						c-0.648,0.176-1.232,0.199-1.746,0.076s-0.998-0.424-1.443-0.896c-0.448-0.469-0.894-1.162-1.336-2.072L49.564,34.41
						l-3.341,1.625l-1.384-2.847l3.349-1.628l-2.859-5.881l3.225-1.567l2.859,5.88l3.918-1.905l-0.011,0.005L55.312,28.091z"/>
				</g>
				<path id="altac-alt-ac-alt-hash_8_" fill="#B7B7B7" d="M5.424,66.943l-1.254-2.58l4.06-1.977l-1.97-6.078l-3.871,1.885
					l-1.254-2.582l4.214-2.047l-2.685-8.316l2.62-1.273l2.683,8.314l4.705-2.287l-2.683-8.314l2.619-1.274l2.684,8.317l3.378-1.645
					l1.254,2.58l-3.72,1.809l1.971,6.078l3.453-1.678l1.254,2.58l-3.832,1.863l2.7,8.35l-2.619,1.275l-2.7-8.354l-4.706,2.289
					l2.701,8.35l-2.619,1.275l-2.701-8.352L5.424,66.943z M10.85,61.115l4.706-2.287l-1.97-6.08L8.88,55.035l1.969,6.078
					L10.85,61.115z"/>
			</g>
			<g id="altac-alt-ac-ac_8_">
				<path id="path3550_8_" fill="#B7B7B7" d="M101.335,9.941c-1.143-0.29-2.396-0.102-3.763,0.562
					c-1.163,0.566-2.032,1.254-2.609,2.063c-0.575,0.811-0.923,1.689-1.048,2.622c-0.125,0.936-0.062,1.915,0.184,2.938
					c0.247,1.023,0.611,2.024,1.092,3.011c0.443,0.911,0.982,1.745,1.614,2.499c0.633,0.756,1.341,1.36,2.121,1.807
					c0.781,0.449,1.637,0.699,2.566,0.746c0.933,0.048,1.901-0.175,2.915-0.667c1.594-0.775,2.635-1.798,3.129-3.07
					c0.492-1.268,0.469-2.714-0.064-4.333l3.3-1.604c0.828,2.601,0.834,4.914,0.017,6.936c-0.814,2.023-2.475,3.643-4.979,4.86
					c-1.494,0.727-2.932,1.127-4.315,1.208c-1.384,0.079-2.679-0.137-3.881-0.646c-1.205-0.51-2.3-1.284-3.287-2.32
					c-0.99-1.036-1.839-2.287-2.554-3.757c-0.716-1.472-1.193-2.93-1.436-4.393c-0.24-1.46-0.206-2.853,0.101-4.181
					c0.312-1.321,0.918-2.54,1.817-3.647c0.897-1.111,2.121-2.038,3.665-2.789c1.113-0.542,2.221-0.917,3.323-1.125
					c1.102-0.207,2.164-0.214,3.178-0.021c1.017,0.194,1.974,0.599,2.867,1.211c0.894,0.618,1.686,1.472,2.376,2.576l-3.339,1.623
					c-0.858-1.12-1.861-1.826-3.005-2.112l-0.002,0.008l-0.003-0.005L101.335,9.941z"/>
				<path id="path3548_8_" fill="#B7B7B7" d="M93.903,34.101c-0.833,0.405-1.612,0.496-2.333,0.266
					c-0.722-0.229-1.339-0.874-1.855-1.936c-0.369,1.493-1.029,2.759-1.976,3.798c-0.948,1.042-2.107,1.894-3.473,2.558
					c-0.887,0.431-1.769,0.741-2.643,0.934c-0.876,0.19-1.722,0.211-2.531,0.055c-0.809-0.155-1.554-0.495-2.232-1.023
					c-0.681-0.53-1.262-1.287-1.741-2.273c-0.541-1.114-0.791-2.114-0.759-3.008c0.036-0.894,0.256-1.711,0.662-2.456
					c0.4-0.744,0.947-1.423,1.634-2.038c0.686-0.614,1.41-1.202,2.172-1.757c0.801-0.608,1.576-1.149,2.328-1.626
					c0.756-0.474,1.396-0.943,1.923-1.404c0.53-0.458,0.893-0.933,1.094-1.421c0.199-0.489,0.151-1.036-0.146-1.646
					c-0.345-0.708-0.753-1.209-1.229-1.512c-0.473-0.301-0.975-0.464-1.504-0.489c-0.53-0.025-1.067,0.055-1.624,0.229
					c-0.558,0.177-1.086,0.388-1.592,0.633c-1.364,0.664-2.38,1.476-3.037,2.441c-0.659,0.962-0.676,2.18-0.051,3.66l-3.227,1.568
					c-0.539-1.242-0.783-2.388-0.733-3.445c0.05-1.055,0.327-2.028,0.835-2.917c0.507-0.888,1.197-1.685,2.072-2.393
					c0.876-0.707,1.857-1.326,2.947-1.856c0.885-0.43,1.794-0.796,2.73-1.093c0.934-0.296,1.852-0.423,2.749-0.375
					c0.898,0.049,1.735,0.323,2.51,0.821c0.775,0.503,1.439,1.319,1.991,2.457l4.909,10.093c0.369,0.762,0.683,1.296,0.943,1.606
					c0.264,0.312,0.646,0.344,1.152,0.098c0.277-0.135,0.577-0.356,0.894-0.669l1.219,2.504c-0.397,0.601-1.087,1.141-2.071,1.619
					l-0.004-0.006l0.009,0.003H93.903z M84.573,26.417c-0.592,0.459-1.225,0.91-1.902,1.347c-0.679,0.438-1.357,0.895-2.036,1.363
					c-0.679,0.469-1.246,0.975-1.706,1.508c-0.46,0.539-0.759,1.131-0.897,1.774c-0.139,0.649-0.013,1.375,0.382,2.187
					c0.259,0.531,0.586,0.925,0.979,1.188c0.393,0.264,0.817,0.423,1.268,0.486c0.454,0.062,0.938,0.03,1.455-0.095
					c0.519-0.127,1.017-0.309,1.497-0.542c1.062-0.517,1.9-1.103,2.52-1.763c0.62-0.661,1.06-1.329,1.325-2.002
					c0.265-0.678,0.385-1.331,0.363-1.959c-0.025-0.63-0.149-1.17-0.372-1.626l-1.604-3.299c-0.248,0.499-0.675,0.979-1.269,1.438
					l-0.005,0.003l-0.003-0.006L84.573,26.417z"/>
			</g>
		</g>
	</g>
</g>
</svg>
