<?xml version="1.0" encoding="utf-8"?>
<!-- Generator: Adobe Illustrator 16.0.4, SVG Export Plug-In . SVG Version: 6.00 Build 0)  -->
<!DOCTYPE svg PUBLIC "-//W3C//DTD SVG 1.1//EN" "http://www.w3.org/Graphics/SVG/1.1/DTD/svg11.dtd">
<svg version="1.1" id="Layer_1" xmlns="http://www.w3.org/2000/svg" xmlns:xlink="http://www.w3.org/1999/xlink" x="0px" y="0px"
	 width="120px" height="80px" viewBox="0 0 120 80" enable-background="new 0 0 120 80" xml:space="preserve">
<g id="Layer_3">
</g>
<rect fill="#EAEAEA" width="120" height="80.347"/>
<g display="none">
	<polyline display="inline" fill="#CECFD1" points="120,77 0,77 0,80 120,80 120,77 	"/>
</g>
<g>
	<path id="path3617_1_" fill="#1AB7B7" d="M88.261,54.399c-1.84,1.396-4.162,2.101-6.959,2.101c-1.966,0-3.673-0.321-5.113-0.956
		c-1.446-0.629-2.662-1.521-3.649-2.663c-0.984-1.142-1.715-2.51-2.21-4.098c-0.492-1.595-0.77-3.321-0.829-5.186
		c0-1.874,0.283-3.588,0.854-5.139c0.571-1.557,1.37-2.911,2.406-4.057c1.026-1.145,2.246-2.034,3.66-2.663
		c1.413-0.635,2.96-0.956,4.647-0.956c2.188,0,4.003,0.456,5.448,1.355c1.444,0.909,2.602,2.06,3.479,3.453
		c0.869,1.393,1.47,2.921,1.807,4.575c0.336,1.647,0.462,3.22,0.408,4.707H73.804c-0.033,1.079,0.093,2.107,0.379,3.072
		c0.287,0.969,0.746,1.824,1.382,2.569c0.637,0.745,1.445,1.346,2.436,1.786c0.979,0.45,2.14,0.667,3.47,0.667
		c1.716,0,3.123-0.394,4.217-1.192c1.095-0.789,1.814-1.996,2.162-3.616h4.008c-0.523,2.765-1.717,4.85-3.555,6.242l-0.022,0.013
		L88.261,54.399z M87.281,38.604c-0.368-0.858-0.857-1.594-1.475-2.213c-0.62-0.62-1.351-1.11-2.19-1.479
		c-0.845-0.364-1.775-0.544-2.784-0.544c-1.051,0-1.994,0.18-2.839,0.544c-0.838,0.368-1.56,0.871-2.165,1.507
		c-0.597,0.632-1.075,1.37-1.427,2.21s-0.556,1.739-0.62,2.688h14.143c-0.064-0.939-0.279-1.849-0.649-2.701v-0.019L87.281,38.604z"
		/>
	<path id="path3611_1_" fill="#555555" d="M48.936,31.07v3.906h0.092c1.681-2.983,4.349-4.477,7.999-4.477
		c1.619,0,2.968,0.222,4.05,0.665c1.078,0.448,1.954,1.064,2.617,1.855c0.667,0.795,1.135,1.74,1.404,2.836
		c0.269,1.1,0.402,2.313,0.402,3.645v16.19h-4.044v-16.66c0-1.525-0.445-2.728-1.335-3.618c-0.891-0.892-2.112-1.336-3.667-1.336
		c-1.233,0-2.306,0.194-3.21,0.573c-0.908,0.384-1.659,0.92-2.262,1.62c-0.604,0.702-1.055,1.514-1.358,2.449
		c-0.302,0.938-0.452,1.959-0.452,3.072v13.899h-4.05V31.077h3.816v0.009h0.008L48.936,31.07z"/>
	<path id="path3605_1_" fill="#23A59F" d="M39.788,31.69v2.522h-4.999V50.78c0,0.985,0.137,1.756,0.402,2.307
		c0.271,0.558,0.947,0.869,2.026,0.934c0.859,0,1.715-0.057,2.571-0.146v2.523c-0.442,0-0.889,0.013-1.333,0.048
		c-0.444,0.029-0.89,0.055-1.336,0.055c-1.998,0-3.395-0.392-4.186-1.168c-0.795-0.783-1.178-2.216-1.146-4.316V34.242H27.5v-2.521
		h4.287V24.34h3.002v7.381h4.999v0.009v-0.009V31.69z"/>
</g>
</svg>
