<?xml version="1.0" encoding="utf-8"?>
<!-- Generator: Adobe Illustrator 16.0.4, SVG Export Plug-In . SVG Version: 6.00 Build 0)  -->
<!DOCTYPE svg PUBLIC "-//W3C//DTD SVG 1.1//EN" "http://www.w3.org/Graphics/SVG/1.1/DTD/svg11.dtd">
<svg version="1.1" xmlns="http://www.w3.org/2000/svg" xmlns:xlink="http://www.w3.org/1999/xlink" x="0px" y="0px"
	 width="367.122px" height="300px" viewBox="0 0 367.122 300" enable-background="new 0 0 367.122 300" xml:space="preserve">
<g id="Layer_1">
	<g id="the-new-everyday_1_">
		<g id="tne-everyday_1_">
			<path id="path3617_1_" fill="#1AB7B7" d="M190.829,288.312c-1.904,1.445-4.309,2.171-7.204,2.171
				c-2.033,0-3.799-0.329-5.292-0.984c-1.497-0.655-2.754-1.577-3.777-2.762c-1.018-1.183-1.776-2.594-2.289-4.238
				c-0.511-1.648-0.797-3.436-0.859-5.37c0-1.94,0.293-3.713,0.886-5.322c0.59-1.608,1.418-3.011,2.488-4.194
				c1.064-1.183,2.329-2.104,3.792-2.758c1.464-0.66,3.066-0.988,4.809-0.988c2.266,0,4.146,0.474,5.642,1.405
				c1.497,0.938,2.693,2.127,3.599,3.571c0.904,1.441,1.525,3.024,1.874,4.734c0.346,1.709,0.479,3.336,0.418,4.88h-19.05
				c-0.032,1.115,0.097,2.177,0.393,3.181c0.297,1,0.773,1.887,1.431,2.657c0.66,0.772,1.495,1.39,2.519,1.848
				c1.016,0.464,2.215,0.689,3.594,0.689c1.773,0,3.229-0.407,4.363-1.231c1.135-0.82,1.879-2.066,2.239-3.746h4.146
				c-0.541,2.865-1.775,5.021-3.678,6.465l-0.02,0.01L190.829,288.312z M189.816,271.957c-0.379-0.885-0.888-1.649-1.526-2.29
				c-0.642-0.642-1.397-1.147-2.267-1.525c-0.875-0.382-1.835-0.567-2.882-0.567c-1.086,0-2.066,0.189-2.937,0.567
				c-0.869,0.378-1.618,0.896-2.242,1.554c-0.621,0.658-1.116,1.423-1.477,2.292c-0.364,0.869-0.576,1.799-0.643,2.781h14.64
				c-0.07-0.974-0.29-1.912-0.674-2.795v-0.021L189.816,271.957z"/>
			<path id="path3619_1_" fill="#1AB7B7" d="M205.509,289.945l-9.461-25.485h4.68l7.149,21.238h0.1l6.952-21.238h4.387
				l-9.314,25.485h-4.488v0.01v-0.01H205.509z"/>
			<path id="path3621_1_" fill="#1AB7B7" d="M239.72,288.312c-1.907,1.445-4.307,2.171-7.199,2.171
				c-2.037,0-3.799-0.329-5.296-0.984c-1.495-0.655-2.75-1.577-3.766-2.762c-1.024-1.183-1.785-2.594-2.292-4.238
				c-0.517-1.648-0.801-3.436-0.865-5.37c0-1.94,0.292-3.713,0.891-5.322c0.593-1.608,1.421-3.011,2.483-4.194
				c1.072-1.183,2.339-2.104,3.801-2.758c1.46-0.66,3.063-0.988,4.808-0.988c2.269,0,4.147,0.474,5.643,1.405
				c1.495,0.938,2.693,2.127,3.599,3.571c0.898,1.441,1.525,3.024,1.867,4.734c0.349,1.709,0.488,3.336,0.421,4.88h-19.071
				c-0.035,1.115,0.103,2.177,0.396,3.181c0.298,1,0.771,1.887,1.431,2.657c0.66,0.772,1.496,1.39,2.512,1.848
				c1.023,0.464,2.22,0.689,3.601,0.689c1.775,0,3.231-0.407,4.363-1.231c1.131-0.82,1.879-2.066,2.237-3.746h4.142
				c-0.564,2.865-1.795,5.021-3.697,6.465h0.01v0.01L239.72,288.312z M238.708,271.957c-0.377-0.885-0.889-1.649-1.524-2.29
				c-0.646-0.642-1.399-1.147-2.274-1.525c-0.869-0.382-1.83-0.567-2.881-0.567c-1.086,0-2.062,0.189-2.938,0.567
				c-0.867,0.378-1.613,0.896-2.235,1.554c-0.63,0.658-1.119,1.423-1.481,2.292c-0.354,0.869-0.567,1.799-0.639,2.781h14.637
				c-0.08-0.974-0.292-1.912-0.676-2.795l0.012-0.021V271.957z"/>
			<path id="path3623_1_" fill="#1AB7B7" d="M252.426,264.46v5.369h0.104c1.018-2.065,2.267-3.597,3.746-4.582
				c1.479-0.983,3.353-1.443,5.615-1.378v4.435c-1.673,0-3.102,0.23-4.282,0.69c-1.187,0.458-2.138,1.133-2.861,2.021
				c-0.717,0.889-1.243,1.965-1.572,3.229c-0.332,1.267-0.493,2.721-0.493,4.362v11.337h-4.188v-25.485h3.946v-0.011v0.011
				L252.426,264.46z"/>
			<path id="path3625_1_" fill="#1AB7B7" d="M275.567,296.449c-0.474,0.853-0.999,1.552-1.572,2.096
				c-0.573,0.54-1.209,0.934-1.898,1.181c-0.69,0.246-1.515,0.369-2.466,0.369c-0.491,0-0.984-0.033-1.478-0.096
				c-0.495-0.068-0.973-0.187-1.431-0.354v-3.842c0.393,0.13,0.796,0.264,1.205,0.396c0.413,0.133,0.824,0.193,1.261,0.193
				c0.855,0,1.538-0.193,2.064-0.59c0.528-0.396,0.986-0.971,1.38-1.727l1.732-4.288l-10.104-25.329h4.73l7.447,20.851h0.099
				l7.146-20.851h4.44l-11.089,28.832c-0.511,1.24-1.002,2.294-1.481,3.147l0.01,0.021L275.567,296.449z"/>
			<path id="path3627_1_" fill="#1AB7B7" d="M309.005,289.945v-3.451h-0.1c-0.69,1.413-1.775,2.435-3.253,3.062
				c-1.479,0.62-3.108,0.935-4.879,0.935c-1.976,0-3.689-0.359-5.153-1.085c-1.461-0.72-2.674-1.689-3.65-2.905
				c-0.967-1.216-1.693-2.627-2.192-4.238c-0.491-1.612-0.736-3.318-0.736-5.126c0-1.809,0.237-3.515,0.715-5.125
				c0.476-1.607,1.198-3.015,2.167-4.218c0.973-1.192,2.188-2.15,3.649-2.858c1.463-0.707,3.159-1.06,5.101-1.06
				c0.658,0,1.362,0.064,2.12,0.193c0.756,0.133,1.513,0.354,2.269,0.667c0.757,0.313,1.472,0.725,2.145,1.233
				c0.676,0.509,1.239,1.142,1.701,1.896h0.096v-13.117h4.194v35.191h-4.192v0.01V289.945z M293.955,280.896
				c0.312,1.135,0.789,2.145,1.427,3.029c0.644,0.89,1.462,1.596,2.466,2.117c1.003,0.526,2.179,0.789,3.529,0.789
				c1.405,0,2.609-0.275,3.592-0.838c0.986-0.56,1.786-1.288,2.419-2.192c0.62-0.904,1.068-1.932,1.354-3.078
				c0.275-1.149,0.419-2.317,0.419-3.5c0-1.248-0.147-2.456-0.442-3.623c-0.296-1.164-0.764-2.191-1.403-3.075
				c-0.643-0.89-1.47-1.606-2.488-2.146c-1.02-0.544-2.25-0.813-3.695-0.813c-1.409,0-2.61,0.277-3.595,0.838
				c-0.986,0.562-1.775,1.302-2.364,2.222c-0.594,0.92-1.024,1.972-1.284,3.152c-0.263,1.184-0.392,2.399-0.392,3.65
				c0,1.172,0.158,2.335,0.472,3.466h-0.01h0.01L293.955,280.896z"/>
			<path id="path3629_1_" fill="#1AB7B7" d="M338.237,290.486c-1.082,0-1.941-0.305-2.588-0.912
				c-0.642-0.606-0.963-1.603-0.963-2.982c-1.148,1.38-2.483,2.374-4.018,2.982c-1.524,0.607-3.177,0.912-4.95,0.912
				c-1.148,0-2.233-0.122-3.247-0.368c-1.023-0.249-1.92-0.657-2.691-1.232c-0.769-0.573-1.38-1.314-1.821-2.222
				c-0.438-0.898-0.664-1.992-0.664-3.277c0-1.444,0.247-2.626,0.736-3.548c0.491-0.918,1.141-1.666,1.947-2.241
				c0.805-0.572,1.725-1.012,2.758-1.306c1.033-0.297,2.094-0.542,3.179-0.739c1.15-0.23,2.242-0.4,3.278-0.519
				c1.031-0.114,1.945-0.278,2.734-0.491c0.788-0.216,1.411-0.522,1.875-0.941c0.462-0.406,0.69-1.008,0.69-1.796
				c0-0.92-0.172-1.658-0.521-2.218c-0.347-0.561-0.789-0.984-1.331-1.28c-0.542-0.298-1.148-0.493-1.816-0.595
				c-0.675-0.101-1.341-0.146-1.998-0.146c-1.775,0-3.253,0.339-4.439,1.011c-1.18,0.678-1.82,1.947-1.918,3.819h-4.192
				c0.062-1.574,0.394-2.907,0.984-3.992c0.592-1.082,1.376-1.961,2.36-2.638c0.986-0.672,2.118-1.157,3.404-1.45
				c1.281-0.298,2.626-0.443,4.041-0.443c1.147,0,2.292,0.082,3.422,0.244c1.135,0.166,2.16,0.503,3.082,1.01
				c0.918,0.513,1.656,1.229,2.216,2.147c0.562,0.922,0.844,2.121,0.844,3.6v13.111c0,0.982,0.053,1.706,0.168,2.166
				c0.116,0.462,0.501,0.689,1.161,0.689c0.354,0,0.786-0.08,1.277-0.245v3.251c-0.729,0.434-1.731,0.65-3.018,0.65v-0.021
				l-0.02,0.012L338.237,290.486z M332.365,277.639c-0.854,0.188-1.741,0.331-2.685,0.444c-0.938,0.114-1.883,0.246-2.832,0.396
				c-0.955,0.146-1.811,0.393-2.566,0.717c-0.756,0.326-1.374,0.797-1.848,1.402c-0.479,0.606-0.716,1.44-0.716,2.489
				c0,0.688,0.137,1.273,0.419,1.748c0.275,0.479,0.642,0.856,1.086,1.156c0.44,0.296,0.967,0.511,1.569,0.644
				c0.606,0.133,1.228,0.194,1.854,0.194c1.382,0,2.564-0.188,3.551-0.564c0.982-0.376,1.787-0.856,2.415-1.43
				c0.62-0.575,1.084-1.199,1.38-1.873c0.294-0.672,0.438-1.308,0.438-1.899v-4.286c-0.513,0.409-1.202,0.699-2.065,0.871V277.639
				v0.009V277.639z"/>
			<path id="path3631_1_" fill="#1AB7B7" d="M352.457,296.449c-0.479,0.853-1.003,1.552-1.576,2.096
				c-0.579,0.54-1.209,0.934-1.898,1.181c-0.688,0.246-1.509,0.369-2.466,0.369c-0.489,0-0.982-0.033-1.478-0.096
				c-0.495-0.068-0.969-0.187-1.431-0.354v-3.842c0.396,0.13,0.794,0.264,1.205,0.396c0.409,0.133,0.832,0.193,1.259,0.193
				c0.855,0,1.546-0.193,2.07-0.59c0.522-0.396,0.98-0.971,1.378-1.727l1.727-4.288l-10.107-25.329h4.736l7.441,20.851h0.104
				l7.144-20.851H365l-11.088,28.832c-0.501,1.24-0.99,2.294-1.462,3.147v0.021L352.457,296.449z"/>
		</g>
		<g id="tne-new_1_">
			<path id="path3611_1_" fill="#555555" d="M80.431,264.46v4.044h0.095c1.741-3.089,4.502-4.635,8.28-4.635
				c1.677,0,3.073,0.229,4.192,0.689c1.116,0.462,2.022,1.103,2.71,1.92c0.689,0.821,1.175,1.803,1.454,2.936
				c0.278,1.137,0.417,2.396,0.417,3.773v16.76h-4.188v-17.246c0-1.58-0.459-2.827-1.381-3.748c-0.921-0.92-2.184-1.38-3.795-1.38
				c-1.277,0-2.388,0.199-3.322,0.594c-0.94,0.396-1.719,0.952-2.343,1.673c-0.624,0.729-1.09,1.569-1.406,2.538
				c-0.312,0.972-0.467,2.029-0.467,3.182v14.391h-4.193v-25.484h3.95l-0.001,0.011h0.009L80.431,264.46z"/>
			<path id="path3613_1_" fill="#555555" d="M121.433,288.312c-1.904,1.445-4.306,2.171-7.197,2.171
				c-2.037,0-3.801-0.329-5.298-0.984c-1.495-0.655-2.748-1.577-3.772-2.762c-1.021-1.183-1.781-2.594-2.288-4.238
				c-0.511-1.648-0.797-3.436-0.863-5.37c0-1.94,0.295-3.713,0.889-5.322c0.591-1.608,1.419-3.011,2.485-4.194
				c1.067-1.183,2.333-2.104,3.797-2.758c1.462-0.66,3.062-0.988,4.807-0.988c2.266,0,4.145,0.474,5.641,1.405
				c1.495,0.938,2.693,2.127,3.599,3.571c0.902,1.441,1.528,3.024,1.871,4.734c0.344,1.709,0.483,3.336,0.421,4.88h-19.071
				c-0.037,1.115,0.094,2.177,0.392,3.181c0.295,1,0.771,1.887,1.432,2.657c0.652,0.772,1.492,1.39,2.511,1.848
				c1.021,0.464,2.218,0.689,3.598,0.689c1.778,0,3.23-0.407,4.363-1.231c1.135-0.82,1.879-2.066,2.238-3.746h4.144
				c-0.57,2.865-1.805,5.021-3.708,6.465h-0.011l0.01,0.01L121.433,288.312z M120.42,271.957c-0.378-0.885-0.885-1.649-1.527-2.29
				c-0.641-0.642-1.399-1.147-2.269-1.525c-0.869-0.382-1.832-0.567-2.884-0.567c-1.083,0-2.061,0.189-2.936,0.567
				c-0.863,0.378-1.615,0.896-2.235,1.554c-0.626,0.658-1.118,1.423-1.482,2.292c-0.36,0.869-0.572,1.799-0.639,2.781h14.635
				c-0.069-0.974-0.29-1.912-0.671-2.795l0.021-0.021L120.42,271.957z"/>
			<path id="path3615_1_" fill="#555555" d="M149.922,289.945l-5.173-20.256h-0.1l-5.124,20.256h-4.536l-8.184-25.485h4.635
				l5.771,20.851h0.096l5.128-20.851h4.578l5.323,20.851h0.1l5.719-20.851h4.337l-8.134,25.485h-4.44H149.922z"/>
		</g>
		<g id="tne-the_1_">
			<path id="path3605_1_" fill="#23A59F" d="M12.719,264.512v2.61H7.545v17.15c0,1.022,0.143,1.816,0.416,2.39
				c0.28,0.578,0.98,0.898,2.098,0.962c0.887,0,1.774-0.052,2.66-0.146v2.61c-0.458,0-0.92,0.018-1.38,0.049
				c-0.458,0.03-0.92,0.055-1.383,0.055c-2.066,0-3.513-0.405-4.334-1.207c-0.82-0.811-1.217-2.292-1.186-4.465v-17.366H0v-2.611
				h4.437v-7.639h3.108v7.639h5.174v0.011v-0.011V264.512z"/>
			<path id="path3607_1_" fill="#23A59F" d="M20.253,254.751v14.148h0.101c0.592-1.546,1.644-2.787,3.153-3.724
				c1.515-0.939,3.173-1.404,4.981-1.404c1.775,0,3.259,0.23,4.46,0.69c1.198,0.462,2.161,1.107,2.881,1.945
				c0.725,0.836,1.231,1.865,1.527,3.079c0.297,1.217,0.442,2.583,0.442,4.092v16.363h-3.104v-15.872
				c0-1.082-0.104-2.094-0.297-3.027c-0.195-0.938-0.544-1.754-1.038-2.442c-0.49-0.69-1.153-1.233-1.993-1.629
				c-0.836-0.397-1.881-0.591-3.132-0.591c-1.246,0-2.358,0.223-3.324,0.665c-0.97,0.441-1.791,1.054-2.467,1.821
				c-0.673,0.772-1.197,1.692-1.575,2.76c-0.376,1.069-0.582,2.229-0.614,3.476v14.84H17.15v-35.176h3.106h-0.003V254.751z"/>
			<path id="path3609_1_" fill="#23A59F" d="M45.216,281.537c0.312,1.197,0.814,2.275,1.503,3.228
				c0.689,0.957,1.561,1.743,2.61,2.368c1.049,0.622,2.317,0.937,3.797,0.937c2.266,0,4.04-0.592,5.32-1.774
				c1.281-1.188,2.168-2.76,2.662-4.733h3.108c-0.664,2.894-1.866,5.126-3.626,6.702c-1.758,1.573-4.241,2.36-7.461,2.36
				c-2.007,0-3.74-0.354-5.2-1.061c-1.46-0.707-2.652-1.674-3.572-2.907c-0.924-1.23-1.605-2.657-2.045-4.286
				c-0.442-1.622-0.669-3.343-0.669-5.151c0-1.673,0.228-3.317,0.669-4.928c0.44-1.607,1.121-3.046,2.045-4.314
				c0.92-1.262,2.112-2.281,3.572-3.055c1.46-0.774,3.194-1.159,5.2-1.159c2.034,0,3.776,0.413,5.223,1.233
				c1.441,0.819,2.619,1.898,3.524,3.229s1.554,2.859,1.944,4.582c0.397,1.726,0.557,3.478,0.491,5.244H44.749
				c0,1.144,0.159,2.305,0.47,3.498h-0.003V281.537L45.216,281.537z M60.588,272.047c-0.375-1.081-0.909-2.042-1.597-2.879
				c-0.693-0.84-1.527-1.513-2.517-2.023c-0.985-0.51-2.105-0.765-3.35-0.765c-1.284,0-2.416,0.255-3.402,0.765
				c-0.988,0.511-1.823,1.184-2.517,2.023c-0.689,0.837-1.237,1.81-1.649,2.908c-0.41,1.099-0.683,2.224-0.814,3.371h16.462
				c-0.033-1.184-0.236-2.324-0.617-3.406L60.588,272.047z"/>
		</g>
	</g>
</g>
<g id="Layer_2">
	<g id="the-new-everyday">
		<g id="tne-subhead">
			<g id="tne-subhead-project">
				<path id="path3591" fill="#555555" d="M258.91,75.181h-2.151V49.296h2.151v3.263h0.067c0.311-0.6,0.711-1.137,1.203-1.613
					c0.487-0.476,1.026-0.872,1.612-1.181c0.586-0.31,1.185-0.554,1.808-0.721c0.62-0.167,1.227-0.251,1.829-0.251
					c1.508,0,2.785,0.251,3.83,0.754c1.056,0.504,1.924,1.187,2.598,2.06c0.685,0.874,1.183,1.907,1.488,3.103
					c0.31,1.193,0.466,2.469,0.466,3.831c0,1.292-0.168,2.536-0.502,3.729s-0.846,2.242-1.521,3.135
					c-0.683,0.895-1.546,1.613-2.584,2.151c-1.041,0.538-2.26,0.806-3.671,0.806c-1.313,0-2.58-0.292-3.786-0.88
					c-1.209-0.588-2.159-1.454-2.851-2.597v10.296h0.021L258.91,75.181z M258.91,58.65c0,1.056,0.146,2.049,0.435,2.994
					c0.284,0.946,0.697,1.771,1.237,2.475c0.534,0.705,1.19,1.265,1.966,1.682c0.777,0.42,1.655,0.63,2.634,0.63
					c1.098,0,2.059-0.226,2.884-0.664c0.819-0.443,1.499-1.047,2.021-1.812c0.523-0.767,0.908-1.655,1.147-2.672
					c0.234-1.015,0.335-2.108,0.285-3.281c0-1.173-0.162-2.206-0.483-3.1c-0.319-0.894-0.768-1.655-1.347-2.275
					c-0.571-0.622-1.243-1.098-2.007-1.419c-0.767-0.318-1.599-0.483-2.506-0.483c-1.009,0-1.9,0.204-2.689,0.609
					c-0.792,0.405-1.446,0.965-1.971,1.67c-0.521,0.705-0.928,1.542-1.203,2.506c-0.269,0.967-0.394,2.049-0.394,3.161l-0.021-0.01
					L258.91,58.65z"/>
				<path id="path3593" fill="#555555" d="M280.666,67.866h-2.144V49.297h2.151v3.477h0.066c0.599-1.48,1.368-2.511,2.309-3.102
					c0.946-0.585,2.192-0.879,3.749-0.879v2.334c-1.223-0.021-2.22,0.167-3.011,0.571c-0.789,0.408-1.415,0.958-1.882,1.651
					c-0.469,0.691-0.79,1.511-0.973,2.454c-0.181,0.946-0.269,1.932-0.269,2.961v9.084l-0.012,0.01h0.01L280.666,67.866
					L280.666,67.866z"/>
				<path id="path3595" fill="#555555" d="M297.086,68.372c-1.192-0.024-2.309-0.24-3.352-0.645
					c-1.041-0.405-1.948-1.016-2.721-1.829c-0.774-0.809-1.389-1.83-1.844-3.044c-0.455-1.221-0.684-2.639-0.684-4.266
					c0-1.362,0.188-2.632,0.54-3.82c0.356-1.182,0.894-2.216,1.611-3.099c0.719-0.888,1.61-1.586,2.687-2.095
					c1.075-0.514,2.333-0.772,3.766-0.772c1.46,0,2.723,0.261,3.799,0.772c1.075,0.516,1.969,1.207,2.686,2.078
					c0.724,0.872,1.252,1.907,1.594,3.102c0.348,1.196,0.519,2.472,0.519,3.834c0,1.479-0.201,2.819-0.604,4.016
					c-0.408,1.191-0.986,2.218-1.739,3.083c-0.754,0.858-1.662,1.525-2.724,1.99c-1.054,0.469-2.228,0.707-3.518,0.707l0.01-0.021
					h-0.02L297.086,68.372z M303.393,58.581c0-1.098-0.121-2.129-0.357-3.083c-0.237-0.956-0.606-1.786-1.11-2.491
					c-0.5-0.706-1.146-1.264-1.932-1.671c-0.791-0.405-1.76-0.607-2.905-0.607c-1.125,0-2.088,0.222-2.884,0.666
					c-0.804,0.438-1.452,1.025-1.958,1.755c-0.501,0.73-0.872,1.566-1.105,2.51c-0.239,0.941-0.354,1.918-0.354,2.919
					c0,1.146,0.134,2.208,0.407,3.17c0.276,0.97,0.678,1.8,1.202,2.493c0.524,0.691,1.184,1.229,1.969,1.613
					c0.791,0.383,1.696,0.574,2.725,0.574c1.123,0,2.088-0.224,2.881-0.666c0.805-0.44,1.454-1.031,1.956-1.773
					c0.504-0.74,0.873-1.576,1.109-2.507c0.236-0.933,0.354-1.91,0.354-2.915L303.393,58.581L303.393,58.581z"/>
				<path id="path3597" fill="#555555" d="M312.36,49.297v21.045c0,0.79-0.037,1.481-0.107,2.083c-0.071,0.6-0.229,1.102-0.483,1.52
					c-0.25,0.417-0.621,0.728-1.103,0.933c-0.491,0.203-1.172,0.307-2.027,0.307c-0.525,0-0.992-0.048-1.397-0.145v-1.898
					c0.622,0.069,1.124,0.079,1.509,0.018c0.386-0.059,0.683-0.193,0.892-0.411c0.219-0.216,0.363-0.504,0.449-0.858
					c0.084-0.357,0.125-0.775,0.125-1.26V49.3h2.169h-0.02v-0.008L312.36,49.297z M312.469,45.251h-2.372v-3.189h2.372v3.191V45.251
					z"/>
				<path id="path3599" fill="#555555" d="M318.915,59.084c0,1.007,0.136,1.956,0.395,2.85c0.267,0.894,0.648,1.677,1.167,2.33
					c0.517,0.659,1.166,1.182,1.955,1.581c0.788,0.393,1.698,0.593,2.725,0.593c1.409,0,2.616-0.371,3.621-1.113
					c1.009-0.737,1.678-1.792,2.009-3.154h2.405c-0.268,0.888-0.609,1.702-1.043,2.46c-0.435,0.752-0.972,1.409-1.612,1.969
					c-0.641,0.559-1.409,0.997-2.3,1.306c-0.882,0.31-1.91,0.468-3.082,0.468c-1.481,0-2.759-0.25-3.835-0.757
					c-1.074-0.502-1.961-1.185-2.654-2.058c-0.689-0.872-1.208-1.9-1.542-3.086c-0.336-1.18-0.503-2.458-0.503-3.82
					c0-1.361,0.192-2.637,0.593-3.832c0.395-1.193,0.955-2.242,1.681-3.134c0.725-0.895,1.624-1.6,2.673-2.116
					c1.055-0.516,2.251-0.77,3.583-0.77c2.556,0,4.567,0.88,6.025,2.635c1.462,1.758,2.175,4.308,2.151,7.65h-14.437h0.021
					L318.915,59.084L318.915,59.084z M331.032,57.289c0-0.909-0.125-1.762-0.377-2.565c-0.25-0.801-0.621-1.494-1.106-2.079
					c-0.488-0.584-1.103-1.053-1.844-1.397c-0.74-0.347-1.592-0.519-2.547-0.519c-0.959,0-1.802,0.181-2.532,0.538
					c-0.724,0.351-1.345,0.84-1.864,1.429c-0.517,0.602-0.929,1.296-1.231,2.085c-0.31,0.787-0.52,1.625-0.609,2.506h12.108
					L331.032,57.289z"/>
				<path id="path3601" fill="#555555" d="M350.684,55.142c-0.383-1.389-1.039-2.465-1.966-3.247
					c-0.934-0.777-2.118-1.166-3.549-1.166c-1.096,0-2.046,0.228-2.836,0.683c-0.79,0.454-1.43,1.058-1.932,1.808
					c-0.504,0.756-0.873,1.599-1.11,2.547c-0.24,0.942-0.356,1.893-0.356,2.849c0,0.979,0.11,1.936,0.345,2.869
					c0.226,0.933,0.593,1.767,1.095,2.507c0.507,0.742,1.147,1.333,1.938,1.774c0.788,0.44,1.744,0.664,2.866,0.664
					c1.602,0,2.886-0.439,3.855-1.326c0.971-0.886,1.586-2.104,1.843-3.66h2.296c-0.188,1.026-0.496,1.967-0.91,2.814
					c-0.421,0.85-0.96,1.576-1.615,2.185c-0.656,0.608-1.439,1.082-2.345,1.419c-0.91,0.334-1.95,0.5-3.124,0.5
					c-1.478,0-2.758-0.25-3.834-0.756c-1.073-0.501-1.962-1.184-2.65-2.056c-0.689-0.875-1.21-1.907-1.544-3.103
					c-0.336-1.194-0.504-2.471-0.504-3.833c0-1.292,0.189-2.528,0.561-3.707c0.368-1.182,0.915-2.228,1.636-3.135
					c0.717-0.909,1.606-1.633,2.672-2.171c1.063-0.538,2.294-0.809,3.673-0.809c2.151,0,3.894,0.518,5.219,1.543
					c1.325,1.028,2.157,2.63,2.49,4.807h-2.216v-0.02L350.684,55.142z"/>
				<path id="path3603" fill="#555555" d="M363.988,67.946c-0.268,0.049-0.605,0.134-1.045,0.25
					c-0.428,0.12-0.907,0.183-1.428,0.183c-1.075,0-1.891-0.269-2.459-0.807c-0.559-0.538-0.843-1.502-0.843-2.882V51.103h-2.618
					v-1.792h2.618v-5.16h2.15v5.16h3.478v1.796h-3.478v12.727c0,0.454,0.012,0.85,0.034,1.182c0.021,0.336,0.095,0.606,0.216,0.822
					c0.119,0.216,0.307,0.369,0.558,0.47c0.252,0.096,0.603,0.144,1.055,0.144c0.289,0,0.58-0.021,0.879-0.067
					c0.301-0.049,0.594-0.106,0.883-0.184v1.751H364L363.988,67.946z"/>
			</g>
			<g id="tne-subhead-media">
				<path id="path3563" fill="#555555" d="M25.736,49.663h2.959v2.533c0.708-0.879,1.353-1.512,1.93-1.914
					c0.985-0.678,2.101-1.015,3.356-1.015c1.423,0,2.556,0.35,3.42,1.051c0.488,0.394,0.935,0.979,1.332,1.76
					c0.668-0.951,1.445-1.667,2.349-2.123c0.894-0.451,1.903-0.684,3.018-0.684c2.395,0,4.028,0.862,4.895,2.588
					c0.461,0.933,0.691,2.185,0.691,3.761v11.848h-3.111V55.093c0-1.184-0.294-2.002-0.887-2.444
					c-0.597-0.444-1.317-0.669-2.174-0.669c-1.179,0-2.182,0.395-3.035,1.182c-0.842,0.785-1.271,2.103-1.271,3.948v10.346h-3.033
					V55.838c0-1.211-0.146-2.09-0.43-2.644c-0.46-0.832-1.305-1.25-2.547-1.25c-1.135,0-2.163,0.439-3.085,1.308
					c-0.923,0.887-1.39,2.464-1.39,4.758v9.439h-2.994v-17.8v0.01h0.007V49.663z"/>
				<path id="path3565" fill="#555555" d="M64.522,50.152c1.178,0.593,2.073,1.365,2.685,2.304c0.599,0.897,0.989,1.941,1.193,3.137
					c0.17,0.816,0.261,2.131,0.261,3.92H55.719c0.053,1.812,0.478,3.263,1.269,4.359c0.79,1.097,2.017,1.641,3.677,1.641
					c1.55,0,2.783-0.514,3.707-1.553c0.521-0.601,0.891-1.295,1.1-2.086h2.944c-0.077,0.657-0.334,1.387-0.772,2.185
					c-0.436,0.802-0.933,1.46-1.465,1.967c-0.899,0.889-2.018,1.488-3.348,1.801c-0.714,0.174-1.528,0.265-2.424,0.265
					c-2.201,0-4.071-0.808-5.596-2.419c-1.533-1.61-2.3-3.872-2.3-6.776c0-2.86,0.77-5.177,2.314-6.961
					c1.541-1.784,3.552-2.674,6.042-2.674c1.26,0.012,2.473,0.31,3.657,0.894v-0.011L64.522,50.152z M65.586,57.138
					c-0.117-1.296-0.394-2.331-0.836-3.116c-0.818-1.435-2.174-2.157-4.075-2.157c-1.36,0-2.505,0.499-3.427,1.488
					c-0.926,0.994-1.407,2.257-1.467,3.785h9.812v-0.012h-0.005V57.138z"/>
				<path id="path3567" fill="#555555" d="M82.515,50.21c0.534,0.343,1.133,0.913,1.805,1.744v-8.997h2.875v24.504H84.5v-2.476
					c-0.696,1.098-1.516,1.891-2.464,2.383c-0.946,0.482-2.036,0.726-3.26,0.726c-1.975,0-3.69-0.84-5.137-2.505
					c-1.443-1.667-2.166-3.884-2.166-6.656c0-2.593,0.652-4.836,1.976-6.74c1.316-1.894,3.202-2.848,5.654-2.848
					c1.359,0.012,2.499,0.301,3.412,0.877h0V50.21L82.515,50.21z M75.833,63.558c0.802,1.282,2.093,1.92,3.869,1.92
					c1.387,0,2.509-0.596,3.401-1.778c0.885-1.193,1.329-2.901,1.329-5.127c0-2.251-0.458-3.917-1.37-4.997
					c-0.917-1.078-2.047-1.624-3.39-1.624c-1.496,0-2.716,0.579-3.654,1.731c-0.922,1.152-1.388,2.848-1.388,5.088
					c0,1.908,0.401,3.499,1.204,4.789h-0.001V63.558L75.833,63.558z"/>
				<path id="path3569" fill="#555555" d="M90.76,43.044H93.8v3.392H90.76v-3.39V43.044z M90.76,49.744H93.8v17.713H90.76V49.746
					V49.744z"/>
				<path id="path3571" fill="#555555" d="M106.773,56.692c0.684-0.087,1.144-0.373,1.379-0.862
					c0.133-0.272,0.196-0.651,0.196-1.152c0-1.018-0.354-1.76-1.084-2.221c-0.725-0.468-1.761-0.688-3.109-0.688
					c-1.561,0-2.67,0.417-3.326,1.262c-0.355,0.476-0.596,1.17-0.714,2.094h-2.788c0.056-2.207,0.767-3.735,2.13-4.593
					c1.372-0.866,2.959-1.293,4.758-1.293c2.095,0,3.792,0.394,5.099,1.189c1.292,0.807,1.941,2.045,1.941,3.729V64.41
					c0,0.312,0.062,0.56,0.199,0.746c0.119,0.19,0.391,0.285,0.804,0.285c0.124,0,0.28-0.006,0.443-0.024
					c0.164-0.021,0.344-0.041,0.532-0.075v2.215c-0.472,0.131-0.822,0.217-1.062,0.249c-0.239,0.036-0.575,0.05-0.999,0.05
					c-1.024,0-1.776-0.367-2.249-1.098c-0.243-0.385-0.414-0.933-0.511-1.645c-0.61,0.799-1.49,1.49-2.628,2.077
					c-1.146,0.593-2.402,0.891-3.772,0.891c-1.655,0-3.009-0.507-4.049-1.513c-1.047-0.999-1.568-2.248-1.568-3.752
					c0-1.642,0.512-2.919,1.546-3.832c1.025-0.907,2.381-1.47,4.056-1.678l4.759-0.587v-0.02h0.02l-0.01-0.02L106.773,56.692z
					 M100.481,64.772c0.63,0.5,1.374,0.746,2.241,0.746c1.053,0,2.075-0.242,3.056-0.73c1.661-0.805,2.5-2.127,2.5-3.963v-2.408
					c-0.367,0.236-0.839,0.436-1.417,0.595c-0.571,0.146-1.133,0.259-1.694,0.328l-1.789,0.219c-1.096,0.145-1.908,0.375-2.45,0.684
					c-0.931,0.518-1.392,1.345-1.392,2.487c0.011,0.862,0.327,1.541,0.963,2.037h-0.02L100.481,64.772z"/>
			</g>
			<g id="tne-subhead-commons">
				<path id="path3573" fill="#10496E" d="M127.339,63.492c0.176,0.087,0.269,0.171,0.086,0.43c-0.648,0.96-3.475,3.744-6.69,3.744
					c-1.739,0-3.915-1.345-3.915-4.307c0-6.078,4.744-14.211,10.127-14.211c2.26,0,3,1.645,3,2.429c0,1.225-0.955,2.175-1.819,2.175
					c-0.699,0-1.215-0.264-1.482-1.043c-0.261-0.61-0.648-1.303-1.345-1.303c-0.956,0-1.778,1.042-2.608,2.958
					c-1.082,2.611-1.694,5.298-1.694,7.645c0,2.176,0.656,3.128,1.78,3.128c1.391,0,3.085-1.303,3.608-1.912
					c0.096-0.176,0.263-0.265,0.347-0.176l0.596,0.438v0.01L127.339,63.492z"/>
				<path id="path3346" fill="#10496E" d="M173.433,61.739l-0.612-0.393c-0.083-0.043-0.262-0.043-0.346,0.137
					c-0.266,0.348-2.345,3.126-3.304,3.126c-0.26,0-0.436-0.258-0.519-0.607c0-0.69,0.872-2.518,1.739-5.04
					c1.303-3.733,2.388-6.213,2.388-7.477c0-0.994-0.827-2.343-2.388-2.343c-3.999,0-7.387,5.483-9.734,9.134l-0.351-0.172
					c0.692-1.565,2.302-5.3,2.302-6.914c0-1.041-0.917-2.048-2.386-2.048c-3.915,0-7.733,5.822-9.562,8.875l-0.352-0.188
					c0.352-1.042,2.781-5.907,2.781-7.121c0-0.961-0.567-1.568-1.871-1.568c-3.114,0-6.182,3.352-7.112,4.46
					c-0.459-3.162-3.027-4.458-5.314-4.458c-2.347,0-4.434,0.872-6.167,2.785c-2.438,2.657-3.655,6.128-3.655,9.778l0.009,0.006
					c0,4.002,2.654,5.949,5.208,5.949c2.603,0,4.605-0.957,6.258-2.87c2.604-2.869,3.738-7.386,3.738-10.167
					c0-0.176-0.013-0.338-0.022-0.503l0.498,0.414c0.174,0.163,0.35,0.163,0.519,0c0.348-0.527,2.607-2.615,3.129-2.615
					c0.389,0,0.561,0.263,0.561,0.608c0,0.65-1.217,3.392-2.216,6.089l0.025,0.025l-3.023,8.054c-0.128,0.349,0.088,0.52,0.352,0.52
					h2.742c0.346,0,0.556-0.088,0.644-0.348l1.438-3.741c0.699-1.562,1.394-2.783,1.998-3.651c2.522-3.651,5.912-7.307,6.952-7.307
					c0.561,0,0.961,0.349,0.909,0.87c0,0.614-1.082,3.48-2.215,6.522l-2.733,7.217c-0.088,0.259,0.088,0.437,0.43,0.437h2.736
					c0.352,0,0.567-0.086,0.658-0.348l1.346-3.741c0.611-1.478,1.393-2.608,1.652-3.044c2.699-4.085,6.172-8,7.218-8
					c0.604,0,0.907,0.352,0.907,0.872c0,0.699-0.52,2.176-1.859,5.566c-1.659,4.17-2.619,6.863-2.619,7.83
					c0,0.6,0.52,1.301,1.479,1.301c4.002,0,7.648-5.039,7.826-5.302c0.068-0.357,0.068-0.447-0.107-0.627h0.02l0.01,0.02
					L173.433,61.739z M138.532,61.264l0.004,0.006c-1.689,2.837-3.26,4.045-4.96,4.038c-0.952,0-1.824-0.866-1.824-2.042
					c0-1.737,0.873-4.35,2.303-6.777c2.128-3.569,3.781-5.086,5.561-5.086c1.265,0,1.878,1.003,1.878,1.957
					c0,1.561-1.344,5.168-2.955,7.901L138.532,61.264z"/>
				<path id="path3348" fill="#10496E" d="M243.364,49.138c-4.087,0-6.436,2.783-6.436,5.563c-0.084,1.833,0.733,2.921,1.607,4.393
					c0.908,1.566,2.047,2.829,1.965,4.305c0,1.826-0.965,2.782-2.183,2.782c-0.781,0-1.128-0.431-1.387-1.131
					c-0.353-1.043-1.047-1.737-2.083-1.737c-0.104,0-0.204,0.016-0.308,0.026c-0.069,0.002-0.145,0.021-0.213,0.055
					c-0.012,0.008-0.024,0.018-0.036,0.021c-0.173,0.062-0.327,0.147-0.464,0.266c-0.845,0.521-1.956,1.372-2.464,1.372
					c-0.344,0-0.517-0.265-0.517-0.688c0-0.616,0.604-2.263,1.733-5.135c1.783-4.471,2.342-6.515,2.342-7.647
					c0-1.217-0.862-2.434-2.47-2.434c-4.13,0-8.127,5.484-9.43,7.476l-0.262-0.177c0.786-1.906,2.04-4.866,2.04-5.818
					c0-0.61-0.389-1.482-1.644-1.482c-2.92,0-5.239,1.802-6.511,3.057c-0.904-2.148-3.015-3.055-4.935-3.055
					c-2.338,0-4.421,0.872-6.169,2.786c-2.355,2.576-3.563,5.922-3.634,9.452c-0.032,0.023-0.062,0.062-0.089,0.105
					c-0.268,0.35-2.353,3.127-3.309,3.127c-0.26,0-0.435-0.257-0.516-0.605c0-0.692,0.856-2.521,1.739-5.042
					c1.303-3.736,2.382-6.213,2.382-7.478c0-0.994-0.825-2.341-2.382-2.341c-4,0-7.394,5.481-9.739,9.133l-0.349-0.175
					c0.683-1.564,2.308-5.298,2.308-6.914c0-1.041-0.922-2.044-2.397-2.044c-3.912,0-7.732,5.82-9.552,8.874l-0.352-0.184
					c0.356-1.044,2.78-5.908,2.78-7.123c0-0.962-0.559-1.566-1.863-1.566c-3.172,0-6.308,3.48-7.172,4.527
					c-0.095,0.173,0,0.258,0.087,0.435l0.518,0.435c0.178,0.163,0.352,0.163,0.527,0c0.348-0.527,2.601-2.616,3.126-2.616
					c0.392,0,0.56,0.263,0.56,0.61c0,0.647-1.211,3.394-2.216,6.089l0.02,0.039l-2.982,8.053c-0.133,0.347,0.091,0.519,0.352,0.519
					h2.73c0.352,0,0.564-0.086,0.65-0.347l1.438-3.741c0.694-1.562,1.388-2.781,1.995-3.649c2.52-3.654,5.912-7.308,6.958-7.308
					c0.564,0,0.954,0.352,0.907,0.869c0,0.613-1.078,3.48-2.217,6.523l-2.739,7.216c-0.088,0.259,0.092,0.435,0.437,0.435h2.738
					c0.351,0,0.562-0.084,0.656-0.347l1.344-3.74c0.6-1.477,1.389-2.606,1.65-3.042c2.688-4.082,6.162-7.999,7.203-7.999
					c0.614,0,0.922,0.352,0.922,0.872c0,0.698-0.529,2.174-1.87,5.562c-1.648,4.173-2.603,6.866-2.603,7.832
					c0,0.601,0.52,1.301,1.47,1.301c2.958,0,5.717-2.752,7.025-4.291c0.625,2.881,2.864,4.296,5.042,4.296
					c2.605,0,4.605-0.959,6.265-2.872c2.604-2.87,3.733-7.389,3.733-10.168c0-0.309-0.022-0.599-0.063-0.882
					c0.81-0.767,2.134-1.908,2.802-1.908c0.395,0,0.652,0.263,0.652,0.695c0,0.612-1.045,3.303-1.998,6.089l-2.961,8.038
					c-0.085,0.257-0.043,0.561,0.35,0.561h2.784c0.437,0,0.521-0.086,0.605-0.266l1.388-3.997c0.7-1.739,1.479-3.043,2.342-4.436
					c1.829-2.958,5.48-6.435,6.781-6.435c0.604,0,0.998,0.352,0.998,1.053c0,0.518-1.216,3.825-1.867,5.647
					c-1.388,3.825-2.605,6.778-2.605,7.565c0,0.776,0.521,1.303,1.473,1.303c3.399,0,4.958-1.967,5.669-1.501
					c0.552,0.914,1.914,1.501,4.054,1.501l0.002-0.013c3.926,0,6.608-2.433,6.608-5.819c0-2.003-0.785-3.518-1.652-4.7
					c-0.479-0.647-1.996-2.436-1.996-3.915c0-1.908,0.954-2.515,1.821-2.515c0.696,0,0.871,0.695,1.042,1.216
					c0.264,1.134,0.955,1.479,1.733,1.479c0.963,0,1.655-0.692,1.655-1.83c0-1.839-1.922-2.447-3.393-2.447l0.021,0.021h-0.012
					L243.364,49.138z M211.467,61.264l0.012,0.006c-1.7,2.837-3.26,4.045-4.97,4.038c-0.958,0-1.823-0.866-1.823-2.042
					c0-1.737,0.865-4.35,2.299-6.777c2.131-3.569,3.788-5.086,5.57-5.086c1.259,0,1.864,1.003,1.864,1.957
					c-0.008,1.561-1.362,5.168-2.961,7.901L211.467,61.264z"/>
			</g>
			<path id="tne-subhead-a" fill="#555555" d="M9.462,57.04c0.407-0.049,0.891-0.12,1.452-0.216c0.56-0.099,1.021-0.229,1.381-0.395
				c0.359-0.167,0.581-0.447,0.664-0.845c0.084-0.394,0.124-0.761,0.124-1.095c0-1.097-0.352-2.005-1.056-2.709
				c-0.704-0.706-1.894-1.057-3.566-1.057c-0.741,0-1.423,0.062-2.044,0.198c-0.622,0.131-1.166,0.353-1.631,0.682
				c-0.468,0.323-0.849,0.754-1.146,1.292c-0.3,0.538-0.498,1.217-0.593,2.026H0.86c0.07-1.098,0.322-2.041,0.753-2.815
				c0.431-0.774,0.986-1.41,1.668-1.9c0.684-0.487,1.469-0.848,2.365-1.076c0.896-0.227,1.846-0.342,2.851-0.342
				c0.933,0,1.811,0.104,2.635,0.307c0.824,0.203,1.542,0.525,2.151,0.973c0.607,0.443,1.087,1.034,1.432,1.774
				c0.348,0.742,0.519,1.646,0.519,2.722v10.113c0,0.836,0.148,1.368,0.447,1.594c0.3,0.229,0.903,0.173,1.812-0.161v1.684
				c-0.168,0.049-0.414,0.119-0.736,0.216c-0.322,0.097-0.642,0.145-0.949,0.145c-0.336,0-0.657-0.033-0.97-0.105
				c-0.356-0.049-0.642-0.161-0.859-0.342c-0.213-0.182-0.389-0.394-0.518-0.645c-0.133-0.25-0.225-0.52-0.269-0.822
				c-0.049-0.299-0.071-0.611-0.071-0.952c-0.909,1.009-1.95,1.77-3.121,2.299c-1.171,0.524-2.439,0.788-3.799,0.788
				c-0.811,0-1.594-0.106-2.347-0.322c-0.751-0.216-1.417-0.549-1.988-1.003c-0.573-0.455-1.028-1.015-1.364-1.668
				C0.167,64.728,0,63.944,0,63.035c0-3.154,2.164-5.019,6.487-5.592l2.975-0.408v0.04v-0.011V57.04L9.462,57.04z M13.081,58.114
				c-0.909,0.382-1.828,0.636-2.76,0.753c-0.933,0.12-1.864,0.218-2.795,0.287c-1.649,0.118-2.935,0.489-3.854,1.111
				c-0.92,0.621-1.38,1.565-1.38,2.837c0,0.569,0.111,1.065,0.339,1.482c0.228,0.424,0.525,0.768,0.896,1.046
				c0.371,0.269,0.802,0.476,1.291,0.604c0.488,0.13,0.985,0.197,1.488,0.197c0.86,0,1.697-0.106,2.508-0.322
				s1.536-0.543,2.169-0.987c0.634-0.437,1.142-1.003,1.524-1.68c0.38-0.684,0.572-1.487,0.572-2.423v-2.92h0.002v0.011V58.114z"/>
		</g>
		<g id="tne-everyday">
			<path id="path3617" fill="#1AB7B7" d="M190.185,33.293c-1.89,1.434-4.272,2.151-7.146,2.151c-2.016,0-3.769-0.326-5.25-0.975
				c-1.483-0.65-2.73-1.564-3.747-2.741c-1.009-1.171-1.761-2.571-2.27-4.203c-0.506-1.635-0.79-3.408-0.852-5.327
				c0-1.924,0.291-3.683,0.878-5.279c0.586-1.595,1.407-2.986,2.468-4.161c1.056-1.173,2.31-2.087,3.761-2.735
				c1.451-0.655,3.042-0.98,4.769-0.98c2.247,0,4.114,0.469,5.596,1.394c1.486,0.931,2.67,2.11,3.572,3.542
				c0.894,1.431,1.511,3,1.856,4.697c0.345,1.694,0.477,3.308,0.415,4.84h-18.896c-0.032,1.105,0.096,2.158,0.39,3.155
				c0.295,0.992,0.766,1.871,1.419,2.636c0.654,0.767,1.482,1.379,2.498,1.833c1.01,0.46,2.197,0.684,3.567,0.684
				c1.758,0,3.203-0.404,4.328-1.221c1.128-0.814,1.865-2.05,2.223-3.716h4.109c-0.533,2.842-1.761,4.98-3.646,6.413l-0.021,0.009
				L190.185,33.293z M189.178,17.07c-0.377-0.877-0.884-1.636-1.513-2.271c-0.637-0.637-1.388-1.139-2.25-1.514
				c-0.867-0.379-1.82-0.562-2.859-0.562c-1.078,0-2.049,0.188-2.915,0.562c-0.862,0.375-1.604,0.89-2.223,1.542
				c-0.615,0.652-1.105,1.412-1.464,2.273c-0.362,0.861-0.572,1.784-0.639,2.758h14.52c-0.067-0.965-0.287-1.896-0.668-2.772v-0.02
				L189.178,17.07z"/>
			<path id="path3619" fill="#1AB7B7" d="M204.745,34.912l-9.383-25.278h4.642l7.093,21.067h0.102l6.895-21.067h4.352l-9.24,25.278
				h-4.45v0.01v-0.01H204.745z"/>
			<path id="path3621" fill="#1AB7B7" d="M238.681,33.293c-1.889,1.434-4.271,2.151-7.145,2.151c-2.021,0-3.768-0.326-5.254-0.975
				c-1.479-0.65-2.722-1.564-3.733-2.741c-1.018-1.171-1.771-2.571-2.274-4.203c-0.514-1.635-0.795-3.408-0.855-5.327
				c0-1.924,0.292-3.683,0.884-5.279c0.589-1.595,1.41-2.986,2.464-4.161c1.064-1.173,2.319-2.087,3.77-2.735
				c1.448-0.655,3.041-0.98,4.77-0.98c2.251,0,4.113,0.469,5.597,1.394c1.483,0.931,2.674,2.11,3.57,3.542
				c0.893,1.431,1.513,3,1.853,4.697c0.347,1.694,0.485,3.308,0.419,4.84h-18.919c-0.032,1.105,0.106,2.158,0.394,3.155
				c0.297,0.992,0.769,1.871,1.422,2.636c0.653,0.767,1.484,1.379,2.49,1.833c1.015,0.46,2.204,0.684,3.576,0.684
				c1.76,0,3.207-0.404,4.329-1.221c1.121-0.814,1.861-2.05,2.216-3.716h4.107c-0.56,2.842-1.779,4.98-3.667,6.413h0.012v0.009
				L238.681,33.293z M237.673,17.07c-0.375-0.877-0.879-1.636-1.513-2.271c-0.642-0.637-1.387-1.139-2.255-1.514
				c-0.862-0.379-1.814-0.562-2.857-0.562c-1.078,0-2.052,0.188-2.919,0.562c-0.857,0.375-1.598,0.89-2.215,1.542
				c-0.625,0.652-1.111,1.412-1.471,2.273c-0.353,0.861-0.562,1.784-0.632,2.758h14.516c-0.08-0.965-0.289-1.896-0.672-2.772
				l0.014-0.02L237.673,17.07z"/>
			<path id="path3623" fill="#1AB7B7" d="M251.283,9.634v5.326h0.102c1.016-2.05,2.252-3.568,3.717-4.546
				c1.471-0.975,3.327-1.432,5.57-1.367v4.399c-1.659,0-3.08,0.228-4.249,0.683c-1.173,0.456-2.118,1.125-2.837,2.006
				c-0.713,0.881-1.23,1.949-1.557,3.203c-0.33,1.256-0.488,2.699-0.488,4.328V34.91h-4.156V9.632h3.915V9.621v0.011L251.283,9.634z
				"/>
			<path id="path3625" fill="#1AB7B7" d="M274.238,41.364c-0.474,0.846-0.99,1.54-1.556,2.079c-0.571,0.536-1.202,0.927-1.886,1.172
				c-0.685,0.244-1.506,0.367-2.448,0.367c-0.486,0-0.976-0.033-1.467-0.096c-0.492-0.066-0.966-0.186-1.421-0.351v-3.81
				c0.393,0.129,0.791,0.261,1.195,0.394c0.407,0.132,0.815,0.19,1.25,0.19c0.851,0,1.528-0.19,2.05-0.584
				c0.524-0.393,0.977-0.963,1.368-1.713l1.722-4.254L263.023,9.633h4.691l7.392,20.681h0.094l7.092-20.681h4.406l-10.999,28.599
				c-0.508,1.23-0.993,2.275-1.47,3.122l0.011,0.021v-0.011H274.238z"/>
			<path id="path3627" fill="#1AB7B7" d="M307.405,34.912v-3.421h-0.1c-0.683,1.401-1.76,2.414-3.227,3.036
				c-1.47,0.615-3.084,0.926-4.839,0.926c-1.96,0-3.662-0.356-5.115-1.075c-1.448-0.713-2.649-1.676-3.623-2.881
				c-0.958-1.207-1.677-2.606-2.174-4.205c-0.482-1.6-0.724-3.291-0.724-5.083c0-1.794,0.233-3.487,0.709-5.084
				c0.468-1.594,1.186-2.992,2.146-4.185c0.966-1.181,2.17-2.132,3.62-2.835c1.451-0.701,3.135-1.052,5.061-1.052
				c0.651,0,1.351,0.065,2.103,0.193c0.749,0.132,1.501,0.352,2.256,0.662c0.751,0.309,1.46,0.718,2.127,1.222
				c0.67,0.506,1.229,1.133,1.687,1.882h0.096V0h4.16v34.907h-4.158v0.009v-0.004H307.405z M292.479,25.937
				c0.31,1.125,0.78,2.126,1.416,3.004c0.637,0.882,1.45,1.583,2.445,2.101c0.994,0.522,2.161,0.783,3.499,0.783
				c1.396,0,2.59-0.274,3.563-0.831c0.979-0.555,1.774-1.277,2.398-2.174c0.618-0.897,1.062-1.917,1.35-3.054
				c0.268-1.14,0.412-2.298,0.412-3.471c0-1.24-0.145-2.437-0.435-3.593c-0.296-1.156-0.76-2.175-1.393-3.052
				c-0.639-0.882-1.458-1.595-2.467-2.128c-1.014-0.54-2.229-0.808-3.664-0.808c-1.397,0-2.59,0.276-3.567,0.832
				c-0.977,0.558-1.761,1.29-2.346,2.203c-0.588,0.913-1.016,1.956-1.271,3.128c-0.26,1.174-0.39,2.379-0.39,3.62
				c0,1.164,0.158,2.316,0.47,3.439h-0.012h0.012L292.479,25.937z"/>
			<path id="path3629" fill="#1AB7B7" d="M336.403,35.449c-1.073,0-1.926-0.3-2.567-0.903c-0.639-0.601-0.954-1.59-0.954-2.958
				c-1.139,1.368-2.465,2.355-3.989,2.958c-1.509,0.603-3.15,0.903-4.907,0.903c-1.141,0-2.216-0.119-3.22-0.364
				c-1.015-0.247-1.902-0.652-2.671-1.223c-0.765-0.568-1.369-1.303-1.806-2.202c-0.437-0.893-0.657-1.977-0.657-3.252
				c0-1.433,0.243-2.605,0.73-3.52c0.481-0.911,1.13-1.653,1.927-2.224c0.799-0.566,1.713-1.003,2.734-1.294
				c1.028-0.295,2.079-0.538,3.156-0.734c1.139-0.228,2.222-0.396,3.249-0.514c1.023-0.113,1.927-0.276,2.713-0.489
				c0.783-0.212,1.4-0.517,1.861-0.931c0.456-0.404,0.684-1.001,0.684-1.782c0-0.913-0.172-1.645-0.517-2.201
				c-0.344-0.556-0.782-0.976-1.319-1.27c-0.541-0.294-1.138-0.489-1.8-0.589c-0.674-0.101-1.333-0.146-1.983-0.146
				c-1.761,0-3.224,0.336-4.406,1.002c-1.169,0.672-1.802,1.932-1.901,3.788h-4.161c0.062-1.562,0.393-2.883,0.978-3.958
				c0.588-1.074,1.361-1.945,2.342-2.619c0.977-0.665,2.1-1.146,3.374-1.437c1.269-0.296,2.604-0.441,4.005-0.441
				c1.14,0,2.272,0.082,3.395,0.243c1.127,0.165,2.141,0.499,3.057,1.001c0.909,0.509,1.644,1.22,2.198,2.13
				c0.56,0.915,0.838,2.104,0.838,3.57v13.006c0,0.974,0.056,1.693,0.168,2.149c0.113,0.458,0.496,0.684,1.149,0.684
				c0.353,0,0.778-0.08,1.269-0.243v3.225c-0.726,0.43-1.72,0.643-2.997,0.643V35.44l-0.021,0.009L336.403,35.449z M330.578,22.706
				c-0.85,0.185-1.727,0.328-2.665,0.441c-0.93,0.113-1.868,0.243-2.81,0.391c-0.946,0.146-1.796,0.389-2.546,0.71
				c-0.749,0.325-1.362,0.792-1.833,1.393c-0.474,0.601-0.715,1.427-0.715,2.469c0,0.682,0.142,1.263,0.418,1.733
				c0.27,0.474,0.639,0.85,1.079,1.147c0.437,0.293,0.959,0.507,1.555,0.639c0.602,0.13,1.22,0.191,1.843,0.191
				c1.37,0,2.542-0.186,3.521-0.558c0.974-0.373,1.771-0.849,2.392-1.418c0.617-0.57,1.075-1.189,1.368-1.859
				c0.293-0.665,0.437-1.295,0.437-1.883v-4.251c-0.51,0.406-1.194,0.693-2.05,0.864L330.578,22.706v0.009V22.706z"/>
			<path id="path3631" fill="#1AB7B7" d="M350.508,41.364c-0.476,0.846-0.994,1.54-1.562,2.079c-0.573,0.536-1.2,0.927-1.886,1.172
				c-0.685,0.244-1.497,0.367-2.445,0.367c-0.484,0-0.973-0.033-1.468-0.096c-0.488-0.066-0.961-0.186-1.42-0.351v-3.81
				c0.395,0.129,0.789,0.261,1.197,0.394c0.404,0.132,0.823,0.19,1.247,0.19c0.851,0,1.534-0.19,2.056-0.584
				c0.516-0.393,0.972-0.963,1.365-1.713l1.713-4.254L339.28,9.633h4.698l7.383,20.681h0.104l7.086-20.681h4.399l-10.995,28.599
				c-0.496,1.23-0.982,2.275-1.449,3.122v0.021L350.508,41.364z"/>
		</g>
		<g id="tne-new">
			<path id="path3611" fill="#555555" d="M80.675,9.634v4.011h0.093c1.728-3.064,4.466-4.598,8.214-4.598
				c1.665,0,3.049,0.228,4.159,0.684c1.106,0.458,2.005,1.094,2.688,1.904c0.684,0.815,1.165,1.788,1.44,2.913
				c0.277,1.126,0.414,2.375,0.414,3.742v16.624h-4.153V17.808c0-1.566-0.456-2.803-1.371-3.718
				c-0.914-0.913-2.167-1.369-3.766-1.369c-1.265,0-2.367,0.198-3.294,0.589c-0.934,0.393-1.705,0.945-2.325,1.66
				c-0.619,0.723-1.082,1.557-1.394,2.518c-0.31,0.963-0.464,2.012-0.464,3.155v14.274H76.76V9.64h3.918l-0.001,0.01h0.009
				L80.675,9.634z"/>
			<path id="path3613" fill="#555555" d="M121.346,33.293c-1.888,1.434-4.271,2.151-7.14,2.151c-2.021,0-3.771-0.326-5.254-0.975
				c-1.484-0.65-2.726-1.564-3.741-2.741c-1.014-1.171-1.767-2.571-2.27-4.203c-0.508-1.635-0.791-3.408-0.857-5.327
				c0-1.924,0.294-3.683,0.881-5.279c0.587-1.595,1.408-2.986,2.466-4.161c1.059-1.173,2.313-2.087,3.766-2.735
				c1.451-0.655,3.037-0.98,4.769-0.98c2.249,0,4.111,0.469,5.596,1.394c1.483,0.931,2.672,2.11,3.57,3.542
				c0.895,1.431,1.515,3,1.855,4.697c0.341,1.694,0.48,3.308,0.417,4.84h-18.917c-0.037,1.105,0.093,2.158,0.388,3.155
				c0.294,0.992,0.766,1.871,1.42,2.636c0.648,0.767,1.48,1.379,2.491,1.833c1.014,0.46,2.201,0.684,3.569,0.684
				c1.764,0,3.204-0.404,4.328-1.221c1.126-0.814,1.863-2.05,2.22-3.716h4.11c-0.566,2.842-1.79,4.98-3.677,6.413h-0.011l0.01,0.009
				L121.346,33.293z M120.343,17.07c-0.375-0.877-0.877-1.636-1.516-2.271c-0.635-0.637-1.387-1.139-2.25-1.514
				c-0.862-0.379-1.818-0.562-2.86-0.562c-1.076,0-2.045,0.188-2.913,0.562c-0.856,0.375-1.602,0.89-2.216,1.542
				c-0.622,0.652-1.109,1.412-1.471,2.273c-0.357,0.861-0.567,1.784-0.633,2.758H121c-0.069-0.965-0.288-1.896-0.665-2.772
				l0.021-0.02L120.343,17.07z"/>
			<path id="path3615" fill="#555555" d="M149.606,34.912l-5.131-20.091h-0.1l-5.082,20.091h-4.5l-8.117-25.278h4.597l5.725,20.681
				h0.095l5.088-20.681h4.541l5.28,20.681h0.1l5.673-20.681h4.303l-8.069,25.278h-4.404H149.606z"/>
		</g>
		<g id="tne-the">
			<path id="path3605" fill="#23A59F" d="M13.509,9.684v2.589H8.377v17.013c0,1.013,0.141,1.801,0.413,2.371
				c0.277,0.573,0.972,0.891,2.081,0.952c0.88,0,1.759-0.049,2.638-0.144v2.588c-0.454,0-0.913,0.021-1.369,0.049
				c-0.455,0.03-0.913,0.055-1.372,0.055c-2.049,0-3.485-0.403-4.298-1.198c-0.814-0.804-1.208-2.273-1.177-4.428V12.304h-4.4V9.713
				h4.4V2.136h3.084v7.577h5.132v0.011V9.713V9.684z"/>
			<path id="path3607" fill="#23A59F" d="M20.983,0.003v14.035h0.1c0.587-1.533,1.63-2.764,3.127-3.693
				c1.503-0.933,3.147-1.393,4.941-1.393c1.76,0,3.233,0.227,4.424,0.684c1.187,0.458,2.143,1.1,2.858,1.93
				c0.72,0.829,1.222,1.849,1.514,3.054c0.295,1.207,0.439,2.562,0.439,4.059v16.229h-3.079V19.166c0-1.073-0.103-2.076-0.295-3.003
				c-0.194-0.93-0.54-1.739-1.029-2.423c-0.487-0.684-1.145-1.222-1.977-1.615c-0.83-0.394-1.866-0.585-3.107-0.585
				c-1.235,0-2.339,0.221-3.296,0.66c-0.963,0.438-1.776,1.043-2.446,1.806c-0.669,0.767-1.188,1.679-1.564,2.738
				c-0.371,1.06-0.575,2.21-0.608,3.447v14.719h-3.082V0.018h3.082h-0.003V0.003z"/>
			<path id="path3609" fill="#23A59F" d="M45.744,26.572c0.31,1.189,0.807,2.259,1.491,3.202c0.683,0.95,1.548,1.73,2.59,2.349
				c1.041,0.618,2.298,0.929,3.765,0.929c2.249,0,4.008-0.586,5.279-1.76c1.27-1.178,2.151-2.738,2.641-4.695h3.082
				c-0.658,2.87-1.85,5.085-3.596,6.649c-1.745,1.561-4.208,2.341-7.402,2.341c-1.99,0-3.709-0.352-5.158-1.052
				c-1.447-0.701-2.629-1.661-3.542-2.883c-0.917-1.222-1.592-2.636-2.028-4.251c-0.439-1.609-0.666-3.317-0.666-5.11
				c0-1.66,0.227-3.292,0.666-4.889c0.436-1.595,1.111-3.021,2.028-4.279c0.913-1.253,2.095-2.263,3.542-3.031
				c1.449-0.767,3.17-1.148,5.158-1.148c2.018,0,3.746,0.409,5.182,1.222c1.429,0.812,2.598,1.883,3.495,3.204
				c0.898,1.319,1.543,2.837,1.93,4.544c0.393,1.713,0.553,3.451,0.487,5.203H45.281c0,1.133,0.158,2.286,0.465,3.469h-0.002V26.572
				L45.744,26.572z M60.992,17.159c-0.373-1.073-0.901-2.025-1.584-2.856c-0.689-0.832-1.515-1.5-2.496-2.006
				c-0.978-0.505-2.089-0.758-3.324-0.758c-1.272,0-2.396,0.253-3.375,0.758c-0.979,0.506-1.808,1.174-2.497,2.006
				c-0.684,0.831-1.227,1.795-1.635,2.886c-0.406,1.089-0.679,2.206-0.808,3.344h16.329c-0.033-1.173-0.233-2.306-0.611-3.379
				L60.992,17.159z"/>
		</g>
	</g>
</g>
</svg>
